<svg width="315" height="63" viewBox="0 0 315 63" fill="none" xmlns="http://www.w3.org/2000/svg">
    <g clip-path="url(#clip0_2475_14636)">
        <path
            d="M128.426 62.9959H116.897C116.496 62.9959 116.112 62.8393 115.829 62.5608C115.545 62.2822 115.386 61.9043 115.386 61.5104V17.0939C115.385 16.8327 115.454 16.5758 115.586 16.3491C115.719 16.1225 115.909 15.9341 116.139 15.803C116.369 15.672 116.63 15.6028 116.896 15.6025C117.161 15.6023 117.423 15.6709 117.653 15.8016L129.181 22.3526C129.412 22.4835 129.603 22.672 129.736 22.8989C129.868 23.1259 129.938 23.3832 129.937 23.645V61.5104C129.937 61.9043 129.777 62.2822 129.494 62.5608C129.211 62.8393 128.826 62.9959 128.426 62.9959Z"
            fill="#373737" />
        <path
            d="M121.874 7.42835e-05H133.402C133.803 7.42835e-05 134.187 0.156581 134.471 0.435166C134.754 0.713751 134.913 1.09159 134.913 1.48557V45.902C134.916 46.1654 134.847 46.4248 134.714 46.6536C134.581 46.8824 134.389 47.0722 134.157 47.2038C133.924 47.3353 133.661 47.4037 133.393 47.4021C133.125 47.4004 132.862 47.3287 132.632 47.1944L121.103 40.6582C120.873 40.5273 120.681 40.3388 120.549 40.1119C120.416 39.8849 120.347 39.6275 120.348 39.3658V1.48557C120.348 1.28924 120.387 1.09485 120.464 0.913647C120.541 0.732443 120.654 0.568016 120.796 0.429879C120.938 0.291741 121.106 0.182632 121.291 0.108858C121.476 0.0350847 121.674 -0.00188906 121.874 7.42835e-05Z"
            fill="#F58634" />
        <path
            d="M129.17 22.3557L120.361 17.3496V39.3647C120.36 39.6265 120.429 39.8838 120.562 40.1108C120.695 40.3377 120.886 40.5262 121.116 40.6571L129.94 45.6632V23.6481C129.94 23.3849 129.868 23.1265 129.733 22.8994C129.597 22.6724 129.403 22.4847 129.17 22.3557Z"
            fill="#B93A38" />
        <path
            d="M12.0878 63.0004C10.4983 63.0253 8.92067 62.7267 7.45416 62.1234C5.98765 61.5201 4.6639 60.6251 3.56609 59.4946C2.42838 58.4156 1.52561 57.1205 0.912636 55.6879C0.299658 54.2553 -0.0107427 52.7151 0.000283793 51.161V17.0836C0.000283793 16.6897 0.15947 16.3118 0.442825 16.0332C0.726181 15.7547 1.11049 15.5981 1.51122 15.5981H11.2265C11.6273 15.5981 12.0116 15.7547 12.2949 16.0332C12.5783 16.3118 12.7375 16.6897 12.7375 17.0836V49.0219C12.7375 49.4158 12.8967 49.7937 13.18 50.0723C13.4634 50.3509 13.8477 50.5074 14.2484 50.5074H34.6611C35.0619 50.5074 35.4462 50.3509 35.7295 50.0723C36.0129 49.7937 36.1721 49.4158 36.1721 49.0219V17.1282C36.1721 16.7342 36.3313 16.3564 36.6146 16.0778C36.898 15.7992 37.2823 15.6427 37.683 15.6427H47.353C47.5514 15.6427 47.7479 15.6811 47.9312 15.7558C48.1145 15.8304 48.2811 15.9399 48.4214 16.0778C48.5617 16.2157 48.673 16.3795 48.7489 16.5597C48.8249 16.74 48.8639 16.9331 48.8639 17.1282V51.161C48.8789 52.713 48.5732 54.2519 47.9655 55.6843C47.3578 57.1168 46.4606 58.4131 45.3284 59.4946C44.2305 60.6251 42.9068 61.5201 41.4403 62.1234C39.9738 62.7267 38.3962 63.0253 36.8067 63.0004H12.0878Z"
            fill="#373737" />
        <path
            d="M69.7305 63.0019C68.143 63.0283 66.5672 62.7303 65.1029 62.1269C63.6386 61.5234 62.3177 60.6276 61.2239 59.4961C60.0917 58.4145 59.1945 57.1183 58.5868 55.6858C57.979 54.2533 57.6734 52.7145 57.6883 51.1625V34.5397C57.6883 34.1457 57.8475 33.7679 58.1309 33.4893C58.4142 33.2107 58.7985 33.0542 59.1993 33.0542H93.7846V29.593C93.7846 29.199 93.6254 28.8212 93.3421 28.5426C93.0587 28.264 92.6744 28.1075 92.2737 28.1075H59.1842C58.7834 28.1075 58.3991 27.951 58.1158 27.6724C57.8324 27.3938 57.6732 27.016 57.6732 26.622V17.0851C57.6732 16.6911 57.8324 16.3133 58.1158 16.0347C58.3991 15.7561 58.7834 15.5996 59.1842 15.5996H94.5098C97.7157 15.5996 100.79 16.8517 103.057 19.0804C105.324 21.309 106.597 24.3318 106.597 27.4836V61.5312C106.597 61.9252 106.438 62.3031 106.155 62.5816C105.871 62.8602 105.487 63.0167 105.086 63.0167L69.7305 63.0019ZM92.3945 50.5088C92.7953 50.5088 93.1796 50.3523 93.4629 50.0737C93.7463 49.7952 93.9055 49.4173 93.9055 49.0233V44.0172H71.9667C71.5659 44.0172 71.1816 44.1737 70.8983 44.4523C70.6149 44.7309 70.4557 45.1087 70.4557 45.5027V49.0233C70.4557 49.4173 70.6149 49.7952 70.8983 50.0737C71.1816 50.3523 71.5659 50.5088 71.9667 50.5088H92.3945Z"
            fill="#373737" />
        <path
            d="M155.867 63C152.669 62.9767 149.608 61.7171 147.346 59.4935C145.084 57.2698 143.803 54.2606 143.78 51.116V1.4855C143.78 1.09152 143.939 0.713676 144.222 0.435091C144.506 0.156506 144.89 0 145.291 0H154.991C155.392 0 155.776 0.156506 156.059 0.435091C156.343 0.713676 156.502 1.09152 156.502 1.4855V15.568H172.85C173.251 15.568 173.635 15.7245 173.918 16.0031C174.202 16.2817 174.361 16.6595 174.361 17.0535V26.6201C174.361 27.0141 174.202 27.392 173.918 27.6705C173.635 27.9491 173.251 28.1056 172.85 28.1056H156.487V49.0215C156.487 49.4154 156.646 49.7933 156.929 50.0719C157.213 50.3504 157.597 50.507 157.998 50.507H172.85C173.251 50.507 173.635 50.6635 173.918 50.942C174.202 51.2206 174.361 51.5985 174.361 51.9925V61.5293C174.361 61.9233 174.202 62.3012 173.918 62.5798C173.635 62.8583 173.251 63.0148 172.85 63.0148L155.867 63Z"
            fill="#373737" />
        <path
            d="M193.092 63C189.894 62.9767 186.833 61.7171 184.571 59.4935C182.309 57.2698 181.028 54.2606 181.005 51.116V1.4855C181.005 1.09152 181.164 0.713676 181.447 0.435091C181.731 0.156506 182.115 0 182.516 0H192.322C192.722 0 193.107 0.156506 193.39 0.435091C193.673 0.713676 193.833 1.09152 193.833 1.4855V49.0215C193.833 49.4154 193.992 49.7933 194.275 50.0719C194.558 50.3504 194.943 50.507 195.343 50.507H202.097C202.498 50.507 202.882 50.6635 203.166 50.942C203.449 51.2206 203.608 51.5985 203.608 51.9925V61.5739C203.608 61.9679 203.449 62.3457 203.166 62.6243C202.882 62.9029 202.498 63.0594 202.097 63.0594L193.092 63Z"
            fill="#373737" />
        <path
            d="M220.493 62.9948C218.904 63.0197 217.326 62.7211 215.86 62.1178C214.393 61.5145 213.069 60.6195 211.971 59.4891C210.853 58.4012 209.97 57.1021 209.375 55.6699C208.78 54.2378 208.487 52.7021 208.511 51.1554V34.4881C208.511 34.0941 208.671 33.7163 208.954 33.4377C209.237 33.1591 209.622 33.0026 210.022 33.0026H244.668V29.5711C244.668 29.1771 244.509 28.7993 244.226 28.5207C243.942 28.2421 243.558 28.0856 243.157 28.0856H209.917C209.516 28.0856 209.132 27.9291 208.848 27.6505C208.565 27.3719 208.406 26.9941 208.406 26.6001V17.0929C208.406 16.6989 208.565 16.3211 208.848 16.0425C209.132 15.7639 209.516 15.6074 209.917 15.6074H245.242C248.448 15.6074 251.523 16.8595 253.789 19.0882C256.056 21.3168 257.33 24.3396 257.33 27.4914V61.6579C257.33 62.0519 257.171 62.4297 256.887 62.7083C256.604 62.9869 256.22 63.1434 255.819 63.1434L220.493 62.9948ZM243.157 50.5018C243.558 50.5018 243.942 50.3453 244.226 50.0667C244.509 49.7881 244.668 49.4103 244.668 49.0163V43.9656H222.669C222.268 43.9656 221.884 44.1221 221.6 44.4007C221.317 44.6793 221.158 45.0571 221.158 45.4511V49.0163C221.158 49.4103 221.317 49.7881 221.6 50.0667C221.884 50.3453 222.268 50.5018 222.669 50.5018H243.157Z"
            fill="#373737" />
        <path
            d="M266.125 61.5294V1.4855C266.125 1.09152 266.285 0.713676 266.568 0.435091C266.851 0.156506 267.236 0 267.636 0H277.367C277.767 0 278.152 0.156506 278.435 0.435091C278.718 0.713676 278.878 1.09152 278.878 1.4855V15.5383H302.947C306.153 15.5383 309.227 16.7904 311.494 19.0191C313.761 21.2477 315.034 24.2705 315.034 27.4223V51.1903C315.049 52.7423 314.744 54.2812 314.136 55.7136C313.528 57.1461 312.631 58.4424 311.499 59.5239C310.401 60.6544 309.077 61.5494 307.611 62.1527C306.144 62.756 304.567 63.0546 302.977 63.0297H267.636C267.437 63.0297 267.239 62.9908 267.055 62.9152C266.87 62.8397 266.703 62.7289 266.562 62.5894C266.422 62.4499 266.311 62.2843 266.236 62.1024C266.161 61.9205 266.123 61.7257 266.125 61.5294ZM300.877 50.507C301.278 50.507 301.662 50.3505 301.945 50.0719C302.229 49.7933 302.388 49.4154 302.388 49.0215V29.606C302.388 29.212 302.229 28.8342 301.945 28.5556C301.662 28.277 301.278 28.1205 300.877 28.1205H278.847V49.0215C278.847 49.4154 279.007 49.7933 279.29 50.0719C279.573 50.3505 279.958 50.507 280.358 50.507H300.877Z"
            fill="#373737" />
    </g>
    <defs>
        <clipPath id="clip0_2475_14636">
            <rect width="315" height="63" fill="white" />
        </clipPath>
    </defs>
</svg>