<svg width="130" height="26" viewBox="0 0 130 26" fill="none" xmlns="http://www.w3.org/2000/svg">
<g clip-path="url(#clip0_2667_4060)">
<path d="M53.1187 25.9984H48.4066C48.2428 25.9984 48.0857 25.9338 47.9699 25.8189C47.8541 25.7039 47.789 25.548 47.789 25.3854V7.05478C47.7886 6.94696 47.8168 6.84093 47.8708 6.7474C47.9248 6.65386 48.0028 6.57612 48.0967 6.52202C48.1907 6.46793 48.2974 6.43938 48.406 6.43928C48.5146 6.43917 48.6213 6.4675 48.7154 6.52142L53.4275 9.22502C53.5218 9.27904 53.6 9.35681 53.6542 9.45048C53.7084 9.54414 53.7368 9.65036 53.7363 9.75839V25.3854C53.7363 25.548 53.6713 25.7039 53.5554 25.8189C53.4396 25.9338 53.2825 25.9984 53.1187 25.9984Z" fill="white"/>
<path d="M50.4384 3.06567e-05H55.1506C55.3144 3.06567e-05 55.4714 0.0646206 55.5873 0.179592C55.7031 0.294564 55.7681 0.450499 55.7681 0.613094V18.9437C55.7692 19.0524 55.7412 19.1595 55.6868 19.2539C55.6325 19.3483 55.5538 19.4266 55.4589 19.4809C55.364 19.5352 55.2563 19.5634 55.1467 19.5628C55.0372 19.5621 54.9298 19.5325 54.8356 19.477L50.1234 16.7796C50.0292 16.7255 49.951 16.6478 49.8968 16.5541C49.8425 16.4604 49.8142 16.3542 49.8146 16.2462V0.613094C49.8146 0.532067 49.8308 0.451843 49.8622 0.377061C49.8937 0.302278 49.9397 0.234419 49.9977 0.17741C50.0557 0.120401 50.1245 0.075372 50.2002 0.0449257C50.2758 0.0144794 50.3568 -0.000779614 50.4384 3.06567e-05Z" fill="#F58634"/>
<path d="M53.4191 9.22585L49.8186 7.15983V16.2454C49.8182 16.3534 49.8465 16.4597 49.9007 16.5533C49.955 16.647 50.0332 16.7248 50.1274 16.7788L53.7341 18.8448V9.75921C53.7339 9.65058 53.7046 9.54395 53.6493 9.45023C53.594 9.35652 53.5145 9.27908 53.4191 9.22585Z" fill="#B93A38"/>
<path d="M5.56389 26.0001C4.91418 26.0104 4.26936 25.8872 3.66994 25.6382C3.07051 25.3892 2.52944 25.0198 2.08072 24.5533C1.61569 24.108 1.24669 23.5735 0.99614 22.9823C0.745591 22.391 0.618717 21.7554 0.623224 21.114V7.05036C0.623224 6.88776 0.68829 6.73183 0.804109 6.61686C0.919929 6.50188 1.07701 6.43729 1.24081 6.43729H5.21187C5.37566 6.43729 5.53274 6.50188 5.64856 6.61686C5.76438 6.73183 5.82945 6.88776 5.82945 7.05036V20.2312C5.82945 20.3938 5.89452 20.5497 6.01033 20.6647C6.12615 20.7797 6.28324 20.8443 6.44703 20.8443H14.7906C14.9544 20.8443 15.1115 20.7797 15.2273 20.6647C15.3431 20.5497 15.4082 20.3938 15.4082 20.2312V7.06875C15.4082 6.90615 15.4732 6.75022 15.589 6.63525C15.7049 6.52028 15.8619 6.45569 16.0257 6.45569H19.9783C20.0594 6.45569 20.1397 6.47154 20.2146 6.50235C20.2895 6.53316 20.3576 6.57832 20.415 6.63525C20.4723 6.69218 20.5178 6.75976 20.5488 6.83414C20.5799 6.90852 20.5959 6.98824 20.5959 7.06875V21.114C20.602 21.7545 20.477 22.3896 20.2286 22.9808C19.9802 23.572 19.6135 24.1069 19.1507 24.5533C18.702 25.0198 18.1609 25.3892 17.5615 25.6382C16.9621 25.8872 16.3173 26.0104 15.6675 26.0001H5.56389Z" fill="white"/>
<path d="M29.1264 26.0004C28.4776 26.0113 27.8335 25.8883 27.2349 25.6393C26.6364 25.3902 26.0965 25.0205 25.6494 24.5536C25.1866 24.1072 24.8199 23.5722 24.5715 22.981C24.3231 22.3899 24.1982 21.7548 24.2043 21.1143V14.2541C24.2043 14.0915 24.2694 13.9356 24.3852 13.8206C24.501 13.7056 24.6581 13.641 24.8219 13.641H38.9584V12.2126C38.9584 12.05 38.8933 11.8941 38.7775 11.7791C38.6617 11.6641 38.5046 11.5995 38.3408 11.5995H24.8157C24.6519 11.5995 24.4948 11.5349 24.379 11.42C24.2632 11.305 24.1981 11.1491 24.1981 10.9865V7.05061C24.1981 6.88801 24.2632 6.73208 24.379 6.61711C24.4948 6.50214 24.6519 6.43755 24.8157 6.43755H39.2548C40.5651 6.43755 41.8218 6.95427 42.7484 7.87404C43.6749 8.79382 44.1955 10.0413 44.1955 11.3421V25.3935C44.1955 25.556 44.1304 25.712 44.0146 25.827C43.8988 25.9419 43.7417 26.0065 43.5779 26.0065L29.1264 26.0004ZM38.3902 20.8445C38.554 20.8445 38.7111 20.7799 38.8269 20.665C38.9427 20.55 39.0078 20.3941 39.0078 20.2315V18.1654H30.0405C29.8767 18.1654 29.7196 18.23 29.6038 18.345C29.4879 18.46 29.4229 18.6159 29.4229 18.7785V20.2315C29.4229 20.3941 29.4879 20.55 29.6038 20.665C29.7196 20.7799 29.8767 20.8445 30.0405 20.8445H38.3902Z" fill="white"/>
<path d="M64.3333 26C63.026 25.9904 61.7749 25.4706 60.8504 24.5529C59.926 23.6352 59.4023 22.3933 59.3926 21.0955V0.613063C59.3926 0.450469 59.4577 0.294533 59.5735 0.179562C59.6893 0.0645899 59.8464 0 60.0102 0H63.9751C64.1389 0 64.296 0.0645899 64.4118 0.179562C64.5276 0.294533 64.5927 0.450469 64.5927 0.613063V6.4249H71.2749C71.4387 6.4249 71.5958 6.48949 71.7116 6.60446C71.8274 6.71943 71.8925 6.87537 71.8925 7.03796V10.9861C71.8925 11.1487 71.8274 11.3046 71.7116 11.4196C71.5958 11.5346 71.4387 11.5992 71.2749 11.5992H64.5865V20.2311C64.5865 20.3937 64.6516 20.5496 64.7674 20.6646C64.8832 20.7796 65.0403 20.8441 65.2041 20.8441H71.2749C71.4387 20.8441 71.5958 20.9087 71.7116 21.0237C71.8274 21.1387 71.8925 21.2946 71.8925 21.4572V25.3931C71.8925 25.5557 71.8274 25.7116 71.7116 25.8266C71.5958 25.9415 71.4387 26.0061 71.2749 26.0061L64.3333 26Z" fill="white"/>
<path d="M79.5501 26C78.2427 25.9904 76.9916 25.4706 76.0672 24.5529C75.1427 23.6352 74.6191 22.3933 74.6094 21.0955V0.613063C74.6094 0.450469 74.6744 0.294533 74.7903 0.179562C74.9061 0.0645899 75.0632 0 75.227 0H79.2351C79.3989 0 79.556 0.0645899 79.6718 0.179562C79.7876 0.294533 79.8527 0.450469 79.8527 0.613063V20.2311C79.8527 20.3937 79.9177 20.5496 80.0336 20.6646C80.1494 20.7795 80.3065 20.8441 80.4703 20.8441H83.2309C83.3947 20.8441 83.5517 20.9087 83.6676 21.0237C83.7834 21.1387 83.8484 21.2946 83.8484 21.4572V25.4115C83.8484 25.5741 83.7834 25.73 83.6676 25.845C83.5517 25.9599 83.3947 26.0245 83.2309 26.0245L79.5501 26Z" fill="white"/>
<path d="M90.7475 25.9982C90.0978 26.0085 89.453 25.8853 88.8535 25.6363C88.2541 25.3873 87.713 25.0179 87.2643 24.5514C86.8071 24.1024 86.4461 23.5663 86.2031 22.9753C85.96 22.3842 85.8399 21.7504 85.8501 21.1121V14.2335C85.8501 14.071 85.9151 13.915 86.0309 13.8C86.1468 13.6851 86.3038 13.6205 86.4676 13.6205H100.629V12.2043C100.629 12.0417 100.564 11.8858 100.448 11.7708C100.332 11.6558 100.175 11.5912 100.011 11.5912H86.4244C86.2606 11.5912 86.1035 11.5267 85.9877 11.4117C85.8719 11.2967 85.8068 11.1408 85.8068 10.9782V7.05458C85.8068 6.89198 85.8719 6.73605 85.9877 6.62108C86.1035 6.50611 86.2606 6.44151 86.4244 6.44151H100.863C102.174 6.44151 103.431 6.95824 104.357 7.87801C105.284 8.79778 105.804 10.0453 105.804 11.346V25.4465C105.804 25.6091 105.739 25.765 105.623 25.88C105.507 25.9949 105.35 26.0595 105.187 26.0595L90.7475 25.9982ZM100.011 20.8424C100.175 20.8424 100.332 20.7778 100.448 20.6628C100.564 20.5478 100.629 20.3919 100.629 20.2293V18.1449H91.6368C91.473 18.1449 91.3159 18.2095 91.2001 18.3245C91.0843 18.4394 91.0192 18.5954 91.0192 18.7579V20.2293C91.0192 20.3919 91.0843 20.5478 91.2001 20.6628C91.3159 20.7778 91.473 20.8424 91.6368 20.8424H100.011Z" fill="white"/>
<path d="M109.398 25.3931V0.613063C109.398 0.450469 109.463 0.294533 109.579 0.179562C109.694 0.0645899 109.852 0 110.015 0H113.993C114.156 0 114.313 0.0645899 114.429 0.179562C114.545 0.294533 114.61 0.450469 114.61 0.613063V6.41264H124.448C125.759 6.41264 127.015 6.92936 127.942 7.84913C128.868 8.76891 129.389 10.0164 129.389 11.3171V21.1262C129.395 21.7667 129.27 22.4017 129.022 22.9929C128.773 23.5841 128.407 24.1191 127.944 24.5654C127.495 25.032 126.954 25.4013 126.355 25.6503C125.755 25.8993 125.11 26.0225 124.461 26.0123H110.015C109.934 26.0123 109.853 25.9962 109.778 25.965C109.702 25.9338 109.634 25.8881 109.576 25.8305C109.519 25.773 109.474 25.7047 109.443 25.6296C109.412 25.5545 109.397 25.4741 109.398 25.3931ZM123.602 20.8441C123.766 20.8441 123.923 20.7796 124.039 20.6646C124.155 20.5496 124.22 20.3937 124.22 20.2311V12.2183C124.22 12.0558 124.155 11.8998 124.039 11.7848C123.923 11.6699 123.766 11.6053 123.602 11.6053H114.598V20.2311C114.598 20.3937 114.663 20.5496 114.779 20.6646C114.894 20.7796 115.052 20.8441 115.215 20.8441H123.602Z" fill="white"/>
</g>
<defs>
<clipPath id="clip0_2667_4060">
<rect width="128.754" height="26" fill="white" transform="translate(0.623108)"/>
</clipPath>
</defs>
</svg>
