<svg width="430" height="80" viewBox="0 0 430 80" fill="none" xmlns="http://www.w3.org/2000/svg">
<g clip-path="url(#clip0_64_59)">
<path d="M128.155 21.8591C128.203 23.3065 127.142 24.5127 125.405 24.5127C123.861 24.5127 122.799 23.3547 122.799 21.8591C122.799 20.3151 123.957 19.1572 125.501 19.1572C127.142 19.1572 128.155 20.3151 128.155 21.8591ZM137.274 34.9342C137.274 32.4736 137.225 30.4954 137.081 28.5173H140.844L141.037 32.3288H141.182C142.484 30.0612 144.704 27.9865 148.612 27.9865C151.845 27.9865 154.305 29.9647 155.318 32.7631H155.415C156.139 31.4604 157.104 30.3989 158.069 29.6752C159.468 28.6138 161.06 27.9865 163.328 27.9865C166.464 27.9865 171.144 30.0612 171.144 38.2633V52.2552H166.946V38.7941C166.946 34.2588 165.257 31.5086 161.784 31.5086C159.323 31.5086 157.441 33.342 156.669 35.4167C156.476 35.9957 156.332 36.7676 156.332 37.5879V52.2552H152.134V38.0221C152.134 34.2588 150.445 31.5086 147.165 31.5086C144.463 31.5086 142.533 33.6798 141.809 35.8027C141.568 36.4299 141.471 37.1536 141.471 37.9256V52.2552H137.274V34.9342ZM183.013 41.1582C183.109 46.9962 186.824 49.4086 191.167 49.4086C194.254 49.4086 196.136 48.8779 197.728 48.2024L198.452 51.2902C196.956 51.9657 194.351 52.8342 190.539 52.8342C183.254 52.8342 178.863 47.9611 178.863 40.8205C178.863 33.6798 183.061 28.0348 190.009 28.0348C197.776 28.0348 199.803 34.8377 199.803 39.2283C199.803 40.0967 199.706 40.8205 199.658 41.2547H183.013V41.1582ZM195.654 38.0703C195.702 35.3202 194.544 31.0744 189.671 31.0744C185.329 31.0744 183.399 35.079 183.061 38.0703H195.654ZM207.619 34.9342C207.619 32.4736 207.571 30.4954 207.426 28.5173H211.238L211.479 32.4253H211.575C212.733 30.1577 215.483 27.9865 219.44 27.9865C222.721 27.9865 227.835 29.9647 227.835 38.0703V52.2552H223.541V38.5528C223.541 34.7412 222.142 31.5569 218.041 31.5569C215.194 31.5569 212.975 33.5833 212.251 35.9474C212.058 36.4782 211.961 37.2019 211.961 37.9738V52.2552H207.667V34.9342H207.619ZM249.788 40.145C245.108 40.0485 239.752 40.8687 239.752 45.5005C239.752 48.2989 241.634 49.6016 243.805 49.6016C245.542 49.6016 246.941 48.9743 247.906 48.0576C247.375 49.2156 247.038 50.47 246.941 51.7727C245.735 52.3999 244.287 52.7859 242.647 52.7859C237.822 52.7859 235.41 49.4086 235.41 45.983C235.41 40.2415 240.524 37.1054 249.691 37.1536V36.6711C249.691 34.693 249.16 31.1709 244.287 31.1709C242.068 31.1709 239.8 31.8464 238.112 32.9561L237.147 30.1094C239.125 28.855 241.972 27.9865 244.963 27.9865C252.2 27.9865 253.985 32.9561 253.985 37.6844V42.3161C252.297 42.9916 250.801 44.1013 249.643 45.4523C249.739 45.0663 249.836 44.632 249.836 44.2461V40.145H249.788ZM123.378 28.5173H127.672V52.2552H123.378V28.5173Z" fill="#A1A1A4"/>
<path d="M263.586 42.7988V28.7104H265.901V41.9304C265.901 42.8953 265.95 43.7638 266.094 44.6322C265.322 43.9085 264.454 43.3295 263.586 42.7988ZM306.864 46.6586C306.864 48.5403 306.96 50.422 307.202 52.2554H305.079L304.741 48.878H304.596C303.487 50.7115 300.881 52.7861 297.118 52.7861C292.39 52.7861 290.218 49.457 290.218 46.3209C290.218 40.8689 295.043 37.5881 304.596 37.6845V37.1056C304.596 34.7414 304.162 30.1096 298.565 30.1579C296.491 30.1579 294.368 30.6886 292.679 31.9431L291.955 30.2061C294.078 28.8069 296.732 28.1797 298.806 28.1797C305.609 28.1797 306.912 33.294 306.912 37.4916V46.6586H306.864ZM304.548 39.6627C299.385 39.518 292.631 40.2899 292.631 45.9349C292.631 49.3123 294.898 50.8562 297.359 50.8562C301.267 50.8562 303.487 48.4438 304.307 46.1279C304.451 45.6454 304.548 45.163 304.548 44.7287V39.6627ZM281.872 46.5139C281.872 48.5886 281.968 50.422 282.064 52.2554H279.893L279.749 48.1061H279.652C278.494 50.2772 275.792 52.8344 271.546 52.8344C270.919 52.8344 270.196 52.7861 269.472 52.5931C269.472 51.7247 269.327 50.9045 269.134 50.1325C269.954 50.5667 270.919 50.808 272.125 50.808C275.551 50.808 278.06 48.3956 279.025 46.0314C279.266 45.3077 279.507 44.3427 279.507 43.426V28.7104H281.823V46.5139H281.872Z" fill="#141006"/>
<path d="M265.612 52.7377C265.612 56.8388 262.283 60.1196 258.23 60.1196C254.129 60.1196 250.848 56.7905 250.848 52.7377C250.848 48.6367 254.177 45.3076 258.23 45.3076C262.283 45.3558 265.612 48.6849 265.612 52.7377Z" fill="#00A4E4"/>
</g>
<defs>
<clipPath id="clip0_64_59">
<rect width="429" height="80" fill="white" transform="translate(0.5)"/>
</clipPath>
</defs>
</svg>
