<svg width="421" height="80" viewBox="0 0 421 80" fill="none" xmlns="http://www.w3.org/2000/svg">
<g clip-path="url(#clip0_64_44)">
<path d="M184.769 52.5872C182.682 54.5552 179.957 55.5399 176.592 55.5411C173.228 55.5423 170.501 54.5577 168.413 52.5872C166.324 50.6167 165.28 47.9813 165.281 44.681V24.6104H168.326V44.681C168.326 47.1142 169.051 49.0395 170.501 50.4571C171.95 51.8747 173.981 52.5847 176.592 52.5872C179.201 52.5872 181.231 51.8772 182.682 50.4571C184.133 49.0371 184.858 47.1117 184.858 44.681V24.6104H187.903V44.681C187.903 47.9825 186.858 50.6179 184.769 52.5872Z" fill="#333333"/>
<path d="M204.173 32.7783C206.811 32.7783 208.893 33.5823 210.417 35.1904C211.94 36.7984 212.702 38.9632 212.701 41.6845V55.029H209.828V41.6827C209.828 39.7443 209.314 38.2383 208.285 37.1646C207.255 36.0909 205.798 35.5553 203.911 35.5578C201.824 35.5578 200.128 36.2164 198.822 37.5338C197.515 38.8512 196.863 40.886 196.864 43.6383V55.029H193.986V33.2997H196.857V36.6877C198.486 34.0802 200.925 32.777 204.173 32.7783Z" fill="#333333"/>
<path d="M221.182 28.0861C220.89 28.3795 220.517 28.5793 220.111 28.6601C219.705 28.741 219.284 28.6992 218.901 28.54C218.519 28.3809 218.193 28.1116 217.964 27.7664C217.735 27.4213 217.614 27.0158 217.616 26.6017C217.608 26.3222 217.656 26.0439 217.757 25.7833C217.858 25.5226 218.011 25.2849 218.205 25.0843C218.4 24.8837 218.633 24.7242 218.891 24.6152C219.148 24.5063 219.425 24.4502 219.704 24.4502C219.984 24.4502 220.261 24.5063 220.518 24.6152C220.776 24.7242 221.009 24.8837 221.204 25.0843C221.398 25.2849 221.551 25.5226 221.652 25.7833C221.753 26.0439 221.801 26.3222 221.793 26.6017C221.799 26.8778 221.748 27.1522 221.643 27.4076C221.537 27.663 221.381 27.894 221.182 28.0861ZM218.269 55.0293V33.3H221.14V55.0293H218.269Z" fill="#333333"/>
<g style="mix-blend-mode:multiply">
<path d="M247.026 24.5234V29.303H238.454V54.9326H233.444V29.303H224.838V24.5234H247.026Z" fill="#EF3C54"/>
<path d="M263.73 33.2129H268.428V54.933H263.73V51.8047C261.96 54.2663 259.424 55.497 256.122 55.497C253.135 55.497 250.583 54.3894 248.465 52.174C246.347 49.9586 245.287 47.2612 245.285 44.0822C245.285 40.8661 246.343 38.1583 248.459 35.959C250.576 33.7596 253.128 32.6587 256.117 32.6562C259.421 32.6562 261.957 33.8729 263.724 36.306L263.73 33.2129ZM251.94 49.0457C253.244 50.3655 254.882 51.0247 256.855 51.0235C258.828 51.0223 260.467 50.3631 261.772 49.0457C263.076 47.7283 263.729 46.0706 263.73 44.0729C263.731 42.0752 263.079 40.417 261.772 39.0984C260.466 37.781 258.827 37.1223 256.855 37.1223C254.884 37.1223 253.245 37.781 251.94 39.0984C250.634 40.4183 249.981 42.0795 249.983 44.0822C249.984 46.0849 250.636 47.7394 251.94 49.0457Z" fill="#EF3C54"/>
<path d="M273.91 54.9326V24.5234H278.608V54.9326H273.91Z" fill="#EF3C54"/>
<path d="M303.276 54.9326H297.663L288.745 44.8983V54.9326H284.047V24.5234H288.745V42.8127L297.184 33.2125H302.936L293.366 43.8555L303.276 54.9326Z" fill="#EF3C54"/>
</g>
<path d="M156.705 47.4846C157.902 45.304 158.559 42.8681 158.619 40.3813C158.679 37.8946 158.142 35.4297 157.052 33.1937C155.962 30.9577 154.352 29.0159 152.356 27.5314C150.36 26.0468 148.037 25.0629 145.582 24.6623C144.756 24.528 143.92 24.4604 143.083 24.46C142.246 24.4604 141.411 24.5281 140.585 24.6623C140.214 24.7198 139.861 24.7922 139.505 24.8757C139.796 24.9994 140.082 25.1268 140.364 25.2579C140.5 25.3228 140.635 25.3915 140.769 25.4601C141.175 25.6717 141.574 25.898 141.96 26.143C142.331 26.1133 142.702 26.0966 143.083 26.0966C145.342 26.0985 147.568 26.6508 149.566 27.7057C151.565 28.7606 153.277 30.2864 154.553 32.1512C155.83 34.0159 156.633 36.1636 156.894 38.4084C157.154 40.6532 156.864 42.9278 156.049 45.0353C155.89 45.4386 155.716 45.8313 155.525 46.2136C155.377 46.5092 155.219 46.798 155.052 47.0801C154.997 47.1735 154.962 47.2769 154.947 47.3842C154.932 47.4915 154.939 47.6007 154.967 47.7054L155.152 48.4234L155.423 49.4365L155.687 50.4199L156.507 53.4146L153.501 52.6168L152.518 52.3533L151.497 52.0768L150.779 51.8913C150.674 51.8635 150.565 51.8568 150.458 51.8714C150.351 51.8861 150.247 51.9218 150.154 51.9767C149.872 52.1436 149.583 52.3014 149.287 52.4498C148.903 52.6353 148.512 52.8209 148.109 52.973C147.502 53.2071 146.88 53.3981 146.246 53.5445C145.212 53.7845 144.154 53.9059 143.092 53.9063C142.721 53.9063 142.34 53.8896 141.969 53.86C141.52 53.8247 141.077 53.7672 140.639 53.6911C140.4 53.6484 140.164 53.5983 139.928 53.5445C139.743 53.5018 139.557 53.4536 139.372 53.4035C138.965 53.2922 138.568 53.1623 138.177 53.0139C137.604 52.7998 137.046 52.5475 136.507 52.2587C136.889 52.1585 137.266 52.0397 137.633 51.9043C137.885 51.8115 138.136 51.7187 138.375 51.6018C138.564 51.5166 138.713 51.3628 138.793 51.1716C138.872 50.9804 138.876 50.7661 138.804 50.5721L136.601 44.6346C136.543 44.4779 136.439 44.3428 136.302 44.2473C136.165 44.1517 136.002 44.1004 135.835 44.1002H133.21C133.21 44.1002 132.451 41.7048 132.451 40.0182C132.424 38.6146 132.702 37.2221 133.265 35.9361H135.85C136.017 35.9359 136.18 35.8846 136.317 35.789C136.454 35.6935 136.558 35.5584 136.616 35.4017L138.819 29.4642C138.891 29.2702 138.887 29.0559 138.808 28.8647C138.728 28.6735 138.579 28.5197 138.39 28.4345C138.143 28.325 137.893 28.2248 137.648 28.132C137.277 27.9966 136.906 27.8778 136.522 27.7776C136.128 27.6728 135.73 27.588 135.329 27.5234C134.915 27.4566 134.494 27.4084 134.065 27.3824C132.362 28.5936 130.921 30.136 129.829 31.9173C128.736 33.6986 128.014 35.682 127.706 37.7489C127.675 37.9549 127.649 38.1627 127.626 38.3705C127.571 38.9117 127.543 39.4555 127.543 39.9996C127.541 43.799 128.934 47.4669 131.458 50.3067C131.692 50.5684 131.933 50.8244 132.184 51.0693C132.434 51.3142 132.644 51.5109 132.885 51.7206C133.256 52.049 133.655 52.3607 134.063 52.6483C134.598 53.0284 135.155 53.3748 135.733 53.6855C136.12 53.8933 136.518 54.0857 136.926 54.2626C137.334 54.4395 137.754 54.6003 138.186 54.745C138.621 54.8897 139.065 55.0134 139.516 55.1161C139.873 55.1996 140.233 55.272 140.596 55.3295C141.422 55.4637 142.257 55.5314 143.094 55.5317C143.931 55.5314 144.767 55.4637 145.593 55.3295C147.337 55.0493 149.02 54.4719 150.569 53.6225L157.585 55.502C157.724 55.5392 157.87 55.5391 158.008 55.5019C158.147 55.4647 158.273 55.3917 158.375 55.2902C158.477 55.1887 158.55 55.0622 158.587 54.9235C158.624 54.7848 158.624 54.6388 158.587 54.5001L156.705 47.4846Z" fill="#292424"/>
<path d="M148.722 38.3727C148.702 38.1631 148.674 37.9553 148.644 37.7493C148.322 35.5704 147.54 33.4847 146.353 31.6297C145.165 29.7747 143.597 28.1926 141.753 26.9876C141.382 26.7501 141.011 26.5256 140.629 26.3178C140.443 26.2213 140.258 26.1322 140.072 26.0357C139.887 25.9392 139.647 25.8335 139.43 25.7407C139.018 25.5552 138.599 25.4012 138.168 25.2583C137.738 25.1154 137.291 24.9874 136.84 24.8872C133.914 24.1959 130.85 24.368 128.02 25.3827C125.189 26.3974 122.714 28.2112 120.894 30.6042C119.073 32.9972 117.986 35.8668 117.763 38.8653C117.541 41.8637 118.193 44.8624 119.64 47.4979L117.766 54.5005C117.729 54.6391 117.73 54.7849 117.767 54.9233C117.805 55.0617 117.878 55.1879 117.979 55.2893C118.08 55.3906 118.206 55.4637 118.345 55.5011C118.483 55.5385 118.629 55.5389 118.768 55.5024L125.783 53.6228C129.158 55.4737 133.099 56.0092 136.846 55.1258C136.415 54.9476 135.994 54.7528 135.582 54.5413C135.174 54.3298 134.777 54.1034 134.391 53.8585C134.02 53.8882 133.649 53.9049 133.277 53.9049C131.556 53.9064 129.849 53.588 128.244 52.966C127.841 52.8083 127.449 52.6339 127.065 52.4428C126.77 52.2943 126.481 52.1366 126.199 51.9696C126.105 51.9148 126.002 51.879 125.895 51.8644C125.787 51.8497 125.678 51.8565 125.574 51.8843L124.856 52.0698L123.842 52.3407L122.85 52.6172L119.853 53.415L120.657 50.4203L120.92 49.435L121.191 48.422L121.377 47.7058C121.404 47.6008 121.411 47.4913 121.396 47.3837C121.382 47.276 121.346 47.1723 121.291 47.0786C121.124 46.7966 120.966 46.5077 120.818 46.2121C120.628 45.8299 120.453 45.4371 120.295 45.0339C119.479 42.9257 119.189 40.6505 119.45 38.4051C119.711 36.1597 120.515 34.0116 121.792 32.1466C123.07 30.2817 124.782 28.7561 126.782 27.7017C128.781 26.6473 131.008 26.0958 133.268 26.0951C133.639 26.0951 134.01 26.1118 134.381 26.1415C134.831 26.1767 135.274 26.2343 135.712 26.3103C136.15 26.3864 136.56 26.4829 136.972 26.5979C137.384 26.713 137.775 26.8391 138.165 26.9876C138.554 27.136 138.926 27.2919 139.291 27.4682L139.497 27.5721C140.485 28.0693 141.411 28.6822 142.254 29.3978C142.536 29.639 142.811 29.8895 143.073 30.1512C145.51 32.5716 146.961 35.8123 147.142 39.243C147.155 39.4675 147.16 39.6957 147.162 39.9239V40C147.165 41.8261 146.808 43.6348 146.11 45.3224C145.412 47.0099 144.388 48.5431 143.097 49.834H143.073V49.8618C142.825 50.1092 142.565 50.3492 142.293 50.5817L142.254 50.6151C142.007 50.8217 141.759 51.0196 141.512 51.2089C140.879 51.6725 140.208 52.0816 139.506 52.4316L139.3 52.5355C139.391 52.5615 139.486 52.5893 139.573 52.6135C139.875 52.6963 140.181 52.7699 140.492 52.8343C140.905 52.9159 141.327 52.9808 141.753 53.0198C142.213 52.7195 142.656 52.3949 143.082 52.0475C143.214 51.9418 143.343 51.8323 143.471 51.721C143.713 51.5113 143.945 51.2942 144.173 51.0697C144.358 50.8842 144.544 50.6986 144.716 50.5131L144.902 50.3127C146.488 48.5232 147.638 46.3905 148.262 44.082C148.305 43.9262 148.346 43.7703 148.383 43.6126C148.792 41.8953 148.907 40.121 148.722 38.3653V38.3727Z" fill="#EF3C54"/>
</g>
<defs>
<clipPath id="clip0_64_44">
<rect width="420" height="80" fill="white" transform="translate(0.5)"/>
</clipPath>
</defs>
</svg>
