<svg width="430" height="80" viewBox="0 0 430 80" fill="none" xmlns="http://www.w3.org/2000/svg">
<g clip-path="url(#clip0_64_33)">
<mask id="mask0_64_33" style="mask-type:luminance" maskUnits="userSpaceOnUse" x="130" y="28" width="170" height="24">
<path d="M300 28.0283H130V51.9724H300V28.0283Z" fill="white"/>
</mask>
<g mask="url(#mask0_64_33)">
<path d="M147.662 49.1624C147.002 50.9357 146.409 51.9716 144.37 51.9716C142.16 51.9716 141.631 50.6306 141.071 49.1624L135.172 33.5443C135.073 33.2784 134.811 32.7742 134.612 32.7742C134.25 32.7742 134.25 33.3764 134.25 33.476L134.349 51.7021H130V31.1041C130 28.0609 133.061 28.0283 133.721 28.0283C136.392 28.0283 137.148 29.402 137.775 31.0372L143.738 46.6554C143.936 47.1552 144.167 47.5242 144.369 47.5242C144.565 47.5242 144.795 47.1552 144.99 46.6554L150.955 31.0372C151.946 28.3944 153.364 28.0283 155.01 28.0283C157.152 28.0283 158.735 28.9647 158.735 31.1041V51.7021H154.386L154.521 33.476C154.521 32.8418 154.256 32.7742 154.121 32.7742C153.89 32.7742 153.659 33.2776 153.563 33.5443L147.662 49.1624ZM162.691 51.9723V28.5644H167.039V51.9723H162.691ZM170.998 32.5403C170.998 31.5726 171.03 30.4052 171.952 29.5008C172.775 28.6959 173.861 28.5644 174.719 28.5644H185.662C187.276 28.5644 189.251 28.6639 190.603 30.7031C191.692 32.31 191.756 34.1472 191.756 35.8537C191.756 37.5594 191.483 38.8263 190.802 39.8252C190.08 40.8859 189.058 41.9755 186.418 41.9755H182.364V42.1426L192.218 51.9716H186.748L178.081 42.811C177.621 42.3439 176.993 41.507 176.993 40.8401V40.304C176.993 39.3676 177.688 38.7007 178.936 38.7007H183.285C184.048 38.7007 186.173 38.6694 186.782 37.7403C187.044 37.3386 187.275 36.8206 187.275 36.0193C187.275 34.1785 187.048 33.2348 186.588 32.7662C185.896 32.0637 184.704 32.071 184.012 32.071H176.96C176.5 32.071 176.17 32.1066 175.804 32.44C175.347 32.8418 175.347 33.2776 175.347 33.7455V51.9716H170.998V32.5403ZM197.828 39.9996C197.828 36.421 198.353 34.5831 199.247 33.4455C200.594 31.7383 202.769 31.54 205.174 31.54C207.518 31.54 209.789 31.7383 211.144 33.4455C211.868 34.3492 212.563 35.9561 212.563 39.9996C212.563 43.7779 211.903 45.5519 211.144 46.5195C209.754 48.2907 207.547 48.4606 205.174 48.4606C202.769 48.4606 200.594 48.2914 199.247 46.5195C198.488 45.5519 197.828 43.8135 197.828 39.9996ZM205.21 28.0283C202.41 28.0283 198.586 28.0283 196.015 30.504C193.508 32.9101 193.344 36.8213 193.344 39.9996C193.344 42.6424 193.344 46.8879 196.015 49.4958C198.551 51.9716 202.475 51.9716 205.21 51.9716C207.881 51.9716 211.903 51.9716 214.4 49.4958C216.776 47.1545 217.039 43.0754 217.039 39.9996C217.039 36.9252 216.812 32.8418 214.4 30.504C211.868 28.0283 207.945 28.0283 205.21 28.0283Z" fill="black"/>
<path d="M235.469 28.1032V38.4603H221.97V28.1032H219.025V51.9645H221.97V41.2121H235.469V51.9645H238.421V28.1032H235.469ZM251.772 27.8438C249.65 27.8438 245.692 27.8438 243.06 30.4802C240.201 33.3417 240.201 37.8617 240.201 40.0324C240.201 42.2016 240.201 46.7215 243.06 49.5882C245.692 52.2201 249.65 52.2201 251.772 52.2201C253.893 52.2201 257.844 52.2201 260.483 49.5882C263.343 46.7222 263.343 42.2016 263.343 40.0324C263.343 37.8617 263.343 33.3417 260.483 30.4802C257.845 27.8438 253.893 27.8438 251.772 27.8438ZM258.476 47.5026C256.717 49.4662 253.859 49.4662 251.772 49.4662C249.684 49.4662 246.827 49.4661 245.061 47.4981C243.408 45.6464 243.273 42.9084 243.273 40.0324C243.273 37.1549 243.408 34.4176 245.061 32.5658C246.827 30.5935 249.686 30.5935 251.772 30.5935C253.857 30.5935 256.717 30.5935 258.483 32.5658C260.135 34.4176 260.27 37.1549 260.27 40.0324C260.27 42.9077 260.136 45.6472 258.476 47.5026ZM299.396 28.1032H269.345C267.188 28.1032 265.918 28.9016 265.364 29.3767C263.825 30.664 263.626 32.3908 263.626 33.7507C263.626 34.8643 263.761 36.4981 264.91 37.805C265.549 38.5496 266.634 39.21 267.953 39.6597L276.985 42.7668C279.24 43.5506 279.425 44.6599 279.425 45.924C279.425 49.2126 277.985 49.2126 277.375 49.2126H263.988V51.9645H277.175C278.558 51.9645 280.12 51.7595 281.282 50.2332C282.418 48.765 282.503 46.5255 282.503 45.8731C282.503 44.1572 281.957 42.7412 280.921 41.7663C280.061 40.9425 278.82 40.4574 277.409 39.9546L268.598 36.8475C266.83 36.2118 266.704 35.2363 266.704 33.8175C266.704 33.1361 266.704 32.1074 267.23 31.5328C267.599 31.1354 268.394 30.8557 269.146 30.8557H287.569V51.9645H290.514V30.8557H299.999V28.1032H299.396Z" fill="#AC162C"/>
</g>
</g>
<defs>
<clipPath id="clip0_64_33">
<rect width="429" height="80" fill="white" transform="translate(0.5)"/>
</clipPath>
</defs>
</svg>
