<svg width="430" height="80" viewBox="0 0 430 80" fill="none" xmlns="http://www.w3.org/2000/svg">
<g clip-path="url(#clip0_64_2)">
<path d="M143.046 47.6889L141.111 42.6305L139.447 37.8438H139.244V53.6299H135V26.3691H139.108L142.061 34.1434L144.2 40.0504H144.404L146.61 33.9736L149.564 26.3691H153.638V53.6299H149.394V37.9456H149.224L147.493 42.8003L145.592 47.6889H143.046Z" fill="black"/>
<path d="M179.88 53.664L178.828 47.9946H173.803C173.634 48.9452 173.43 49.8957 173.26 50.8463C173.09 51.7969 172.921 52.7474 172.785 53.698H168.473C169.39 49.1149 170.307 44.5658 171.223 40.0506C172.14 35.5355 173.056 30.9863 173.973 26.4033H178.692L184.226 53.664H179.88ZM176.18 32.6838C175.908 34.5509 175.637 36.4521 175.365 38.3192C175.093 40.1864 174.754 42.0875 174.414 44.0226H178.149L176.383 32.6838H176.18Z" fill="black"/>
<path d="M211.961 45.8898C211.961 47.1119 211.859 48.2322 211.621 49.2168C211.383 50.2013 211.01 51.016 210.501 51.729C209.992 52.4079 209.279 52.9511 208.396 53.3245C207.513 53.698 206.427 53.9017 205.171 53.9017C203.983 53.9017 202.964 53.7319 202.115 53.3924C201.267 53.053 200.554 52.5777 200.011 52.0005C199.467 51.4234 199.06 50.7105 198.822 49.8957C198.585 49.081 198.449 48.2322 198.449 47.3156L202.693 46.5009C202.76 47.5193 202.93 48.3341 203.27 48.9791C203.609 49.6241 204.254 49.9297 205.239 49.9297C205.816 49.9297 206.257 49.8278 206.597 49.5902C206.936 49.3525 207.174 49.081 207.344 48.7075C207.513 48.3341 207.615 47.9267 207.649 47.4514C207.683 46.9761 207.717 46.4669 207.717 45.9577C207.717 45.3127 207.683 44.7695 207.615 44.2942C207.547 43.8529 207.378 43.4794 207.174 43.1399C206.936 42.8344 206.631 42.5628 206.223 42.3252C205.816 42.0875 205.273 41.8159 204.628 41.5444C203.338 41.0012 202.285 40.4241 201.47 39.8469C200.69 39.2698 200.079 38.6587 199.637 38.0137C199.23 37.3687 198.958 36.6897 198.822 35.9768C198.687 35.2639 198.619 34.4491 198.619 33.6004C198.619 32.514 198.755 31.4956 199.026 30.5789C199.298 29.6623 199.705 28.8815 200.248 28.2025C200.791 27.5236 201.504 27.0143 202.353 26.6409C203.202 26.2675 204.22 26.0977 205.408 26.0977C206.699 26.0977 207.751 26.3014 208.6 26.7088C209.448 27.1162 210.093 27.6254 210.603 28.2704C211.112 28.9155 211.451 29.5944 211.655 30.3413C211.859 31.0882 211.961 31.835 211.961 32.548L207.717 33.5664C207.717 32.5819 207.547 31.7671 207.208 31.1221C206.868 30.511 206.223 30.1716 205.239 30.1716C204.73 30.1716 204.322 30.2734 204.017 30.4771C203.711 30.6808 203.473 30.9524 203.304 31.2919C203.134 31.6314 202.998 32.0048 202.964 32.3782C202.896 32.7856 202.896 33.159 202.896 33.5664C202.896 34.0417 202.93 34.4491 202.964 34.7886C203.032 35.1281 203.168 35.4676 203.406 35.7731C203.643 36.0786 204.017 36.3842 204.526 36.7237C205.035 37.0292 205.714 37.3687 206.563 37.7082C207.751 38.1834 208.735 38.6927 209.448 39.2019C210.161 39.7451 210.704 40.3222 211.078 40.9672C211.451 41.6123 211.689 42.3252 211.791 43.106C211.893 43.9547 211.961 44.8713 211.961 45.8898Z" fill="black"/>
<path d="M234.402 30.3411V53.6638H230.192V30.3411H225.779V26.3691H238.781V30.3411H234.402Z" fill="black"/>
<path d="M253.549 53.6638V26.3691H265.668V30.3411H257.792V37.7759H264.65V41.8158H257.792V49.6919H265.668V53.6638H253.549Z" fill="black"/>
<path d="M287.157 26.3691C289.364 26.3691 291.129 26.9802 292.385 28.2363C293.641 29.4924 294.252 31.4954 294.252 34.2792C294.252 36.0105 294.014 37.4703 293.539 38.6585C293.064 39.8467 292.215 40.7973 290.959 41.4763L294.999 53.6638H290.688L287.157 42.3929H285.154V53.6638H280.91V26.3691H287.157ZM285.154 30.3411V38.3191H286.885C287.972 38.3191 288.786 38.0135 289.33 37.3685C289.839 36.7235 290.11 35.705 290.11 34.2792C290.11 33.0231 289.839 32.0386 289.33 31.3596C288.82 30.6806 287.972 30.3072 286.817 30.3072H285.154V30.3411Z" fill="black"/>
</g>
<defs>
<clipPath id="clip0_64_2">
<rect width="429" height="80" fill="white" transform="translate(0.5)"/>
</clipPath>
</defs>
</svg>
