<svg width="430" height="80" viewBox="0 0 430 80" fill="none" xmlns="http://www.w3.org/2000/svg">
<g clip-path="url(#clip0_64_13)">
<mask id="mask0_64_13" style="mask-type:luminance" maskUnits="userSpaceOnUse" x="135" y="10" width="160" height="61">
<path d="M295 10H135V70.3774H295V10Z" fill="white"/>
</mask>
<g mask="url(#mask0_64_13)">
<path fill-rule="evenodd" clip-rule="evenodd" d="M233.863 40.1887C233.863 23.5159 247.258 10 263.781 10C280.304 10 293.699 23.5159 293.699 40.1887C293.699 56.8615 280.304 70.3774 263.781 70.3774C247.258 70.3774 233.863 56.8615 233.863 40.1887Z" fill="#FFF200"/>
<path fill-rule="evenodd" clip-rule="evenodd" d="M263.782 53.5064C256.505 53.5064 250.465 47.5327 250.465 40.1887C250.465 32.8456 256.665 26.8711 263.544 26.8711V30.7265C258.959 30.7265 254.286 34.9715 254.286 40.1887C254.286 45.406 258.552 49.651 263.722 49.651C268.892 49.651 273.129 45.406 273.129 40.1887C273.129 38.5825 272.741 37.0172 271.985 35.6316C269.438 38.3558 265.571 42.6531 265.522 42.7064L264.254 44.1176L258.641 39.0746L261.182 36.1952L263.976 38.7043C265.881 36.6024 269.393 32.7484 270.87 31.2601L272.302 29.8159L273.648 31.3434C275.796 33.7816 276.979 36.9232 276.979 40.1887C276.979 47.5327 271.059 53.5064 263.782 53.5064Z" fill="#333333"/>
<mask id="mask1_64_13" style="mask-type:alpha" maskUnits="userSpaceOnUse" x="135" y="22" width="20" height="29">
<path fill-rule="evenodd" clip-rule="evenodd" d="M135 22.834V50.7818H154.854V22.834H135Z" fill="white"/>
</mask>
<g mask="url(#mask1_64_13)">
<path fill-rule="evenodd" clip-rule="evenodd" d="M139.528 38.0888V46.9402H144.34C146.233 46.9402 147.664 46.5732 148.63 45.8406C149.597 45.1081 150.08 43.9514 150.08 42.3707C150.08 40.9179 149.587 39.8415 148.602 39.1405C147.617 38.4396 146.12 38.0888 144.112 38.0888H139.528ZM139.528 34.3796H143.885C145.779 34.3796 147.162 34.0775 148.034 33.4722C148.905 32.8667 149.341 31.8382 149.341 30.3846C149.341 29.0722 148.87 28.123 147.93 27.5362C146.989 26.9502 145.495 26.6571 143.449 26.6571H139.528V34.3796ZM135 22.834H143.222C147.036 22.834 149.793 23.3946 151.491 24.5157C153.189 25.6378 154.039 27.4089 154.039 29.831C154.039 31.4618 153.622 32.8198 152.789 33.9024C151.955 34.9858 150.755 35.6675 149.19 35.9481V36.1386C151.134 36.5087 152.564 37.2382 153.481 38.3277C154.396 39.4172 154.854 40.8924 154.854 42.7531C154.854 45.2639 153.985 47.2293 152.249 48.6504C150.512 50.0716 148.097 50.7818 145.002 50.7818H135V22.834Z" fill="#333333"/>
</g>
<path fill-rule="evenodd" clip-rule="evenodd" d="M164.061 29.6396V37.3631C164.061 39.5299 165.172 40.6124 167.395 40.6124C168.469 40.6124 169.517 40.4629 170.54 40.163C171.563 39.8638 172.662 39.3826 173.836 38.7203V29.6396H178.288V50.7825H173.836V41.8169C172.611 42.5818 171.428 43.1455 170.284 43.5087C169.141 43.8719 167.894 44.053 166.542 44.053C164.358 44.053 162.652 43.4832 161.428 42.3428C160.202 41.2023 159.59 39.6061 159.59 37.5543V29.6396H164.061Z" fill="#333333"/>
<path fill-rule="evenodd" clip-rule="evenodd" d="M191.134 47.7232C192.75 47.7232 194.048 47.2683 195.028 46.3569C196.006 45.4455 196.496 44.1678 196.496 42.5237V40.6885L193.805 40.8034C191.709 40.8798 190.184 41.233 189.231 41.8645C188.277 42.4952 187.8 43.4606 187.8 44.7607C187.8 45.7038 188.077 46.4333 188.634 46.949C189.189 47.4657 190.022 47.7232 191.134 47.7232ZM197.765 50.7823L196.875 47.8381H196.723C195.712 49.125 194.696 50.0019 193.673 50.4668C192.649 50.9318 191.336 51.1638 189.732 51.1638C187.674 51.1638 186.066 50.6032 184.911 49.482C183.755 48.361 183.178 46.774 183.178 44.722C183.178 42.543 183.979 40.8989 185.583 39.7901C187.187 38.6813 189.631 38.076 192.915 37.9741L196.533 37.8592V36.7311C196.533 35.3809 196.221 34.3708 195.595 33.7015C194.971 33.0322 194.001 32.6976 192.688 32.6976C191.614 32.6976 190.585 32.8571 189.6 33.1756C188.615 33.4941 187.667 33.8704 186.758 34.3038L185.318 31.092C186.455 30.4929 187.699 30.0372 189.049 29.7249C190.401 29.4126 191.677 29.2568 192.877 29.2568C195.542 29.2568 197.552 29.8437 198.911 31.0158C200.268 32.1886 200.948 34.03 200.948 36.5407V50.7823H197.765Z" fill="#333333"/>
<path fill-rule="evenodd" clip-rule="evenodd" d="M215.608 51.1646C212.438 51.1646 210.029 50.2316 208.381 48.364C206.733 46.4971 205.908 43.8176 205.908 40.3259C205.908 36.7703 206.77 34.0369 208.494 32.1244C210.218 30.2129 212.71 29.2568 215.968 29.2568C218.178 29.2568 220.167 29.6716 221.935 30.4998L220.591 34.1131C218.709 33.3736 217.155 33.0043 215.931 33.0043C212.305 33.0043 210.493 35.4318 210.493 40.2875C210.493 42.6577 210.944 44.439 211.848 45.6304C212.751 46.8226 214.074 47.4177 215.816 47.4177C217.799 47.4177 219.674 46.9213 221.443 45.9273V49.8459C220.648 50.3172 219.797 50.6549 218.896 50.8592C217.992 51.0629 216.896 51.1646 215.608 51.1646Z" fill="#333333"/>
<path fill-rule="evenodd" clip-rule="evenodd" d="M230.821 29.6396V38.1271H240.691V29.6396H245.143V50.7825H240.691V41.6642H230.821V50.7825H226.369V29.6396H230.821Z" fill="#333333"/>
</g>
</g>
<defs>
<clipPath id="clip0_64_13">
<rect width="429" height="80" fill="white" transform="translate(0.5)"/>
</clipPath>
</defs>
</svg>
