<svg width="25" height="24" viewBox="0 0 25 24" fill="none" xmlns="http://www.w3.org/2000/svg">
<g clip-path="url(#clip0_2513_12630)">
<path d="M4.3429 0.00244141H20.1817C22.5831 0.00244141 24.5246 1.95076 24.5246 4.36052V19.6394C24.5246 22.0492 22.5831 23.9975 20.1817 23.9975H4.3429C1.94153 23.9975 0 22.0492 0 19.6394V4.36052C0 1.95076 1.94153 0.00244141 4.3429 0.00244141Z" fill="#330000"/>
<path d="M11.8519 14.3583H8.05061L7.274 16.768C7.25356 16.8603 7.17182 16.9218 7.07985 16.9116H5.15876C5.04635 16.9116 5.0157 16.8501 5.04635 16.727L8.33673 7.22127C8.36739 7.11872 8.39805 7.00592 8.43892 6.88287C8.47979 6.66753 8.50023 6.44194 8.50023 6.21634C8.49001 6.16507 8.53089 6.1138 8.58198 6.10355H11.2286C11.3103 6.10355 11.3512 6.13431 11.3614 6.18558L15.0912 16.7475C15.1219 16.8603 15.0912 16.9116 14.989 16.9116H12.8533C12.7818 16.9218 12.7103 16.8706 12.6898 16.7988L11.8519 14.3583ZM8.64329 12.2766H11.2388C11.1775 12.0613 11.0957 11.8049 11.0038 11.5383C10.9118 11.2615 10.8198 10.9641 10.7279 10.6565C10.6257 10.3386 10.5337 10.0309 10.4315 9.71306C10.3294 9.39518 10.2374 9.0978 10.1556 8.80043C10.0739 8.51331 10.0024 8.2467 9.93083 8.00059H9.9104C9.81843 8.44153 9.70602 8.88246 9.56296 9.3234C9.40968 9.81561 9.25641 10.3283 9.09291 10.841C8.94985 11.364 8.79657 11.846 8.64329 12.2766ZM17.37 7.89805C17.0327 7.9083 16.7058 7.775 16.4605 7.53915C16.2255 7.28279 16.1029 6.9444 16.1131 6.59575C16.1029 6.24711 16.2357 5.91897 16.4809 5.68312C16.7262 5.44727 17.0532 5.32422 17.3904 5.32422C17.7889 5.32422 18.0955 5.44727 18.3203 5.68312C18.5451 5.92922 18.6677 6.25736 18.6575 6.59575C18.6677 6.9444 18.5451 7.28279 18.2998 7.53915C18.0648 7.78525 17.7174 7.91856 17.37 7.89805ZM16.2255 16.7988V8.90297C16.2255 8.80043 16.2664 8.75941 16.3583 8.75941H18.3816C18.4736 8.75941 18.5144 8.81068 18.5144 8.90297V16.7988C18.5144 16.9116 18.4736 16.9629 18.3816 16.9629H16.3788C16.2766 16.9629 16.2255 16.9013 16.2255 16.7988Z" fill="#FF9A00"/>
</g>
<defs>
<clipPath id="clip0_2513_12630">
<rect width="24.5246" height="24" fill="white"/>
</clipPath>
</defs>
</svg>
