<svg width="24" height="24" viewBox="0 0 24 24" fill="none" xmlns="http://www.w3.org/2000/svg">
<path d="M0 12C0 18.6272 5.37281 24 12 24C18.628 24 24 18.6272 24 12C24 5.37281 18.628 0 12 0C5.37281 0 0 5.37281 0 12Z" fill="white"/>
<path d="M11.08 19.2784H10.168L11.0704 13.82L8.27839 13.824H8.23841C7.98749 13.8231 7.78444 13.6197 7.78399 13.3688C7.78399 13.2608 7.884 13.0784 7.884 13.0784L12.9016 4.71041L13.8296 4.71439L12.9048 10.1816L15.7112 10.1784H15.756C16.0072 10.1784 16.2112 10.3816 16.2112 10.6328C16.2112 10.7352 16.1712 10.8248 16.1144 10.9008L11.08 19.2784ZM12 0C5.37281 0 0 5.37281 0 12C0 18.6272 5.37281 24 12 24C18.628 24 24 18.6272 24 12C24 5.37281 18.628 0 12 0Z" fill="#005AF0"/>
</svg>
