<svg width="24" height="24" viewBox="0 0 24 24" fill="none" xmlns="http://www.w3.org/2000/svg">
<path d="M16.2167 0.113838C15.8405 0.336495 15.2151 0.964698 14.4688 1.87683L15.1547 3.17162C15.6363 2.4833 16.1258 1.86365 16.6187 1.33464C16.4569 1.51036 15.9751 2.07544 15.2445 3.19821C15.9478 3.16352 17.0294 3.01879 17.911 2.8685C18.1734 1.39868 17.6536 0.725856 17.6536 0.725856C17.6536 0.725856 16.9917 -0.343731 16.2167 0.113838Z" fill="white"/>
<path d="M13.9104 10.9865L13.6406 11.0339L13.7793 11.0124L13.913 10.9858L13.9104 10.9865Z" fill="white"/>
<path opacity="0.35" d="M13.9104 10.9865L13.6406 11.0339L13.7793 11.0124L13.913 10.9858L13.9104 10.9865Z" fill="white"/>
<path d="M14.1367 9.85458L14.1783 9.84765L14.3501 9.81689L14.1367 9.85343V9.85458Z" fill="white"/>
<path opacity="0.35" d="M14.1367 9.85458L14.1783 9.84765L14.3501 9.81689L14.1367 9.85343V9.85458Z" fill="white"/>
<path d="M13.1311 6.51669L13.7639 5.37565L14.4358 4.25705L14.4756 4.193L15.153 3.17243L14.467 1.87695L14.3109 2.06955L13.6973 2.86261L12.9683 3.87301L12.2747 4.90028L11.6602 5.87022L12.5526 7.63321L13.1306 6.51645L13.1311 6.51669Z" fill="white"/>
<path d="M9.06558 16.4507L8.65357 17.6016L8.34375 18.5001C8.60733 18.6204 8.81773 18.9362 9.01726 19.2941C8.99769 18.9158 8.8299 18.5605 8.55022 18.305C9.8466 18.3628 10.9633 18.0358 11.5407 17.0876C11.5932 17.0015 11.6403 16.9123 11.6819 16.8204C11.4195 17.1533 11.094 17.2944 10.4796 17.2606C10.478 17.2606 10.4773 17.2606 10.4755 17.2629C10.4771 17.2629 10.4778 17.2629 10.4796 17.2606C11.3814 16.8569 11.8341 16.4692 12.2336 15.8271C12.3343 15.6634 12.428 15.4955 12.5143 15.3237C11.7263 16.1334 10.8119 16.3642 9.84937 16.1892L9.12801 16.2678C9.10812 16.3283 9.08569 16.3889 9.06327 16.4527L9.06558 16.4507Z" fill="white"/>
<path d="M9.39835 14.8339L9.87996 13.6115L10.3655 12.4224L10.8737 11.2247L11.4124 10.0081L11.9654 8.81802L12.1698 8.39444L12.5277 7.67028L12.5476 7.63213L11.6552 5.86914L11.6089 5.9385L10.9937 6.98243L10.3925 8.07606L9.90585 9.02403L9.81198 9.21663L9.28298 10.3727L8.80554 11.5778L8.55584 12.3038L8.37734 12.9003L8.03516 14.298L8.93108 16.0702L9.29639 15.107L9.40113 14.8346L9.39835 14.8339Z" fill="white"/>
<path d="M8.02214 14.3619C7.90931 14.9284 7.82954 15.493 7.78954 16.0544L7.78538 16.1134C7.50793 15.6648 6.75559 15.2264 6.75744 15.2315C7.29384 16.0095 7.70169 16.782 7.76134 17.5402C7.47395 17.5991 7.08043 17.5136 6.62542 17.3466C7.09939 17.7827 7.45591 17.9029 7.59649 17.9353C7.15835 17.9626 6.70749 18.259 6.25086 18.6063C6.92136 18.3339 7.45915 18.2259 7.84619 18.3131C7.23002 20.0463 6.61501 21.9653 6 24C6.18843 23.9445 6.30057 23.818 6.36461 23.6462C6.47421 23.2775 7.20158 20.8592 8.34097 17.6821L8.46629 17.3325L8.84084 16.312L8.92963 16.0745C8.93055 16.0722 8.93055 16.0713 8.93125 16.0694L8.03532 14.2983L8.02214 14.3615V14.3619Z" fill="white"/>
<path d="M12.6909 7.7814L12.6136 7.94001L12.3787 8.42833L12.1189 8.98047L11.9859 9.26786L11.5799 10.1696L11.065 11.3557L10.5594 12.5707L10.0669 13.8022L9.61835 14.9656L9.13281 16.2708L9.85418 16.1922L9.81117 16.185C10.674 16.0771 11.8215 15.4327 12.5632 14.6364C12.9045 14.2692 13.2152 13.8364 13.5019 13.33C13.7153 12.9532 13.9181 12.5347 14.1065 12.0722C14.2735 11.6676 14.4337 11.2302 14.5881 10.7552C14.3898 10.86 14.1627 10.9363 13.9121 10.9895L13.7785 11.0126C13.7327 11.0207 13.6867 11.0279 13.6407 11.0341C14.4471 10.7243 14.9544 10.1273 15.3232 9.39249C15.1114 9.53699 14.7676 9.72543 14.3549 9.81676C14.298 9.82925 14.2407 9.83951 14.1831 9.84751L14.1398 9.85445H14.1415C14.4205 9.73722 14.6564 9.60705 14.8582 9.4526C14.9044 9.41931 14.9447 9.38324 14.9854 9.3504C15.0477 9.29669 15.1072 9.2399 15.1639 9.18023C15.2003 9.14211 15.2355 9.10278 15.2693 9.06232C15.3491 8.96682 15.4247 8.86394 15.4943 8.75249C15.516 8.71799 15.537 8.68307 15.5574 8.64775L15.6346 8.49585C15.7336 8.29787 15.825 8.09618 15.9086 7.89123C15.9442 7.80337 15.9779 7.72105 16.0024 7.64452L16.0332 7.55666C16.0614 7.47204 16.0848 7.39643 16.103 7.33007C16.1308 7.23065 16.1493 7.15158 16.1562 7.09424C16.1285 7.11574 16.0972 7.13748 16.0623 7.15828C15.8191 7.30349 15.4022 7.43574 15.0667 7.49701C15.0617 7.49701 15.0568 7.49932 15.0517 7.49932L14.9505 7.51597C14.9562 7.51366 14.962 7.51019 14.9678 7.50765L12.7008 7.75597C12.6976 7.76522 12.6934 7.77331 12.6892 7.77909L12.6909 7.7814Z" fill="white"/>
<path d="M15.2439 3.19836L14.5845 4.25731L14.547 4.32043L13.8968 5.458L13.2795 6.61221L12.7031 7.75671L14.9701 7.50838C15.6302 7.20434 15.9259 6.92966 16.2124 6.53174L16.4408 6.18886L17.106 5.02702L17.61 3.91835L17.8103 3.3179L17.909 2.86865C17.0288 3.01894 15.9467 3.16345 15.2432 3.19836H15.2439Z" fill="white"/>
</svg>
