<svg width="24" height="24" viewBox="0 0 24 24" fill="none" xmlns="http://www.w3.org/2000/svg">
<g clip-path="url(#clip0_2513_12495)">
<path d="M19.4127 16.1262C18.4616 17.0955 17.1312 17.6437 15.6901 17.6456C14.2481 17.6485 12.9168 17.1042 11.9657 16.1377C11.5007 15.6665 11.1599 15.126 10.9482 14.548C10.7412 13.9806 10.6622 13.3738 10.7152 12.7728C10.7662 12.1861 10.9395 11.6159 11.2254 11.1004C11.5036 10.5965 11.8858 10.1416 12.3575 9.75693C13.2816 9.00394 14.458 8.59715 15.6901 8.59522C16.9223 8.5933 18.0977 8.99817 19.0228 9.74732C19.4935 10.131 19.8757 10.584 20.153 11.0869C20.4389 11.6024 20.6131 12.1717 20.6641 12.7583C20.7171 13.3604 20.6372 13.9662 20.4302 14.5346C20.2184 15.1116 19.8767 15.653 19.4127 16.1262Z" fill="white"/>
<path d="M12.6134 12.8346C12.6567 12.0508 13.0418 11.3593 13.6213 10.8698C14.1902 10.388 14.9565 10.0947 15.7911 10.0947C16.6267 10.0957 17.392 10.389 17.9609 10.8698C18.5404 11.3603 18.9255 12.0508 18.9697 12.8346C19.014 13.6405 18.6896 14.3896 18.1207 14.9445C17.5412 15.509 16.7152 15.8639 15.7911 15.8639C14.867 15.8639 14.04 15.509 13.4605 14.9445C12.8926 14.3896 12.5691 13.6405 12.6134 12.8346Z" fill="#404040"/>
<path d="M7.55388 14.4213C7.55966 14.7271 7.65785 15.3234 7.80417 15.7898C8.11318 16.7755 8.63686 17.6882 9.36654 18.4921C10.1155 19.3182 11.0358 19.9818 12.1005 20.452C13.22 20.9473 14.432 21.2002 15.6902 21.1973C16.9483 21.1954 18.1603 20.9386 19.2789 20.4395C20.3426 19.9635 21.2629 19.298 22.0109 18.47C22.7396 17.6622 23.2623 16.7486 23.5713 15.7629C23.7253 15.2714 23.8245 14.7646 23.8649 14.2521C23.9034 13.752 23.8871 13.2481 23.8168 12.7509C23.6782 11.7757 23.3403 10.8612 22.8205 10.0274C22.344 9.26189 21.7317 8.59063 21.003 8.02517L21.004 8.0242L13.6513 2.38489C13.6455 2.38009 13.6388 2.37432 13.633 2.36951C13.1488 2.00022 12.3382 2.00118 11.8078 2.37239C11.2707 2.74745 11.21 3.36773 11.6865 3.75914L11.6846 3.7601L14.7516 6.25278L5.40141 6.2624H5.3889C4.61685 6.26336 3.87369 6.77017 3.72641 7.40969C3.57624 8.06171 4.10088 8.60217 4.90469 8.60602L4.90372 8.60891L9.64282 8.59929L1.18599 15.0839C1.1754 15.0926 1.16385 15.1003 1.15422 15.108C0.357152 15.7177 0.0991632 16.7332 0.600701 17.3756C1.1109 18.0286 2.19484 18.0296 3.00154 17.3785L7.61646 13.6058C7.61646 13.6058 7.54907 14.1155 7.55388 14.4213ZM19.4137 16.1264C18.4626 17.0958 17.1322 17.6439 15.6911 17.6458C14.2491 17.6487 12.9177 17.1044 11.9666 16.1379C11.5017 15.6667 11.1609 15.1262 10.9491 14.5483C10.7422 13.9809 10.6632 13.374 10.7162 12.773C10.7672 12.1864 10.9405 11.6161 11.2264 11.1006C11.5046 10.5967 11.8867 10.1418 12.3584 9.75716C13.2826 9.00416 14.4589 8.59737 15.6911 8.59544C16.9233 8.59352 18.0987 8.99839 19.0238 9.74754C19.4945 10.1313 19.8767 10.5842 20.1539 11.0872C20.4398 11.6026 20.6141 12.1719 20.6651 12.7586C20.718 13.3606 20.6381 13.9664 20.4312 14.5348C20.2194 15.1118 19.8777 15.6532 19.4137 16.1264Z" fill="#9B9B9B"/>
</g>
<defs>
<clipPath id="clip0_2513_12495">
<rect width="24" height="19.2" fill="white" transform="translate(0 2)"/>
</clipPath>
</defs>
</svg>
