<svg width="24" height="25" viewBox="0 0 24 25" fill="none" xmlns="http://www.w3.org/2000/svg">
<g clip-path="url(#clip0_2513_12494)">
<path d="M19.4127 16.5261C18.4616 17.4954 17.1312 18.0436 15.6901 18.0455C14.2481 18.0484 12.9168 17.5041 11.9657 16.5376C11.5007 16.0664 11.1599 15.5259 10.9482 14.9479C10.7412 14.3805 10.6622 13.7737 10.7152 13.1727C10.7662 12.586 10.9395 12.0158 11.2254 11.5003C11.5036 10.9964 11.8858 10.5415 12.3575 10.1568C13.2816 9.40384 14.458 8.99705 15.6901 8.99512C16.9223 8.9932 18.0977 9.39807 19.0228 10.1472C19.4935 10.5309 19.8757 10.9839 20.153 11.4868C20.4389 12.0023 20.6131 12.5716 20.6641 13.1582C20.7171 13.7603 20.6372 14.3661 20.4302 14.9345C20.2184 15.5115 19.8767 16.0529 19.4127 16.5261Z" fill="white"/>
<path d="M12.6134 13.2345C12.6567 12.4507 13.0418 11.7592 13.6213 11.2697C14.1902 10.7879 14.9565 10.4946 15.7911 10.4946C16.6267 10.4956 17.392 10.7889 17.9609 11.2697C18.5404 11.7602 18.9255 12.4507 18.9697 13.2345C19.014 14.0404 18.6896 14.7895 18.1207 15.3444C17.5412 15.9089 16.7152 16.2638 15.7911 16.2638C14.867 16.2638 14.04 15.9089 13.4605 15.3444C12.8926 14.7895 12.5691 14.0404 12.6134 13.2345Z" fill="#005385"/>
<path d="M7.55388 14.8212C7.55966 15.127 7.65785 15.7233 7.80417 16.1897C8.11318 17.1754 8.63686 18.0881 9.36654 18.892C10.1155 19.7181 11.0358 20.3817 12.1005 20.8519C13.22 21.3472 14.432 21.6001 15.6902 21.5972C16.9483 21.5953 18.1603 21.3385 19.2789 20.8394C20.3426 20.3634 21.2629 19.6979 22.0109 18.8699C22.7396 18.0621 23.2623 17.1485 23.5713 16.1628C23.7253 15.6713 23.8245 15.1645 23.8649 14.652C23.9034 14.1519 23.8871 13.648 23.8168 13.1508C23.6782 12.1756 23.3403 11.2611 22.8205 10.4273C22.344 9.66179 21.7317 8.99054 21.003 8.42507L21.004 8.42411L13.6513 2.7848C13.6455 2.77999 13.6388 2.77422 13.633 2.76941C13.1488 2.40012 12.3382 2.40108 11.8078 2.77229C11.2707 3.14735 11.21 3.76764 11.6865 4.15904L11.6846 4.16L14.7516 6.65269L5.40141 6.6623H5.3889C4.61685 6.66326 3.87369 7.17007 3.72641 7.80959C3.57624 8.46161 4.10088 9.00208 4.90469 9.00592L4.90372 9.00881L9.64282 8.99919L1.18599 15.4838C1.1754 15.4925 1.16385 15.5002 1.15422 15.5079C0.357152 16.1176 0.0991632 17.1331 0.600701 17.7755C1.1109 18.4285 2.19484 18.4295 3.00154 17.7784L7.61646 14.0057C7.61646 14.0057 7.54907 14.5154 7.55388 14.8212ZM19.4137 16.5263C18.4626 17.4957 17.1322 18.0438 15.6911 18.0457C14.2491 18.0486 12.9177 17.5043 11.9666 16.5378C11.5017 16.0666 11.1609 15.5261 10.9491 14.9482C10.7422 14.3808 10.6632 13.7739 10.7162 13.1729C10.7672 12.5863 10.9405 12.016 11.2264 11.5005C11.5046 10.9966 11.8867 10.5417 12.3584 10.1571C13.2826 9.40406 14.4589 8.99727 15.6911 8.99535C16.9233 8.99342 18.0987 9.39829 19.0238 10.1474C19.4945 10.5312 19.8767 10.9841 20.1539 11.4871C20.4398 12.0025 20.6141 12.5718 20.6651 13.1585C20.718 13.7605 20.6381 14.3663 20.4312 14.9347C20.2194 15.5117 19.8777 16.0531 19.4137 16.5263Z" fill="#FF7021"/>
</g>
<defs>
<clipPath id="clip0_2513_12494">
<rect width="24" height="19.2" fill="white" transform="translate(0 2.3999)"/>
</clipPath>
</defs>
</svg>
