<svg width="24" height="24" viewBox="0 0 24 24" fill="none" xmlns="http://www.w3.org/2000/svg">
<g clip-path="url(#clip0_2222_28198)">
<path d="M0 20.9054C0 22.6147 1.38553 24 3.09459 24H20.9053C22.6147 24 24 22.6145 24 20.9054V3.09469C24 1.38534 22.6145 0 20.9054 0H3.09469C1.38534 0 0 1.38553 0 3.09459V20.9054Z" fill="#404040"/>
<path d="M9.95309 10.6161V7.21734H12.9448C13.2298 7.21734 13.5044 7.24106 13.769 7.28859C14.0336 7.33603 14.2677 7.42078 14.4712 7.54294C14.6746 7.66509 14.8375 7.83469 14.9596 8.05172C15.0817 8.26884 15.1428 8.547 15.1428 8.88609C15.1428 9.49669 14.9596 9.93769 14.5933 10.209C14.227 10.4804 13.7589 10.6161 13.189 10.6161H9.95309ZM6.75781 4.73438V19.2656H13.7996C14.4508 19.2656 15.0852 19.1843 15.7025 19.0214C16.3198 18.8586 16.8693 18.6076 17.351 18.2684C17.8326 17.9292 18.2159 17.4916 18.5008 16.9557C18.7858 16.4197 18.9283 15.7854 18.9283 15.0528C18.9283 14.1437 18.7078 13.367 18.2668 12.7225C17.8258 12.078 17.1576 11.6269 16.2621 11.3691C16.9134 11.0571 17.4053 10.6567 17.7377 10.1683C18.0701 9.67987 18.2363 9.06938 18.2363 8.33663C18.2363 7.65825 18.1243 7.08844 17.9005 6.62709C17.6766 6.16584 17.3611 5.79609 16.9541 5.51794C16.5471 5.23978 16.0587 5.03962 15.4888 4.91756C14.9189 4.79541 14.288 4.73438 13.596 4.73438H6.75781ZM9.95309 16.7827V12.7937H13.4332C14.1252 12.7937 14.6815 12.9531 15.1021 13.272C15.5227 13.5908 15.7331 14.1233 15.7331 14.8696C15.7331 15.2496 15.6686 15.5616 15.5397 15.8058C15.4108 16.05 15.2378 16.2434 15.0207 16.3858C14.8036 16.5283 14.5526 16.63 14.2677 16.6912C13.9827 16.7521 13.6843 16.7827 13.3722 16.7827H9.95309Z" fill="white"/>
</g>
<defs>
<clipPath id="clip0_2222_28198">
<rect width="24" height="24" fill="white"/>
</clipPath>
</defs>
</svg>
