<svg width="24" height="24" viewBox="0 0 24 24" fill="none" xmlns="http://www.w3.org/2000/svg">
<path d="M0 20.9054C0 22.6147 1.38553 24 3.09459 24H20.9053C22.6147 24 24 22.6145 24 20.9054V3.09469C24 1.38534 22.6145 0 20.9054 0H3.09469C1.38534 0 0 1.38553 0 3.09459V20.9053V20.9054Z" fill="#563D7C"/>
<path d="M9.11325 10.8133V7.41461H12.1049C12.3899 7.41461 12.6646 7.43833 12.9292 7.48586C13.1937 7.5333 13.4278 7.61805 13.6313 7.7402C13.8348 7.86236 13.9976 8.03195 14.1198 8.24898C14.2418 8.46611 14.303 8.74427 14.303 9.08336C14.303 9.69395 14.1198 10.135 13.7534 10.4063C13.3871 10.6777 12.919 10.8133 12.3491 10.8133H9.11325ZM5.91797 4.93164V19.4629H12.9597C13.611 19.4629 14.2453 19.3815 14.8627 19.2187C15.48 19.0558 16.0295 18.8049 16.5112 18.4657C16.9928 18.1265 17.3761 17.6889 17.661 17.153C17.946 16.617 18.0884 15.9827 18.0884 15.25C18.0884 14.341 17.8679 13.5642 17.427 12.9198C16.986 12.2753 16.3177 11.8241 15.4222 11.5663C16.0735 11.2543 16.5654 10.854 16.8979 10.3656C17.2302 9.87714 17.3964 9.26664 17.3964 8.53389C17.3964 7.85552 17.2845 7.2857 17.0606 6.82436C16.8368 6.36311 16.5213 5.99336 16.1142 5.7152C15.7073 5.43705 15.2188 5.23689 14.6489 5.11483C14.0791 4.99267 13.4482 4.93164 12.7562 4.93164H5.91797ZM9.11325 16.9799V12.991H12.5933C13.2853 12.991 13.8416 13.1503 14.2623 13.4693C14.6828 13.7881 14.8932 14.3206 14.8932 15.0669C14.8932 15.4468 14.8287 15.7588 14.6998 16.003C14.5709 16.2473 14.3979 16.4407 14.1808 16.5831C13.9638 16.7256 13.7127 16.8273 13.4278 16.8884C13.1428 16.9494 12.8444 16.9799 12.5323 16.9799H9.11325Z" fill="white"/>
</svg>
