<svg width="24" height="24" viewBox="0 0 24 24" fill="none" xmlns="http://www.w3.org/2000/svg">
<path d="M20.2308 4.7168L18.661 22.0699L11.6048 24.0002L4.5681 22.0726L3 4.7168H20.2308Z" fill="#264DE4"/>
<path d="M17.3189 20.9647L18.6604 6.13574H11.6172V22.5246L17.3189 20.9647Z" fill="#2965F1"/>
<path d="M6.59375 12.5723L6.78709 14.7009H11.6143V12.5723H6.59375Z" fill="#EBEBEB"/>
<path d="M11.616 8.26367H11.6086H6.20703L6.40312 10.3923H11.616V8.26367Z" fill="#EBEBEB"/>
<path d="M11.6136 20.3156V18.1009L11.6042 18.1034L9.20179 17.4633L9.04821 15.7656H7.88084H6.88281L7.18502 19.1079L11.6037 20.3183L11.6136 20.3156Z" fill="#EBEBEB"/>
<path d="M7.05469 0H9.66732V1.07812H8.14724V2.15625H9.66732V3.23438H7.05469V0Z" fill="#373737"/>
<path d="M10.1914 0H12.804V0.9375H11.284V1.125H12.804V3.28125H10.1914V2.29688H11.7115V2.10938H10.1914V0Z" fill="#373737"/>
<path d="M13.3242 0H15.9369V0.9375H14.4168V1.125H15.9369V3.28125H13.3242V2.29688H14.8443V2.10938H13.3242V0Z" fill="#373737"/>
<path d="M14.2656 14.7006L14.0152 17.4613L11.6094 18.1021V20.3166L16.0316 19.1072L16.064 18.7476L16.5709 13.1436L16.6235 12.572L17.013 8.26367H11.6094V10.3923H14.649L14.4527 12.572H11.6094V14.7006H14.2656Z" fill="white"/>
</svg>
