<svg width="24" height="24" viewBox="0 0 24 24" fill="none" xmlns="http://www.w3.org/2000/svg">
<g clip-path="url(#clip0_2261_29504)">
<path fill-rule="evenodd" clip-rule="evenodd" d="M3.61948 18.3448V16.8077C3.61948 16.6057 3.74548 16.4435 3.95417 16.4435H4.01192C4.22051 16.4435 4.34595 16.606 4.34595 16.8077V20.0438C4.34595 20.8329 3.95689 21.4608 3.27889 21.8609C2.96831 22.0452 2.61379 22.1421 2.25279 22.1413H2.1087C1.32101 22.1413 0.69523 21.7511 0.295386 21.0722C0.11112 20.761 0.0144444 20.4056 0.0156359 20.0438V19.8996C0.0156359 19.1102 0.404886 18.4826 1.08232 18.0818C1.39285 17.897 1.74756 17.8001 2.1087 17.8013H2.25279C2.78585 17.8013 3.23717 18.0085 3.61948 18.3448ZM0.742011 19.9715C0.742011 20.5416 1.01764 20.9702 1.5162 21.2435C1.71776 21.354 1.93657 21.4134 2.16654 21.4134C2.72492 21.4134 3.1391 21.1504 3.42467 20.6753C3.55751 20.4547 3.61939 20.2134 3.61939 19.9568C3.61939 19.4626 3.38501 19.077 2.98845 18.7906C2.74751 18.617 2.47629 18.5299 2.18051 18.5299C1.57189 18.5299 1.13389 18.838 0.871011 19.3853C0.782323 19.5704 0.741823 19.7667 0.741823 19.9715H0.742011ZM6.86614 17.8014H6.96682C7.80851 17.8014 8.44864 18.2106 8.85429 18.9468C9.01648 19.2413 9.10329 19.5628 9.10329 19.8996V20.0438C9.10329 20.8329 8.71498 21.4617 8.03595 21.8609C7.7216 22.0457 7.37435 22.1413 7.01004 22.1413H6.86614C6.07845 22.1413 5.45239 21.7511 5.05282 21.0722C4.86847 20.761 4.7717 20.4056 4.77279 20.0438V19.8996C4.77279 19.1101 5.16373 18.4846 5.83939 18.082C6.14982 17.8967 6.50479 17.7997 6.86614 17.8014ZM5.49926 19.9715C5.49926 20.5258 5.77114 20.9319 6.2366 21.2182C6.4556 21.3525 6.69598 21.4134 6.95267 21.4134C7.49829 21.4134 7.90161 21.1363 8.18229 20.6747C8.31617 20.4547 8.37673 20.213 8.37673 19.9568C8.37673 19.4423 8.12942 19.0493 7.7066 18.7644C7.48007 18.6099 7.21203 18.5281 6.93804 18.5299C6.32942 18.5299 5.89142 18.838 5.62864 19.3853C5.53976 19.5704 5.49926 19.7667 5.49926 19.9715ZM12.1233 18.588C12.0136 18.5365 11.8083 18.5194 11.6898 18.5149C11.0828 18.492 10.6437 18.8345 10.3861 19.371C10.297 19.5561 10.2565 19.752 10.2565 19.9568C10.2565 20.5803 10.5832 21.0169 11.1378 21.283C11.3406 21.3801 11.6026 21.3986 11.8243 21.3986C12.0193 21.3986 12.2949 21.2789 12.468 21.1966L12.498 21.1823H12.6323L12.6471 21.1853C12.8123 21.2198 12.937 21.3247 12.937 21.5028V21.5749C12.937 22.0181 12.1287 22.1196 11.8203 22.1412C10.7328 22.2166 9.91779 21.6176 9.60748 20.5773C9.55357 20.3966 9.52929 20.2172 9.52929 20.0289V19.8849C9.52929 19.0955 9.92023 18.4701 10.5959 18.068C10.906 17.882 11.261 17.7845 11.6224 17.7862H11.7664C12.1536 17.7862 12.5103 17.8964 12.8299 18.1152L12.8562 18.1334L12.8728 18.1609C12.9073 18.2172 12.937 18.2845 12.937 18.3527V18.4247C12.937 18.6106 12.7983 18.7105 12.6308 18.7428L12.6169 18.7453H12.574C12.4656 18.7453 12.2192 18.6328 12.1224 18.5872L12.1233 18.588ZM14.4796 19.0809L15.3313 18.2368C15.411 18.1591 15.7132 17.8303 15.8322 17.8303H15.9623L15.9771 17.8334C16.1429 17.8678 16.267 17.973 16.267 18.1515V18.2234C16.267 18.3452 16.1247 18.4867 16.0462 18.571C15.8794 18.7483 15.7037 18.9197 15.5329 19.0933L14.6552 19.9862L15.7854 21.128C15.8894 21.2336 15.9925 21.3399 16.0949 21.447C16.131 21.4851 16.1842 21.5316 16.2145 21.5851C16.247 21.6345 16.267 21.6903 16.267 21.7497V21.8249L16.2628 21.8423C16.222 22.0083 16.1168 22.1423 15.9332 22.1423H15.8753C15.7551 22.1423 15.6194 22.0061 15.5371 21.9281C15.3683 21.7678 15.2036 21.5993 15.0374 21.4356L14.4796 20.8869V21.7638C14.4796 21.9658 14.3534 22.1281 14.1449 22.1281H14.0886C13.8799 22.1281 13.7539 21.9658 13.7539 21.7638V16.8227C13.7539 16.6207 13.88 16.4592 14.0886 16.4592H14.1449C14.3533 16.4592 14.4796 16.6207 14.4796 16.8227V19.0819V19.0809ZM23.5337 17.8303H23.6059C23.8237 17.8303 23.9691 17.9774 23.9691 18.1945C23.9691 18.4959 23.6816 18.5731 23.4329 18.5731C23.1066 18.5731 22.7951 18.771 22.5702 18.993C22.2889 19.2702 22.1671 19.6249 22.1671 20.0149V21.7773C22.1671 21.9793 22.0412 22.1415 21.8324 22.1415H21.775C21.5662 22.1415 21.4403 21.9794 21.4403 21.7773V19.9139C21.4403 19.1983 21.7879 18.6141 22.3684 18.2044C22.7153 17.9597 23.1109 17.8305 23.5345 17.8305L23.5337 17.8303ZM18.3705 21.3227C18.6349 21.4153 18.9363 21.402 19.2075 21.3547C19.3462 21.2955 19.701 21.1405 19.8315 21.1632L19.8518 21.1667L19.8706 21.1759C19.9503 21.2146 20.0262 21.2694 20.067 21.3506C20.162 21.5411 20.1164 21.7325 19.9296 21.8407L19.8675 21.8766C19.1784 22.2751 18.4455 22.2199 17.7586 21.8477C17.4302 21.6698 17.1789 21.4057 16.9936 21.0837L16.9503 21.0086C16.5078 20.2409 16.5676 19.4333 17.0665 18.7032C17.2387 18.4509 17.4638 18.256 17.727 18.1035L17.8265 18.0459C18.4755 17.6705 19.1709 17.6962 19.8375 18.0257C20.1959 18.2029 20.4862 18.4669 20.6863 18.8142L20.7223 18.8768C20.8676 19.1291 20.6794 19.349 20.4851 19.4993C20.2595 19.6736 20.0318 19.8845 19.8157 20.0705L18.3707 21.3227H18.3705ZM17.7466 20.8836L19.9309 19.0013C19.7847 18.8166 19.5404 18.6835 19.3328 18.6041C18.9138 18.4441 18.5006 18.4979 18.1163 18.7201C17.6134 19.0111 17.3991 19.4745 17.4179 20.0513C17.4254 20.2785 17.4863 20.4973 17.6066 20.6906C17.649 20.7587 17.6963 20.8227 17.7475 20.8836H17.7466ZM13.8261 6.29626H15.9698V8.49221H17.0536C17.5542 8.49221 18.0689 8.40296 18.543 8.24194C18.7759 8.16274 19.0373 8.05264 19.2671 7.91313C18.9645 7.51725 18.81 7.01737 18.7646 6.52464C18.7027 5.85435 18.8377 4.98207 19.2904 4.45739L19.5157 4.19623L19.7842 4.41258C20.4592 4.9568 21.0289 5.71841 21.1291 6.58439C21.9431 6.34445 22.8989 6.4012 23.6163 6.81615L23.9106 6.98637L23.7558 7.28944C23.1492 8.47708 21.8804 8.84478 20.6401 8.77968C18.7841 13.4111 14.7434 15.605 9.8441 15.605C7.31285 15.605 4.99067 14.6568 3.66823 12.4065L3.64667 12.3689L3.45401 11.976C3.00701 10.9855 2.85851 9.90034 2.9592 8.81603L2.98948 8.49127H4.82257V6.29626H6.96617V4.14813H11.2536V2H13.8261V6.29626Z" fill="white"/>
<path fill-rule="evenodd" clip-rule="evenodd" d="M20.7741 7.10863C20.9178 5.98919 20.0818 5.10997 19.5634 4.69238C18.9659 5.38456 18.8731 7.19863 19.8104 7.96239C19.2873 8.42798 18.1851 8.84998 17.0564 8.84998H3.31784C3.20816 10.0306 3.41497 11.1178 3.88737 12.0483L4.04366 12.3348C4.14261 12.503 4.25074 12.6656 4.36756 12.8219C4.93241 12.8582 5.45319 12.8707 5.92962 12.8602H5.92981C6.86609 12.8395 7.63006 12.7287 8.20906 12.5276C8.25 12.5149 8.29428 12.5186 8.33254 12.5379C8.3708 12.5573 8.40004 12.5908 8.41409 12.6314C8.42813 12.672 8.42586 12.7165 8.40777 12.7554C8.38968 12.7943 8.35719 12.8247 8.31716 12.8401C8.24009 12.8669 8.15984 12.8919 8.07697 12.9157H8.07669C7.62078 13.0472 7.13187 13.1339 6.50112 13.1729C6.53862 13.1736 6.46212 13.1786 6.46194 13.1786C6.44037 13.18 6.41347 13.1831 6.39191 13.1842C6.14366 13.1983 5.87572 13.2011 5.60178 13.2011C5.30216 13.2011 5.00712 13.1955 4.67722 13.1786L4.66784 13.1842C5.81159 14.4735 7.60241 15.2467 9.84603 15.2467C14.5943 15.2467 18.6218 13.1375 20.4053 8.40224C21.6705 8.53236 22.8866 8.209 23.4397 7.12695C22.5586 6.61749 21.4256 6.77992 20.7732 7.10854" fill="#292929"/>
<path fill-rule="evenodd" clip-rule="evenodd" d="M3.33984 10.2844C3.42422 10.9169 3.60984 11.509 3.88359 12.0483L4.03987 12.3349C4.13881 12.5031 4.24695 12.6656 4.36378 12.8219C4.92872 12.8582 5.44941 12.8707 5.92603 12.8602C6.86231 12.8395 7.62628 12.7287 8.20528 12.5276C8.24621 12.5149 8.29049 12.5186 8.32876 12.5379C8.36702 12.5573 8.39626 12.5908 8.4103 12.6314C8.42435 12.672 8.42208 12.7165 8.40399 12.7554C8.3859 12.7944 8.35341 12.8247 8.31338 12.8401C8.23631 12.867 8.15606 12.892 8.07319 12.9157H8.07291C7.617 13.0473 7.08891 13.1396 6.45816 13.1788C6.43659 13.1801 6.39872 13.1804 6.37688 13.1816C6.12881 13.1955 5.86359 13.2041 5.58956 13.2041C5.27755 13.2047 4.96557 13.1972 4.65394 13.1816C5.79769 14.471 7.59956 15.246 9.84319 15.246C13.9082 15.246 17.4448 13.6999 19.4976 10.2837H3.33984" fill="#292929"/>
<path fill-rule="evenodd" clip-rule="evenodd" d="M4.25391 10.2847C4.49691 11.3951 5.08078 12.2669 5.92866 12.8604C6.86494 12.8398 7.62891 12.7289 8.20791 12.5279C8.24884 12.5151 8.29312 12.5188 8.33138 12.5382C8.36964 12.5575 8.39889 12.5911 8.41293 12.6317C8.42697 12.6722 8.42471 12.7167 8.40662 12.7557C8.38853 12.7946 8.35603 12.825 8.316 12.8403C8.23894 12.8672 8.15869 12.8922 8.07581 12.916H8.07553C7.61962 13.0475 7.08038 13.1398 6.44953 13.179C8.06541 14.0095 10.4018 13.9975 13.087 12.9636C14.7121 12.3379 16.2761 11.4066 17.6793 10.2848L4.25391 10.2847Z" fill="#292929"/>
<path fill-rule="evenodd" clip-rule="evenodd" d="M5.17969 6.65448H7.03763V8.51617H5.17969V6.65448ZM5.33438 6.80967H5.481V8.36022H5.33344V6.80967H5.33438ZM5.61 6.80967H5.76253V8.36022H5.61V6.80967ZM5.89144 6.80967H6.04397V8.36022H5.89144V6.80967ZM6.17306 6.80967H6.3255V8.36022H6.17306V6.80967ZM6.45459 6.80967H6.60703V8.36022H6.45469V6.80967H6.45459ZM6.73603 6.80967H6.88275V8.36022H6.73594V6.80967H6.73603ZM7.32328 4.50635H9.18141V6.36804H7.32328V4.50635ZM7.47816 4.66154H7.62469V6.21294H7.47816V4.66164V4.66154ZM7.75378 4.66154H7.90622V6.21294H7.75406V4.66164L7.75378 4.66154ZM8.03522 4.66154H8.18766V6.21294H8.03531V4.66164L8.03522 4.66154ZM8.31675 4.66154H8.46919V6.21294H8.31675V4.66164V4.66154ZM8.59828 4.66154H8.75081V6.21294H8.59828V4.66164V4.66154ZM8.87972 4.66154H9.02653V6.21294H8.87972V4.66164V4.66154Z" fill="#292929"/>
<path fill-rule="evenodd" clip-rule="evenodd" d="M7.32422 6.6543H9.18234V8.51599H7.32422V6.6543ZM7.47909 6.80949H7.62563V8.36004H7.47909V6.80949ZM7.75472 6.80949H7.90716V8.36004H7.75491V6.80949H7.75472ZM8.03616 6.80949H8.18859V8.36004H8.03616V6.80949ZM8.31769 6.80949H8.47012V8.36004H8.31769V6.80949ZM8.59922 6.80949H8.75175V8.36004H8.59922V6.80949ZM8.88066 6.80949H9.02747V8.36004H8.88066V6.80949Z" fill="#292929"/>
<path fill-rule="evenodd" clip-rule="evenodd" d="M9.46875 6.6543H11.3267V8.51599H9.46875V6.6543ZM9.62344 6.80949H9.76997V8.36004H9.62344V6.80949ZM9.89906 6.80949H10.0515V8.36004H9.89906V6.80949ZM10.1806 6.80949H10.333V8.36004H10.1806V6.80949ZM10.4621 6.80949H10.6146V8.36004H10.4632V6.80949H10.4621ZM10.7436 6.80949H10.8962V8.36004H10.7436V6.80949ZM11.0251 6.80949H11.1717V8.36004H11.0251V6.80949Z" fill="#292929"/>
<path fill-rule="evenodd" clip-rule="evenodd" d="M9.46875 4.50635H11.3267V6.36804H9.46875V4.50635ZM9.62344 4.66154H9.76997V6.21294H9.62344V4.66164V4.66154ZM9.89906 4.66154H10.0515V6.21294H9.89906V4.66164V4.66154ZM10.1806 4.66154H10.333V6.21294H10.1806V4.66164V4.66154ZM10.4621 4.66154H10.6146V6.21294H10.4632V4.66164L10.4621 4.66154ZM10.7436 4.66154H10.8962V6.21294H10.7436V4.66164V4.66154ZM11.0251 4.66154H11.1717V6.21294H11.0251V4.66164V4.66154ZM11.6123 6.65448H13.4703V8.51617H11.6125V6.65448H11.6123ZM11.7672 6.80967H11.9138V8.36022H11.7663V6.80967H11.7672ZM12.0428 6.80967H12.1953V8.36022H12.0428V6.80967ZM12.3243 6.80967H12.4767V8.36022H12.3243V6.80967ZM12.6058 6.80967H12.7583V8.36022H12.6058V6.80967ZM12.8873 6.80967H13.0399V8.36022H12.8873V6.80967ZM13.1689 6.80967H13.3155V8.36022H13.1689V6.80967Z" fill="#292929"/>
<path fill-rule="evenodd" clip-rule="evenodd" d="M11.6133 4.50635H13.4712V6.36804H11.6133V4.50635ZM11.7682 4.66154H11.9147V6.21294H11.7682V4.66164V4.66154ZM12.0438 4.66154H12.1962V6.21294H12.0438V4.66164V4.66154ZM12.3252 4.66154H12.4777V6.21294H12.3252V4.66164V4.66154ZM12.6068 4.66154H12.7593V6.21294H12.6068V4.66164V4.66154ZM12.8883 4.66154H13.0408V6.21294H12.8883V4.66164V4.66154ZM13.1698 4.66154H13.3164V6.21294H13.1698V4.66164V4.66154Z" fill="#292929"/>
<path fill-rule="evenodd" clip-rule="evenodd" d="M11.6133 2.35693H13.4712V4.21891H11.6133V2.35693ZM11.7682 2.51194H11.9147V4.06353H11.7682V2.51288V2.51194ZM12.0438 2.51194H12.1962V4.06353H12.0438V2.51288V2.51194ZM12.3252 2.51194H12.4777V4.06353H12.3252V2.51288V2.51194ZM12.6068 2.51194H12.7593V4.06353H12.6068V2.51288V2.51194ZM12.8883 2.51194H13.0408V4.06353H12.8883V2.51288V2.51194ZM13.1698 2.51194H13.3164V4.06353H13.1698V2.51288V2.51194Z" fill="#292929"/>
<path fill-rule="evenodd" clip-rule="evenodd" d="M13.7578 6.6543H15.6157V8.51599H13.7578V6.6543ZM13.9125 6.80949H14.0592V8.36004H13.9126V6.80949H13.9125ZM14.1881 6.80949H14.3407V8.36004H14.1882V6.80949H14.1881ZM14.4697 6.80949H14.6223V8.36004H14.4697V6.80949ZM14.7512 6.80949H14.9037V8.36004H14.7512V6.80949ZM15.0328 6.80949H15.1852V8.36004H15.0328V6.80949ZM15.3142 6.80949H15.4609V8.36004H15.3142V6.80949Z" fill="#292929"/>
<path fill-rule="evenodd" clip-rule="evenodd" d="M9.06829 11.5347C9.13618 11.5338 9.20358 11.5464 9.26657 11.5718C9.32956 11.5972 9.38688 11.6349 9.43521 11.6827C9.48354 11.7305 9.52191 11.7875 9.5481 11.8503C9.57428 11.913 9.58776 11.9804 9.58775 12.0484C9.58774 12.1165 9.57424 12.1839 9.54803 12.2466C9.52182 12.3094 9.48343 12.3663 9.43508 12.4141C9.38673 12.4619 9.3294 12.4996 9.2664 12.5249C9.2034 12.5503 9.136 12.5629 9.0681 12.562C8.93336 12.5601 8.80476 12.5052 8.71014 12.4091C8.61551 12.3129 8.56248 12.1833 8.5625 12.0483C8.56252 11.9132 8.61561 11.7836 8.71027 11.6875C8.80493 11.5914 8.93354 11.5365 9.06829 11.5347Z" fill="white"/>
<path fill-rule="evenodd" clip-rule="evenodd" d="M9.066 11.6802C9.11144 11.6801 9.15649 11.6886 9.19884 11.7051C9.17038 11.7216 9.14815 11.7471 9.13558 11.7776C9.12302 11.8081 9.12083 11.8419 9.12934 11.8737C9.13786 11.9056 9.1566 11.9338 9.18269 11.9539C9.20877 11.974 9.24074 11.9849 9.27365 11.985C9.33037 11.985 9.37959 11.9536 9.40509 11.9071C9.43528 11.9799 9.44128 12.0606 9.4222 12.1372C9.40312 12.2137 9.35998 12.2821 9.29914 12.3322C9.2383 12.3823 9.16299 12.4115 9.08434 12.4154C9.00568 12.4193 8.92786 12.3978 8.86236 12.354C8.79686 12.3102 8.74716 12.2464 8.72059 12.1721C8.69403 12.0978 8.69201 12.017 8.71484 11.9414C8.73767 11.8659 8.78413 11.7998 8.84736 11.7527C8.9106 11.7057 8.98725 11.6803 9.066 11.6803M0 10.4701H23.8432C23.3241 10.3382 22.2007 10.1599 22.3859 9.47803C21.4418 10.5727 19.1653 10.246 18.5907 9.70631C17.951 10.6362 14.2263 10.2827 13.9665 9.55826C13.1644 10.5015 10.679 10.5015 9.87684 9.55826C9.61687 10.2816 5.89228 10.6362 5.25244 9.70622C4.67794 10.246 2.40244 10.5727 1.45744 9.47812C1.64269 10.1599 0.519375 10.3382 0 10.4702" fill="white"/>
<path fill-rule="evenodd" clip-rule="evenodd" d="M10.4288 15.2369C9.15944 14.6333 8.46287 13.8127 8.07512 12.917C7.60356 13.0518 7.03684 13.138 6.37825 13.1751C6.13019 13.189 5.86919 13.1961 5.59544 13.1961C5.27969 13.1961 4.94697 13.1867 4.59766 13.1682C5.76175 14.3331 7.19378 15.2316 9.84541 15.2479C10.0412 15.2479 10.2354 15.2442 10.4288 15.2369Z" fill="#292929"/>
<path fill-rule="evenodd" clip-rule="evenodd" d="M8.54725 13.7422C8.37166 13.5033 8.20038 13.203 8.07606 12.9155C7.6045 13.0505 7.03759 13.1368 6.37891 13.1739C6.83134 13.42 7.47831 13.6479 8.54734 13.7422" fill="#292929"/>
</g>
<defs>
<clipPath id="clip0_2261_29504">
<rect width="24" height="20.198" fill="white" transform="translate(0 2)"/>
</clipPath>
</defs>
</svg>
