<svg width="24" height="24" viewBox="0 0 24 24" fill="none" xmlns="http://www.w3.org/2000/svg">
<g clip-path="url(#clip0_3776_5663)">
<path fill-rule="evenodd" clip-rule="evenodd" d="M3.61948 18.2598V16.7307C3.61948 16.5298 3.74548 16.3684 3.95417 16.3684H4.01192C4.22051 16.3684 4.34595 16.5301 4.34595 16.7307V19.95C4.34595 20.735 3.95689 21.3597 3.27889 21.7576C2.96831 21.941 2.61379 22.0374 2.25279 22.0366H2.1087C1.32101 22.0366 0.69523 21.6485 0.295386 20.973C0.11112 20.6635 0.0144444 20.3099 0.0156359 19.95V19.8065C0.0156359 19.0212 0.404886 18.3969 1.08232 17.9982C1.39285 17.8144 1.74756 17.7179 2.1087 17.7192H2.25279C2.78585 17.7192 3.23717 17.9253 3.61948 18.2598ZM0.742011 19.8781C0.742011 20.4452 1.01764 20.8716 1.5162 21.1435C1.71776 21.2534 1.93657 21.3125 2.16654 21.3125C2.72492 21.3125 3.1391 21.0508 3.42467 20.5782C3.55751 20.3588 3.61939 20.1187 3.61939 19.8634C3.61939 19.3719 3.38501 18.9882 2.98845 18.7033C2.74751 18.5306 2.47629 18.4439 2.18051 18.4439C1.57189 18.4439 1.13389 18.7505 0.871011 19.295C0.782323 19.4791 0.741823 19.6744 0.741823 19.8781H0.742011ZM6.86614 17.7193H6.96682C7.80851 17.7193 8.44864 18.1263 8.85429 18.8587C9.01648 19.1517 9.10329 19.4715 9.10329 19.8065V19.95C9.10329 20.735 8.71498 21.3605 8.03595 21.7577C7.7216 21.9415 7.37435 22.0366 7.01004 22.0366H6.86614C6.07845 22.0366 5.45239 21.6485 5.05282 20.973C4.86847 20.6635 4.7717 20.31 4.77279 19.95V19.8065C4.77279 19.0211 5.16373 18.3989 5.83939 17.9984C6.14982 17.8141 6.50479 17.7176 6.86614 17.7193ZM5.49926 19.8781C5.49926 20.4295 5.77114 20.8335 6.2366 21.1183C6.4556 21.2519 6.69598 21.3125 6.95267 21.3125C7.49829 21.3125 7.90161 21.0368 8.18229 20.5776C8.31617 20.3588 8.37673 20.1183 8.37673 19.8634C8.37673 19.3516 8.12942 18.9607 7.7066 18.6772C7.48007 18.5236 7.21203 18.4422 6.93804 18.4439C6.32942 18.4439 5.89142 18.7505 5.62864 19.295C5.53976 19.4791 5.49926 19.6744 5.49926 19.8781ZM12.1233 18.5018C12.0136 18.4506 11.8083 18.4336 11.6898 18.4291C11.0828 18.4063 10.6437 18.747 10.3861 19.2807C10.297 19.4649 10.2565 19.6597 10.2565 19.8634C10.2565 20.4837 10.5832 20.918 11.1378 21.1828C11.3406 21.2794 11.6026 21.2977 11.8243 21.2977C12.0193 21.2977 12.2949 21.1786 12.468 21.0968L12.498 21.0826H12.6323L12.6471 21.0856C12.8123 21.1199 12.937 21.2243 12.937 21.4014V21.4731C12.937 21.9141 12.1287 22.015 11.8203 22.0365C10.7328 22.1115 9.91779 21.5157 9.60748 20.4807C9.55357 20.301 9.52929 20.1225 9.52929 19.9352V19.792C9.52929 19.0066 9.92023 18.3845 10.5959 17.9845C10.906 17.7994 11.261 17.7024 11.6224 17.7041H11.7664C12.1536 17.7041 12.5103 17.8138 12.8299 18.0314L12.8562 18.0496L12.8728 18.0768C12.9073 18.1329 12.937 18.1998 12.937 18.2677V18.3394C12.937 18.5242 12.7983 18.6237 12.6308 18.6558L12.6169 18.6582H12.574C12.4656 18.6582 12.2192 18.5464 12.1224 18.5009L12.1233 18.5018ZM14.4796 18.9922L15.3313 18.1524C15.411 18.0751 15.7132 17.748 15.8322 17.748H15.9623L15.9771 17.7511C16.1429 17.7854 16.267 17.8899 16.267 18.0675V18.1391C16.267 18.2602 16.1247 18.401 16.0462 18.4849C15.8794 18.6612 15.7037 18.8318 15.5329 19.0045L14.6552 19.8927L15.7854 21.0286C15.8894 21.1336 15.9925 21.2394 16.0949 21.3459C16.131 21.3838 16.1842 21.43 16.2145 21.4833C16.247 21.5325 16.267 21.588 16.267 21.6471V21.7218L16.2628 21.7391C16.222 21.9043 16.1168 22.0376 15.9332 22.0376H15.8753C15.7551 22.0376 15.6194 21.9021 15.5371 21.8245C15.3683 21.6651 15.2036 21.4974 15.0374 21.3345L14.4796 20.7888V21.6611C14.4796 21.862 14.3534 22.0235 14.1449 22.0235H14.0886C13.8799 22.0235 13.7539 21.862 13.7539 21.6611V16.7457C13.7539 16.5447 13.88 16.384 14.0886 16.384H14.1449C14.3533 16.384 14.4796 16.5447 14.4796 16.7457V18.9931V18.9922ZM23.5337 17.748H23.6059C23.8237 17.748 23.9691 17.8943 23.9691 18.1103C23.9691 18.4101 23.6816 18.4869 23.4329 18.4869C23.1066 18.4869 22.7951 18.6838 22.5702 18.9047C22.2889 19.1804 22.1671 19.5333 22.1671 19.9213V21.6745C22.1671 21.8755 22.0412 22.0368 21.8324 22.0368H21.775C21.5662 22.0368 21.4403 21.8756 21.4403 21.6745V19.8207C21.4403 19.1089 21.7879 18.5278 22.3684 18.1202C22.7153 17.8768 23.1109 17.7483 23.5345 17.7483L23.5337 17.748ZM18.3705 21.2223C18.6349 21.3143 18.9363 21.3012 19.2075 21.2541C19.3462 21.1952 19.701 21.041 19.8315 21.0636L19.8518 21.0671L19.8706 21.0762C19.9503 21.1147 20.0262 21.1692 20.067 21.25C20.162 21.4395 20.1164 21.6299 19.9296 21.7375L19.8675 21.7733C19.1784 22.1697 18.4455 22.1148 17.7586 21.7445C17.4302 21.5675 17.1789 21.3048 16.9936 20.9845L16.9503 20.9098C16.5078 20.1461 16.5676 19.3427 17.0665 18.6164C17.2387 18.3653 17.4638 18.1715 17.727 18.0197L17.8265 17.9625C18.4755 17.589 19.1709 17.6146 19.8375 17.9424C20.1959 18.1186 20.4862 18.3813 20.6863 18.7268L20.7223 18.7891C20.8676 19.0401 20.6794 19.2588 20.4851 19.4083C20.2595 19.5818 20.0318 19.7915 19.8157 19.9765L18.3707 21.2223H18.3705ZM17.7466 20.7855L19.9309 18.9129C19.7847 18.7292 19.5404 18.5967 19.3328 18.5178C18.9138 18.3586 18.5006 18.4122 18.1163 18.6332C17.6134 18.9227 17.3991 19.3836 17.4179 19.9575C17.4254 20.1834 17.4863 20.4012 17.6066 20.5934C17.649 20.6612 17.6963 20.7248 17.7475 20.7855H17.7466ZM13.8261 6.27393H15.9698V8.45846H17.0536C17.5542 8.45846 18.0689 8.36968 18.543 8.20949C18.7759 8.13071 19.0373 8.02118 19.2671 7.8824C18.9645 7.48857 18.81 6.99129 18.7646 6.50112C18.7027 5.83431 18.8377 4.96657 19.2904 4.44462L19.5157 4.18481L19.7842 4.40004C20.4592 4.94143 21.0289 5.69908 21.1291 6.56056C21.9431 6.32187 22.8989 6.37832 23.6163 6.79111L23.9106 6.96045L23.7558 7.26194C23.1492 8.44341 21.8804 8.8092 20.6401 8.74443C18.7841 13.3518 14.7434 15.5343 9.8441 15.5343C7.31285 15.5343 4.99067 14.591 3.66823 12.3524L3.64667 12.315L3.45401 11.9242C3.00701 10.9388 2.85851 9.85927 2.9592 8.7806L2.98948 8.45752H4.82257V6.27393H6.96617V4.13696H11.2536V2H13.8261V6.27393Z" fill="#364548"/>
<path fill-rule="evenodd" clip-rule="evenodd" d="M20.7741 7.08142C20.9178 5.9678 20.0818 5.09315 19.5634 4.67773C18.9659 5.36632 18.8731 7.17095 19.8104 7.93075C19.2873 8.39392 18.1851 8.81372 17.0564 8.81372H3.31784C3.20816 9.98818 3.41497 11.0697 3.88737 11.9954L4.04366 12.2805C4.14261 12.4478 4.25074 12.6095 4.36756 12.7649C4.93241 12.8011 5.45319 12.8135 5.92962 12.8031H5.92981C6.86609 12.7825 7.63006 12.6722 8.20906 12.4722C8.24999 12.4595 8.29427 12.4632 8.33254 12.4825C8.3708 12.5018 8.40004 12.5351 8.41409 12.5755C8.42813 12.6159 8.42586 12.6601 8.40777 12.6988C8.38968 12.7376 8.35719 12.7678 8.31716 12.7831C8.24009 12.8098 8.15984 12.8347 8.07697 12.8583H8.07669C7.62078 12.9891 7.13187 13.0754 6.50112 13.1142C6.53862 13.1148 6.46212 13.1198 6.46194 13.1198C6.44037 13.1212 6.41347 13.1243 6.39191 13.1254C6.14366 13.1394 5.87572 13.1422 5.60178 13.1422C5.30216 13.1422 5.00712 13.1366 4.67722 13.1198L4.66784 13.1254C5.81159 14.408 7.60241 15.1772 9.84603 15.1772C14.5943 15.1772 18.6218 13.079 20.4053 8.36831C21.6705 8.49775 22.8866 8.17607 23.4397 7.09964C22.5586 6.59283 21.4256 6.75442 20.7732 7.08133" fill="#22A0C8"/>
<path fill-rule="evenodd" clip-rule="evenodd" d="M20.771 7.08142C20.9147 5.9678 20.0787 5.09315 19.5603 4.67773C18.9628 5.36632 18.87 7.17095 19.8073 7.93075C19.2842 8.39392 18.1819 8.81372 17.0533 8.81372H4.12826C4.0722 10.6124 4.74176 11.9777 5.92639 12.8031H5.92667C6.86295 12.7825 7.62692 12.6722 8.20592 12.4722C8.24685 12.4595 8.29113 12.4632 8.32939 12.4825C8.36765 12.5018 8.3969 12.5351 8.41094 12.5755C8.42498 12.6159 8.42272 12.6601 8.40463 12.6988C8.38654 12.7376 8.35404 12.7678 8.31401 12.7831C8.23695 12.8098 8.1567 12.8347 8.07382 12.8583H8.07354C7.61764 12.9891 7.08673 13.0866 6.45598 13.1254C6.45579 13.1254 6.4407 13.1109 6.44051 13.1109C8.05648 13.9373 10.3996 13.9333 13.086 12.9056C16.0982 11.752 18.9013 9.55426 20.8579 7.04058C20.8289 7.05359 20.8003 7.06717 20.7719 7.08133" fill="#37B1D9"/>
<path fill-rule="evenodd" clip-rule="evenodd" d="M3.33984 10.241C3.42422 10.8701 3.60984 11.4592 3.88359 11.9957L4.03987 12.2808C4.13881 12.4481 4.24695 12.6098 4.36378 12.7652C4.92872 12.8014 5.44941 12.8138 5.92603 12.8034C6.86231 12.7828 7.62628 12.6725 8.20528 12.4725C8.24621 12.4598 8.29049 12.4635 8.32876 12.4828C8.36702 12.502 8.39626 12.5354 8.4103 12.5758C8.42435 12.6161 8.42208 12.6604 8.40399 12.6991C8.3859 12.7379 8.35341 12.7681 8.31337 12.7834C8.23631 12.8101 8.15606 12.8349 8.07319 12.8586H8.07291C7.617 12.9894 7.08891 13.0813 6.45816 13.1203C6.43659 13.1216 6.39872 13.1219 6.37687 13.1231C6.12881 13.1369 5.86359 13.1455 5.58956 13.1455C5.27755 13.1461 4.96557 13.1386 4.65394 13.1231C5.79769 14.4058 7.59956 15.1768 9.84319 15.1768C13.9082 15.1768 17.4448 13.6387 19.4976 10.2402H3.33984" fill="#1B81A5"/>
<path fill-rule="evenodd" clip-rule="evenodd" d="M4.25391 10.2422C4.49691 11.3468 5.08078 12.2141 5.92866 12.8046C6.86494 12.784 7.62891 12.6737 8.20791 12.4737C8.24884 12.461 8.29312 12.4647 8.33138 12.484C8.36964 12.5032 8.39889 12.5366 8.41293 12.577C8.42697 12.6173 8.42471 12.6616 8.40662 12.7003C8.38853 12.7391 8.35603 12.7693 8.316 12.7846C8.23894 12.8113 8.15869 12.8362 8.07581 12.8598H8.07553C7.61962 12.9906 7.08038 13.0825 6.44953 13.1215C8.06541 13.9476 10.4018 13.9358 13.087 12.9072C14.7121 12.2848 16.2761 11.3582 17.6793 10.2423L4.25391 10.2422Z" fill="#1D91B4"/>
<path fill-rule="evenodd" clip-rule="evenodd" d="M5.17969 6.63013H7.03763V8.48214H5.17969V6.63013ZM5.33438 6.78452H5.481V8.32701H5.33344V6.78452H5.33438ZM5.61 6.78452H5.76253V8.32701H5.61V6.78452ZM5.89144 6.78452H6.04397V8.32701H5.89144V6.78452ZM6.17306 6.78452H6.3255V8.32701H6.17306V6.78452ZM6.45459 6.78452H6.60703V8.32701H6.45469V6.78452H6.45459ZM6.73603 6.78452H6.88275V8.32701H6.73594V6.78452H6.73603ZM7.32328 4.49316H9.18141V6.34518H7.32328V4.49316ZM7.47816 4.64755H7.62469V6.19088H7.47816V4.64765V4.64755ZM7.75378 4.64755H7.90622V6.19088H7.75406V4.64765L7.75378 4.64755ZM8.03522 4.64755H8.18766V6.19088H8.03531V4.64765L8.03522 4.64755ZM8.31675 4.64755H8.46919V6.19088H8.31675V4.64765V4.64755ZM8.59828 4.64755H8.75081V6.19088H8.59828V4.64765V4.64755ZM8.87972 4.64755H9.02653V6.19088H8.87972V4.64765V4.64755Z" fill="#23A3C2"/>
<path fill-rule="evenodd" clip-rule="evenodd" d="M7.32422 6.62988H9.18234V8.4819H7.32422V6.62988ZM7.47909 6.78427H7.62563V8.32676H7.47909V6.78427ZM7.75472 6.78427H7.90716V8.32676H7.75491V6.78427H7.75472ZM8.03616 6.78427H8.18859V8.32676H8.03616V6.78427ZM8.31769 6.78427H8.47012V8.32676H8.31769V6.78427ZM8.59922 6.78427H8.75175V8.32676H8.59922V6.78427ZM8.88066 6.78427H9.02747V8.32676H8.88066V6.78427Z" fill="#34BBDE"/>
<path fill-rule="evenodd" clip-rule="evenodd" d="M9.46875 6.62988H11.3267V8.4819H9.46875V6.62988ZM9.62344 6.78427H9.76997V8.32676H9.62344V6.78427ZM9.89906 6.78427H10.0515V8.32676H9.89906V6.78427ZM10.1806 6.78427H10.333V8.32676H10.1806V6.78427ZM10.4621 6.78427H10.6146V8.32676H10.4632V6.78427H10.4621ZM10.7436 6.78427H10.8962V8.32676H10.7436V6.78427ZM11.0251 6.78427H11.1717V8.32676H11.0251V6.78427Z" fill="#23A3C2"/>
<path fill-rule="evenodd" clip-rule="evenodd" d="M9.46875 4.49316H11.3267V6.34518H9.46875V4.49316ZM9.62344 4.64755H9.76997V6.19088H9.62344V4.64765V4.64755ZM9.89906 4.64755H10.0515V6.19088H9.89906V4.64765V4.64755ZM10.1806 4.64755H10.333V6.19088H10.1806V4.64765V4.64755ZM10.4621 4.64755H10.6146V6.19088H10.4632V4.64765L10.4621 4.64755ZM10.7436 4.64755H10.8962V6.19088H10.7436V4.64765V4.64755ZM11.0251 4.64755H11.1717V6.19088H11.0251V4.64765V4.64755ZM11.6123 6.63013H13.4703V8.48214H11.6125V6.63013H11.6123ZM11.7672 6.78452H11.9138V8.32701H11.7663V6.78452H11.7672ZM12.0428 6.78452H12.1953V8.32701H12.0428V6.78452ZM12.3243 6.78452H12.4767V8.32701H12.3243V6.78452ZM12.6058 6.78452H12.7583V8.32701H12.6058V6.78452ZM12.8873 6.78452H13.0399V8.32701H12.8873V6.78452ZM13.1689 6.78452H13.3155V8.32701H13.1689V6.78452Z" fill="#34BBDE"/>
<path fill-rule="evenodd" clip-rule="evenodd" d="M11.6133 4.49316H13.4712V6.34518H11.6133V4.49316ZM11.7682 4.64755H11.9147V6.19088H11.7682V4.64765V4.64755ZM12.0438 4.64755H12.1962V6.19088H12.0438V4.64765V4.64755ZM12.3252 4.64755H12.4777V6.19088H12.3252V4.64765V4.64755ZM12.6068 4.64755H12.7593V6.19088H12.6068V4.64765V4.64755ZM12.8883 4.64755H13.0408V6.19088H12.8883V4.64765V4.64755ZM13.1698 4.64755H13.3164V6.19088H13.1698V4.64765V4.64755Z" fill="#23A3C2"/>
<path fill-rule="evenodd" clip-rule="evenodd" d="M11.6133 2.35547H13.4712V4.20777H11.6133V2.35547ZM11.7682 2.50967H11.9147V4.05319H11.7682V2.51061V2.50967ZM12.0438 2.50967H12.1962V4.05319H12.0438V2.51061V2.50967ZM12.3252 2.50967H12.4777V4.05319H12.3252V2.51061V2.50967ZM12.6068 2.50967H12.7593V4.05319H12.6068V2.51061V2.50967ZM12.8883 2.50967H13.0408V4.05319H12.8883V2.51061V2.50967ZM13.1698 2.50967H13.3164V4.05319H13.1698V2.51061V2.50967Z" fill="#34BBDE"/>
<path fill-rule="evenodd" clip-rule="evenodd" d="M13.7539 6.62988H15.6118V8.4819H13.7539V6.62988ZM13.9086 6.78427H14.0553V8.32676H13.9087V6.78427H13.9086ZM14.1842 6.78427H14.3367V8.32676H14.1843V6.78427H14.1842ZM14.4658 6.78427H14.6184V8.32676H14.4658V6.78427ZM14.7473 6.78427H14.8998V8.32676H14.7473V6.78427ZM15.0289 6.78427H15.1813V8.32676H15.0289V6.78427ZM15.3103 6.78427H15.457V8.32676H15.3103V6.78427Z" fill="#23A3C2"/>
<path fill-rule="evenodd" clip-rule="evenodd" d="M9.06829 11.4844C9.13618 11.4835 9.20358 11.4961 9.26657 11.5214C9.32956 11.5466 9.38688 11.5841 9.43521 11.6317C9.48354 11.6792 9.52191 11.7359 9.5481 11.7983C9.57428 11.8608 9.58776 11.9278 9.58775 11.9955C9.58774 12.0632 9.57423 12.1302 9.54803 12.1926C9.52182 12.2551 9.48343 12.3117 9.43508 12.3592C9.38673 12.4068 9.3294 12.4442 9.2664 12.4695C9.2034 12.4948 9.136 12.5073 9.0681 12.5064C8.93336 12.5045 8.80476 12.4499 8.71014 12.3542C8.61551 12.2586 8.56248 12.1296 8.5625 11.9953C8.56252 11.861 8.61561 11.732 8.71027 11.6364C8.80493 11.5408 8.93354 11.4862 9.06829 11.4844Z" fill="#D3ECEC"/>
<path fill-rule="evenodd" clip-rule="evenodd" d="M9.066 11.6302C9.11144 11.6301 9.15649 11.6385 9.19884 11.6549C9.17038 11.6714 9.14815 11.6968 9.13558 11.7271C9.12302 11.7574 9.12083 11.791 9.12934 11.8227C9.13786 11.8544 9.1566 11.8824 9.18269 11.9024C9.20877 11.9224 9.24074 11.9333 9.27365 11.9334C9.33037 11.9334 9.37959 11.9021 9.40509 11.8558C9.43528 11.9284 9.44128 12.0086 9.4222 12.0848C9.40312 12.1609 9.35998 12.229 9.29914 12.2788C9.2383 12.3286 9.16299 12.3577 9.08434 12.3616C9.00568 12.3655 8.92786 12.344 8.86236 12.3005C8.79686 12.2569 8.74716 12.1935 8.72059 12.1196C8.69403 12.0457 8.69201 11.9652 8.71484 11.8901C8.73767 11.8149 8.78413 11.7491 8.84736 11.7023C8.9106 11.6555 8.98725 11.6303 9.066 11.6302M0 10.4263H23.8432C23.3241 10.2951 22.2007 10.1178 22.3859 9.43945C21.4418 10.5284 19.1653 10.2035 18.5907 9.66655C17.951 10.5916 14.2263 10.2399 13.9665 9.51926C13.1644 10.4576 10.679 10.4576 9.87684 9.51926C9.61687 10.2389 5.89228 10.5916 5.25244 9.66646C4.67794 10.2035 2.40244 10.5284 1.45744 9.43955C1.64269 10.1178 0.519375 10.2951 0 10.4264" fill="#364548"/>
<path fill-rule="evenodd" clip-rule="evenodd" d="M10.4288 15.1682C9.15944 14.5677 8.46288 13.7514 8.07513 12.8604C7.60356 12.9945 7.03684 13.0803 6.37825 13.1171C6.13019 13.1309 5.86919 13.138 5.59544 13.138C5.27969 13.138 4.94697 13.1287 4.59766 13.1103C5.76175 14.2691 7.19378 15.1629 9.84541 15.1792C10.0412 15.1792 10.2354 15.1754 10.4288 15.1682Z" fill="#BDD9D7"/>
<path fill-rule="evenodd" clip-rule="evenodd" d="M8.54725 13.6818C8.37166 13.4441 8.20038 13.1454 8.07606 12.8594C7.6045 12.9937 7.03759 13.0795 6.37891 13.1164C6.83134 13.3612 7.47831 13.588 8.54734 13.6818" fill="#D3ECEC"/>
</g>
<defs>
<clipPath id="clip0_3776_5663">
<rect width="24" height="20.093" fill="white" transform="translate(0 2)"/>
</clipPath>
</defs>
</svg>
