<svg width="24" height="24" viewBox="0 0 24 24" fill="none" xmlns="http://www.w3.org/2000/svg">
<path d="M12.0156 12.0044C12.0156 9.79952 13.8083 8.00293 16.0287 8.00293C18.2399 8.00293 20.0417 9.79045 20.0417 12.0044C20.0417 14.2093 18.249 16.0059 16.0287 16.0059C13.8174 16.0059 12.0156 14.2093 12.0156 12.0044Z" fill="#AFAFAF"/>
<path d="M4 19.9986C4 17.7937 5.79268 15.9971 8.01305 15.9971H12.0261V19.9986C12.0261 22.2035 10.2334 24.0001 8.01305 24.0001C5.79268 24.0001 4 22.2126 4 19.9986Z" fill="#BBBBBB"/>
<path d="M12.0156 0.00907371V8.00301H16.0287C18.2399 8.00301 20.0417 6.21549 20.0417 4.0015C20.0417 1.79659 18.249 0 16.0287 0H12.0156V0.00907371Z" fill="#AAA8A8"/>
<path d="M4 4.01078C4 6.21569 5.79268 8.01229 8.01305 8.01229H12.0261V0.00927734H8.01305C5.79268 0.00927734 4 1.7968 4 4.01078Z" fill="#868686"/>
<path d="M4 12.0044C4 14.2093 5.79268 16.0059 8.01305 16.0059H12.0261V8.00293H8.01305C5.79268 8.00293 4 9.79952 4 12.0044Z" fill="#767676"/>
</svg>
