<svg width="25" height="24" viewBox="0 0 25 24" fill="none" xmlns="http://www.w3.org/2000/svg">
<g clip-path="url(#clip0_2513_12365)">
<path d="M20.9 0H4.1C2.11177 0 0.5 1.61177 0.5 3.6V20.4C0.5 22.3882 2.11177 24 4.1 24H20.9C22.8882 24 24.5 22.3882 24.5 20.4V3.6C24.5 1.61177 22.8882 0 20.9 0Z" fill="#404040"/>
<path d="M6.07651 11.9532C6.87338 13.3594 8.37338 14.2032 10.8578 14.4375C10.4828 14.7188 10.0609 15.2344 10.014 15.8438C9.54526 16.125 8.65463 16.2188 7.95151 15.9844C6.96713 15.6563 6.59213 13.7344 5.09213 14.0157C4.76401 14.0625 4.81088 14.2969 5.09213 14.4844C5.56088 14.7657 6.07651 15.2344 6.31088 15.8907C6.87338 17.3438 8.04526 17.7188 9.92026 17.4375V19.5469C9.92026 20.2032 8.98276 20.3907 8.98276 20.7188C8.98276 20.8594 9.31088 20.8594 9.54526 20.8594C10.014 20.8594 11.0453 20.4375 11.0453 19.7813C11.0453 19.2188 11.0453 17.3438 11.0921 17.0157C11.0921 16.3125 11.4671 16.0782 11.4671 16.0782C11.4671 16.0782 11.514 19.9219 11.3734 20.3907C11.1859 21 10.9046 20.9063 10.9046 21.1875C10.9046 21.6094 12.1234 21.2813 12.5453 20.3907C12.8734 19.6875 12.7328 15.9375 12.6859 15.9844H13.014C13.014 15.9844 13.014 17.7188 13.0609 18.4688C13.0609 19.2657 13.014 20.2969 13.4828 20.8125C13.8109 21.1407 14.8421 21.7032 14.8421 21.1875C14.8421 20.9063 14.2796 20.625 14.2796 19.8282V16.125C14.7484 16.125 14.6546 17.3438 14.6546 17.3438L14.7015 19.5938C14.7015 19.5938 14.6078 20.4375 15.5921 20.7657C15.9671 20.9063 16.7171 20.9063 16.764 20.7188C16.8109 20.5313 15.8265 20.2032 15.8265 19.5469V17.25C15.8265 15.5625 15.5921 14.9532 14.7953 14.4375C17.2796 14.2032 18.8265 13.5938 19.5765 11.9532C20.0453 11.0157 20.139 9.89067 20.139 9.04692C20.139 6.70317 19.014 5.90629 18.7796 5.48442C19.1078 3.70317 18.7328 2.90629 18.5453 2.67192C17.889 2.43754 16.2953 3.23442 15.4515 3.79692C14.0453 3.37504 11.0453 3.42192 9.92026 3.89067C7.85776 2.43754 6.77963 2.67192 6.77963 2.67192C6.77963 2.67192 6.07651 3.93754 6.59213 5.76567C5.88901 6.60942 5.42026 7.21879 5.37338 8.81254C5.37338 10.0782 5.51401 10.875 6.07651 11.9532Z" fill="white"/>
</g>
<defs>
<clipPath id="clip0_2513_12365">
<rect width="24" height="24" fill="white" transform="translate(0.5)"/>
</clipPath>
</defs>
</svg>
