<svg width="24" height="25" viewBox="0 0 24 25" fill="none" xmlns="http://www.w3.org/2000/svg">
<g clip-path="url(#clip0_2513_12366)">
<path d="M20.4 0.5H3.6C1.61177 0.5 0 2.11177 0 4.1V20.9C0 22.8882 1.61177 24.5 3.6 24.5H20.4C22.3882 24.5 24 22.8882 24 20.9V4.1C24 2.11177 22.3882 0.5 20.4 0.5Z" fill="#171515"/>
<path d="M5.57651 12.4532C6.37338 13.8594 7.87338 14.7032 10.3578 14.9375C9.98276 15.2188 9.56088 15.7344 9.51401 16.3438C9.04526 16.625 8.15463 16.7188 7.45151 16.4844C6.46713 16.1563 6.09213 14.2344 4.59213 14.5157C4.26401 14.5625 4.31088 14.7969 4.59213 14.9844C5.06088 15.2657 5.57651 15.7344 5.81088 16.3907C6.37338 17.8438 7.54526 18.2188 9.42026 17.9375V20.0469C9.42026 20.7032 8.48276 20.8907 8.48276 21.2188C8.48276 21.3594 8.81088 21.3594 9.04526 21.3594C9.51401 21.3594 10.5453 20.9375 10.5453 20.2813C10.5453 19.7188 10.5453 17.8438 10.5921 17.5157C10.5921 16.8125 10.9671 16.5782 10.9671 16.5782C10.9671 16.5782 11.014 20.4219 10.8734 20.8907C10.6859 21.5 10.4046 21.4063 10.4046 21.6875C10.4046 22.1094 11.6234 21.7813 12.0453 20.8907C12.3734 20.1875 12.2328 16.4375 12.1859 16.4844H12.514C12.514 16.4844 12.514 18.2188 12.5609 18.9688C12.5609 19.7657 12.514 20.7969 12.9828 21.3125C13.3109 21.6407 14.3421 22.2032 14.3421 21.6875C14.3421 21.4063 13.7796 21.125 13.7796 20.3282V16.625C14.2484 16.625 14.1546 17.8438 14.1546 17.8438L14.2015 20.0938C14.2015 20.0938 14.1078 20.9375 15.0921 21.2657C15.4671 21.4063 16.2171 21.4063 16.264 21.2188C16.3109 21.0313 15.3265 20.7032 15.3265 20.0469V17.75C15.3265 16.0625 15.0921 15.4532 14.2953 14.9375C16.7796 14.7032 18.3265 14.0938 19.0765 12.4532C19.5453 11.5157 19.639 10.3907 19.639 9.54692C19.639 7.20317 18.514 6.40629 18.2796 5.98442C18.6078 4.20317 18.2328 3.40629 18.0453 3.17192C17.389 2.93754 15.7953 3.73442 14.9515 4.29692C13.5453 3.87504 10.5453 3.92192 9.42026 4.39067C7.35776 2.93754 6.27963 3.17192 6.27963 3.17192C6.27963 3.17192 5.57651 4.43754 6.09213 6.26567C5.38901 7.10942 4.92026 7.71879 4.87338 9.31254C4.87338 10.5782 5.01401 11.375 5.57651 12.4532Z" fill="white"/>
</g>
<defs>
<clipPath id="clip0_2513_12366">
<rect width="24" height="24" fill="white" transform="translate(0 0.5)"/>
</clipPath>
</defs>
</svg>
