<svg width="24" height="24" viewBox="0 0 24 24" fill="none" xmlns="http://www.w3.org/2000/svg">
<path d="M6.40079 12.4962C6.38459 12.521 6.35312 12.5992 6.31021 12.7298C6.26635 12.8614 6.21296 13.0254 6.15003 13.2256C6.0871 13.423 6.01844 13.6451 5.94598 13.8902L5.72 14.6415C5.63419 14.897 5.56744 15.1468 5.49116 15.3928L5.30047 16.0583L5.15744 16.5561L5.0907 16.7944C5.06209 16.8736 5.03349 16.9613 4.98581 17.0585C4.93814 17.1539 4.88093 17.2464 4.82372 17.3331C4.75697 17.4189 4.69023 17.4924 4.61395 17.5496C4.53767 17.6068 4.46139 17.6354 4.37558 17.6354C4.24209 17.6354 4.14674 17.5896 4.07999 17.5019C4.01325 17.4113 3.98464 17.2483 3.98464 17.0099V16.7944C3.98464 16.7153 4.02278 16.5656 4.07999 16.3482C4.1372 16.1289 4.20395 15.8829 4.28976 15.6083C4.36604 15.3318 4.46139 15.0477 4.54721 14.753L4.80465 13.9521C4.57581 14.2 4.33744 14.4479 4.07999 14.6863C3.82255 14.9342 3.55557 15.1535 3.2886 15.3442C3.01208 15.5349 2.73557 15.697 2.45906 15.8209C2.18254 15.9449 1.91557 16.0021 1.65812 16.0021C1.36254 16.0021 1.11463 15.9353 0.904864 15.8019C0.695096 15.6684 0.513932 15.5063 0.380443 15.2965C0.246955 15.0868 0.14207 14.8484 0.0753259 14.591C0.0381397 14.344 0 14.077 0 13.8196V13.7242C0 13.6956 0.00381397 13.6642 0.00953492 13.6346C0.0324187 13.1579 0.100117 12.6716 0.209768 12.172C0.324187 11.6686 0.467211 11.1709 0.648375 10.6751C0.829538 10.1792 1.03931 9.69298 1.27768 9.22006C1.52559 8.76621 1.78303 8.31807 2.05954 7.89855C2.33606 7.47902 2.63355 7.0881 2.94629 6.73532C3.26094 6.38062 3.58227 6.07551 3.91313 5.81998C4.24304 5.56255 4.57676 5.36232 4.9143 5.2193C5.24802 5.07628 5.58175 5 5.91165 5C6.29305 5 6.6611 5.10488 7.0177 5.31178C7.3705 5.52441 7.70422 5.85812 8.01696 6.32532C8.08752 6.4302 8.13138 6.53509 8.15045 6.64187C8.16952 6.74676 8.17906 6.84878 8.17906 6.94222C8.17906 7.16533 8.12662 7.34268 8.01983 7.47044C7.91494 7.60393 7.79099 7.66113 7.63843 7.66113C7.50494 7.66113 7.38099 7.59439 7.26657 7.45137C7.15215 7.30835 7.01866 7.10812 6.88517 6.85068C6.75168 6.61232 6.60866 6.44069 6.44656 6.33581C6.28447 6.23093 6.11284 6.18326 5.92214 6.18326C5.62656 6.18326 5.32144 6.30721 4.98772 6.55511C4.654 6.80301 4.32981 7.11766 4.00562 7.51811C3.68143 7.91857 3.36678 8.37624 3.0712 8.89111C2.77562 9.40598 2.50864 9.93039 2.2798 10.4739C2.05096 11.0173 1.8698 11.5418 1.73631 12.0662C1.60282 12.5906 1.53608 13.0578 1.53608 13.4773C1.53608 13.6203 1.54561 13.7633 1.56468 13.9064C1.58375 14.0589 1.62189 14.1829 1.66957 14.3068C1.71724 14.4308 1.79352 14.5261 1.88887 14.6024C1.98422 14.6787 2.09864 14.7168 2.23213 14.7168C2.38468 14.7168 2.56585 14.6691 2.75655 14.5643C2.95678 14.4594 3.15701 14.3259 3.36678 14.1543C3.57655 13.9826 3.79585 13.7919 4.00562 13.5822C4.21539 13.3724 4.42516 13.1531 4.60632 12.9338C4.78749 12.7145 4.95911 12.5048 5.0926 12.3045C5.23563 12.1043 5.34051 11.9327 5.41679 11.7801L5.96886 10.0057C6.03942 9.81788 6.13096 9.68344 6.24824 9.60526C6.36266 9.52517 6.47993 9.48512 6.60103 9.48512C6.65824 9.48512 6.71831 9.49466 6.77742 9.51373C6.83463 9.5328 6.88994 9.56331 6.93666 9.60526C6.98433 9.6434 7.01961 9.70061 7.04726 9.76735C7.07587 9.83409 7.09494 9.91037 7.09494 10.0057C7.09494 10.2441 7.07587 10.4691 7.03773 10.677C6.99959 10.8867 6.94238 11.087 6.87563 11.2872C6.81843 11.4826 6.74215 11.6819 6.66587 11.8831C6.58959 12.0833 6.51331 12.2931 6.43703 12.5124L6.40079 12.4962ZM14.3176 13.9531C14.1336 14.201 13.9191 14.4432 13.675 14.6777C13.4391 14.9065 13.186 15.1169 12.9179 15.307C12.6586 15.4901 12.403 15.6379 12.1523 15.7494C11.9005 15.861 11.6755 15.9163 11.4753 15.9163C11.275 15.9163 11.1101 15.8495 10.9842 15.716C10.8584 15.5826 10.7954 15.3537 10.7954 15.0295C10.7954 14.8007 10.8298 14.5337 10.8965 14.2286C10.7878 14.4193 10.6515 14.6196 10.4884 14.8103C10.3263 15.0105 10.1385 15.1916 9.92967 15.3537C9.7199 15.5158 9.48534 15.6493 9.22599 15.7447C8.96664 15.84 8.68441 15.8972 8.37739 15.8972C8.24104 15.8972 8.10755 15.8781 7.97978 15.84C7.84629 15.8019 7.73187 15.7447 7.63652 15.6588C7.54117 15.573 7.46489 15.4586 7.39815 15.3156C7.34094 15.1726 7.31233 14.9914 7.31233 14.7816L7.3314 14.5528C7.35047 14.4098 7.39815 14.1714 7.4935 13.8568C7.58885 13.5421 7.72234 13.1321 7.91303 12.6268C8.10373 12.1215 8.36118 11.5208 8.70443 10.8057C8.79025 10.615 8.8856 10.4815 9.00955 10.3957C9.12397 10.3099 9.24792 10.2717 9.38141 10.2717C9.43862 10.2717 9.49583 10.2813 9.56258 10.3003C9.61979 10.3099 9.677 10.3385 9.73421 10.3766C9.79141 10.4148 9.82955 10.4624 9.86769 10.5196C9.8963 10.5673 9.91537 10.6341 9.91537 10.7103C9.91537 10.758 9.90583 10.8057 9.8963 10.8438C9.86769 10.9296 9.82955 11.0345 9.76281 11.168L9.5149 11.639C9.41955 11.8106 9.3242 12.0013 9.21932 12.2035C9.11443 12.4066 9.01908 12.623 8.93327 12.8347C8.84746 13.054 8.77118 13.278 8.70443 13.5021C8.63769 13.7309 8.59955 13.9502 8.59001 14.16C8.59001 14.2553 8.60908 14.3316 8.64722 14.4079C8.68536 14.4842 8.76164 14.5223 8.85699 14.5223C9.12397 14.5223 9.39095 14.4365 9.63886 14.2553C9.88676 14.077 10.1156 13.8549 10.3254 13.5898C10.5351 13.3228 10.7258 13.0368 10.8975 12.7317C11.0691 12.4266 11.2026 12.1501 11.317 11.8984C11.3933 11.7296 11.4696 11.5484 11.5268 11.3549C11.584 11.1642 11.6507 10.983 11.727 10.8209C11.7937 10.6588 11.8796 10.5196 11.9749 10.4109C12.0607 10.3022 12.1751 10.2489 12.3182 10.2489C12.4612 10.2489 12.5851 10.3061 12.671 10.4205C12.7568 10.5349 12.8045 10.6684 12.8045 10.8305C12.8045 10.9163 12.7758 11.0402 12.7186 11.1928C12.6614 11.3453 12.5947 11.5265 12.5089 11.7267L12.2324 12.3722C12.1275 12.6011 12.0417 12.8299 11.9558 13.0683C11.87 13.3019 11.7937 13.5355 11.7365 13.7586C11.6793 13.9874 11.6507 14.1972 11.6507 14.3879C11.6507 14.569 11.7461 14.6548 11.9272 14.6548C12.0607 14.6548 12.2228 14.6167 12.4135 14.5213C12.6042 14.4355 12.8045 14.3116 13.0142 14.1495C13.224 13.9874 13.4338 13.7967 13.6435 13.5774C13.8533 13.3581 14.044 13.1255 14.2061 12.8718L14.2728 13.8825L14.3176 13.9531Z" fill="#1A1A1A"/>
<path d="M14.511 13.581C14.4652 13.6954 14.4204 13.8289 14.3775 13.9796C14.3327 14.1302 14.3107 14.2656 14.3107 14.3848C14.3107 14.4592 14.3231 14.5183 14.3489 14.5631C14.3737 14.6079 14.4213 14.6298 14.4919 14.6298C14.5806 14.6298 14.6902 14.5993 14.8228 14.5373C14.9544 14.4754 15.0964 14.3943 15.249 14.2913C15.4015 14.1903 15.5617 14.074 15.7257 13.9424C15.8916 13.8089 16.0566 13.6659 16.2196 13.5324C16.3817 13.3894 16.5381 13.2463 16.6868 13.1033C16.8356 12.9603 16.9691 12.8268 17.0873 12.7124C17.1197 12.6743 17.1588 12.6552 17.2055 12.6361C17.2513 12.6171 17.2914 12.6075 17.3247 12.6075C17.4105 12.6075 17.4773 12.6361 17.5345 12.7124C17.5917 12.7791 17.6203 12.8745 17.6203 12.9889C17.6203 13.0938 17.5917 13.2082 17.5345 13.3322C17.4773 13.4561 17.3724 13.5801 17.2294 13.704C16.9624 13.9901 16.6954 14.2666 16.4189 14.5335C16.1519 14.791 15.8754 15.0293 15.6084 15.2296C15.3415 15.4298 15.0745 15.5823 14.8075 15.7063C14.5405 15.8207 14.2831 15.8779 14.0352 15.8779C13.8636 15.8779 13.7205 15.8493 13.6061 15.7921C13.4917 15.7349 13.4059 15.6586 13.3296 15.5633C13.2629 15.4679 13.2152 15.3535 13.1866 15.2296C13.158 15.0961 13.1484 14.9626 13.1484 14.8196C13.1484 14.5717 13.177 14.3238 13.2438 14.0663C13.3105 13.8089 13.3773 13.5705 13.4631 13.3608C13.6156 12.9698 13.7587 12.5885 13.9112 12.2071L14.3308 11.1582L16.2273 6.38232C16.2988 6.19162 16.3989 6.05623 16.5276 5.97233C16.6573 5.89605 16.7851 5.85791 16.9157 5.85791C17.0492 5.85791 17.1636 5.89605 17.2723 5.98186C17.3772 6.06386 17.4344 6.20116 17.4344 6.38899C17.4344 6.47767 17.4153 6.57206 17.3819 6.67122C17.3438 6.76657 17.3057 6.87526 17.2485 6.98873C17.1436 7.21947 17.0196 7.5036 16.8766 7.84113L16.3998 8.94715C16.2378 9.34284 16.0661 9.7576 15.8945 10.1867L15.3796 11.4452C15.208 11.8533 15.0554 12.2366 14.9124 12.6028L14.5405 13.5496L14.511 13.581Z" fill="#1A1A1A"/>
<path d="M23.4092 12.237C23.4693 12.196 23.5236 12.1636 23.5742 12.1388C23.6238 12.114 23.6724 12.1006 23.7172 12.1006C23.8097 12.1006 23.8793 12.1426 23.9251 12.2246C23.9727 12.3066 24.0013 12.4057 24.0013 12.5259C24.0013 12.6546 23.9727 12.7862 23.9155 12.9197C23.8583 13.0532 23.782 13.1657 23.6676 13.2534C23.2195 13.651 22.819 14.0133 22.4757 14.3403C22.123 14.6674 21.7988 14.9486 21.4841 15.1842C21.1695 15.4225 20.8643 15.6037 20.5688 15.7372C20.2732 15.8707 19.9585 15.9374 19.6153 15.9374C19.3006 15.9374 19.0527 15.8707 18.8811 15.7276C18.7095 15.5941 18.6236 15.4035 18.6236 15.1556V15.0983C18.6236 15.0888 18.6332 15.0602 18.6332 15.0411C18.6522 14.8981 18.719 14.7265 18.8334 14.5263C18.9478 14.3356 19.0813 14.1353 19.2434 13.9256C19.4055 13.7158 19.5771 13.506 19.7583 13.2963C19.9395 13.0865 20.1016 12.8863 20.2636 12.6956C20.4162 12.5049 20.5402 12.3333 20.645 12.1712C20.7499 12.0186 20.7976 11.8852 20.7976 11.7898C20.7976 11.7326 20.7785 11.6849 20.7385 11.6468C20.6937 11.6182 20.6241 11.5991 20.5287 11.5991C20.3571 11.5991 20.1855 11.6468 20.0081 11.7326C19.8269 11.8184 19.6496 11.9424 19.4742 12.0854C19.3025 12.2379 19.1309 12.4 18.9669 12.5907C18.8029 12.7814 18.6522 12.9816 18.4997 13.1819C18.3567 13.3916 18.2232 13.5919 18.0992 13.8016C17.9848 14.0114 17.8799 14.2021 17.7941 14.3737L17.6892 14.6025L17.5462 14.9458L17.3746 15.3272L17.2125 15.699L17.079 16.0137C17.0408 16.109 17.0122 16.1662 16.9932 16.2044C16.9741 16.252 16.9455 16.3379 16.8978 16.4618L16.7262 16.8985L16.526 17.4229L16.3353 17.9378L16.1732 18.3745C16.1255 18.4984 16.0969 18.5823 16.0874 18.6271C16.0397 18.7511 15.992 18.875 15.9348 18.9895C15.8776 19.1039 15.8156 19.2021 15.7422 19.2888C15.6697 19.3747 15.5858 19.4462 15.4914 19.4986C15.3961 19.5463 15.2912 19.5749 15.1768 19.5749C15.0242 19.5749 14.9003 19.5367 14.8049 19.4681C14.7096 19.4014 14.6523 19.2583 14.6523 19.0581C14.6523 18.9628 14.6619 18.8579 14.6905 18.753C14.7096 18.6481 14.7477 18.5509 14.7858 18.4479C14.8144 18.343 14.8621 18.2477 14.9003 18.1523C14.9384 18.057 14.9765 17.9616 15.0051 17.8701C15.2244 17.3743 15.458 16.8785 15.6917 16.3769C15.9253 15.8754 16.1493 15.3853 16.3686 14.8991C16.5841 14.4128 16.7834 13.9361 16.9693 13.4593C17.1505 12.9921 17.3031 12.5383 17.427 12.1054L17.5605 11.7278C17.6177 11.5657 17.6845 11.4036 17.7607 11.2511C17.837 11.0985 17.9228 10.9555 18.0182 10.8411C18.1135 10.7267 18.2184 10.6666 18.3233 10.6666C18.4949 10.6666 18.616 10.7048 18.6913 10.781C18.7676 10.8649 18.8058 10.9717 18.8058 11.1243C18.8058 11.1529 18.8019 11.2006 18.7934 11.2673C18.7838 11.334 18.7743 11.4008 18.759 11.4723L18.718 11.6725C18.7085 11.7393 18.6894 11.7869 18.6799 11.8155C18.8325 11.6477 19.0041 11.4818 19.1833 11.315C19.3645 11.15 19.5552 11.0003 19.7459 10.8668C19.9366 10.7334 20.1368 10.6189 20.3371 10.5379C20.5373 10.4521 20.7375 10.4092 20.9378 10.4092C21.0808 10.4092 21.2143 10.4282 21.3535 10.4664C21.487 10.5064 21.6109 10.5646 21.7158 10.6418C21.8274 10.7181 21.9141 10.8135 21.9809 10.9279C22.0476 11.0423 22.081 11.1786 22.081 11.3321C22.081 11.5352 22.0276 11.7517 21.9284 11.9805C21.8236 12.2131 21.6996 12.4477 21.5413 12.6765C21.3888 12.9111 21.22 13.138 21.0398 13.3583C20.8586 13.5776 20.6965 13.7778 20.5344 13.9589L20.134 14.4261C20.0291 14.5501 19.9719 14.6359 19.97 14.6836C19.97 14.7408 19.989 14.7885 20.0272 14.8266C20.0653 14.8647 20.1321 14.8838 20.2179 14.8838C20.2923 14.8838 20.3971 14.8409 20.5325 14.7599C20.6736 14.674 20.8663 14.5406 21.1142 14.3441C21.3621 14.1439 21.6824 13.8865 22.0648 13.5528C22.4462 13.2229 22.9229 12.8091 23.4826 12.3066L23.4092 12.237Z" fill="#1A1A1A"/>
</svg>
