<svg width="24" height="24" viewBox="0 0 24 24" fill="none" xmlns="http://www.w3.org/2000/svg">
<g clip-path="url(#clip0_2222_28478)">
<path d="M5.08203 0H6.16016V1.06875H7.15391V0H8.23203V3.23438H7.15391V2.15625H6.16953V3.23438H5.08203M9.65703 1.07812H8.70547V0H11.6914V1.07812H10.7352V3.23438H9.65703M12.1648 0H13.2945L13.9883 1.13906L14.682 0H15.8117V3.23438H14.7336V1.63125L13.9789 2.79375L13.2242 1.63125V3.23438H12.1648M16.3461 0H17.4242V2.16563H18.9523V3.23438H16.3461" fill="white"/>
<path d="M5.04297 22.0783L3.49609 4.71582H20.5023L18.9555 22.0689L11.9852 24.0002" fill="#404040"/>
<path d="M12 22.5234V6.14062H18.9516L17.625 20.9531" fill="#9D9D9D"/>
<path d="M6.65625 8.26416H12V10.3923H8.99063L9.1875 12.572H12V14.6954H7.2375M7.33125 15.7642H9.46875L9.61875 17.4657L12 18.1032V20.3251L7.63125 19.1063" fill="#F1F1F1"/>
<path d="M17.3266 8.26416H11.9922V10.3923H17.1297M16.9375 12.572H11.9922V14.7001H14.6172L14.3688 17.4657L11.9922 18.1032V20.3157L16.3516 19.1063" fill="white"/>
</g>
<defs>
<clipPath id="clip0_2222_28478">
<rect width="24" height="24" fill="white"/>
</clipPath>
</defs>
</svg>
