<svg width="24" height="24" viewBox="0 0 24 24" fill="none" xmlns="http://www.w3.org/2000/svg">
<g clip-path="url(#clip0_2513_12638)">
<path d="M21.8243 0H2.17566C0.974063 0 0 0.974063 0 2.17566V21.8243C0 23.0259 0.974063 24 2.17566 24H21.8243C23.0259 24 24 23.0259 24 21.8243V2.17566C24 0.974063 23.0259 0 21.8243 0Z" fill="#404040"/>
<path d="M8.0225 7.5512C8.82031 7.5512 9.48866 6.92589 9.48866 6.10633C9.48866 5.28733 8.82031 4.66211 8.0225 4.66211C7.22469 4.66211 6.55653 5.28733 6.55653 6.10633C6.55653 6.9258 7.22469 7.5512 8.0225 7.5512ZM4.98256 15.2875C4.89641 15.654 4.85319 16.0498 4.85319 16.3727C4.85319 17.645 5.54309 18.4896 7.00925 18.4896C8.22519 18.4896 9.21097 17.7675 9.92075 16.6015L9.48734 18.3409H11.9019L13.2819 12.806C13.6269 11.4046 14.2952 10.6772 15.3087 10.6772C16.1064 10.6772 16.6022 11.1733 16.6022 11.9923C16.6022 12.2296 16.5807 12.4881 16.4944 12.7685L15.7828 15.3126C15.675 15.6791 15.6321 16.0459 15.6321 16.3906C15.6321 17.5984 16.3434 18.4818 17.8311 18.4818C19.1032 18.4818 20.1164 17.6629 20.6771 15.7008L19.7285 15.3346C19.2541 16.6491 18.8444 16.8867 18.521 16.8867C18.1976 16.8867 18.0251 16.6713 18.0251 16.2403C18.0251 16.0463 18.0684 15.8309 18.1329 15.5716L18.823 13.093C18.9954 12.511 19.0602 11.995 19.0602 11.5208C19.0602 9.66658 17.9389 8.69889 16.5807 8.69889C15.3087 8.69889 14.0149 9.8463 13.3682 11.0539L13.8424 8.88639H10.1558L9.63828 10.7955H11.3632L10.301 15.048C9.46691 16.9022 7.93475 16.9323 7.74247 16.8893C7.42672 16.818 7.22478 16.6981 7.22478 16.2879C7.22478 16.0511 7.26791 15.7111 7.37572 15.3011L8.99291 8.88639H4.89641L4.37891 10.7955H6.08206L4.98256 15.2875Z" fill="white"/>
</g>
<defs>
<clipPath id="clip0_2513_12638">
<rect width="24" height="24" fill="white"/>
</clipPath>
</defs>
</svg>
