<svg width="24" height="24" viewBox="0 0 24 24" fill="none" xmlns="http://www.w3.org/2000/svg">
<g clip-path="url(#clip0_3776_5698)">
<path d="M1.79429 5.46495C-0.287906 8.43543 -0.0286991 12.3 1.56192 15.4562C1.59974 15.5319 1.63938 15.6063 1.67841 15.6808C1.70342 15.728 1.7269 15.7765 1.75282 15.8231C1.76746 15.8509 1.78392 15.8782 1.79917 15.9048C1.82631 15.955 1.85406 16.0029 1.88211 16.0519C1.93152 16.1385 1.98214 16.2244 2.03398 16.3104C2.06264 16.3576 2.09101 16.4048 2.12059 16.452C2.17792 16.544 2.23677 16.6348 2.29684 16.7256C2.32186 16.7644 2.34625 16.8031 2.37186 16.8407C2.45481 16.9636 2.53958 17.0858 2.6271 17.2063C2.62927 17.2094 2.63166 17.213 2.6344 17.216C2.64814 17.2353 2.66338 17.2541 2.6774 17.2735C2.75303 17.377 2.8311 17.4793 2.91008 17.5804C2.93906 17.6173 2.96832 17.6542 2.9976 17.6912C3.06804 17.7789 3.1397 17.8661 3.21259 17.9533C3.23972 17.986 3.26717 18.0187 3.29462 18.0507C3.39251 18.1652 3.49222 18.279 3.59407 18.3903C3.59594 18.3921 3.59835 18.3946 3.60016 18.3964C3.60444 18.4012 3.60809 18.4043 3.61174 18.4091C3.71115 18.5168 3.813 18.6222 3.91609 18.7275C3.9481 18.7602 3.98074 18.7929 4.01367 18.825C4.09357 18.9049 4.17468 18.9836 4.25671 19.0617C4.28995 19.0931 4.32289 19.1252 4.35613 19.1555C4.4656 19.2578 4.5763 19.3583 4.68913 19.4564C4.691 19.4581 4.69247 19.4595 4.69431 19.4606C4.71352 19.4776 4.73335 19.4933 4.75225 19.5096C4.85167 19.595 4.95291 19.6797 5.05475 19.7633C5.09623 19.7966 5.13831 19.8293 5.18009 19.8626C5.26334 19.9285 5.3475 19.9939 5.43228 20.0581C5.4771 20.092 5.52193 20.1259 5.56706 20.1598C5.66068 20.2282 5.75491 20.2954 5.85005 20.3614C5.88482 20.3862 5.91836 20.4104 5.95312 20.434C5.96287 20.4407 5.97174 20.4473 5.98148 20.454C6.07175 20.5158 6.16414 20.5751 6.25625 20.6344C6.29589 20.6604 6.33523 20.6877 6.37518 20.7131C6.51667 20.8021 6.66032 20.8899 6.80546 20.9746C6.8448 20.997 6.88475 21.0188 6.92439 21.0412C7.03112 21.1023 7.13846 21.1623 7.24732 21.221C7.30618 21.2525 7.36656 21.2821 7.42602 21.3124C7.50287 21.3524 7.57911 21.3929 7.65717 21.4317C7.67485 21.4402 7.69316 21.4486 7.71054 21.4571C7.74195 21.4722 7.77366 21.4867 7.80507 21.5025C7.92613 21.56 8.04812 21.6163 8.17132 21.6708C8.19755 21.6823 8.22286 21.6938 8.24878 21.7053C8.38997 21.7664 8.53237 21.8251 8.67601 21.8814C8.71047 21.8953 8.74524 21.9087 8.78 21.922C8.91296 21.9728 9.04775 22.0231 9.18315 22.0703C9.20023 22.0763 9.2167 22.0818 9.23377 22.0878C9.38228 22.1393 9.53232 22.1871 9.68326 22.2337C9.71924 22.244 9.75553 22.2555 9.79182 22.2658C9.94552 22.3118 10.0974 22.3669 10.2559 22.396C20.3259 24.2187 23.251 16.3895 23.251 16.3895C20.7943 19.5663 16.4336 20.4041 12.3019 19.4713C12.1455 19.4362 11.9936 19.3878 11.8408 19.343C11.8021 19.3315 11.764 19.32 11.7259 19.3085C11.5768 19.2631 11.4288 19.2153 11.2819 19.165C11.2617 19.1578 11.2413 19.1505 11.2209 19.1432C11.0892 19.0972 10.9589 19.0488 10.8293 18.9992C10.7927 18.9846 10.7561 18.9707 10.7196 18.9562C10.5774 18.9005 10.4363 18.8424 10.2969 18.7818C10.2682 18.7697 10.2408 18.757 10.2124 18.7449C10.0926 18.691 9.97395 18.6366 9.85594 18.5803C9.82178 18.5639 9.78763 18.5482 9.75286 18.5312C9.66018 18.4863 9.5685 18.4385 9.47707 18.3919C9.41586 18.3599 9.35366 18.3296 9.29296 18.2962C9.18129 18.2369 9.07162 18.1752 8.96245 18.1122C8.92548 18.0916 8.88801 18.0718 8.85078 18.0504C8.70564 17.9656 8.56225 17.8779 8.42036 17.7889C8.38113 17.7641 8.34291 17.7375 8.30419 17.712C8.20127 17.646 8.09885 17.5788 7.99792 17.5099C7.96445 17.4873 7.93222 17.4633 7.89924 17.441C7.80182 17.3725 7.70539 17.3034 7.60971 17.2332C7.56624 17.2012 7.52352 17.169 7.48131 17.137C7.39362 17.0703 7.30644 17.0031 7.22 16.9342C7.18097 16.9033 7.14193 16.8724 7.10351 16.8415C6.99373 16.7519 6.88517 16.6617 6.77813 16.5691C6.76686 16.5595 6.75464 16.5498 6.74245 16.5395C6.62657 16.4384 6.51282 16.3349 6.4003 16.2307C6.36767 16.1999 6.33596 16.1696 6.30394 16.1387C6.22069 16.06 6.13866 15.9807 6.05815 15.8996C6.02583 15.8675 5.9935 15.8361 5.96179 15.804C5.85932 15.6999 5.75869 15.5945 5.66019 15.4874C5.65531 15.4819 5.65013 15.4771 5.64526 15.4716C5.54096 15.3584 5.43911 15.2428 5.33939 15.126C5.31225 15.0939 5.28602 15.063 5.25918 15.0316C5.18478 14.9426 5.11098 14.8524 5.03901 14.7616C5.01203 14.7288 4.98505 14.6954 4.95832 14.6616C4.87164 14.5501 4.78695 14.4387 4.70401 14.3257C2.41015 11.22 1.58608 6.93666 3.41947 3.41895" fill="#0868AC"/>
<path d="M8.25589 2.96225C6.75007 5.11307 6.83178 7.99222 8.00645 10.2669C8.20344 10.6483 8.42483 11.0182 8.67245 11.3705C8.89811 11.6913 9.14817 12.0733 9.44762 12.3312C9.55619 12.4499 9.66963 12.5655 9.78549 12.6793C9.81475 12.7089 9.84465 12.7374 9.87454 12.7665C9.98707 12.8748 10.1014 12.9814 10.2197 13.0849C10.2246 13.0885 10.2289 13.0933 10.2338 13.097C10.235 13.0982 10.2363 13.0987 10.2371 13.1001C10.3679 13.2139 10.503 13.3235 10.6402 13.4312C10.6708 13.4542 10.7009 13.4784 10.7317 13.502C10.8693 13.6068 11.0095 13.7097 11.1535 13.8077C11.1577 13.8108 11.1614 13.8138 11.1657 13.8168C11.2291 13.8604 11.2938 13.901 11.3581 13.9427C11.3889 13.9627 11.4182 13.9839 11.4493 14.0027C11.552 14.068 11.656 14.1316 11.7618 14.1927C11.7768 14.2018 11.7914 14.2097 11.8061 14.2182C11.8972 14.2702 11.9896 14.3217 12.0824 14.3713C12.1147 14.3895 12.1476 14.4052 12.1805 14.4222C12.2446 14.4555 12.3086 14.4894 12.3739 14.5214C12.3836 14.5263 12.3937 14.5305 12.4031 14.5348C12.5358 14.5996 12.6697 14.6619 12.8063 14.7212C12.8356 14.734 12.8658 14.7454 12.8953 14.7576C13.0045 14.8036 13.1149 14.8484 13.2259 14.8907C13.2729 14.9083 13.3204 14.9252 13.3674 14.9422C13.468 14.9791 13.569 15.013 13.6708 15.0469C13.7169 15.0614 13.762 15.0766 13.808 15.0905C13.9529 15.1353 14.0959 15.1916 14.2469 15.2164C22.0218 16.4949 23.8167 10.5534 23.8167 10.5534C22.1987 12.8665 19.0653 13.97 15.7215 13.1086C15.573 13.0698 15.4266 13.0274 15.2812 12.982C15.2366 12.9687 15.193 12.9542 15.1488 12.9397C15.0454 12.9064 14.9427 12.8713 14.8408 12.8343C14.7942 12.8174 14.7475 12.8004 14.7018 12.7829C14.5902 12.7405 14.4798 12.6963 14.3703 12.6503C14.3404 12.6376 14.3102 12.6261 14.2809 12.6128C14.1437 12.5534 14.0086 12.4911 13.8754 12.4257C13.8067 12.3924 13.7393 12.3573 13.672 12.3228C13.6329 12.3029 13.5936 12.2829 13.5546 12.2629C13.4679 12.2163 13.382 12.1678 13.2972 12.1188C13.2771 12.1073 13.256 12.0964 13.2356 12.0843C13.1304 12.0232 13.0267 11.9602 12.9239 11.8954C12.8922 11.8754 12.8617 11.8537 12.83 11.8331C12.7623 11.7895 12.6946 11.7453 12.6281 11.7005C12.4848 11.6024 12.3454 11.4995 12.2079 11.3954C12.1762 11.3706 12.1445 11.3464 12.1134 11.3215C10.6497 10.1745 9.48956 8.6072 8.93797 6.82987C8.35991 4.98659 8.48456 2.91742 9.48607 1.23828" fill="#0868AC"/>
<path d="M13.6933 1.09275C12.8056 2.38942 12.7184 3.99975 13.3344 5.43193C13.9839 6.95198 15.315 8.14454 16.8685 8.70987C16.9325 8.7335 16.9966 8.75467 17.0615 8.77646C17.0899 8.78494 17.1179 8.79464 17.1466 8.80308C17.2381 8.83154 17.329 8.86483 17.4235 8.88239C21.7165 9.70567 22.8809 6.69584 23.1909 6.25284C22.1709 7.71053 20.4567 8.06042 18.3536 7.55375C18.1874 7.51359 18.0048 7.45408 17.8447 7.39779C17.6393 7.32514 17.437 7.24233 17.2404 7.1486C16.8669 6.97057 16.5109 6.75435 16.1809 6.5069C14.2988 5.0896 13.1297 2.38567 14.3578 0.183594" fill="#0868AC"/>
</g>
<defs>
<clipPath id="clip0_3776_5698">
<rect width="24" height="23.4" fill="white"/>
</clipPath>
</defs>
</svg>
