<svg width="24" height="24" viewBox="0 0 24 24" fill="none" xmlns="http://www.w3.org/2000/svg">
<g clip-path="url(#clip0_3776_6128)">
<path d="M24 0H0V24H24V0Z" fill="#F7DF1E"/>
<path d="M16.123 18.7497C16.6064 19.539 17.2354 20.1192 18.3477 20.1192C19.2822 20.1192 19.8792 19.6521 19.8792 19.0068C19.8792 18.2335 19.2658 17.9596 18.2373 17.5097L17.6735 17.2678C16.046 16.5744 14.9649 15.7059 14.9649 13.8697C14.9649 12.1782 16.2536 10.8906 18.2677 10.8906C19.7016 10.8906 20.7325 11.3897 21.4754 12.6963L19.7192 13.824C19.3325 13.1306 18.9154 12.8575 18.2677 12.8575C17.6072 12.8575 17.1885 13.2765 17.1885 13.824C17.1885 14.5005 17.6075 14.7744 18.5752 15.1935L19.139 15.435C21.0552 16.2567 22.1371 17.0944 22.1371 18.9779C22.1371 21.0083 20.542 22.1207 18.3999 22.1207C16.3055 22.1207 14.9523 21.1226 14.2902 19.8144L16.123 18.7497ZM8.15612 18.9451C8.51041 19.5737 8.83269 20.1051 9.60755 20.1051C10.3485 20.1051 10.8159 19.8152 10.8159 18.688V11.0194H13.0712V18.7184C13.0712 21.0537 11.702 22.1165 9.70355 22.1165C7.89784 22.1165 6.85212 21.1821 6.32031 20.0565L8.15612 18.9451Z" fill="black"/>
</g>
<defs>
<clipPath id="clip0_3776_6128">
<rect width="24" height="24" fill="white"/>
</clipPath>
</defs>
</svg>
