<svg width="24" height="24" viewBox="0 0 24 24" fill="none" xmlns="http://www.w3.org/2000/svg">
<g clip-path="url(#clip0_2222_28183)">
<path d="M24 0H0V24H24V0Z" fill="#404040"/>
<path d="M16.123 18.7502C16.6064 19.5395 17.2354 20.1197 18.3477 20.1197C19.2822 20.1197 19.8792 19.6526 19.8792 19.0073C19.8792 18.234 19.2658 17.9601 18.2373 17.5102L17.6735 17.2683C16.046 16.5749 14.9649 15.7064 14.9649 13.8702C14.9649 12.1787 16.2536 10.8911 18.2677 10.8911C19.7016 10.8911 20.7325 11.3902 21.4754 12.6968L19.7192 13.8244C19.3325 13.1311 18.9154 12.858 18.2677 12.858C17.6072 12.858 17.1885 13.277 17.1885 13.8244C17.1885 14.501 17.6075 14.7749 18.5752 15.194L19.139 15.4355C21.0552 16.2572 22.1371 17.0949 22.1371 18.9784C22.1371 21.0088 20.542 22.1212 18.3999 22.1212C16.3055 22.1212 14.9523 21.1231 14.2902 19.8149L16.123 18.7502ZM8.15612 18.9456C8.51041 19.5742 8.83269 20.1056 9.60755 20.1056C10.3485 20.1056 10.8159 19.8157 10.8159 18.6884V11.0199H13.0712V18.7189C13.0712 21.0542 11.702 22.117 9.70355 22.117C7.89784 22.117 6.85212 21.1825 6.32031 20.057L8.15612 18.9456Z" fill="white"/>
</g>
<defs>
<clipPath id="clip0_2222_28183">
<rect width="24" height="24" fill="white"/>
</clipPath>
</defs>
</svg>
