<svg width="24" height="24" viewBox="0 0 24 24" fill="none" xmlns="http://www.w3.org/2000/svg">
<path d="M22.4802 5.97698C22.4882 6.00631 22.4922 6.03655 22.4923 6.06693V10.7892C22.4923 10.8498 22.4762 10.9093 22.4457 10.9618C22.4151 11.0142 22.3712 11.0577 22.3183 11.0879L18.3323 13.3698V17.8928C18.3323 18.0159 18.2665 18.1295 18.1591 18.1914L9.83862 22.9541C9.81958 22.9649 9.7988 22.9718 9.77802 22.9791C9.77023 22.9817 9.76287 22.9864 9.75465 22.9886C9.69649 23.0038 9.63535 23.0038 9.57719 22.9886C9.56766 22.986 9.55901 22.9808 9.54992 22.9774C9.53087 22.9705 9.51096 22.9645 9.49278 22.9541L1.174 18.1914C1.12116 18.1613 1.07725 18.1178 1.0467 18.0653C1.01615 18.0129 1.00004 17.9534 1 17.8928V3.72604C1 3.69505 1.00433 3.66492 1.01212 3.63565C1.01472 3.62575 1.02078 3.61672 1.02424 3.60682C1.03073 3.58874 1.03679 3.57023 1.04631 3.55345C1.05281 3.54226 1.06233 3.53322 1.07012 3.52289C1.08008 3.50912 1.08917 3.49492 1.10085 3.48287C1.11081 3.47297 1.12379 3.46565 1.13505 3.45704C1.1476 3.44671 1.15885 3.43552 1.17314 3.42735H1.17357L5.33318 1.046C5.38584 1.01586 5.44555 1 5.50631 1C5.56708 1 5.62678 1.01586 5.67945 1.046L9.83905 3.42735H9.83992C9.85377 3.43595 9.86546 3.44671 9.87801 3.45661C9.88926 3.46522 9.90182 3.47297 9.91177 3.48243C9.92389 3.49492 9.93255 3.50912 9.94294 3.52289C9.95029 3.53322 9.96025 3.54226 9.96631 3.55345C9.97627 3.57066 9.98189 3.58874 9.98882 3.60682C9.99228 3.61672 9.99834 3.62575 10.0009 3.63608C10.0089 3.66541 10.013 3.69565 10.0131 3.72604V12.5744L13.4793 10.5899V6.0665C13.4793 6.03637 13.4836 6.00581 13.4914 5.97698C13.4944 5.96665 13.5 5.95761 13.5035 5.94771C13.5104 5.92963 13.5165 5.91113 13.526 5.89434C13.5325 5.88315 13.542 5.87411 13.5494 5.86378C13.5598 5.85001 13.5684 5.83581 13.5805 5.82376C13.5905 5.81386 13.603 5.80654 13.6143 5.79793C13.6273 5.7876 13.6385 5.77641 13.6524 5.76824H13.6528L17.8129 3.38689C17.8655 3.35671 17.9252 3.34083 17.986 3.34083C18.0468 3.34083 18.1065 3.35671 18.1591 3.38689L22.3187 5.76824C22.3335 5.77684 22.3447 5.7876 22.3577 5.7975C22.3685 5.80611 22.3811 5.81386 22.391 5.82333C22.4031 5.83581 22.4118 5.85001 22.4222 5.86378C22.43 5.87411 22.4395 5.88315 22.4456 5.89434C22.4555 5.91113 22.4611 5.92963 22.4681 5.94771C22.472 5.95761 22.4776 5.96665 22.4802 5.97698ZM21.7989 10.5899V6.66302L20.3433 7.49625L18.3323 8.64755V12.5744L21.7993 10.5899H21.7989ZM17.6393 17.6935V13.764L15.6612 14.8873L10.0126 18.0929V22.0594L17.6393 17.6935ZM1.69341 4.32213V17.6935L9.31921 22.0589V18.0933L5.33534 15.8514L5.33404 15.8506L5.33231 15.8497C5.31889 15.8419 5.30764 15.8308 5.29509 15.8213C5.28426 15.8127 5.27171 15.8058 5.26219 15.7963L5.26132 15.795C5.25007 15.7843 5.24228 15.7709 5.23276 15.7589C5.2241 15.7473 5.21371 15.7374 5.20679 15.7253L5.20635 15.724C5.19856 15.7111 5.1938 15.6956 5.18817 15.681C5.18255 15.6681 5.17519 15.656 5.17173 15.6422V15.6418C5.1674 15.6255 5.16653 15.6082 5.1648 15.5915C5.16307 15.5785 5.15961 15.5656 5.15961 15.5527V6.30665L3.14906 5.15493L1.69341 4.32256V4.32213ZM5.50674 1.74237L2.04098 3.72604L5.50588 5.7097L8.97121 3.72561L5.50588 1.74237H5.50674ZM7.3091 14.1221L9.31964 12.9712V4.32213L7.864 5.15536L5.85302 6.30665V14.9558L7.3091 14.1221ZM17.986 4.08326L14.5207 6.06693L17.986 8.0506L21.4509 6.0665L17.986 4.08326ZM17.6393 8.64755L15.6283 7.49625L14.1727 6.66302V10.5899L16.1832 11.7408L17.6393 12.5744V8.64755ZM9.66549 17.4968L14.7483 14.6115L17.2891 13.1697L13.8264 11.1873L9.83949 13.4696L6.20578 15.5497L9.66549 17.4968Z" fill="white"/>
</svg>
