<svg width="24" height="24" viewBox="0 0 24 24" fill="none" xmlns="http://www.w3.org/2000/svg">
<path d="M22.604 5.97698C22.6118 6.00631 22.6158 6.03655 22.6159 6.06693V10.7892C22.6159 10.8498 22.6001 10.9093 22.5701 10.9618C22.5401 11.0142 22.497 11.0577 22.445 11.0879L18.5302 13.3698V17.8928C18.5302 18.0159 18.4656 18.1295 18.3602 18.1914L10.1884 22.9541C10.1697 22.9649 10.1493 22.9718 10.1289 22.9791C10.1213 22.9817 10.114 22.9864 10.106 22.9886C10.0488 23.0038 9.9888 23.0038 9.93167 22.9886C9.92232 22.986 9.91382 22.9808 9.90489 22.9774C9.88619 22.9705 9.86663 22.9645 9.84878 22.9541L1.6787 18.1914C1.6268 18.1613 1.58368 18.1178 1.55367 18.0653C1.52367 18.0129 1.50785 17.9534 1.50781 17.8928V3.72604C1.50781 3.69505 1.51206 3.66492 1.51972 3.63565C1.52227 3.62575 1.52822 3.61672 1.53162 3.60682C1.53799 3.58874 1.54395 3.57023 1.5533 3.55345C1.55968 3.54226 1.56903 3.53322 1.57668 3.52289C1.58646 3.50912 1.59538 3.49492 1.60686 3.48287C1.61664 3.47297 1.62939 3.46565 1.64044 3.45704C1.65277 3.44671 1.66383 3.43552 1.67785 3.42735H1.67828L5.76353 1.046C5.81525 1.01586 5.87389 1 5.93357 1C5.99325 1 6.05188 1.01586 6.10361 1.046L10.1889 3.42735H10.1897C10.2033 3.43595 10.2148 3.44671 10.2271 3.45661C10.2382 3.46522 10.2505 3.47297 10.2603 3.48243C10.2722 3.49492 10.2807 3.50912 10.2909 3.52289C10.2981 3.53322 10.3079 3.54226 10.3138 3.55345C10.3236 3.57066 10.3291 3.58874 10.3359 3.60682C10.3393 3.61672 10.3453 3.62575 10.3478 3.63608C10.3557 3.66541 10.3597 3.69565 10.3598 3.72604V12.5744L13.764 10.5899V6.0665C13.764 6.03637 13.7682 6.00581 13.7759 5.97698C13.7789 5.96665 13.7844 5.95761 13.7878 5.94771C13.7946 5.92963 13.8005 5.91113 13.8099 5.89434C13.8163 5.88315 13.8256 5.87411 13.8328 5.86378C13.8431 5.85001 13.8516 5.83581 13.8635 5.82376C13.8732 5.81386 13.8856 5.80654 13.8966 5.79793C13.9094 5.7876 13.9204 5.77641 13.934 5.76824H13.9345L18.0201 3.38689C18.0718 3.35671 18.1305 3.34083 18.1902 3.34083C18.2499 3.34083 18.3085 3.35671 18.3602 3.38689L22.4455 5.76824C22.4599 5.77684 22.471 5.7876 22.4837 5.7975C22.4943 5.80611 22.5067 5.81386 22.5164 5.82333C22.5283 5.83581 22.5369 5.85001 22.5471 5.86378C22.5547 5.87411 22.5641 5.88315 22.57 5.89434C22.5798 5.91113 22.5853 5.92963 22.5921 5.94771C22.5959 5.95761 22.6015 5.96665 22.604 5.97698ZM21.9349 10.5899V6.66302L20.5053 7.49625L18.5302 8.64755V12.5744L21.9353 10.5899H21.9349ZM17.8497 17.6935V13.764L15.9069 14.8873L10.3593 18.0929V22.0594L17.8497 17.6935ZM2.18883 4.32213V17.6935L9.67831 22.0589V18.0933L5.76565 15.8514L5.76438 15.8506L5.76268 15.8497C5.7495 15.8419 5.73845 15.8308 5.72612 15.8213C5.71549 15.8127 5.70316 15.8058 5.69381 15.7963L5.69296 15.795C5.68191 15.7843 5.67426 15.7709 5.6649 15.7589C5.6564 15.7473 5.6462 15.7374 5.6394 15.7253L5.63897 15.724C5.63132 15.7111 5.62664 15.6956 5.62112 15.681C5.61559 15.6681 5.60836 15.656 5.60496 15.6422V15.6418C5.60071 15.6255 5.59986 15.6082 5.59816 15.5915C5.59646 15.5785 5.59306 15.5656 5.59306 15.5527V6.30665L3.61845 5.15493L2.18883 4.32256V4.32213ZM5.93399 1.74237L2.53019 3.72604L5.93314 5.7097L9.33653 3.72561L5.93314 1.74237H5.93399ZM7.70413 14.1221L9.67873 12.9712V4.32213L8.24911 5.15536L6.27408 6.30665V14.9558L7.70413 14.1221ZM18.1902 4.08326L14.7868 6.06693L18.1902 8.0506L21.5931 6.0665L18.1902 4.08326ZM17.8497 8.64755L15.8746 7.49625L14.445 6.66302V10.5899L16.4196 11.7408L17.8497 12.5744V8.64755ZM10.0184 17.4968L15.0104 14.6115L17.5057 13.1697L14.1049 11.1873L10.1893 13.4696L6.62054 15.5497L10.0184 17.4968Z" fill="#FF2D20"/>
</svg>
