<svg width="25" height="24" viewBox="0 0 25 24" fill="none" xmlns="http://www.w3.org/2000/svg">
<path fill-rule="evenodd" clip-rule="evenodd" d="M11.5642 0.898939L24.9648 0.869629C24.9648 4.75613 24.9648 8.64344 24.9648 12.5316C24.9648 18.84 19.6945 23.5976 14.1188 23.5976H0.964844C0.964844 19.4717 0.964844 15.3459 0.964844 11.22C0.967286 6.71647 5.34624 0.898939 11.5642 0.898939Z" fill="#404040"/>
<path fill-rule="evenodd" clip-rule="evenodd" d="M12.4409 5.24121C13.1318 5.24105 13.8193 5.3389 14.4827 5.53184C13.9731 5.93857 13.5111 6.40146 13.1052 6.91174C11.9296 6.77378 10.7401 7.0051 9.70185 7.5736C8.66358 8.14211 7.82794 9.01963 7.31085 10.0845C6.79376 11.1493 6.62083 12.3486 6.81606 13.5162C7.01129 14.6837 7.565 15.7615 8.40038 16.6002C9.23577 17.4389 10.3114 17.9968 11.4782 18.1966C12.6449 18.3963 13.8449 18.2281 14.9117 17.7151C15.9785 17.2022 16.8593 16.37 17.4318 15.3339C18.0044 14.2979 18.2403 13.1093 18.107 11.9331C18.6285 11.6553 19.1196 11.3238 19.5723 10.944C19.9042 12.4205 19.7694 13.9638 19.1863 15.3604C18.6032 16.757 17.6008 17.938 16.3175 18.7403C15.0342 19.5425 13.5334 19.9263 12.0225 19.8387C10.5117 19.7511 9.06531 19.1964 7.88333 18.2512C6.70136 17.306 5.84214 16.017 5.4244 14.5624C5.00667 13.1078 5.05105 11.5593 5.55142 10.1309C6.05178 8.70262 6.98342 7.46497 8.21759 6.58904C9.45176 5.7131 10.9275 5.24213 12.4409 5.24121Z" fill="white"/>
<path fill-rule="evenodd" clip-rule="evenodd" d="M15.0583 6.08885C15.845 5.44347 16.7612 4.97456 17.7448 4.71384C18.348 4.5502 19.4885 4.41099 21.6524 3.9665C21.7183 3.94696 21.7769 5.45385 21.4301 6.70675C21.1828 7.50138 20.8182 8.2546 20.3482 8.94144C19.3699 10.327 17.9343 11.3232 16.2941 11.755C16.1573 11.8014 15.5614 11.9235 15.09 11.9992C14.8458 12.0651 14.4209 12.0969 13.6858 12.2874C14.1038 12.121 14.5321 11.9815 14.9679 11.8697C15.1462 11.8282 15.9693 11.6719 16.2501 11.5718C16.877 11.3612 17.4745 11.0715 18.0281 10.7097C19.132 10.0454 19.6058 9.24428 19.9819 8.77048C20.3301 8.26235 20.5436 7.67408 20.6022 7.06087C20.6535 6.54555 20.6022 5.83974 20.5118 5.80066C20.1138 5.87148 19.0611 6.02535 18.2821 6.23294C17.3671 6.4905 16.5184 6.94196 15.7934 7.55666C15.3636 7.89858 15.0241 8.33819 14.5234 9.09286C14.2621 9.50317 14.0912 9.92324 13.8494 10.3677C13.6708 10.8058 13.4499 11.2254 13.19 11.6206C12.9018 12.0798 12.4793 12.5047 12.4158 12.4852C12.3523 12.4657 12.3767 12.2263 12.3596 11.9235C12.3436 11.477 12.3739 11.0302 12.45 10.59C12.6038 9.60002 12.9686 8.65468 13.5197 7.81798C13.9377 7.16372 14.457 6.58006 15.0583 6.08885Z" fill="white"/>
</svg>
