<svg width="24" height="24" viewBox="0 0 24 24" fill="none" xmlns="http://www.w3.org/2000/svg">
<path d="M1.02333 13.5202C1.02333 13.111 0.760127 12.6725 0 12.6433V11.6202C0.757422 11.591 1.02333 11.1522 1.02333 10.7432C1.02333 10.0123 0.906472 9.54487 0.906472 8.69684C0.906472 7.41058 1.37445 7.0013 2.42673 7.0013H5.23325V7.93671H2.95286C2.45594 7.93671 2.3096 8.112 2.3096 8.75526L2.36803 10.6848C2.36803 11.591 2.07588 11.9418 1.49104 12.0882V12.1466C2.07588 12.2927 2.36803 12.6435 2.36803 13.55L2.3096 15.4795C2.3096 16.1228 2.45567 16.3273 2.95286 16.3273H3.18685V17.2335H2.42943C1.37716 17.2335 0.909177 16.8242 0.909177 15.5379C0.909177 14.6902 1.02604 14.2517 1.02604 13.5208L1.02333 13.5202ZM3.50849 7.0884H5.26273V13.6663C5.26273 14.0464 5.43802 14.1632 5.58464 14.1632C5.64306 14.1632 5.70149 14.1632 5.78941 14.134L5.99418 15.4203C5.78941 15.5079 5.49726 15.5664 5.1172 15.5664C3.91885 15.5664 3.5093 14.777 3.5093 13.5781L3.50849 7.0884ZM8.44931 9.36877C10.1156 9.36877 10.9637 10.5969 10.9637 12.2045C10.9637 12.5264 10.9345 12.7893 10.9053 12.9354H7.30912C7.4552 13.8416 8.06655 14.2217 8.85859 14.2217C9.29681 14.2217 9.70636 14.1048 10.1449 13.8416L10.7297 14.8939C10.1156 15.3031 9.3263 15.5664 8.6246 15.5664C6.92906 15.5664 5.64252 14.4262 5.64252 12.4674C5.61331 10.5671 7.0167 9.3685 8.44904 9.3685L8.44931 9.36877ZM9.47264 11.8539C9.47264 11.1814 9.1805 10.6845 8.47853 10.6845C7.92318 10.6845 7.4552 11.0646 7.33834 11.8539H9.47264ZM11.9578 13.6663C12.4839 14.0756 12.9811 14.2804 13.4781 14.2804C14.0042 14.2804 14.2355 14.0756 14.2355 13.7834C14.2355 13.4034 13.6506 13.1986 13.0371 12.9649C12.3354 12.7017 11.4877 12.2075 11.4877 11.2399C11.4877 10.1578 12.3939 9.39772 13.7388 9.39772C14.645 9.39772 15.3175 9.77778 15.8144 10.1551L15.0251 11.2074C14.5869 10.8855 14.2065 10.7105 13.768 10.7105C13.3295 10.7105 13.0956 10.8858 13.0956 11.1785C13.0956 11.5585 13.6509 11.7046 14.265 11.9359C15.0224 12.1991 15.8729 12.6376 15.8729 13.7193C15.8729 14.8011 15.0251 15.6196 13.4464 15.6196C12.689 15.6196 11.7801 15.2977 11.1952 14.8011L11.9578 13.6663ZM16.7233 13.6663C17.2495 14.0756 17.7467 14.2804 18.2436 14.2804C18.7697 14.2804 19.001 14.0756 19.001 13.7834C19.001 13.4034 18.4162 13.1986 17.8027 12.9649C17.101 12.7017 16.2532 12.2075 16.2532 11.2399C16.2532 10.1578 17.1594 9.39772 18.5044 9.39772C19.4106 9.39772 20.083 9.77778 20.58 10.1551L19.7906 11.2074C19.3524 10.8855 18.9721 10.7105 18.5336 10.7105C18.0951 10.7105 17.8611 10.8858 17.8611 11.1785C17.8611 11.5585 18.4164 11.7046 19.0013 11.9359C19.7587 12.1991 20.6092 12.6376 20.6092 13.7193C20.6092 14.8011 19.7614 15.6196 18.1827 15.6196C17.4253 15.6196 16.5164 15.2977 15.9316 14.8011L16.7233 13.6663ZM21.0498 16.2973C21.5468 16.2973 21.6931 16.122 21.6931 15.4495C21.6931 14.8062 21.6347 14.2214 21.6347 13.52C21.6347 12.6138 21.9268 12.2629 22.5117 12.1166V12.0582C21.9268 11.9121 21.6347 11.5612 21.6347 10.6548C21.6347 9.95307 21.6931 9.33929 21.6931 8.72524C21.6931 8.08197 21.5762 7.90669 21.0498 7.90669H20.8159V7.00049H21.5733C22.6255 7.00049 23.0935 7.40976 23.0935 8.69602C23.0935 9.51458 22.9767 9.98228 22.9767 10.7424C22.9767 11.1517 23.2399 11.5902 24 11.6194V12.6427C23.2426 12.6719 22.9767 13.1107 22.9767 13.5197C22.9767 14.2771 23.0935 14.718 23.0935 15.5661C23.0935 16.8523 22.6255 17.2616 21.5733 17.2616H20.8159V16.327L21.0498 16.2973Z" fill="white"/>
</svg>
