<svg width="24" height="24" viewBox="0 0 24 24" fill="none" xmlns="http://www.w3.org/2000/svg">
<path fill-rule="evenodd" clip-rule="evenodd" d="M2.85818 21.3937L2.58005 21.1553C1.9046 20.5792 1.7854 19.5263 2.40126 18.8508L9.63284 10.5864C10.209 9.91095 11.2619 9.79175 11.9373 10.4076L12.2155 10.646C12.8909 11.2221 13.0101 12.275 12.3943 12.9505L5.16291 21.2149C4.58679 21.8904 3.57337 21.9699 2.85818 21.3937Z" fill="url(#paint0_linear_2513_13571)"/>
<path opacity="0.4" fill-rule="evenodd" clip-rule="evenodd" d="M8.65782 12.0168L8.51876 11.8579L7.40625 13.1294L7.52545 13.2684C9.43262 15.1756 8.6181 17.1026 8.18104 17.7781L8.33997 17.5993C8.59823 17.3013 8.99555 16.8444 9.41274 16.3477C9.8498 15.5928 10.4659 13.8048 8.65782 12.0168Z" fill="url(#paint1_linear_2513_13571)"/>
<path opacity="0.4" fill-rule="evenodd" clip-rule="evenodd" d="M11.0452 14.4999L11.3432 14.1622C11.3631 14.1224 11.4028 14.0827 11.4227 14.043C11.1048 14.4006 10.7671 14.778 10.4492 15.1555C10.6876 14.8972 10.8863 14.6787 11.0452 14.4999Z" fill="url(#paint2_radial_2513_13571)"/>
<path fill-rule="evenodd" clip-rule="evenodd" d="M12.4331 10.8445L5.20174 2.58006C4.62561 1.9046 3.5727 1.7854 2.89724 2.40126L2.61911 2.63965C1.94366 3.21578 1.82447 4.2687 2.44032 4.94417L8.53928 11.8577L8.67834 12.0166C10.4862 13.8245 9.87032 15.6124 9.4134 16.3674C9.77099 15.9502 10.1286 15.533 10.4663 15.1555C10.7842 14.7781 11.1219 14.4006 11.4398 14.043C11.7576 13.6854 12.0556 13.3477 12.2543 13.1291C12.9496 12.4537 13.0489 11.5199 12.4331 10.8445Z" fill="url(#paint3_linear_2513_13571)"/>
<path fill-rule="evenodd" clip-rule="evenodd" d="M12.0379 21.3937L11.7597 21.1553C11.0843 20.5792 10.9651 19.5263 11.5809 18.8508L18.8125 10.5864C19.3886 9.91095 20.4416 9.79175 21.117 10.4076L21.3951 10.646C22.0706 11.2221 22.1898 12.275 21.5739 12.9505L14.3426 21.2149C13.7662 21.8904 12.7531 21.9699 12.0379 21.3937Z" fill="url(#paint4_linear_2513_13571)"/>
<path opacity="0.4" fill-rule="evenodd" clip-rule="evenodd" d="M17.9196 11.9373L17.7805 11.7783L16.668 13.0498L16.7872 13.1889C18.6943 15.096 17.8798 17.0231 17.4428 17.6985L17.6017 17.5197C17.8599 17.2217 18.2573 16.7648 18.6745 16.2681C19.1115 15.5132 19.7274 13.7252 17.9196 11.9373Z" fill="url(#paint5_linear_2513_13571)"/>
<path opacity="0.4" fill-rule="evenodd" clip-rule="evenodd" d="M20.2015 14.4999L20.4995 14.1622C20.5193 14.1224 20.5591 14.0827 20.5789 14.043C20.2611 14.4006 19.9233 14.778 19.6055 15.1555C19.8439 14.8972 20.0624 14.6787 20.2015 14.4999Z" fill="url(#paint6_radial_2513_13571)"/>
<path fill-rule="evenodd" clip-rule="evenodd" d="M21.5935 10.8445L14.3619 2.58006C13.7858 1.9046 12.7329 1.7854 12.0574 2.40126L11.7793 2.63965C11.1038 3.21578 10.9846 4.2687 11.6005 4.94417L17.6994 11.8577L17.8385 12.0166C19.6463 13.8245 19.0305 15.6124 18.5735 16.3674C18.9311 15.9502 19.2887 15.533 19.6265 15.1555C19.9443 14.7781 20.2821 14.4006 20.5999 14.043C20.9178 13.6854 21.216 13.3477 21.4147 13.1291C22.11 12.4537 22.2093 11.5199 21.5935 10.8445Z" fill="url(#paint7_linear_2513_13571)"/>
<defs>
<linearGradient id="paint0_linear_2513_13571" x1="5.11689" y1="23.9732" x2="15.1528" y2="19.1074" gradientUnits="userSpaceOnUse">
<stop stop-color="#1FADC3"/>
<stop offset="0.7072" stop-color="#36B98F"/>
</linearGradient>
<linearGradient id="paint1_linear_2513_13571" x1="8.63966" y1="16.158" x2="10.5156" y2="15.8849" gradientUnits="userSpaceOnUse">
<stop stop-color="#123F06" stop-opacity="0.01"/>
<stop offset="1" stop-color="#123F06"/>
</linearGradient>
<radialGradient id="paint2_radial_2513_13571" cx="0" cy="0" r="1" gradientUnits="userSpaceOnUse" gradientTransform="translate(7.06031 15.5327) scale(4.84383 5.53578)">
<stop offset="0.4185" stop-color="#123F06" stop-opacity="0.01"/>
<stop offset="1" stop-color="#123F06"/>
</radialGradient>
<linearGradient id="paint3_linear_2513_13571" x1="-1.7476" y1="12.9512" x2="10.4234" y2="17.1572" gradientUnits="userSpaceOnUse">
<stop stop-color="#9FDB57"/>
<stop offset="1" stop-color="#71CA5E"/>
</linearGradient>
<linearGradient id="paint4_linear_2513_13571" x1="14.2878" y1="23.9783" x2="24.3237" y2="19.1124" gradientUnits="userSpaceOnUse">
<stop stop-color="#1FADC3"/>
<stop offset="0.7072" stop-color="#36B98F"/>
</linearGradient>
<linearGradient id="paint5_linear_2513_13571" x1="17.9011" y1="16.0785" x2="19.7771" y2="15.8053" gradientUnits="userSpaceOnUse">
<stop stop-color="#123F06" stop-opacity="0.01"/>
<stop offset="1" stop-color="#123F06"/>
</linearGradient>
<radialGradient id="paint6_radial_2513_13571" cx="0" cy="0" r="1" gradientUnits="userSpaceOnUse" gradientTransform="translate(16.2248 15.5327) scale(4.84383 5.53578)">
<stop offset="0.4185" stop-color="#123F06" stop-opacity="0.01"/>
<stop offset="1" stop-color="#123F06"/>
</radialGradient>
<linearGradient id="paint7_linear_2513_13571" x1="7.41862" y1="12.9549" x2="19.5896" y2="17.1608" gradientUnits="userSpaceOnUse">
<stop stop-color="#9FDB57"/>
<stop offset="1" stop-color="#71CA5E"/>
</linearGradient>
</defs>
</svg>
