<svg width="24" height="24" viewBox="0 0 24 24" fill="none" xmlns="http://www.w3.org/2000/svg">
<path fill-rule="evenodd" clip-rule="evenodd" d="M2.85818 21.3937L2.58005 21.1553C1.9046 20.5792 1.7854 19.5263 2.40126 18.8508L9.63284 10.5864C10.209 9.91095 11.2619 9.79175 11.9373 10.4076L12.2155 10.646C12.8909 11.2221 13.0101 12.275 12.3943 12.9505L5.16291 21.2149C4.58679 21.8904 3.57337 21.9699 2.85818 21.3937Z" fill="#9D9D9D"/>
<path opacity="0.4" fill-rule="evenodd" clip-rule="evenodd" d="M8.65782 12.0168L8.51876 11.8579L7.40625 13.1294L7.52545 13.2684C9.43262 15.1756 8.6181 17.1026 8.18104 17.7781L8.33997 17.5993C8.59823 17.3013 8.99555 16.8444 9.41274 16.3477C9.8498 15.5928 10.4659 13.8048 8.65782 12.0168Z" fill="url(#paint0_linear_2513_13572)"/>
<path d="M12.0568 11.1737L12.0567 11.1738L12.0636 11.1814C12.2799 11.4186 12.3597 11.684 12.3372 11.9438C12.3143 12.2095 12.1802 12.504 11.9059 12.7705L11.8948 12.7813L11.8843 12.7928C11.7344 12.9576 11.5288 13.1894 11.3033 13.4436C11.226 13.5307 11.1465 13.6203 11.066 13.7108C11.0345 13.7464 11.0026 13.7822 10.9705 13.8183C10.7821 14.0301 10.586 14.2506 10.3916 14.4742C10.3499 13.6005 9.98804 12.6244 9.0439 11.6751L8.91557 11.5284L8.91423 11.5269L2.81527 4.6134L2.81532 4.61335L2.8098 4.6073C2.40085 4.15877 2.46406 3.42908 2.94359 3.02007L2.94359 3.02007L2.94451 3.01928L3.22264 2.78089L3.22846 2.7759L3.23412 2.77074C3.68263 2.36179 4.41231 2.425 4.82132 2.90453L4.82129 2.90455L4.82545 2.90931L12.0568 11.1737Z" fill="#D4D4D4" stroke="#D4D4D4"/>
<path fill-rule="evenodd" clip-rule="evenodd" d="M12.0379 21.3937L11.7597 21.1553C11.0843 20.5792 10.9651 19.5263 11.5809 18.8508L18.8125 10.5864C19.3886 9.91095 20.4416 9.79175 21.117 10.4076L21.3951 10.646C22.0706 11.2221 22.1898 12.275 21.5739 12.9505L14.3426 21.2149C13.7662 21.8904 12.7531 21.9699 12.0379 21.3937Z" fill="#9D9D9D"/>
<path opacity="0.4" fill-rule="evenodd" clip-rule="evenodd" d="M17.9196 11.9373L17.7805 11.7783L16.668 13.0498L16.7872 13.1889C18.6943 15.096 17.8798 17.0231 17.4428 17.6985L17.6017 17.5197C17.8599 17.2217 18.2573 16.7648 18.6745 16.2681C19.1115 15.5132 19.7274 13.7252 17.9196 11.9373Z" fill="url(#paint1_linear_2513_13572)"/>
<path d="M21.2172 11.1738L21.2171 11.1738L21.224 11.1814C21.4403 11.4186 21.5201 11.684 21.4976 11.9438C21.4747 12.2095 21.3406 12.504 21.0663 12.7705L21.0552 12.7813L21.0447 12.7928C20.8917 12.9611 20.6805 13.199 20.4493 13.4595C20.3765 13.5416 20.3018 13.6258 20.2262 13.7108C20.1946 13.7464 20.1627 13.7822 20.1306 13.8183C19.9422 14.0301 19.7461 14.2506 19.5518 14.4742C19.5101 13.6005 19.1482 12.6244 18.2041 11.6751L18.0757 11.5284L18.0744 11.5269L11.9754 4.6134L11.9755 4.61335L11.97 4.6073C11.561 4.15877 11.6242 3.42908 12.1037 3.02007L12.1037 3.02007L12.1047 3.01928L12.3828 2.78088L12.3886 2.7759L12.3943 2.77074C12.8428 2.36179 13.5725 2.425 13.9815 2.90453L13.9814 2.90455L13.9856 2.90931L21.2172 11.1738Z" fill="#D4D4D4" stroke="#D4D4D4"/>
<defs>
<linearGradient id="paint0_linear_2513_13572" x1="8.63946" y1="16.158" x2="10.5154" y2="15.8848" gradientUnits="userSpaceOnUse">
<stop stop-opacity="0"/>
<stop offset="1"/>
</linearGradient>
<linearGradient id="paint1_linear_2513_13572" x1="17.9011" y1="16.0785" x2="19.7771" y2="15.8053" gradientUnits="userSpaceOnUse">
<stop stop-opacity="0"/>
<stop offset="1"/>
</linearGradient>
</defs>
</svg>
