<svg width="24" height="24" viewBox="0 0 24 24" fill="none" xmlns="http://www.w3.org/2000/svg">
<path d="M17.9276 0H6.07259C2.71878 0 0 2.71103 0 6.05529V17.8765C0 21.2206 2.71878 23.9316 6.07259 23.9316H17.9276C21.2812 23.9316 24 21.2206 24 17.8765V6.05529C24 2.71103 21.2812 0 17.9276 0Z" fill="#00DDB3"/>
<path d="M18.2409 5.35986C14.1098 5.35986 12.5789 8.3012 11.3479 10.6641L10.5436 12.1759C9.24031 14.6818 8.2663 16.2051 5.75663 16.2051C5.6008 16.205 5.44648 16.2355 5.3025 16.295C5.15852 16.3544 5.02771 16.4416 4.91756 16.5515C4.80743 16.6614 4.72008 16.7918 4.6605 16.9353C4.60091 17.0788 4.57027 17.2327 4.57031 17.388C4.57036 17.5433 4.60108 17.6971 4.66075 17.8406C4.72041 17.9841 4.80783 18.1145 4.91803 18.2243C5.14049 18.446 5.44205 18.5709 5.75663 18.5713C9.8895 18.5713 11.4204 15.6298 12.6514 13.2671L13.454 11.7553C14.759 9.24927 15.733 7.72613 18.2409 7.72613C18.3969 7.7264 18.5514 7.69598 18.6956 7.63661C18.8398 7.57723 18.9708 7.49008 19.0811 7.38013C19.1914 7.27026 19.279 7.13976 19.3387 6.99612C19.3984 6.85247 19.4292 6.6985 19.4292 6.543C19.4285 6.22912 19.3031 5.9283 19.0803 5.70653C18.8576 5.48475 18.5557 5.36014 18.2409 5.36002V5.35986Z" fill="white"/>
</svg>
