<svg width="24" height="24" viewBox="0 0 24 24" fill="none" xmlns="http://www.w3.org/2000/svg">
<path d="M20.8457 5.47697C20.3267 5.49 20.0204 5.7162 19.9198 6.14782C20.0529 6.26369 20.2319 6.31414 20.4105 6.30638C20.8027 6.28975 21.1914 5.99092 21.0813 5.48445C20.9987 5.47752 20.92 5.47475 20.8457 5.47697ZM23.5186 4H23.4723C23.1022 4.01192 23.0449 4.21262 22.2456 4.40944C21.4384 4.6082 20.6586 4.4172 19.7895 4.78201C17.1939 5.87061 16.6409 9.6254 14.2818 10.9579C12.5187 11.954 10.8132 12.3961 9.21426 12.897C8.16306 13.2263 7.12072 13.6056 6.16821 14.4261C5.42887 15.0637 5.22567 15.5585 4.45584 16.3583C3.66993 17.1713 1.25316 15.7323 0.0758262 16.7852C0.0516116 16.8073 0.0323411 16.8343 0.0192766 16.8643C0.0062121 16.8944 -0.000351852 16.9269 1.45354e-05 16.9597C0.000380923 16.9925 0.00766939 17.0248 0.0214027 17.0546C0.0351361 17.0844 0.0550045 17.1109 0.0797072 17.1325C0.334746 17.3557 0.819875 17.8871 1.28172 18.0512C1.13535 18.3284 0.307856 19.145 0.476681 19.5536C0.654099 19.9833 2.7055 19.6914 4.60166 18.5465C5.48459 18.0132 6.18817 17.2448 7.56371 17.0615C9.34344 16.8245 11.394 17.214 13.4546 17.5106C13.1488 18.4215 12.5356 19.0278 12.0441 19.756C11.8916 19.9201 12.3499 19.9384 12.8718 19.8392C13.8144 19.6069 14.4886 19.4198 15.2005 19.0075C16.0718 18.5003 16.204 17.2001 17.2724 16.9191C17.7891 17.7133 19.0743 17.9808 20.0651 17.5566C20.1199 17.5333 20.1737 17.5076 20.2264 17.4804C20.3456 17.3764 20.2757 17.255 20.2026 17.1658C20.1677 17.1335 20.1342 17.0999 20.1022 17.0649C19.5444 16.4655 19.4169 15.0507 19.6642 14.3626C19.9461 13.5798 20.2247 12.3271 20.5086 11.2925C20.8135 10.1837 20.9261 8.78019 21.2951 8.21386C21.8501 7.36227 22.4635 7.06981 22.9961 6.58941C23.5286 6.10901 24.0162 5.64135 23.9996 4.5425C23.9918 4.20347 23.8252 4.00832 23.5186 4ZM23.5752 5.15402C23.4651 5.91191 22.9808 6.32856 22.4086 6.73051C21.9097 7.08257 21.3569 7.42159 21.0032 7.97157C20.6414 8.53431 20.4116 10.4623 19.8499 12.3659C19.3842 13.9454 18.6901 15.5081 17.5027 16.2607C17.4257 16.3095 17.3239 16.2648 17.3076 16.1775C17.2244 15.7362 17.2411 14.9301 17.1041 15.1907C16.9322 15.6813 16.7376 16.1492 16.51 16.5842C15.8115 17.9192 14.8007 18.9418 13.1676 19.3424C13.1387 19.349 13.1085 19.3466 13.081 19.3357C13.0534 19.3248 13.0298 19.3058 13.0133 19.2812C12.9967 19.2566 12.988 19.2276 12.9882 19.1979C12.9885 19.1683 12.9977 19.1394 13.0146 19.1151C13.7681 18.07 14.4423 16.9459 14.5246 15.2303C14.5315 15.0823 14.3455 15.0146 14.2521 15.1294C13.8962 15.5682 13.8086 16.6116 13.2882 16.9329C12.8796 16.9773 12.4657 16.9773 12.0491 16.9523C10.3386 16.8497 8.58331 16.3352 6.98322 16.8489C5.89376 17.1988 4.74969 18.1934 3.82684 18.5934C2.74237 19.0608 2.22841 19.5043 0.858962 19.4738C0.718968 19.2853 1.43058 18.4695 1.67231 18.1174C1.74938 18.0046 1.58444 17.886 1.43003 17.8125C1.05911 17.6423 0.687088 17.1805 0.2915 17.0003C0.342231 16.9069 0.52159 16.8134 0.620556 16.7563C1.51874 16.2352 3.90058 17.3451 4.54039 16.7167C4.93543 16.3292 5.20155 15.9887 5.4699 15.594C5.73048 15.2114 6.12635 14.8073 6.53635 14.4721C6.71044 14.3327 6.88984 14.2 7.07415 14.0743C7.77274 13.5964 8.15723 13.5609 9.06179 13.225C10.2128 12.797 11.638 12.4216 12.8727 11.9498C13.6356 11.6579 14.465 11.2984 15.1411 10.7938C15.3019 10.6741 15.4536 10.5463 15.5941 10.4096C17.5246 8.52461 17.9075 5.20752 20.9167 4.89816C21.2809 4.86073 21.5398 4.84493 21.8115 4.83634C22.1153 4.82802 22.4158 4.75318 22.7161 4.60958C22.8087 4.56911 23.3603 4.23535 23.5466 4.39669C23.6708 4.50424 23.5785 5.08749 23.5705 5.15069" fill="#444B5E"/>
</svg>
