<svg width="24" height="24" viewBox="0 0 24 24" fill="none" xmlns="http://www.w3.org/2000/svg">
<g clip-path="url(#clip0_2513_13084)">
<path d="M0 16.2163V7.78374C0 0.972827 0.971888 0 7.77576 0H16.2245C23.0281 0 23.9996 0.972826 23.9996 7.78369V16.2163C23.9996 23.0271 23.0277 23.9999 16.2239 23.9999H7.77567C0.972123 24 0 23.0272 0 16.2163Z" fill="#404040"/>
<path d="M5.18066 4.52532C4.00136 12.0019 4.61835 19.0015 4.61835 19.0015H8.30566C7.95489 17.135 6.69624 8.60773 7.74326 8.57968C8.3044 8.66878 10.8683 15.814 10.8683 15.814C10.8683 15.814 11.4329 15.7436 12.001 15.7436C12.5692 15.7436 13.134 15.814 13.134 15.814C13.134 15.814 15.6982 8.66864 16.2591 8.57968C17.3067 8.60773 16.0478 17.135 15.6973 19.0015H19.3847C19.3847 19.0015 20.0019 12.0015 18.822 4.5249H15.4081C14.7583 4.5325 12.2858 8.86874 12.0017 8.86874C11.7175 8.86874 9.24501 4.53302 8.59524 4.52537L5.18066 4.52532Z" fill="white"/>
<path d="M11.2724 18.1296C11.2724 18.6116 10.8816 19.0019 10.3996 19.0019C9.91755 19.0019 9.52734 18.6111 9.52734 18.1296C9.52734 17.6482 9.91812 17.2568 10.3996 17.2568C10.881 17.2568 11.2724 17.6476 11.2724 18.1296Z" fill="#D4D4D4"/>
<path d="M14.4749 18.1296C14.4749 18.6116 14.0842 19.0019 13.6027 19.0019C13.1212 19.0019 12.7305 18.6111 12.7305 18.1296C12.7305 17.6482 13.1207 17.2568 13.6029 17.2568C14.0851 17.2568 14.4753 17.6476 14.4753 18.1296H14.4749Z" fill="#D4D4D4"/>
<path opacity="0.1" d="M18.6463 4.77257C19.1785 8.37463 19.3029 11.8317 19.2936 14.4068C19.2835 17.0407 19.1326 18.752 19.1326 18.752H16.0282L15.6947 19.002H19.3824C19.3824 19.002 19.9996 12.002 18.8201 4.52539L18.6463 4.77257ZM8.87479 4.6816C9.84363 5.75923 11.5196 8.61914 11.7494 8.61914C11.1351 7.83366 9.6265 5.32748 8.87479 4.6816ZM7.49234 8.33008C6.44518 8.35822 7.70402 16.8855 8.05488 18.752H4.83572L4.61719 19.002H8.30469C7.95561 17.145 6.70793 8.69342 7.72648 8.58012C7.63175 8.43756 7.54969 8.33923 7.4922 8.33008H7.49234ZM16.0084 8.33008C15.4473 8.41918 12.8833 15.5645 12.8833 15.5645C12.8833 15.5645 12.3187 15.4942 11.7506 15.4942C11.4144 15.4942 11.1251 15.5149 10.9293 15.5331L10.8684 15.8144C10.8684 15.8144 11.433 15.7442 12.0011 15.7442C12.5691 15.7442 13.1339 15.8145 13.1339 15.8145C13.1339 15.8145 15.6784 8.71602 16.2513 8.58012C16.1896 8.42378 16.1134 8.3329 16.0091 8.33008H16.0084Z" fill="black"/>
<path opacity="0.3" d="M5.1813 4.52537C4.00115 12.0019 4.61833 19.0016 4.61833 19.0016L4.83545 18.7575C4.72431 17.1059 4.42747 11.1337 5.43083 4.77494H8.84475C8.91696 4.77574 9.01357 4.83497 9.12611 4.9311C8.90257 4.68247 8.71672 4.5264 8.5948 4.5249L5.1813 4.52537ZM15.4079 4.52537C14.7581 4.53306 12.2857 8.86911 12.0016 8.86911C12.1175 9.0173 12.2116 9.11953 12.2516 9.11953C12.5358 9.11953 15.008 4.78348 15.6579 4.77569H18.6708L18.822 4.52575L15.4079 4.52537ZM7.97818 8.83005C8.80751 10.0756 10.8689 15.8145 10.8689 15.8145L10.9292 15.5346C10.4202 14.1391 8.48103 8.90743 7.9938 8.83005C7.9885 8.83019 7.98339 8.82949 7.97818 8.83005ZM16.5095 8.83005C17.0657 10.2488 16.0128 17.3226 15.697 19.0015L16.0318 18.7404C16.4589 16.2353 17.4869 8.85598 16.5099 8.82972L16.5095 8.83005Z" fill="white"/>
</g>
<defs>
<clipPath id="clip0_2513_13084">
<rect width="24" height="24" fill="white"/>
</clipPath>
</defs>
</svg>
