<svg width="24" height="24" viewBox="0 0 24 24" fill="none" xmlns="http://www.w3.org/2000/svg">
<g clip-path="url(#clip0_2222_28348)">
<path d="M18.9503 9.99683L23.694 2.41406H12.2835L10.707 4.9411L18.9503 9.99683Z" fill="white"/>
<path opacity="0.15" d="M10.707 4.94108L11.5144 3.64404L18.9503 9.99681L10.707 4.94117V4.94108Z" fill="#404040"/>
<path d="M21.4582 23.7442V12.3449L18.9966 10.8076L13.8203 18.9765L21.4582 23.7444V23.7442Z" fill="white"/>
<path opacity="0.15" d="M13.8204 18.9759L15.099 19.7736L18.9966 10.8076L13.8203 18.976L13.8204 18.9759Z" fill="#404040"/>
<path d="M3.08203 0.132812V11.5324L5.72206 13.0696L18.9488 9.9954L3.08203 0.132812Z" fill="white"/>
<path d="M5.66542 13.9387L0.921875 21.393H12.3317L18.998 10.8076L5.66542 13.9387Z" fill="white"/>
</g>
<defs>
<clipPath id="clip0_2222_28348">
<rect width="23.2174" height="24" fill="white" transform="translate(0.578125)"/>
</clipPath>
</defs>
</svg>
