<svg width="24" height="24" viewBox="0 0 24 24" fill="none" xmlns="http://www.w3.org/2000/svg">
<path d="M12.3152 0.0654297L12.9556 1.26834C13.0996 1.49032 13.2556 1.68681 13.4394 1.8698C13.978 2.40175 14.4802 2.9695 14.9423 3.56917C16.0275 4.99407 16.7594 6.57645 17.2822 8.28782C17.5957 9.33325 17.7659 10.4057 17.7786 11.4901C17.8311 14.7321 16.7197 17.5159 14.4788 19.8295C14.1143 20.1964 13.7205 20.533 13.3014 20.8359C13.0794 20.8359 12.9744 20.6657 12.8829 20.5089C12.7163 20.2183 12.6054 19.8991 12.5559 19.5677C12.4771 19.1755 12.4254 18.7833 12.4509 18.3783V18.1953C12.4329 18.1563 12.2372 0.157673 12.3152 0.0654297Z" fill="#9D9D9D"/>
<path d="M12.3151 0.0253121C12.2888 -0.0271841 12.2626 0.012563 12.2363 0.0380611C12.2491 0.300542 12.1576 0.534525 12.0143 0.758008C11.8568 0.979992 11.6483 1.15023 11.4391 1.33322C10.2767 2.33964 9.3617 3.5553 8.62898 4.91495C7.65403 6.74482 7.15155 8.70592 7.00906 10.7705C6.94381 11.5152 7.24455 14.143 7.47928 14.9012C8.11975 16.9141 9.2702 18.6007 10.7604 20.0646C11.1264 20.4171 11.5178 20.744 11.9228 21.0583C12.0406 21.0583 12.0533 20.9533 12.0803 20.8753C12.1319 20.7084 12.1713 20.5379 12.1981 20.3653L12.4605 18.405L12.3151 0.0253121Z" fill="#404040"/>
<path d="M12.9546 21.6323C12.9808 21.3323 13.1248 21.0834 13.2816 20.8351C13.1241 20.7699 13.0071 20.6401 12.9156 20.4954C12.8367 20.3584 12.7714 20.2139 12.7206 20.0642C12.5376 19.5152 12.4986 18.9393 12.4461 18.3783V18.0386C12.3809 18.0911 12.3674 18.535 12.3674 18.601C12.3292 19.1939 12.2505 19.7835 12.1319 20.3657C12.0929 20.6011 12.0666 20.8359 11.9219 21.0451C11.9219 21.0714 11.9219 21.0976 11.9346 21.1366C12.1701 21.8295 12.2346 22.5352 12.2744 23.2544V23.5169C12.2744 23.8304 12.2616 23.7644 12.5218 23.8694C12.6268 23.9084 12.7438 23.9219 12.8488 23.9999C12.9276 23.9999 12.9403 23.9346 12.9403 23.8821L12.9013 23.4509V22.248C12.8886 22.038 12.9276 21.8295 12.9538 21.6331L12.9546 21.6323Z" fill="white"/>
</svg>
