<svg width="24" height="24" viewBox="0 0 24 24" fill="none" xmlns="http://www.w3.org/2000/svg">
<path d="M1.54376 12.0173V6.2896C1.53814 6.18877 1.56259 6.08855 1.61399 6.00163C1.6654 5.91471 1.74145 5.845 1.83251 5.80135L11.7123 0.0953497C11.89 -0.0156503 12.0895 -0.0381508 12.2673 0.0728492L22.1913 5.8006C22.2763 5.84955 22.3462 5.92105 22.3932 6.00721C22.4402 6.09337 22.4624 6.19083 22.4575 6.28885V17.7226C22.4624 17.8206 22.4402 17.9181 22.3932 18.0042C22.3462 18.0904 22.2763 18.1619 22.1913 18.2108L13.666 23.1383C13.2193 23.4057 12.7678 23.6647 12.3115 23.9153C12.112 24.0264 11.9118 24.0264 11.7115 23.9153L1.81001 18.2093C1.63226 18.0983 1.54376 17.9648 1.54376 17.7428V12.0151V12.0173Z" fill="#009438"/>
<path d="M8.53744 9.88512V16.5601C8.53744 17.3146 7.93744 17.9806 7.13869 17.9589C6.65119 17.9364 6.27319 17.7369 6.01369 17.3154C5.88019 17.1159 5.83594 16.8939 5.83594 16.6494V7.37712C5.83594 6.75462 6.21319 6.31212 6.70144 6.11187C7.18969 5.91162 7.67794 5.95662 8.16694 6.11187C8.63344 6.24537 8.98819 6.53337 9.29194 6.88887L15.1974 13.9711C15.2199 13.9936 15.2424 14.0386 15.2859 14.0821V7.33212C15.2859 6.62187 15.7734 6.06687 16.4634 6.00012C17.3289 5.88912 17.9064 6.51012 17.9949 7.15512V16.6051C17.9949 17.1301 17.7504 17.5156 17.3064 17.7601C16.9734 17.9379 16.6179 17.9821 16.2414 17.9596C15.6968 17.9234 15.1804 17.7043 14.7759 17.3379C14.5539 17.1384 14.3987 16.8939 14.1984 16.6719L8.58094 9.94437C8.58094 9.92187 8.55844 9.89937 8.53594 9.87687L8.53744 9.88512Z" fill="#FEFEFE"/>
</svg>
