<svg width="24" height="24" viewBox="0 0 24 24" fill="none" xmlns="http://www.w3.org/2000/svg">
<path d="M16.1515 4.00008C16.1289 4.00012 16.1067 4.00604 16.0871 4.01724C16.0677 4.02865 16.0515 4.04493 16.0402 4.06448C16.0289 4.08404 16.0229 4.10619 16.0228 4.12877V7.40964C16.0228 7.44183 16.0078 7.47068 15.9799 7.48684C15.9662 7.49481 15.9507 7.499 15.9349 7.499C15.9191 7.499 15.9035 7.49481 15.8898 7.48684L15.3537 7.17807C15.3146 7.15545 15.2703 7.14353 15.2251 7.14353C15.1799 7.14353 15.1355 7.15545 15.0964 7.17807L12.9564 8.41318C12.8764 8.45932 12.8276 8.54813 12.8276 8.64047V11.1107C12.8276 11.156 12.8394 11.2004 12.862 11.2395C12.8846 11.2787 12.9171 11.3112 12.9563 11.3337L15.0964 12.5689C15.1355 12.5916 15.1799 12.6035 15.2251 12.6035C15.2703 12.6035 15.3147 12.5916 15.3537 12.5689L17.4938 11.3337C17.533 11.3112 17.5655 11.2787 17.5881 11.2395C17.6107 11.2004 17.6226 11.156 17.6225 11.1107V4.95218C17.6225 4.85848 17.5714 4.77056 17.4896 4.7249L16.2158 4.01289C16.1958 4.00175 16.1736 3.99984 16.1515 4.00008ZM2.38449 7.08366C2.34365 7.08532 2.30533 7.09242 2.26867 7.1137L0.128634 8.34881C0.0894312 8.37133 0.0568827 8.40382 0.0342914 8.44298C0.0117002 8.48215 -0.000130068 8.52659 1.07863e-06 8.5718L0.00435244 11.8871C0.00435244 11.9332 0.0281955 11.976 0.0687287 11.9985C0.108487 12.0224 0.157782 12.0224 0.197362 11.9985L1.46683 11.2694C1.5473 11.2217 1.59975 11.1385 1.59975 11.0465V9.49821C1.59975 9.40582 1.64833 9.32117 1.7285 9.27528L2.26891 8.96222C2.30796 8.93951 2.35237 8.92766 2.39754 8.92789C2.44273 8.92762 2.48718 8.93948 2.52623 8.96222L3.0664 9.2751C3.14645 9.321 3.19503 9.40576 3.19503 9.49803V11.0463C3.19503 11.1384 3.24868 11.2221 3.32795 11.2692L4.59742 11.9983C4.63736 12.0221 4.68653 12.0221 4.72605 11.9983C4.76539 11.9756 4.79043 11.9329 4.79043 11.8868L4.79472 8.57168C4.79497 8.52644 4.7832 8.48195 4.76059 8.44277C4.73799 8.40359 4.70537 8.37112 4.66609 8.34869L2.52605 7.11364C2.48987 7.09242 2.45136 7.08526 2.41024 7.0836H2.3846L2.38449 7.08366ZM21.6153 7.1137C21.5702 7.11357 21.5258 7.12542 21.4866 7.14803L19.3466 8.3832C19.2667 8.4294 19.2178 8.51386 19.2178 8.60613V11.0764C19.2178 11.1693 19.2701 11.2534 19.3507 11.2993L21.4736 12.5094C21.552 12.5541 21.6477 12.5575 21.7267 12.5135L23.0133 11.7973C23.0541 11.7746 23.0817 11.7323 23.0819 11.6858C23.082 11.6393 23.0578 11.5975 23.0175 11.5744L20.8645 10.3392C20.8242 10.3162 20.7959 10.2696 20.7959 10.2234V9.45094C20.7959 9.4048 20.8245 9.36248 20.8645 9.33947L21.5335 8.95346C21.5733 8.93045 21.6222 8.93045 21.6622 8.95346L22.3316 9.33947C22.3512 9.35073 22.3675 9.36697 22.3787 9.38655C22.39 9.40612 22.396 9.42834 22.3959 9.45094V10.0599C22.3958 10.0825 22.4018 10.1048 22.4131 10.1243C22.4243 10.1439 22.4406 10.1601 22.4602 10.1714C22.5003 10.1945 22.5489 10.1947 22.589 10.1714L23.8712 9.42531C23.9508 9.37905 24 9.29435 24 9.20238V8.60631C24 8.56112 23.9881 8.51672 23.9655 8.47758C23.9429 8.43844 23.9104 8.40593 23.8713 8.38332L21.7441 7.14815C21.705 7.12551 21.6606 7.11366 21.6154 7.11382L21.6153 7.1137ZM15.2165 8.95793C15.2284 8.95788 15.2402 8.96081 15.2508 8.96645L15.9841 9.39103C16.0041 9.40254 16.0185 9.42382 16.0185 9.44677V10.2959C16.0185 10.319 16.0042 10.3402 15.9841 10.3517L15.2508 10.7762C15.2308 10.7876 15.2064 10.7876 15.1864 10.7762L14.4531 10.3517C14.4331 10.3402 14.4187 10.3189 14.4187 10.2959V9.44665C14.4187 9.42364 14.4332 9.40254 14.4531 9.39091L15.1864 8.96639C15.1964 8.96061 15.2053 8.95793 15.2165 8.95793Z" fill="#404137"/>
<path d="M8.81154 7.10065C8.76635 7.10057 8.72194 7.11241 8.68279 7.13498L6.5427 8.36586C6.4627 8.412 6.41406 8.50087 6.41406 8.59314V11.0634C6.41394 11.1086 6.42578 11.1531 6.44837 11.1922C6.47096 11.2314 6.5035 11.2638 6.5427 11.2864L8.68279 12.5215C8.72187 12.5442 8.76626 12.5562 8.81145 12.5562C8.85664 12.5562 8.90103 12.5442 8.94012 12.5215L11.0802 11.2864C11.1194 11.2638 11.1519 11.2313 11.1745 11.1921C11.1971 11.153 11.209 11.1086 11.2089 11.0634V8.59308C11.2089 8.50069 11.1603 8.41188 11.0801 8.3658L8.94006 7.13492C8.90095 7.11225 8.85651 7.1004 8.8113 7.10059L8.81154 7.10065ZM21.6093 9.30508C21.6008 9.30508 21.5913 9.30508 21.5836 9.30926L21.1718 9.54947C21.1642 9.55373 21.1578 9.55994 21.1532 9.56746C21.1487 9.57498 21.1463 9.58356 21.1461 9.59233V10.0641C21.1461 10.0819 21.1564 10.0981 21.1718 10.107L21.5836 10.3429C21.5906 10.3473 21.5988 10.3496 21.6071 10.3496C21.6154 10.3496 21.6236 10.3473 21.6306 10.3429L22.0424 10.107C22.0576 10.0983 22.0681 10.0819 22.0681 10.0641V9.59233C22.0681 9.57457 22.0577 9.55835 22.0424 9.54941L21.6306 9.3092C21.623 9.30467 21.6178 9.30503 21.6092 9.30503L21.6093 9.30508Z" fill="#83CD29"/>
<path d="M11.9989 13.9707C11.9247 13.9707 11.8526 13.986 11.7888 14.0221L9.76877 15.1886C9.63805 15.2639 9.55859 15.4062 9.55859 15.5575V17.8863C9.55859 18.0376 9.63805 18.1796 9.76877 18.2551L10.2963 18.5591C10.5526 18.6855 10.6471 18.6835 10.7638 18.6835C11.1433 18.6835 11.3599 18.4532 11.3599 18.053V15.7554C11.3599 15.723 11.3317 15.6997 11.2999 15.6997H11.0468C11.0144 15.6997 10.9868 15.7236 10.9868 15.7554V18.0542C10.9868 18.2316 10.802 18.41 10.5022 18.2601L9.95379 17.9384C9.93442 17.9279 9.91946 17.9086 9.91946 17.887V15.5582C9.91946 15.5361 9.93424 15.5136 9.95379 15.5024L11.9695 14.3401C11.9884 14.3292 12.0109 14.3292 12.0296 14.3401L14.0453 15.5024C14.0645 15.5139 14.0797 15.5354 14.0797 15.5582V17.887C14.0797 17.9092 14.0685 17.932 14.0496 17.9427L12.0296 19.1051C12.0117 19.1154 11.9879 19.1154 11.9696 19.1051L11.4507 18.7963C11.4352 18.7872 11.4141 18.7879 11.3992 18.7963C11.256 18.8775 11.229 18.8869 11.0947 18.9335C11.0617 18.945 11.0113 18.9629 11.1119 19.0193L11.7895 19.4187C11.854 19.456 11.9259 19.4744 11.9997 19.4744C12.0745 19.4744 12.1453 19.4566 12.2099 19.4187L14.2299 18.2564C14.3606 18.1803 14.44 18.0388 14.44 17.8876V15.5587C14.44 15.4075 14.3606 15.2655 14.2299 15.1899L12.2099 14.0234C12.1466 13.9873 12.074 13.972 11.9997 13.972L11.9989 13.9707ZM12.5393 15.6348C11.9641 15.6348 11.6216 15.8796 11.6216 16.2867C11.6216 16.7278 11.9616 16.8496 12.5136 16.9042C13.1741 16.9689 13.2256 17.0658 13.2256 17.1958C13.2256 17.4213 13.0458 17.5175 12.6209 17.5175C12.087 17.5175 11.9697 17.3842 11.9304 17.1181C11.9257 17.0896 11.9038 17.0667 11.8746 17.0667H11.6124C11.5966 17.067 11.5815 17.0735 11.5703 17.0846C11.5591 17.0958 11.5527 17.1109 11.5524 17.1267C11.5524 17.4666 11.7373 17.8686 12.6203 17.8686C13.2595 17.8686 13.6281 17.6183 13.6281 17.1781C13.6281 16.743 13.3303 16.6254 12.7103 16.5433C12.0845 16.4599 12.0241 16.4199 12.0241 16.2731C12.0241 16.152 12.0748 15.99 12.5388 15.99C12.9532 15.99 13.1064 16.0794 13.1693 16.3588C13.1748 16.3851 13.1979 16.4065 13.225 16.4065H13.4873C13.5034 16.4065 13.519 16.3966 13.5302 16.3851C13.5412 16.3727 13.5489 16.3588 13.5474 16.3422C13.5068 15.8609 13.1859 15.6345 12.5395 15.6345L12.5393 15.6348Z" fill="#83CD29"/>
</svg>
