<svg width="24" height="24" viewBox="0 0 24 24" fill="none" xmlns="http://www.w3.org/2000/svg">
<path fill-rule="evenodd" clip-rule="evenodd" d="M19.2317 7.10534C19.3043 7.08221 19.3997 7.12847 19.4952 7.2557C19.4952 7.2557 19.4952 7.2557 23.8114 11.5198C24.0635 11.7742 24.0635 12.1598 23.8114 12.3487C23.8114 12.3487 23.8114 12.3487 19.4952 16.6783C19.3997 16.8055 19.3043 16.8364 19.2317 16.7978C19.1591 16.7593 19.1133 16.6475 19.1133 16.4855V7.38293C19.1133 7.22486 19.1591 7.12847 19.2317 7.10534Z" fill="#ED1C24"/>
<path fill-rule="evenodd" clip-rule="evenodd" d="M11.8473 0H12.1528L12.4469 0.123373C12.4469 0.123373 12.4469 0.123373 16.8891 4.58021C17.0801 4.83467 17.0152 5.02744 16.6981 5.02744C16.6981 5.02744 16.6981 5.02744 14.8571 5.02744C14.5401 5.02744 14.288 5.2819 14.288 5.6019C14.288 5.6019 14.288 5.6019 14.288 8.90983C14.288 9.22983 14.0321 9.48428 13.6501 9.48428C13.6501 9.48428 13.6501 9.48428 10.4149 9.48428C10.0979 9.48428 9.84199 9.22983 9.84199 8.90983C9.84199 8.90983 9.84199 8.90983 9.84199 5.6019C9.84199 5.2819 9.5899 5.02744 9.26906 5.02744H7.30198C6.98495 5.02744 6.92002 4.83467 7.111 4.58021C7.111 4.58021 7.111 4.58021 11.557 0.123373L11.8473 0Z" fill="#ED1C24"/>
<path fill-rule="evenodd" clip-rule="evenodd" d="M4.88715 7.00918C4.96736 7.04773 5.01701 7.15954 5.01701 7.32147V16.613C5.01701 16.7749 4.96736 16.8713 4.88715 16.9021C4.81076 16.933 4.69999 16.9021 4.57012 16.8058C4.57012 16.8058 4.57012 16.8058 0.189069 12.3489C-0.063023 12.16 -0.063023 11.7745 0.189069 11.52C0.189069 11.52 0.189069 11.52 4.57012 7.1287C4.69999 7.00147 4.81076 6.97063 4.88715 7.00918Z" fill="#ED1C24"/>
<path fill-rule="evenodd" clip-rule="evenodd" d="M10.4125 14.3228C10.4125 14.3228 10.4125 14.3228 13.6477 14.3228C14.0296 14.3228 14.2855 14.5772 14.2855 14.8972C14.2855 14.8972 14.2855 14.8972 14.2855 18.3979C14.2855 18.7796 14.5376 19.0341 14.8547 19.0341H16.5697C16.8867 19.0341 17.0127 19.223 16.7606 19.4157C16.7606 19.4157 16.7606 19.4157 12.4445 23.807C12.3146 23.9343 12.158 23.9998 11.9976 23.9998C11.841 23.9998 11.6806 23.9343 11.5545 23.807C11.5545 23.807 11.5545 23.807 7.23843 19.4157C6.98252 19.223 7.10856 19.0341 7.42559 19.0341C7.42559 19.0341 7.42559 19.0341 9.26662 19.0341C9.58747 19.0341 9.83956 18.7796 9.83956 18.3979C9.83956 18.3979 9.83956 18.3979 9.83956 14.8972C9.83956 14.5772 10.0955 14.3228 10.4125 14.3228Z" fill="#ED1C24"/>
</svg>
