<svg width="24" height="24" viewBox="0 0 24 24" fill="none" xmlns="http://www.w3.org/2000/svg">
<g clip-path="url(#clip0_2222_28336)">
<path d="M-76.8982 14.0601C-76.8982 15.7197 -77.3957 17.1177 -78.394 18.2494C-79.4359 19.4351 -80.7898 20.0304 -82.447 20.0304C-84.1087 20.0304 -85.4581 19.4351 -86.5 18.2494C-87.4988 17.1177 -88 15.7197 -88 14.0601C-88 12.3959 -87.4988 10.9983 -86.5 9.87076C-85.4465 8.6961 -84.0927 8.1091 -82.447 8.1091C-80.7898 8.1091 -79.4359 8.6961 -78.394 9.87076C-77.3957 10.9983 -76.8982 12.3959 -76.8982 14.0601ZM-80.1978 14.0601C-80.1978 13.3084 -80.3792 12.6738 -80.7423 12.1608C-81.1485 11.5777 -81.7171 11.288 -82.447 11.288C-83.1772 11.288 -83.7455 11.5777 -84.1522 12.1608C-84.519 12.6738 -84.7006 13.3084 -84.7006 14.0601C-84.7006 14.8077 -84.519 15.4498 -84.1522 15.9782C-83.7455 16.5613 -83.1772 16.8514 -82.447 16.8514C-81.7171 16.8514 -81.1485 16.5613 -80.7423 15.9782C-80.3792 15.4498 -80.1978 14.8077 -80.1978 14.0601ZM-64.9678 14.0601C-64.9678 15.6104 -65.4178 16.9649 -66.3217 18.1237C-67.2885 19.3922 -68.5356 20.0304 -70.0511 20.0304C-71.1208 20.0304 -72.0282 19.7211 -72.7702 19.1105C-72.7702 19.2511 -72.7544 19.5918 -72.7227 20.1365C-72.6912 20.684 -72.6757 21.1304 -72.6757 21.4828C-72.6757 23.4291 -73.2598 24.3998 -74.4277 24.3998C-74.9054 24.3998 -75.2959 24.2314 -75.6078 23.8985C-75.9156 23.5622 -76.0696 23.1581 -76.0696 22.6811V10.0235C-76.0696 9.56152 -75.9117 9.16201 -75.596 8.82565C-75.2803 8.49276 -74.8894 8.3248 -74.4237 8.3248C-73.7215 8.3248 -73.2083 8.67245 -72.8846 9.366C-72.194 8.52814 -71.2508 8.1091 -70.0551 8.1091C-68.5356 8.1091 -67.2925 8.73516 -66.3217 9.99228C-65.4217 11.1552 -64.9678 12.5098 -64.9678 14.0601ZM-68.2674 14.0601C-68.2674 13.3084 -68.4525 12.6738 -68.8156 12.1608C-69.2225 11.5777 -69.7906 11.288 -70.5208 11.288C-71.2507 11.288 -71.8191 11.5777 -72.2257 12.1608C-72.5888 12.6738 -72.7702 13.3084 -72.7702 14.0601C-72.7702 14.8077 -72.5888 15.4498 -72.2257 15.9782C-71.8191 16.5613 -71.2507 16.8514 -70.5208 16.8514C-69.7906 16.8514 -69.2225 16.5613 -68.8156 15.9782C-68.4525 15.4498 -68.2674 14.8077 -68.2674 14.0601ZM-52.9626 13.7081C-52.9626 14.2556 -53.093 14.6315 -53.3535 14.8433C-53.6138 15.0505 -54.0202 15.1562 -54.5689 15.1562H-60.5243C-60.5243 15.7827 -60.2282 16.264 -59.6362 16.6004C-59.1587 16.8632 -58.5746 16.9966 -57.884 16.9966C-57.347 16.9966 -56.7039 16.8198 -55.9501 16.4719C-55.1962 16.1193 -54.7111 15.9467 -54.5015 15.9467C-54.1189 15.9467 -53.7954 16.0839 -53.527 16.3658C-53.2627 16.644 -53.1282 16.9806 -53.1282 17.3683C-53.1282 18.2644 -53.803 18.962 -55.1532 19.4629C-56.183 19.8385 -57.2289 20.0304 -58.2981 20.0304C-60.0188 20.0304 -61.4081 19.4629 -62.4697 18.3316C-63.5315 17.2 -64.0639 15.7788 -64.0639 14.0601C-64.0639 12.4232 -63.5116 11.0257 -62.4067 9.85947C-61.3057 8.69219 -59.9359 8.1091 -58.3023 8.1091C-56.7828 8.1091 -55.5121 8.66116 -54.4936 9.76508C-53.4758 10.8694 -52.9626 12.1847 -52.9626 13.7081ZM-56.2618 12.8854C-56.2777 12.3841 -56.5105 11.9302 -56.9605 11.5187C-57.4104 11.1079 -57.8878 10.9046 -58.3931 10.9046C-58.9139 10.9046 -59.3995 11.1079 -59.8493 11.5187C-60.299 11.9302 -60.5243 12.3841 -60.5243 12.8854H-56.2618ZM-41.8768 18.096C-41.8768 18.574 -42.0308 18.977 -42.3383 19.3138C-42.6503 19.6469 -43.041 19.8153 -43.5185 19.8153C-44.6709 19.8153 -45.2473 18.9069 -45.2473 17.0943C-45.2473 16.7458 -45.2234 16.1978 -45.1762 15.4422C-45.1248 14.6903 -45.1009 14.1384 -45.1009 13.7899C-45.1009 11.8672 -45.7285 10.9046 -46.9796 10.9046C-48.2308 10.9046 -48.8543 11.8672 -48.8543 13.7899C-48.8543 14.1384 -48.8346 14.6903 -48.7991 15.4422C-48.7595 16.1978 -48.7398 16.7458 -48.7398 17.0943C-48.7398 18.9069 -49.3082 19.8153 -50.4446 19.8153C-50.9223 19.8153 -51.3128 19.6469 -51.6208 19.3138C-51.9325 18.977 -52.0865 18.574 -52.0865 18.096V10.0201C-52.0865 9.54546 -51.9325 9.14292 -51.6208 8.81784C-51.3128 8.48886 -50.9182 8.3248 -50.4406 8.3248C-49.6514 8.3248 -49.103 8.67245 -48.7952 9.366C-48.2623 8.52814 -47.3193 8.1091 -45.9694 8.1091C-44.7183 8.1091 -43.7237 8.43764 -42.9937 9.09149C-42.2478 9.79285 -41.8768 10.7555 -41.8768 11.9811V18.096ZM-31.5255 17.7481C-31.5255 18.4879 -32.0098 19.0749 -32.9813 19.5061C-33.7506 19.854 -34.5865 20.0329 -35.432 20.0304C-37.0938 20.0304 -38.4433 19.4351 -39.4852 18.2494C-40.4836 17.1177 -40.9847 15.7197 -40.9847 14.0601C-40.9847 12.3959 -40.4757 10.9907 -39.4537 9.83951C-38.4315 8.68481 -37.0938 8.1091 -35.432 8.1091C-34.473 8.1091 -33.6481 8.24993 -32.9612 8.52814C-32.0028 8.90399 -31.5255 9.491 -31.5255 10.2898C-31.5255 10.6928 -31.6511 11.0491 -31.9042 11.3586C-32.1564 11.6639 -32.4804 11.8206 -32.8748 11.8206C-33.1436 11.8206 -33.5302 11.7305 -34.0353 11.5547C-34.5401 11.3742 -34.9424 11.288 -35.2384 11.288C-36.0239 11.288 -36.6357 11.566 -37.0737 12.1218C-37.4806 12.6231 -37.6855 13.2652 -37.6855 14.0601C-37.6855 14.8077 -37.504 15.4422 -37.1367 15.955C-36.7307 16.5541 -36.1582 16.8514 -35.4282 16.8514C-35.1043 16.8514 -34.6626 16.7575 -34.0985 16.5652C-33.5337 16.3779 -33.127 16.2801 -32.8748 16.2801C-32.5073 16.2801 -32.1923 16.4363 -31.9234 16.7418C-31.659 17.0511 -31.5255 17.3835 -31.5255 17.7481ZM-19.5317 18.096C-19.5317 18.574 -19.6852 18.977 -19.9935 19.3138C-20.305 19.6469 -20.6994 19.8153 -21.1778 19.8153C-21.8959 19.8153 -22.4085 19.4666 -22.7165 18.7737C-23.4068 19.6118 -24.3503 20.0304 -25.546 20.0304C-27.0768 20.0304 -28.332 19.3922 -29.3035 18.1237C-30.1874 16.9649 -30.6326 15.6104 -30.6326 14.0601C-30.6326 12.5098 -30.1874 11.1552 -29.3035 9.99228C-28.3162 8.73516 -27.0654 8.1091 -25.546 8.1091C-24.3503 8.1091 -23.4068 8.52814 -22.7165 9.366C-22.4085 8.67245 -21.8959 8.3248 -21.1778 8.3248C-20.7116 8.3248 -20.3207 8.49276 -20.0046 8.82565C-19.6896 9.16201 -19.5317 9.55762 -19.5317 10.0201V18.096ZM-22.8309 14.0601C-22.8309 13.3084 -23.0122 12.6738 -23.3753 12.1608C-23.7978 11.5777 -24.3661 11.288 -25.0801 11.288C-25.8105 11.288 -26.3786 11.5777 -26.7854 12.1608C-27.1518 12.6738 -27.3334 13.3084 -27.3334 14.0601C-27.3334 14.8077 -27.1564 15.4498 -26.8053 15.9782C-26.3864 16.5613 -25.8105 16.8514 -25.0801 16.8514C-24.3503 16.8514 -23.7822 16.5613 -23.3753 15.9782C-23.0122 15.4498 -22.8309 14.8077 -22.8309 14.0601ZM-11.1135 9.80414C-11.1135 10.5049 -11.4567 10.9864 -12.1436 11.2485C-12.7789 11.4603 -13.4108 11.676 -14.0417 11.8985C-14.733 12.2904 -15.0762 13.0184 -15.0762 14.0757V18.096C-15.0762 18.574 -15.2341 18.977 -15.5413 19.3138C-15.8536 19.6469 -16.2483 19.8153 -16.7256 19.8153C-17.2066 19.8153 -17.6019 19.6469 -17.9092 19.3138C-18.2216 18.977 -18.3752 18.574 -18.3752 18.096V10.0201C-18.3752 9.54546 -18.2216 9.14292 -17.9136 8.81784C-17.6019 8.48886 -17.2066 8.3248 -16.7291 8.3248C-15.9403 8.3248 -15.3921 8.67245 -15.0838 9.366C-14.3771 8.52814 -13.6193 8.1091 -12.8025 8.1091C-12.3372 8.1091 -11.9384 8.27706 -11.6068 8.60995C-11.2796 8.94674 -11.1135 9.34604 -11.1135 9.80414ZM-2.50616 9.953C-2.50616 10.6811 -2.79425 11.1392 -3.36584 11.3353C-3.64694 11.433 -4.23516 11.4838 -5.13072 11.4838V18.096C-5.13072 18.574 -5.28866 18.977 -5.59579 19.3138C-5.90838 19.6469 -6.30278 19.8153 -6.78031 19.8153C-7.24538 19.8153 -7.64088 19.6469 -7.95676 19.3138C-8.27175 18.977 -8.42991 18.574 -8.42991 18.096V11.4838C-9.10891 11.4838 -9.60197 11.3976 -9.91347 11.2297C-10.3394 10.9946 -10.5498 10.5678 -10.5498 9.953C-10.5498 9.33866 -10.3324 8.91962 -9.89444 8.6961C-9.59847 8.53161 -9.10891 8.44589 -8.42991 8.44589V7.04424C-8.42991 5.39608 -7.88171 4.57405 -6.78031 4.57405C-5.68306 4.57405 -5.13072 5.39608 -5.13072 7.04424V8.44589C-4.23516 8.44589 -3.64694 8.49667 -3.36584 8.59432C-2.79425 8.79006 -2.50616 9.24469 -2.50616 9.953ZM24 7.965C23.991 6.96004 22.1192 6.5039 17.2737 6.5039C5.90391 6.5039 3.01947 6.02214 -0.0675354 2.7998C1.23096 4.73464 1.94147 8.36364 13.9589 8.18309C26.4972 7.99148 18.8482 11.3902 16.6227 15.2302C20.6361 11.6765 23.988 9.3341 24 7.97954V7.965ZM8.02316 18.2843C8.02299 18.7359 7.84205 19.169 7.52013 19.4883C7.1982 19.8076 6.76164 19.9871 6.3064 19.9872C5.35506 19.9872 4.58594 19.2242 4.58594 18.2843C4.58576 18.0601 4.63015 17.8381 4.71655 17.6309C4.80295 17.4238 4.92966 17.2356 5.08945 17.077C5.24924 16.9185 5.43897 16.7927 5.64779 16.707C5.85661 16.6213 6.08041 16.5772 6.3064 16.5774C7.25425 16.5774 8.02316 17.3406 8.02316 18.2843ZM15.8529 18.2843C15.8527 18.7359 15.6718 19.169 15.3498 19.4883C15.0279 19.8076 14.5914 19.9871 14.1361 19.9872C13.1857 19.9872 12.4159 19.2242 12.4159 18.2843C12.4157 18.0602 12.4601 17.8381 12.5465 17.631C12.6328 17.4239 12.7595 17.2356 12.9193 17.0771C13.0791 16.9186 13.2688 16.7928 13.4776 16.7071C13.6864 16.6213 13.9101 16.5772 14.1361 16.5774C15.084 16.5774 15.8529 17.3406 15.8529 18.2843Z" fill="white"/>
</g>
<defs>
<clipPath id="clip0_2222_28336">
<rect width="24" height="17.6" fill="white" transform="translate(0 3)"/>
</clipPath>
</defs>
</svg>
