<svg width="24" height="24" viewBox="0 0 24 24" fill="none" xmlns="http://www.w3.org/2000/svg">
<g clip-path="url(#clip0_2513_13788)">
<path d="M24 11.9999V23.9999H0V11.9999H6.90692C6.93923 11.9532 6.96404 11.9249 6.98077 11.892C7.25077 11.3601 7.51962 10.827 7.78904 10.2945C7.80577 10.2617 7.82596 10.2305 7.85827 10.1763C8.16231 10.7849 8.45135 11.3624 8.76981 11.9993C9.38308 9.54281 9.98596 7.1405 10.5854 4.73242C10.6073 4.73415 10.6333 4.73646 10.6737 4.73992C10.6737 4.8005 10.6587 4.86165 10.676 4.91127C11.3192 6.73146 11.629 8.6555 12.0704 10.5305C12.1581 10.9026 12.2238 11.2903 12.3387 11.6549C12.4315 11.9503 12.5158 12.0017 12.8106 12.0017C13.0015 12.0017 13.1931 12.0017 13.384 12.0017C13.6812 13.189 13.9794 14.3815 14.2788 15.578C14.3025 15.5745 14.329 15.5705 14.3388 15.5693C14.6383 14.3722 14.9348 13.1884 15.2325 11.9988H16.151C16.4625 11.4017 16.7463 10.7918 17.0798 10.163C17.4029 10.8068 17.7058 11.4092 18.0029 12.0005H24V11.9999Z" fill="#9D9D9D"/>
<path d="M11.4819 8.12404C11.4513 8.03 11.4426 7.92904 11.4219 7.83154L11.4819 8.12404Z" fill="#0066FE"/>
<path d="M11.0106 6.18396C10.9038 5.75935 10.8225 5.32608 10.6754 4.91127C10.6581 4.86166 10.6731 4.8005 10.6731 4.73992C10.6327 4.73646 10.6067 4.73416 10.5848 4.73242C9.98481 7.14108 9.38192 9.54339 8.76923 11.9993C8.45077 11.3624 8.16231 10.7849 7.85769 10.1763C7.82596 10.2311 7.80519 10.2617 7.78846 10.2945C7.51904 10.827 7.25019 11.3595 6.98019 11.892C6.96346 11.9243 6.93923 11.9526 6.90635 11.9999H0.0576923V0.419925C0.0576923 0.333386 0.0605769 0.246848 0.0548077 0.160886C0.0536538 0.144733 0.0190385 0.130309 0 0.115309V0.0576172H24V0.115309C23.981 0.130309 23.9458 0.144733 23.9452 0.160886C23.9394 0.246848 23.9423 0.333386 23.9423 0.419925V11.9999H18.0029C17.7058 11.4086 17.4035 10.8063 17.0798 10.1624C16.7463 10.7913 16.4625 11.4011 16.151 11.9982H15.2325C14.9348 13.1878 14.6383 14.3717 14.3388 15.5688C14.329 15.5699 14.3031 15.574 14.2788 15.5774C13.9794 14.3809 13.6812 13.1884 13.384 12.0011H12.4737C12.4321 11.8517 12.3883 11.6982 12.3462 11.5442C12.2492 11.1899 12.1685 10.8311 12.0721 10.4763C12.004 10.2253 11.9515 9.96916 11.8852 9.71646" fill="#404040"/>
<path d="M24 0.0576923H0C0 0.0386538 0 0.00230769 0 0.00230769C0.0773077 0 0.154038 0 0.230769 0H23.7692C23.846 0 23.9233 0 24 0.00230769C24.0006 0.00230769 24 0.0386538 24 0.0576923Z" fill="#0D6EFE"/>
<path d="M0 0.115234C0.0190385 0.130234 0.0542308 0.144657 0.0548077 0.160811C0.0605769 0.246773 0.0576923 0.333311 0.0576923 0.41985V11.9998H0V0.115234Z" fill="#0D6EFE"/>
<path d="M23.9421 11.9998V0.41985C23.9421 0.333311 23.9392 0.246773 23.945 0.160811C23.9462 0.144657 23.9808 0.130234 23.9998 0.115234V11.9998H23.9421Z" fill="#0D6EFE"/>
</g>
<defs>
<clipPath id="clip0_2513_13788">
<rect width="24" height="24" rx="2" fill="white"/>
</clipPath>
</defs>
</svg>
