<svg width="24" height="24" viewBox="0 0 24 24" fill="none" xmlns="http://www.w3.org/2000/svg">
<g clip-path="url(#clip0_3776_418)">
<path d="M-74.7235 14.095C-74.7235 15.7303 -75.2103 17.1078 -76.1871 18.2229C-77.2065 19.3912 -78.5312 19.9777 -80.1527 19.9777C-81.7785 19.9777 -83.0989 19.3912 -84.1183 18.2229C-85.0956 17.1078 -85.5859 15.7303 -85.5859 14.095C-85.5859 12.4552 -85.0956 11.0782 -84.1183 9.96719C-83.0875 8.80977 -81.7629 8.23138 -80.1527 8.23138C-78.5312 8.23138 -77.2065 8.80977 -76.1871 9.96719C-75.2103 11.0782 -74.7235 12.4552 -74.7235 14.095ZM-77.952 14.095C-77.952 13.3543 -78.1295 12.7291 -78.4847 12.2237C-78.8822 11.6491 -79.4385 11.3637 -80.1527 11.3637C-80.8672 11.3637 -81.4232 11.6491 -81.8211 12.2237C-82.18 12.7291 -82.3577 13.3543 -82.3577 14.095C-82.3577 14.8316 -82.18 15.4643 -81.8211 15.985C-81.4232 16.5595 -80.8672 16.8454 -80.1527 16.8454C-79.4385 16.8454 -78.8822 16.5595 -78.4847 15.985C-78.1295 15.4643 -77.952 14.8316 -77.952 14.095ZM-63.0504 14.095C-63.0504 15.6226 -63.4907 16.9573 -64.3751 18.0991C-65.3211 19.3489 -66.5413 19.9777 -68.0241 19.9777C-69.0707 19.9777 -69.9585 19.673 -70.6845 19.0713C-70.6845 19.2099 -70.6691 19.5456 -70.6381 20.0823C-70.6073 20.6217 -70.5921 21.0616 -70.5921 21.4088C-70.5921 23.3266 -71.1635 24.283 -72.3063 24.283C-72.7737 24.283 -73.1558 24.1171 -73.461 23.7891C-73.7621 23.4577 -73.9128 23.0595 -73.9128 22.5895V10.1177C-73.9128 9.66249 -73.7583 9.26884 -73.4494 8.93742C-73.1406 8.60942 -72.7581 8.44392 -72.3024 8.44392C-71.6154 8.44392 -71.1132 8.78646 -70.7965 9.46984C-70.1208 8.64427 -69.1979 8.23138 -68.028 8.23138C-66.5413 8.23138 -65.3249 8.84825 -64.3751 10.0869C-63.4945 11.2328 -63.0504 12.5675 -63.0504 14.095ZM-66.2789 14.095C-66.2789 13.3543 -66.4599 12.7291 -66.8152 12.2237C-67.2133 11.6491 -67.7692 11.3637 -68.4836 11.3637C-69.1979 11.3637 -69.7539 11.6491 -70.1518 12.2237C-70.5071 12.7291 -70.6845 13.3543 -70.6845 14.095C-70.6845 14.8316 -70.5071 15.4643 -70.1518 15.985C-69.7539 16.5595 -69.1979 16.8454 -68.4836 16.8454C-67.7692 16.8454 -67.2133 16.5595 -66.8152 15.985C-66.4599 15.4643 -66.2789 14.8316 -66.2789 14.095ZM-51.3041 13.7482C-51.3041 14.2877 -51.4316 14.658 -51.6865 14.8667C-51.9412 15.0709 -52.3389 15.175 -52.8757 15.175H-58.7027C-58.7027 15.7923 -58.4129 16.2666 -57.8338 16.598C-57.3665 16.857 -56.7951 16.9885 -56.1194 16.9885C-55.5939 16.9885 -54.9647 16.8142 -54.2271 16.4714C-53.4895 16.124 -53.0148 15.954 -52.8098 15.954C-52.4354 15.954 -52.1189 16.0891 -51.8563 16.3669C-51.5977 16.641 -51.4661 16.9726 -51.4661 17.3547C-51.4661 18.2376 -52.1264 18.9251 -53.4474 19.4186C-54.455 19.7887 -55.4783 19.9777 -56.5245 19.9777C-58.2081 19.9777 -59.5674 19.4186 -60.6061 18.3039C-61.6451 17.1888 -62.166 15.7885 -62.166 14.095C-62.166 12.4822 -61.6256 11.1051 -60.5445 9.95607C-59.4673 8.80592 -58.127 8.23138 -56.5286 8.23138C-55.0419 8.23138 -53.7986 8.77534 -52.8021 9.86306C-51.8062 10.9512 -51.3041 12.2472 -51.3041 13.7482ZM-54.5321 12.9376C-54.5477 12.4437 -54.7755 11.9964 -55.2157 11.591C-55.656 11.1862 -56.123 10.9858 -56.6174 10.9858C-57.127 10.9858 -57.6022 11.1862 -58.0422 11.591C-58.4823 11.9964 -58.7027 12.4437 -58.7027 12.9376H-54.5321ZM-40.4573 18.0717C-40.4573 18.5427 -40.608 18.9398 -40.9089 19.2717C-41.2141 19.5999 -41.5964 19.7658 -42.0636 19.7658C-43.1911 19.7658 -43.7551 18.8707 -43.7551 17.0847C-43.7551 16.7413 -43.7318 16.2014 -43.6855 15.4569C-43.6353 14.716 -43.6119 14.1722 -43.6119 13.8288C-43.6119 11.9344 -44.226 10.9858 -45.45 10.9858C-46.6743 10.9858 -47.2843 11.9344 -47.2843 13.8288C-47.2843 14.1722 -47.265 14.716 -47.2304 15.4569C-47.1916 16.2014 -47.1724 16.7413 -47.1724 17.0847C-47.1724 18.8707 -47.7284 19.7658 -48.8403 19.7658C-49.3078 19.7658 -49.6898 19.5999 -49.9912 19.2717C-50.2962 18.9398 -50.4469 18.5427 -50.4469 18.0717V10.1143C-50.4469 9.64667 -50.2962 9.25003 -49.9912 8.92972C-49.6898 8.60557 -49.3037 8.44392 -48.8365 8.44392C-48.0642 8.44392 -47.5277 8.78646 -47.2265 9.46984C-46.7051 8.64427 -45.7824 8.23138 -44.4616 8.23138C-43.2376 8.23138 -42.2644 8.5551 -41.5501 9.19935C-40.8203 9.89042 -40.4573 10.8389 -40.4573 12.0466V18.0717ZM-30.3292 17.7289C-30.3292 18.4579 -30.8031 19.0362 -31.7536 19.4611C-32.5063 19.804 -33.3242 19.9802 -34.1514 19.9777C-35.7775 19.9777 -37.0978 19.3912 -38.1173 18.2229C-39.0941 17.1078 -39.5845 15.7303 -39.5845 14.095C-39.5845 12.4552 -39.0864 11.0707 -38.0864 9.9364C-37.0863 8.79865 -35.7775 8.23138 -34.1514 8.23138C-33.2131 8.23138 -32.406 8.37015 -31.7339 8.64427C-30.7963 9.01461 -30.3292 9.593 -30.3292 10.3801C-30.3292 10.7771 -30.4521 11.1282 -30.6997 11.4332C-30.9465 11.734 -31.2635 11.8884 -31.6494 11.8884C-31.9124 11.8884 -32.2906 11.7996 -32.7848 11.6264C-33.2788 11.4485 -33.6724 11.3637 -33.962 11.3637C-34.7306 11.3637 -35.3293 11.6376 -35.7578 12.1852C-36.1559 12.6791 -36.3564 13.3118 -36.3564 14.095C-36.3564 14.8316 -36.1788 15.4569 -35.8194 15.9621C-35.4222 16.5525 -34.862 16.8454 -34.1478 16.8454C-33.8308 16.8454 -33.3987 16.7528 -32.8467 16.5634C-32.2941 16.3789 -31.8962 16.2824 -31.6494 16.2824C-31.2898 16.2824 -30.9816 16.4364 -30.7186 16.7374C-30.4598 17.0421 -30.3292 17.3697 -30.3292 17.7289ZM-18.594 18.0717C-18.594 18.5427 -18.7443 18.9398 -19.0459 19.2717C-19.3506 19.5999 -19.7365 19.7658 -20.2046 19.7658C-20.9073 19.7658 -21.4088 19.4222 -21.7101 18.7395C-22.3856 19.5652 -23.3088 19.9777 -24.4787 19.9777C-25.9765 19.9777 -27.2046 19.3489 -28.1551 18.0991C-29.02 16.9573 -29.4556 15.6226 -29.4556 14.095C-29.4556 12.5675 -29.02 11.2328 -28.1551 10.0869C-27.1892 8.84825 -25.9653 8.23138 -24.4787 8.23138C-23.3088 8.23138 -22.3856 8.64427 -21.7101 9.46984C-21.4088 8.78646 -20.9073 8.44392 -20.2046 8.44392C-19.7485 8.44392 -19.366 8.60942 -19.0568 8.93742C-18.7486 9.26884 -18.594 9.65864 -18.594 10.1143V18.0717ZM-21.8221 14.095C-21.8221 13.3543 -21.9995 12.7291 -22.3548 12.2237C-22.7681 11.6491 -23.3242 11.3637 -24.0228 11.3637C-24.7374 11.3637 -25.2933 11.6491 -25.6914 12.2237C-26.0499 12.7291 -26.2275 13.3543 -26.2275 14.095C-26.2275 14.8316 -26.0544 15.4643 -25.7108 15.985C-25.301 16.5595 -24.7374 16.8454 -24.0228 16.8454C-23.3087 16.8454 -22.7529 16.5595 -22.3548 15.985C-21.9995 15.4643 -21.8221 14.8316 -21.8221 14.095ZM-10.3574 9.90154C-10.3574 10.592 -10.6932 11.0664 -11.3653 11.3247C-11.9868 11.5334 -12.6052 11.746 -13.2224 11.9651C-13.8988 12.3513 -14.2346 13.0687 -14.2346 14.1104V18.0717C-14.2346 18.5427 -14.3891 18.9398 -14.6896 19.2717C-14.9953 19.5999 -15.3814 19.7658 -15.8484 19.7658C-16.3191 19.7658 -16.7058 19.5999 -17.0065 19.2717C-17.3122 18.9398 -17.4624 18.5427 -17.4624 18.0717V10.1143C-17.4624 9.64667 -17.3122 9.25003 -17.0108 8.92972C-16.7058 8.60557 -16.3191 8.44392 -15.8518 8.44392C-15.08 8.44392 -14.5437 8.78646 -14.2421 9.46984C-13.5506 8.64427 -12.8091 8.23138 -12.0099 8.23138C-11.5547 8.23138 -11.1645 8.39688 -10.84 8.72488C-10.5198 9.05673 -10.3574 9.45016 -10.3574 9.90154ZM-1.93562 10.0482C-1.93562 10.7656 -2.21751 11.217 -2.77678 11.4103C-3.05181 11.5065 -3.62734 11.5565 -4.50359 11.5565V18.0717C-4.50359 18.5427 -4.65813 18.9398 -4.95863 19.2717C-5.26448 19.5999 -5.65038 19.7658 -6.11761 19.7658C-6.57265 19.7658 -6.95963 19.5999 -7.26868 19.2717C-7.5769 18.9398 -7.73164 18.5427 -7.73164 18.0717V11.5565C-8.396 11.5565 -8.87843 11.4716 -9.18321 11.3061C-9.59993 11.0746 -9.80583 10.654 -9.80583 10.0482C-9.80583 9.44289 -9.59309 9.03 -9.1646 8.80977C-8.87501 8.64769 -8.396 8.56323 -7.73164 8.56323V7.18215C-7.73164 5.55817 -7.19527 4.74821 -6.11761 4.74821C-5.04403 4.74821 -4.50359 5.55817 -4.50359 7.18215V8.56323C-3.62734 8.56323 -3.05181 8.61326 -2.77678 8.70948C-2.21751 8.90235 -1.93562 9.35031 -1.93562 10.0482ZM23.999 8.0894C23.9902 7.09919 22.1587 6.64973 17.4177 6.64973C6.29309 6.64973 3.47085 6.17505 0.450409 3C1.72091 4.90644 2.41609 8.48219 14.1744 8.30429C26.4424 8.11549 18.9583 11.4644 16.7807 15.248C20.7076 11.7464 23.9872 9.4384 23.999 8.10372V8.0894ZM8.36664 18.2573C8.36647 18.7023 8.18943 19.129 7.87445 19.4436C7.55947 19.7582 7.13232 19.935 6.6869 19.9352C5.75608 19.9352 5.00354 19.1834 5.00354 18.2573C5.00337 18.0364 5.0468 17.8176 5.13133 17.6135C5.21587 17.4094 5.33985 17.2239 5.49619 17.0677C5.65254 16.9115 5.83818 16.7876 6.0425 16.7031C6.2468 16.6186 6.46579 16.5752 6.6869 16.5754C7.61431 16.5754 8.36664 17.3274 8.36664 18.2573ZM16.0275 18.2573C16.0274 18.7023 15.8503 19.129 15.5353 19.4436C15.2204 19.7582 14.7932 19.935 14.3478 19.9352C13.4178 19.9352 12.6646 19.1834 12.6646 18.2573C12.6645 18.0364 12.7079 17.8177 12.7924 17.6135C12.8769 17.4094 13.0009 17.224 13.1572 17.0678C13.3135 16.9116 13.4992 16.7877 13.7034 16.7032C13.9077 16.6187 14.1267 16.5753 14.3478 16.5754C15.2752 16.5754 16.0275 17.3274 16.0275 18.2573Z" fill="url(#paint0_linear_3776_418)"/>
</g>
<defs>
<linearGradient id="paint0_linear_3776_418" x1="-30.7935" y1="19.8357" x2="-30.7935" y2="3" gradientUnits="userSpaceOnUse">
<stop stop-color="#04B6F0"/>
<stop offset="1" stop-color="#3ECAF0"/>
</linearGradient>
<clipPath id="clip0_3776_418">
<rect width="24" height="17.2075" fill="white" transform="translate(0 3)"/>
</clipPath>
</defs>
</svg>
