<svg width="24" height="24" viewBox="0 0 24 24" fill="none" xmlns="http://www.w3.org/2000/svg">
<path d="M0 11.9463C0 15.2896 5.37269 18 12 18C18.6273 18 24 15.2896 24 11.9463C24 8.60293 18.6273 5.89251 12 5.89251C5.37269 5.89251 0 8.60293 0 11.9463Z" fill="url(#paint0_radial_3776_4726)"/>
<path d="M12 17.5508C18.3684 17.5508 23.5312 15.0416 23.5312 11.9465C23.5312 8.85137 18.3684 6.3422 12 6.3422C5.63154 6.3422 0.46875 8.85137 0.46875 11.9465C0.46875 15.0416 5.63154 17.5508 12 17.5508Z" fill="#777BB3"/>
<path d="M6.51571 12.6409C7.03937 12.6409 7.4303 12.5483 7.67765 12.3657C7.92235 12.185 8.09136 11.872 8.17995 11.4353C8.26254 11.0272 8.23108 10.7422 8.08646 10.5884C7.93859 10.4313 7.61888 10.3516 7.13624 10.3516H6.2994L5.83546 12.6409H6.51571ZM3.77861 15.4609C3.73976 15.4609 3.70287 15.4443 3.67818 15.4155C3.65344 15.3867 3.64341 15.3488 3.65083 15.3123L4.88034 9.24552C4.89224 9.18687 4.94584 9.1445 5.00817 9.1445H7.65807C8.49088 9.1445 9.11076 9.36136 9.50039 9.78913C9.8921 10.2191 10.0131 10.8202 9.85989 11.5757C9.79757 11.8834 9.69036 12.1693 9.54127 12.4252C9.39201 12.6814 9.19475 12.9184 8.95486 13.1299C8.66771 13.3876 8.34271 13.5745 7.98976 13.6845C7.64241 13.793 7.19631 13.848 6.66389 13.848H5.59089L5.28447 15.3599C5.27257 15.4186 5.21902 15.4609 5.15669 15.4609H3.77861Z" fill="black"/>
<path d="M6.40804 10.4766H7.13755C7.72006 10.4766 7.9224 10.5992 7.99115 10.6722C8.10522 10.7935 8.12674 11.0493 8.05344 11.4118C7.97106 11.8176 7.81837 12.1053 7.59953 12.2669C7.37549 12.4323 7.01125 12.5162 6.51702 12.5162H5.99472L6.40804 10.4766ZM7.65938 9.01976H5.00943C4.88478 9.01976 4.77762 9.1045 4.75383 9.22184L3.52432 15.2886C3.50948 15.3618 3.52953 15.4375 3.57897 15.4951C3.62844 15.5526 3.70214 15.5859 3.77992 15.5859H5.15796C5.28265 15.5859 5.38981 15.5012 5.4136 15.3839L5.69953 13.973H6.6652C7.21129 13.973 7.67102 13.9159 8.03147 13.8033C8.40218 13.6878 8.74324 13.492 9.0451 13.2212C9.29475 13.001 9.5004 12.7537 9.65621 12.4863C9.81207 12.2188 9.92405 11.9204 9.98902 11.5996C10.1503 10.8044 10.0193 10.1677 9.59974 9.70714C9.18429 9.25102 8.53143 9.01976 7.65938 9.01976ZM5.67879 12.7659H6.51702C7.07262 12.7659 7.48647 12.6656 7.75839 12.4648C8.03035 12.264 8.21377 11.9289 8.30908 11.4593C8.40027 11.0084 8.35873 10.6903 8.18447 10.5049C8.00999 10.3195 7.66108 10.2269 7.13755 10.2269H6.19337L5.67879 12.7659ZM7.65938 9.2695C8.45656 9.2695 9.03811 9.47013 9.40365 9.87143C9.76915 10.2727 9.87921 10.8329 9.73338 11.552C9.67336 11.8482 9.57184 12.1191 9.42891 12.3645C9.28581 12.61 9.09896 12.8345 8.86806 13.0381C8.59289 13.285 8.2872 13.461 7.95083 13.5658C7.61446 13.6709 7.18603 13.7233 6.6652 13.7233H5.48482L5.15796 15.3362H3.77992L5.00943 9.2695H7.65938Z" fill="white"/>
<path d="M13.0204 13.8477C12.9815 13.8477 12.9447 13.831 12.92 13.8022C12.8952 13.7734 12.8852 13.7356 12.8926 13.699L13.4365 11.0147C13.4882 10.7594 13.4754 10.5762 13.4006 10.4988C13.3547 10.4514 13.2171 10.3721 12.81 10.3721H11.8247L11.1408 13.7466C11.129 13.8053 11.0754 13.8477 11.013 13.8477H9.64584C9.60695 13.8477 9.5701 13.831 9.54536 13.8022C9.52062 13.7734 9.5106 13.7356 9.51802 13.699L10.7475 7.63224C10.7594 7.57359 10.813 7.53122 10.8754 7.53122H12.2425C12.2814 7.53122 12.3183 7.54787 12.343 7.57663C12.3678 7.60544 12.3778 7.64327 12.3704 7.6799L12.0737 9.14415H13.1336C13.9411 9.14415 14.4887 9.28068 14.8076 9.56155C15.1327 9.84809 15.2342 10.3062 15.1092 10.9234L14.5371 13.7466C14.5252 13.8053 14.4717 13.8477 14.4093 13.8477H13.0204Z" fill="black"/>
<path d="M12.2438 7.40648H10.8767C10.752 7.40648 10.6448 7.49122 10.621 7.60856L9.39151 13.6753C9.37666 13.7485 9.39672 13.8242 9.4462 13.8818C9.49567 13.9394 9.56937 13.9727 9.64715 13.9727H11.0143C11.139 13.9727 11.2462 13.8879 11.27 13.7706L11.9333 10.4971H12.8113C13.2177 10.4971 13.303 10.5803 13.3064 10.5839C13.331 10.6093 13.3635 10.7271 13.3099 10.991L12.7661 13.6753C12.7512 13.7485 12.7713 13.8242 12.8208 13.8818C12.8702 13.9394 12.9439 13.9727 13.0217 13.9727H14.4106C14.5352 13.9727 14.6425 13.8879 14.6662 13.7706L15.2382 10.9474C15.3725 10.2847 15.2576 9.78762 14.8971 9.46978C14.553 9.16671 13.9766 9.0194 13.1349 9.0194H12.2329L12.4995 7.70388C12.5143 7.63066 12.4943 7.55491 12.4448 7.49738C12.3953 7.43982 12.3216 7.40648 12.2438 7.40648ZM12.2438 7.65622L11.917 9.26915H13.1349C13.9013 9.26915 14.4299 9.39743 14.7208 9.65367C15.0118 9.91007 15.0989 10.3255 14.9826 10.8998L14.4106 13.7229H13.0217L13.5656 11.0387C13.6275 10.7333 13.6047 10.525 13.4973 10.414C13.3898 10.3029 13.1611 10.2473 12.8113 10.2473H11.7186L11.0143 13.7229H9.64715L10.8767 7.65622H12.2438Z" fill="white"/>
<path d="M17.2735 12.6409C17.7972 12.6409 18.1881 12.5483 18.4355 12.3657C18.6802 12.1851 18.8492 11.872 18.9378 11.4353C19.0204 11.0272 18.9889 10.7422 18.8443 10.5884C18.6964 10.4313 18.3767 10.3516 17.8941 10.3516H17.0572L16.5933 12.6409H17.2735ZM14.5365 15.4609C14.4976 15.4609 14.4607 15.4443 14.436 15.4155C14.4113 15.3867 14.4012 15.3488 14.4086 15.3123L15.6382 9.24552C15.6501 9.18687 15.7036 9.1445 15.766 9.1445H18.4159C19.2487 9.1445 19.8686 9.36136 20.2582 9.78913C20.6499 10.2191 20.7709 10.8202 20.6177 11.5757C20.5553 11.8834 20.4482 12.1693 20.2991 12.4252C20.1498 12.6814 19.9526 12.9184 19.7127 13.1299C19.4255 13.3876 19.1005 13.5745 18.7476 13.6845C18.4002 13.793 17.9541 13.848 17.4217 13.848H16.3487L16.0424 15.3599C16.0304 15.4186 15.9769 15.4609 15.9145 15.4609H14.5365Z" fill="black"/>
<path d="M17.1658 10.4766H17.8953C18.4778 10.4766 18.6802 10.5992 18.7489 10.6722C18.863 10.7935 18.8846 11.0493 18.8112 11.4117C18.7288 11.8176 18.5761 12.1053 18.3573 12.2669C18.1333 12.4323 17.769 12.5162 17.2748 12.5162H16.7525L17.1658 10.4766ZM18.4172 9.01976H15.7672C15.6426 9.01976 15.5354 9.1045 15.5116 9.22184L14.2821 15.2886C14.2673 15.3618 14.2873 15.4375 14.3368 15.4951C14.3863 15.5526 14.46 15.5859 14.5377 15.5859H15.9158C16.0404 15.5859 16.1476 15.5012 16.1714 15.3839L16.4573 13.973H17.423C17.9691 13.973 18.4288 13.9159 18.7892 13.8033C19.1599 13.6878 19.5011 13.4919 19.803 13.2212C20.0526 13.0009 20.2582 12.7537 20.414 12.4863C20.5698 12.2188 20.6818 11.9204 20.7468 11.5996C20.908 10.8044 20.777 10.1676 20.3575 9.70709C19.9421 9.25102 19.2892 9.01976 18.4172 9.01976ZM16.4366 12.7659H17.2748C17.8304 12.7659 18.2442 12.6656 18.5162 12.4648C18.7882 12.264 18.9715 11.9289 19.0668 11.4593C19.1581 11.0084 19.1165 10.6903 18.9422 10.5049C18.7678 10.3195 18.4188 10.2269 17.8953 10.2269H16.9511L16.4366 12.7659ZM18.4172 9.2695C19.2143 9.2695 19.7959 9.47013 20.1614 9.87143C20.527 10.2727 20.637 10.8329 20.4912 11.552C20.4311 11.8482 20.3296 12.1191 20.1867 12.3645C20.0436 12.61 19.8567 12.8345 19.6258 13.0381C19.3507 13.285 19.045 13.461 18.7086 13.5658C18.3722 13.6709 17.9438 13.7233 17.423 13.7233H16.2426L15.9158 15.3362H14.5377L15.7672 9.2695H18.4172Z" fill="white"/>
<defs>
<radialGradient id="paint0_radial_3776_4726" cx="0" cy="0" r="1" gradientUnits="userSpaceOnUse" gradientTransform="translate(7.20485 8.02082) scale(15.7577 15.1119)">
<stop stop-color="#AEB2D5"/>
<stop offset="0.3" stop-color="#AEB2D5"/>
<stop offset="0.75" stop-color="#484C89"/>
<stop offset="1" stop-color="#484C89"/>
</radialGradient>
</defs>
</svg>
