<svg width="25" height="24" viewBox="0 0 25 24" fill="none" xmlns="http://www.w3.org/2000/svg">
<path d="M0.355469 12.7222C0.355469 16.1893 5.72816 19 12.3554 19C18.9827 19 24.3555 16.1893 24.3555 12.7222C24.3555 9.25514 18.9827 6.4444 12.3554 6.4444C5.72816 6.4444 0.355469 9.25514 0.355469 12.7222Z" fill="#9D9D9D"/>
<path d="M12.3554 18.5342C18.7239 18.5342 23.8867 15.9322 23.8867 12.7225C23.8867 9.5128 18.7239 6.91076 12.3554 6.91076C5.98701 6.91076 0.824219 9.5128 0.824219 12.7225C0.824219 15.9322 5.98701 18.5342 12.3554 18.5342Z" fill="#404040"/>
<path d="M6.87509 13.4433C7.39874 13.4433 7.78967 13.3472 8.03702 13.1579C8.28173 12.9705 8.45074 12.6459 8.53932 12.1931C8.62192 11.7698 8.59045 11.4742 8.44583 11.3148C8.29796 11.1519 7.97826 11.0692 7.49562 11.0692H6.65877L6.19484 13.4433H6.87509ZM4.13798 16.3677C4.09914 16.3677 4.06225 16.3504 4.03755 16.3205C4.01281 16.2907 4.00279 16.2514 4.01021 16.2135L5.23972 9.92223C5.25161 9.86141 5.30521 9.81747 5.36754 9.81747H8.01745C8.85026 9.81747 9.47014 10.0424 9.85976 10.486C10.2515 10.9319 10.3724 11.5552 10.2193 12.3386C10.1569 12.6578 10.0497 12.9542 9.90065 13.2196C9.75139 13.4852 9.55412 13.7311 9.31423 13.9503C9.02708 14.2176 8.70208 14.4114 8.34913 14.5255C8.00178 14.638 7.55569 14.6951 7.02327 14.6951H5.95026L5.64384 16.2629C5.63195 16.3237 5.57839 16.3677 5.51606 16.3677H4.13798Z" fill="white"/>
<path d="M6.76351 11.1986H7.49302C8.07553 11.1986 8.27787 11.3257 8.34662 11.4015C8.46069 11.5273 8.48221 11.7925 8.40891 12.1684C8.32653 12.5893 8.17384 12.8877 7.955 13.0552C7.73096 13.2268 7.36672 13.3137 6.87249 13.3137H6.35019L6.76351 11.1986ZM8.01485 9.68787H5.3649C5.24025 9.68787 5.13309 9.77576 5.1093 9.89744L3.87979 16.1887C3.86495 16.2646 3.885 16.3431 3.93443 16.4028C3.98391 16.4625 4.05761 16.4971 4.13539 16.4971H5.51342C5.63812 16.4971 5.74528 16.4092 5.76907 16.2875L6.055 14.8244H7.02067C7.56676 14.8244 8.02648 14.7652 8.38694 14.6485C8.75765 14.5287 9.0987 14.3256 9.40057 14.0449C9.65022 13.8164 9.85587 13.56 10.0117 13.2827C10.1675 13.0053 10.2795 12.6959 10.3445 12.3632C10.5057 11.5386 10.3747 10.8783 9.95521 10.4007C9.53976 9.9277 8.8869 9.68787 8.01485 9.68787ZM6.03426 13.5727H6.87249C7.42809 13.5727 7.84194 13.4686 8.11385 13.2604C8.38582 13.0522 8.56924 12.7047 8.66455 12.2177C8.75574 11.7501 8.7142 11.4202 8.53994 11.228C8.36546 11.0358 8.01655 10.9396 7.49302 10.9396H6.54884L6.03426 13.5727ZM8.01485 9.94686C8.81203 9.94686 9.39358 10.1549 9.75912 10.5711C10.1246 10.9872 10.2347 11.5681 10.0889 12.3138C10.0288 12.621 9.92731 12.9019 9.78438 13.1564C9.64128 13.411 9.45443 13.6438 9.22353 13.8549C8.94836 14.111 8.64267 14.2935 8.3063 14.4022C7.96993 14.5112 7.5415 14.5655 7.02067 14.5655H5.84029L5.51342 16.2381H4.13539L5.3649 9.94686H8.01485Z" fill="#404040"/>
<path d="M13.3759 14.6948C13.337 14.6948 13.3001 14.6776 13.2754 14.6477C13.2507 14.6179 13.2406 14.5786 13.248 14.5406L13.7919 11.757C13.8437 11.4923 13.8309 11.3023 13.756 11.222C13.7102 11.1729 13.5725 11.0906 13.1655 11.0906H12.1801L11.4963 14.59C11.4844 14.6509 11.4308 14.6948 11.3685 14.6948H10.0013C9.96242 14.6948 9.92557 14.6776 9.90083 14.6477C9.87609 14.6179 9.86607 14.5786 9.87349 14.5406L11.103 8.24937C11.1149 8.18856 11.1685 8.14461 11.2308 8.14461H12.598C12.6369 8.14461 12.6737 8.16188 12.6985 8.19171C12.7232 8.22158 12.7332 8.26081 12.7258 8.2988L12.4291 9.81724H13.4891C14.2966 9.81724 14.8442 9.95882 15.1631 10.2501C15.4882 10.5472 15.5896 11.0223 15.4646 11.6624L14.8926 14.59C14.8807 14.6509 14.8271 14.6948 14.7648 14.6948H13.3759Z" fill="white"/>
<path d="M12.5993 8.01502H11.2321C11.1074 8.01502 11.0003 8.1029 10.9765 8.22458L9.74698 14.5159C9.73213 14.5918 9.75219 14.6703 9.80166 14.73C9.85114 14.7897 9.92484 14.8242 10.0026 14.8242H11.3698C11.4945 14.8242 11.6017 14.7363 11.6254 14.6147L12.2888 11.22H13.1668C13.5731 11.22 13.6584 11.3063 13.6619 11.31C13.6865 11.3364 13.7189 11.4586 13.6654 11.7322L13.1215 14.5159C13.1067 14.5918 13.1267 14.6703 13.1762 14.73C13.2257 14.7897 13.2994 14.8242 13.3772 14.8242H14.7661C14.8907 14.8242 14.9979 14.7363 15.0217 14.6147L15.5937 11.687C15.728 10.9998 15.6131 10.4843 15.2525 10.1547C14.9084 9.8404 14.332 9.68764 13.4904 9.68764H12.5883L12.855 8.32343C12.8698 8.24751 12.8497 8.16895 12.8003 8.10929C12.7508 8.0496 12.6771 8.01502 12.5993 8.01502ZM12.5993 8.27401L12.2725 9.94663H13.4904C14.2568 9.94663 14.7854 10.0797 15.0763 10.3454C15.3672 10.6113 15.4544 11.0421 15.3381 11.6376L14.7661 14.5652H13.3772L13.9211 11.7816C13.983 11.465 13.9602 11.249 13.8527 11.1338C13.7452 11.0187 13.5165 10.961 13.1668 10.961H12.0741L11.3698 14.5652H10.0026L11.2321 8.27401H12.5993Z" fill="#404040"/>
<path d="M17.629 13.4433C18.1526 13.4433 18.5436 13.3472 18.7909 13.1579C19.0356 12.9706 19.2046 12.6459 19.2933 12.1931C19.3759 11.7698 19.3444 11.4742 19.1997 11.3148C19.0519 11.1519 18.7322 11.0692 18.2495 11.0692H17.4127L16.9487 13.4433H17.629ZM14.8919 16.3677C14.8531 16.3677 14.8162 16.3504 14.7915 16.3205C14.7668 16.2907 14.7567 16.2514 14.7641 16.2135L15.9936 9.92223C16.0056 9.86141 16.0591 9.81747 16.1215 9.81747H18.7713C19.6042 9.81747 20.224 10.0424 20.6137 10.486C21.0054 10.9318 21.1263 11.5552 20.9732 12.3386C20.9108 12.6578 20.8036 12.9542 20.6545 13.2196C20.5053 13.4852 20.308 13.7311 20.0681 13.9503C19.781 14.2176 19.456 14.4114 19.103 14.5255C18.7557 14.638 18.3096 14.6951 17.7772 14.6951H16.7041L16.3978 16.2629C16.3859 16.3237 16.3323 16.3677 16.27 16.3677H14.8919Z" fill="white"/>
<path d="M17.5213 11.1986H18.2508C18.8333 11.1986 19.0356 11.3257 19.1044 11.4015C19.2185 11.5273 19.24 11.7925 19.1667 12.1684C19.0843 12.5893 18.9316 12.8877 18.7128 13.0552C18.4887 13.2268 18.1245 13.3137 17.6303 13.3137H17.108L17.5213 11.1986ZM18.7726 9.68787H16.1227C15.9981 9.68787 15.8909 9.77576 15.8671 9.89744L14.6376 16.1887C14.6228 16.2646 14.6428 16.3431 14.6922 16.4028C14.7417 16.4625 14.8154 16.4971 14.8932 16.4971H16.2712C16.3959 16.4971 16.5031 16.4092 16.5269 16.2875L16.8128 14.8244H17.7784C18.3245 14.8244 18.7843 14.7652 19.1447 14.6485C19.5154 14.5287 19.8566 14.3256 20.1584 14.0448C20.4081 13.8164 20.6136 13.56 20.7694 13.2827C20.9253 13.0053 21.0373 12.6959 21.1023 12.3632C21.2635 11.5385 21.1325 10.8782 20.713 10.4006C20.2975 9.92769 19.6447 9.68787 18.7726 9.68787ZM16.7921 13.5727H17.6303C18.1859 13.5727 18.5997 13.4686 18.8716 13.2604C19.1436 13.0522 19.327 12.7047 19.4223 12.2177C19.5135 11.7501 19.472 11.4202 19.2977 11.228C19.1232 11.0358 18.7743 10.9396 18.2508 10.9396H17.3066L16.7921 13.5727ZM18.7726 9.94686C19.5698 9.94686 20.1514 10.1549 20.5169 10.5711C20.8824 10.9872 20.9925 11.5681 20.8466 12.3138C20.7866 12.621 20.6851 12.9019 20.5421 13.1564C20.3991 13.411 20.2122 13.6438 19.9813 13.8549C19.7061 14.111 19.4004 14.2935 19.0641 14.4022C18.7277 14.5112 18.2993 14.5655 17.7784 14.5655H16.5981L16.2712 16.2381H14.8932L16.1227 9.94686H18.7726Z" fill="#404040"/>
</svg>
