<svg width="24" height="24" viewBox="0 0 24 24" fill="none" xmlns="http://www.w3.org/2000/svg">
<rect width="24" height="24" rx="3.73333" fill="#FE0007"/>
<path fill-rule="evenodd" clip-rule="evenodd" d="M6.40234 18.4003V6.13363L9.06901 5.06696V6.40029C9.20138 6.30102 9.3399 6.18326 9.48803 6.05735C10.1357 5.50682 10.9668 4.80029 12.269 4.80029C13.869 4.80029 17.069 5.60029 17.069 9.86696C17.069 13.3336 15.469 15.467 12.8023 15.467C10.6077 15.467 9.89965 14.7237 9.4547 14.2567C9.41305 14.213 9.37371 14.1717 9.33568 14.1336V18.667H6.40234V18.4003ZM11.7345 7.2002C13.2175 7.2002 14.1346 8.26686 14.1346 10.1335C14.1346 12.5335 12.8012 13.0669 11.7345 13.0669C10.4012 13.0669 9.336 12.2669 9.33594 10.1335C9.33587 7.98956 10.6679 7.2002 11.7345 7.2002Z" fill="white"/>
<circle cx="16.5336" cy="17.0668" r="1.6" fill="#231F20"/>
</svg>
