<svg width="25" height="24" viewBox="0 0 25 24" fill="none" xmlns="http://www.w3.org/2000/svg">
<g clip-path="url(#clip0_2513_12633)">
<path d="M4.36612 0.00244141H20.2896C22.7038 0.00244141 24.6557 1.95076 24.6557 4.36052V19.6394C24.6557 22.0492 22.7038 23.9975 20.2896 23.9975H4.36612C1.95191 23.9975 0 22.0492 0 19.6394V4.36052C0 1.95076 1.95191 0.00244141 4.36612 0.00244141Z" fill="#404040"/>
<path d="M5.55078 16.8295V6.27784C5.55078 6.20606 5.5816 6.16504 5.65351 6.16504C5.82816 6.16504 5.99253 6.16504 6.22881 6.15479C6.47537 6.14453 6.7322 6.14453 7.00958 6.13428C7.28696 6.12402 7.58488 6.12402 7.90335 6.11377C8.22182 6.10352 8.53002 6.10352 8.83821 6.10352C9.68062 6.10352 10.3792 6.20606 10.9545 6.4214C11.4682 6.59572 11.9407 6.88284 12.3311 7.26225C12.6599 7.59039 12.9167 7.99031 13.0811 8.43124C13.2352 8.86192 13.3173 9.30286 13.3173 9.7643C13.3173 10.6462 13.1119 11.3742 12.7009 11.9485C12.29 12.5227 11.7147 12.9534 11.047 13.1995C10.3484 13.4559 9.57789 13.5481 8.73548 13.5481C8.48892 13.5481 8.32455 13.5481 8.22182 13.5379C8.11909 13.5276 7.97526 13.5276 7.78007 13.5276V16.8193C7.79034 16.891 7.73898 16.9526 7.66707 16.9628H5.67406C5.59187 16.9628 5.55078 16.9218 5.55078 16.8295ZM7.79034 8.14412V11.5896C7.93417 11.5998 8.06772 11.6101 8.191 11.6101H8.73548C9.13614 11.6101 9.53679 11.5486 9.9169 11.4255C10.2456 11.3332 10.5333 11.1384 10.7593 10.882C10.975 10.6257 11.0778 10.277 11.0778 9.82583C11.088 9.50795 11.0059 9.19006 10.8415 8.9132C10.6668 8.64658 10.4203 8.4415 10.1224 8.3287C9.74226 8.17489 9.33133 8.11336 8.91013 8.12361C8.64302 8.12361 8.40674 8.12361 8.21155 8.13387C8.00608 8.12361 7.86226 8.13387 7.79034 8.14412ZM19.7278 10.9641C19.4196 10.8 19.0909 10.6872 18.7416 10.6154C18.3615 10.5334 17.9814 10.4821 17.591 10.4821C17.3855 10.4718 17.1698 10.5026 16.9746 10.5539C16.8411 10.5846 16.728 10.6564 16.6561 10.759C16.6048 10.841 16.574 10.9435 16.574 11.0358C16.574 11.1281 16.615 11.2204 16.6767 11.3024C16.7691 11.4152 16.8924 11.5075 17.026 11.5793C17.2623 11.7024 17.5088 11.8152 17.7554 11.9177C18.3101 12.1023 18.8443 12.3586 19.3374 12.6663C19.6765 12.8816 19.9538 13.1687 20.149 13.5174C20.3134 13.8455 20.3956 14.2044 20.3853 14.5736C20.3956 15.0555 20.2518 15.5375 19.9847 15.9374C19.697 16.3476 19.2964 16.6655 18.8341 16.85C18.3307 17.0654 17.7143 17.1782 16.9746 17.1782C16.502 17.1782 16.0397 17.1371 15.5774 17.0449C15.2179 16.9833 14.8583 16.8705 14.5296 16.7167C14.4577 16.6757 14.4063 16.6039 14.4166 16.5219V14.7376C14.4166 14.7069 14.4268 14.6659 14.4577 14.6454C14.4885 14.6248 14.5193 14.6351 14.5501 14.6556C14.9508 14.8915 15.372 15.0555 15.824 15.1581C16.2144 15.2606 16.6253 15.3119 17.0362 15.3119C17.4266 15.3119 17.704 15.2606 17.8889 15.1683C18.0533 15.0965 18.1663 14.9222 18.1663 14.7376C18.1663 14.5941 18.0841 14.4608 17.9197 14.3275C17.7554 14.1942 17.4164 14.0403 16.913 13.8455C16.389 13.6609 15.9062 13.4148 15.4542 13.1072C15.1357 12.8816 14.8686 12.5842 14.6734 12.2356C14.509 11.9075 14.4268 11.5486 14.4371 11.1897C14.4371 10.7487 14.5604 10.3283 14.7864 9.94888C15.0432 9.53871 15.4233 9.21057 15.8651 9.00548C16.3479 8.75938 16.9541 8.64658 17.6835 8.64658C18.1047 8.64658 18.5361 8.67735 18.9573 8.73887C19.2655 8.77989 19.5635 8.86192 19.8408 8.97472C19.8819 8.98498 19.923 9.02599 19.9436 9.06701C19.9538 9.10803 19.9641 9.14904 19.9641 9.19006V10.8615C19.9641 10.9025 19.9436 10.9435 19.9127 10.9641C19.8203 10.9846 19.7689 10.9846 19.7278 10.9641Z" fill="white"/>
</g>
<defs>
<clipPath id="clip0_2513_12633">
<rect width="24.6557" height="24" fill="white"/>
</clipPath>
</defs>
</svg>
