<svg width="24" height="24" viewBox="0 0 24 24" fill="none" xmlns="http://www.w3.org/2000/svg">
<path d="M15.4997 16.0173L19.1427 7H16.7277L14.2358 12.8272L12.4635 7H10.6071L8.70453 12.8272L7.36269 10.1718L6.14844 13.9056L7.38125 16.0174H9.75809L11.4775 10.7917L13.1168 16.0174L15.4997 16.0173Z" fill="white"/>
<path d="M2.28684 12.9218H3.77063C4.22016 12.9218 4.62038 12.8717 4.97137 12.7713L5.35519 11.5883L6.42769 8.28231C6.34529 8.15187 6.25162 8.0289 6.14775 7.91481C5.59725 7.30497 4.79147 7 3.73069 7H0V16.0173H2.28684V12.9218ZM4.25091 9.0745C4.46606 9.29106 4.57359 9.58094 4.57359 9.94412C4.57359 10.31 4.47891 10.6002 4.28981 10.8147C4.08244 11.053 3.70059 11.1722 3.14428 11.1722H2.28684V8.74966H3.15066C3.66909 8.74966 4.03584 8.85794 4.251 9.0745H4.25091ZM17.6647 14.4023L18.3579 12.6527H20.3593L19.4095 9.99859L20.5975 7L24 16.0173H21.4907L20.9093 14.4023H17.6647Z" fill="white"/>
</svg>
