<svg width="24" height="24" viewBox="0 0 24 24" fill="none" xmlns="http://www.w3.org/2000/svg">
<g clip-path="url(#clip0_2261_29431)">
<path d="M22.9484 17.7845C21.6738 18.4488 15.0709 21.1637 13.6652 21.8965C12.2595 22.6292 11.4786 22.6223 10.3681 22.0916C9.25765 21.5609 2.23101 18.7225 0.965275 18.1175C0.332616 17.8151 0 17.5601 0 17.3189V14.9046C0 14.9046 9.14772 12.9132 10.6246 12.3834C12.1015 11.8537 12.6137 11.8358 13.8705 12.295C15.1272 12.7541 22.642 14.1112 23.8841 14.5661L23.8835 16.946C23.8836 17.1846 23.5971 17.4465 22.9484 17.7846V17.7845Z" fill="#404040"/>
<path d="M22.9487 15.3694C21.6741 16.0335 15.0712 18.7486 13.6655 19.4814C12.2598 20.2142 11.4789 20.2073 10.3684 19.6765C9.25795 19.1458 2.23131 16.3071 0.965576 15.7024C-0.300163 15.0977 -0.3267 14.681 0.916714 14.1942L10.6251 10.4356C12.1018 9.906 12.6142 9.88803 13.8709 10.3471C15.1277 10.8063 21.6914 13.42 22.9333 13.8749C24.1751 14.3298 24.2233 14.7051 22.9473 15.3695L22.9487 15.3694Z" fill="#D4D4D4"/>
<path d="M22.9484 13.8475C21.6738 14.5119 15.0709 17.2267 13.6652 17.9599C12.2595 18.6931 11.4786 18.6855 10.3681 18.1547C9.25765 17.6238 2.23101 14.7855 0.965275 14.1805C0.332616 13.8781 0 13.6231 0 13.3822V10.9677C0 10.9677 9.14772 8.97633 10.6246 8.44645C12.1015 7.91656 12.6137 7.89887 13.8705 8.35799C15.1272 8.81711 22.642 10.174 23.8841 10.629L23.8835 13.0093C23.8836 13.248 23.5971 13.5097 22.9484 13.8478V13.8475Z" fill="#404040"/>
<path d="M22.9487 11.4328C21.6741 12.0972 15.0712 14.812 13.6655 15.5452C12.2598 16.2784 11.4789 16.2708 10.3684 15.7399C9.25795 15.2091 2.23131 12.3707 0.965576 11.7658C-0.300163 11.161 -0.3267 10.7445 0.916714 10.2575L10.6251 6.49913C12.1018 5.96939 12.6142 5.95156 13.8709 6.41068C15.1277 6.8698 21.6914 9.48341 22.9333 9.93846C24.1751 10.3935 24.2233 10.7687 22.9473 11.4331L22.9487 11.4328Z" fill="#D4D4D4"/>
<path d="M22.9484 9.76464C21.6738 10.429 15.0709 13.1442 13.6652 13.8785C12.2595 14.6128 11.4786 14.6041 10.3681 14.0732C9.25765 13.5423 2.23101 10.7039 0.965275 10.0991C0.332616 9.79665 0 9.54168 0 9.30075V6.88496C0 6.88496 9.14772 4.89362 10.6246 4.36388C12.1015 3.83413 12.6137 3.8163 13.8705 4.27542C15.1272 4.73454 22.642 6.0914 23.8841 6.54645L23.8835 8.92657C23.8836 9.16498 23.5971 9.42683 22.9484 9.76478V9.76464Z" fill="#404040"/>
<path d="M22.9487 7.34968C21.6741 8.01407 15.0712 10.7292 13.6655 11.4621C12.2598 12.195 11.4789 12.1877 10.3684 11.657C9.25795 11.1263 2.23131 8.28771 0.965576 7.68285C-0.300163 7.07799 -0.3267 6.66142 0.916714 6.1745L10.6251 2.41617C12.1018 1.88629 12.6142 1.8686 13.8709 2.32772C15.1277 2.78684 21.6914 5.40045 22.9333 5.8555C24.1751 6.31055 24.2233 6.68557 22.9473 7.34982L22.9487 7.34968Z" fill="#D4D4D4"/>
<path d="M11.7924 5.11004L9.40272 4.89522L11.1859 4.25217L10.6523 3.26514L12.3231 3.91801L13.8956 3.40273L13.4702 4.42347L15.075 5.02439L13.0055 5.23921L12.5422 6.35402L11.7924 5.11004ZM8.55469 8.83073L14.0894 7.98129L12.4186 10.4327L8.55469 8.83073Z" fill="#404040"/>
<path d="M7.05973 7.9374C8.69348 7.9374 10.0179 7.42401 10.0179 6.79072C10.0179 6.15743 8.69348 5.64404 7.05973 5.64404C5.42598 5.64404 4.10156 6.15743 4.10156 6.79072C4.10156 7.42401 5.42598 7.9374 7.05973 7.9374Z" fill="#404040"/>
<path d="M20.7948 6.62405L17.5234 7.91576V5.32812L20.7948 6.62405Z" fill="#404040"/>
<path d="M17.5212 5.3291V7.91674L17.1659 8.05714L13.8945 6.76543L17.5212 5.3291Z" fill="#9D9D9D"/>
</g>
<defs>
<clipPath id="clip0_2261_29431">
<rect width="24" height="20.4706" fill="white" transform="translate(0 2)"/>
</clipPath>
</defs>
</svg>
