<svg width="24" height="24" viewBox="0 0 24 24" fill="none" xmlns="http://www.w3.org/2000/svg">
<g clip-path="url(#clip0_3776_6294)">
<path d="M12.6054 21.0772C13.1088 20.4577 13.6594 19.8805 14.1519 19.2476C14.7303 18.5046 15.3923 17.8257 16.0179 17.1203C16.0711 17.0598 16.1437 17.0138 16.1861 16.9484C16.5285 16.4233 16.9775 15.9864 17.3865 15.5181C17.5523 15.3281 17.7193 15.1466 17.8076 14.9058C17.8524 14.6469 18.1283 14.6565 18.2747 14.5089C19.0491 13.7272 19.2573 12.764 19.1278 11.7257C19.0382 11.0069 18.0883 9.97593 17.3768 9.70245C17.0706 9.78111 17.0053 9.51973 16.9738 9.34548C16.9266 9.07926 16.7609 8.90864 16.6338 8.69687C16.1195 7.83772 15.1648 7.61506 14.4665 7.52793C14.377 7.51704 14.2596 7.53035 14.1906 7.58118C13.9982 7.71913 13.8639 7.65257 13.7308 7.50252C13.3291 7.04753 12.8051 6.77889 12.269 6.51388C11.7269 6.24645 11.1594 6.28881 10.604 6.336C10.3026 6.36141 10.0038 6.53324 9.72786 6.6845C9.46164 6.83092 9.2172 7.02212 8.98365 7.21815C8.54681 7.58602 8.29028 8.07973 8.1366 8.61459C8.05915 8.88444 7.98291 9.04659 7.67918 9.14703C7.38513 9.24383 7.12133 9.47496 6.88053 9.68793C6.41223 10.0994 5.97781 10.5447 5.76483 11.1546C5.76241 11.1606 5.82896 11.3663 5.80839 11.3663C5.41633 11.6592 5.34735 12.0742 5.01095 12.4179C4.8246 12.6079 4.52086 12.8305 4.33935 13.0253C3.97149 13.421 3.84685 13.9135 3.36402 14.2028C2.43226 13.9208 1.30083 13.4961 0.370276 13.2093C0.234747 13.1669 0.13552 13.0834 0.13673 12.9116C0.14157 12.2666 0.14036 11.6204 0.13794 10.9755C0.13794 10.7806 0.272259 10.7383 0.419889 10.6633C0.839789 10.4479 2.90903 9.81862 2.98406 9.74723C3.05545 9.67946 3.4088 8.55287 3.41243 8.42824C3.41727 8.26608 3.34829 8.12934 3.24181 8.01197C2.95865 7.69855 2.0886 6.37956 1.82359 6.12303C1.69169 5.99597 1.66991 5.8798 1.76671 5.70555C2.10675 5.02064 2.59925 4.464 3.08086 3.86985C3.72221 4.08161 5.70312 4.72417 5.86527 4.74474C6.05041 4.76773 6.20046 4.61042 6.34204 4.51845C6.6131 4.34299 6.86238 4.13244 7.15038 3.91462V0.815597C7.84255 0.43079 8.63515 0.327933 9.40234 0C10.0255 0.782924 10.6451 1.58642 11.2393 2.43832H12.7591C13.0241 2.06077 14.7763 0 14.7763 0C14.7763 0 16.1945 0.43684 16.8371 0.644975C16.8371 1.59852 16.8395 2.52545 16.8347 3.45116C16.8347 3.66171 16.8613 3.79845 17.0985 3.90857C17.3901 4.0441 17.6309 4.28733 17.9092 4.49546C18.4622 4.5717 18.9632 4.30064 19.4872 4.13607C19.9869 3.97997 20.4855 3.82266 21.0034 3.6605C21.5746 4.11429 21.9013 4.78951 22.3551 5.3643C22.4483 5.48168 22.4204 5.60148 22.3248 5.73701C22.107 6.04437 21.9316 6.38198 21.7174 6.69298C21.4136 7.13466 21.0966 7.56666 20.7771 7.99745C20.6428 8.17896 20.7711 8.37136 20.8522 8.54319C20.9647 8.78158 21.0446 9.02844 21.1232 9.27892C21.1825 9.4677 21.3628 9.5403 21.5407 9.59113C22.0114 9.72545 22.4761 9.88276 22.942 10.034C23.2518 10.1357 24.0528 10.5144 24.0528 10.5144L24.1291 10.8375L23.9439 12.8487C23.9439 12.8487 23.1065 13.1706 22.6866 13.3146C22.1917 13.484 21.6944 13.6425 21.2648 13.8337C21.1196 14.2971 20.9853 14.7255 20.8473 15.1684C21.4415 15.9804 22.0526 16.8153 22.6673 17.6563C22.2171 18.3425 21.8081 19.037 21.2503 19.6312C20.5569 19.3964 18.288 18.7696 18.1815 18.8398C17.7955 19.0963 17.4373 19.3928 17.0767 19.6675V22.7193C16.4583 23.017 15.1151 23.38 15.1151 23.38" fill="#0283C6"/>
<path d="M7.41709 22.8304V19.8403C7.14966 19.6539 6.90038 19.5099 6.68741 19.3248C6.38973 19.0646 6.1223 18.9557 5.70603 19.1263C5.05138 19.395 4.35437 19.5632 3.67914 19.7822C3.27255 19.9141 3.19148 19.908 2.97487 19.6104C2.68324 19.2098 2.40371 18.7984 2.11692 18.393C1.90395 18.0905 1.90032 17.8957 2.09635 17.6089C2.52593 16.9809 2.93736 16.3395 3.38872 15.7272C3.53998 15.5215 3.54482 15.3702 3.47585 15.1415C3.36815 14.7821 3.30281 14.4675 3.16728 14.0585C3.52667 13.716 5.18933 11.4036 5.70845 11.1543C5.45555 12.4418 5.75807 13.5914 6.66926 14.6163C6.94516 14.9455 7.04075 15.1355 7.43524 15.3255C7.80674 15.5045 8.14072 15.7538 8.59208 15.6885C8.91638 15.9305 9.15961 15.7913 9.50328 15.8494C9.84331 15.5542 10.377 15.8821 10.5718 16.0902C10.8925 16.4327 11.1599 16.6856 11.5592 16.901C12.4813 17.3657 13.3284 17.0922 14.2311 16.6602C14.6691 16.4496 14.8543 16.0878 15.2064 15.7732C15.4266 15.5759 15.7243 15.3303 15.8139 15.0266C16.4564 15.0738 17.1631 15.1621 17.7488 14.908C17.7657 14.9007 17.7887 14.908 17.8093 14.908C17.721 15.1476 17.554 15.3291 17.3882 15.5203C16.9792 15.9898 16.5302 16.4254 16.1878 16.9506C16.1442 17.0172 16.0728 17.0631 16.0196 17.1224C15.3928 17.8279 14.732 18.5068 14.1536 19.2498C13.6611 19.8814 13.1105 20.4598 12.6071 21.0794H12.1836C11.5423 21.0794 11.5241 21.0673 11.1986 21.5889C10.7944 22.235 9.90744 23.473 9.90744 23.473" fill="#0376A6"/>
<path d="M17.8071 14.9049C17.8077 14.9054 17.8074 14.9063 17.8067 14.9065C17.7876 14.9104 17.7643 14.9002 17.7478 14.9061C17.2009 15.1433 16.683 15.2353 16.0936 15.2703C16.0392 15.274 15.9835 15.2776 15.9375 15.3054C15.8867 15.3369 15.8577 15.3926 15.8286 15.4458C15.0372 16.9197 13.037 17.8696 11.4554 17.071C11.0561 16.8556 10.6398 16.6571 10.3191 16.3159C9.84477 15.8088 9.04853 16.1767 8.35999 16.0073C6.07535 15.4482 5.28638 13.2858 5.70507 11.1536C5.71963 11.0943 5.74874 11.0398 5.77019 10.9827C5.99759 10.3766 6.36904 9.8403 6.87401 9.44742C7.27939 9.1328 7.98245 9.14006 8.13371 8.61246C8.47979 7.40601 9.58581 6.48393 10.8261 6.32419C11.4639 6.24191 12.1294 6.26853 12.7163 6.54322C13.8985 7.09623 13.5839 7.73273 14.0752 7.57784C14.1878 7.54275 14.4382 7.47135 14.5568 7.47619C15.2115 7.50645 15.9375 7.78114 16.4058 8.23613C16.856 8.67418 16.8499 9.36272 17.3775 9.70517C18.2113 10.2461 18.9022 10.7495 19.1201 11.7974C19.3234 12.7739 19.0765 13.8533 18.3807 14.5552C18.2345 14.7025 18.1209 14.833 17.8076 14.9033C17.8069 14.9035 17.8066 14.9044 17.8071 14.9049ZM15.1883 13.9183C15.1884 13.9186 15.1886 13.9187 15.1889 13.9188C15.628 14.0096 16.0175 14.2539 16.4772 14.1789C16.9613 14.0917 17.3848 13.8909 17.6861 13.4867C17.893 13.2096 17.8906 12.8502 18.0322 12.5416C18.0879 12.4206 17.9596 12.2209 17.9305 12.0552C17.7841 11.2008 17.2517 10.8112 16.4216 10.6757C16.0682 10.6188 15.9787 10.5897 15.998 10.2691C16.038 9.61199 15.6278 9.22477 15.1849 8.86295C15.0784 8.77583 14.9017 8.74436 14.7565 8.74073C14.3124 8.72863 13.855 8.66934 13.4629 8.97307C13.4254 9.00211 13.4278 9.07351 13.2838 8.9767C12.9559 8.75646 12.9172 8.23855 12.6255 7.99895C12.0604 7.53307 11.4251 7.21845 10.6265 7.51613C9.61001 7.89488 9.40793 8.42611 9.28208 9.51761C9.23972 9.88426 9.13082 10.0113 8.75811 10.0997C8.11556 10.2521 7.85781 10.4349 7.46695 11.0036C7.12087 11.5058 6.62594 12.0031 6.67314 12.6045C6.71912 13.1926 6.8365 13.7469 7.31327 14.1546C7.37377 14.2067 7.43307 14.2636 7.48389 14.3253C7.97156 14.9182 9.18285 15.2328 9.92947 14.9122C10.3065 14.75 10.7187 15.0632 10.976 15.383C11.5892 16.1455 12.6669 16.458 13.6142 16.0993C14.0147 15.948 14.4298 15.7023 14.6536 15.2994C14.888 14.8777 15.0923 14.4331 15.1869 13.9186C15.187 13.9178 15.188 13.9177 15.1883 13.9183Z" fill="#F4FAFA"/>
<path d="M15.1695 14.03C15.1695 14.0301 15.1695 14.0301 15.1695 14.0302C14.9505 15.2209 14.1784 16.2627 12.8631 16.2567C11.4171 16.2494 11.2549 15.8053 10.6825 15.1543C10.2638 14.6787 10 15.1168 9.4664 15.1797C8.57457 15.285 7.61134 14.6593 7.10068 13.92C6.25363 12.693 6.71951 10.9468 7.98889 10.2208C8.42331 9.97269 9.04045 10.0586 9.10337 9.5056C9.21833 8.51091 9.81732 7.5985 10.8713 7.44361C12.4353 7.21449 12.6881 7.97651 13.1977 8.8132C13.2597 8.91495 13.3727 9.04488 13.4669 8.97195C14.0272 8.53632 15.0788 8.54237 15.5894 8.99736C16.2429 9.57941 15.9222 9.88677 16.1279 10.2655C16.4002 10.7677 16.7293 10.6588 17.1928 10.9468C17.9321 11.4091 18.3569 12.1387 17.8184 13.2423C17.2801 14.3455 16.159 14.2335 15.1706 14.0291C15.1701 14.029 15.1695 14.0294 15.1695 14.03Z" fill="#0283C6"/>
</g>
<defs>
<clipPath id="clip0_3776_6294">
<rect width="24" height="24" fill="white"/>
</clipPath>
</defs>
</svg>
