<svg width="24" height="24" viewBox="0 0 24 24" fill="none" xmlns="http://www.w3.org/2000/svg">
<path d="M9.89165 17.0662C10.0548 16.557 10.0624 16.0108 9.9134 15.4972L9.81815 15.5497C9.13263 15.8876 8.50609 16.3339 7.96265 16.8712C7.2554 17.619 7.05815 18.5572 7.45265 18.786C7.8179 18.9982 8.67065 18.7462 9.2804 18.081C9.47593 17.8703 9.63943 17.632 9.76565 17.3737C9.79015 17.3257 9.8129 17.2757 9.8339 17.2237C9.8549 17.1717 9.87415 17.1192 9.89165 17.0662Z" fill="white"/>
<path fill-rule="evenodd" clip-rule="evenodd" d="M17.8335 3.26957C16.1068 2.11581 14.0767 1.5 12 1.5C9.21523 1.5 6.54451 2.60625 4.57538 4.57538C2.60625 6.54451 1.5 9.21523 1.5 12C1.5 14.0767 2.11581 16.1068 3.26957 17.8335C4.42332 19.5602 6.0632 20.906 7.98182 21.7007C9.90045 22.4955 12.0116 22.7034 14.0484 22.2982C16.0852 21.8931 17.9562 20.8931 19.4246 19.4246C20.8931 17.9562 21.8931 16.0852 22.2982 14.0484C22.7034 12.0116 22.4955 9.90045 21.7007 7.98182C20.906 6.0632 19.5602 4.42332 17.8335 3.26957ZM12.0921 4.5555C15.0186 3.519 18.1109 4.1295 18.5864 5.994C19.0536 7.82775 17.4621 10.0215 15.4214 10.8082C14.1805 11.3492 12.8007 11.4857 11.4779 11.1982C11.2218 11.1279 10.9824 11.0072 10.7736 10.8431C10.5649 10.679 10.391 10.4749 10.2621 10.2427L10.2602 10.2375C10.2209 10.135 10.1567 9.96725 10.2621 9.909C10.3281 9.873 10.3544 9.88125 10.5314 10.0762C10.8224 10.3197 11.1645 10.4946 11.5324 10.5878C11.9002 10.681 12.2843 10.6902 12.6561 10.6147C16.0206 10.2375 18.0471 7.62375 17.4067 6.21675C16.9581 5.232 14.3647 4.78725 11.1247 6.402C7.1729 8.373 6.9584 9.9975 6.92465 10.6147C6.86086 11.7884 7.88692 12.5776 8.9174 13.3702C9.37715 13.7238 9.83778 14.0781 10.2029 14.4675C10.2306 14.4975 10.2577 14.5275 10.2839 14.5575C10.815 14.3926 11.3697 14.3166 11.9256 14.3325C13.8396 14.3002 14.9204 15.5647 14.8761 16.6897C14.858 16.9794 14.7526 17.2568 14.5737 17.4853C14.3949 17.7138 14.151 17.8828 13.8742 17.97C13.7639 17.9887 13.7046 17.9917 13.6889 17.9055C13.6777 17.8455 13.7174 17.8185 13.8464 17.7382C13.9973 17.6507 14.1276 17.5318 14.2284 17.3894C14.3292 17.247 14.3982 17.0846 14.4306 16.9132C14.4996 16.4317 14.1382 15.282 12.2962 15.0667C11.7594 14.9943 11.2138 15.0256 10.6889 15.159C10.8835 15.6858 10.9529 16.2506 10.8914 16.8088C10.83 17.367 10.6394 17.9032 10.3349 18.375C9.96641 18.9573 9.42485 19.4097 8.78621 19.6686C8.14757 19.9276 7.44389 19.98 6.7739 19.8187C6.32765 19.695 5.6549 18.774 6.2354 17.49C6.7874 16.275 9.1394 15.0832 9.4604 14.925V14.9197C9.18727 14.6846 8.81614 14.4289 8.40738 14.1474C7.18529 13.3055 5.62691 12.232 5.3459 10.782C5.24015 10.2337 5.4974 8.92125 7.10915 7.41375C8.56607 6.14264 10.2594 5.17136 12.0921 4.5555Z" fill="white"/>
</svg>
