<svg width="24" height="24" viewBox="0 0 24 24" fill="none" xmlns="http://www.w3.org/2000/svg">
<path fill-rule="evenodd" clip-rule="evenodd" d="M0.00136542 17.3521H0.793368V14.2145L2.03026 16.9501C2.17036 17.2789 2.37164 17.4007 2.76136 17.4007C3.15108 17.4007 3.34034 17.2788 3.48508 16.9501L4.71583 14.2145V17.3521H5.51398V14.2145C5.51398 13.91 5.39204 13.7635 5.13614 13.6843C4.53299 13.5016 4.13084 13.66 3.94813 14.068L2.73582 16.7731L1.56598 14.068C1.38928 13.66 0.980991 13.5016 0.371832 13.6843C0.121941 13.7635 0.000136477 13.9099 0.000136477 14.2145L0 17.3521H0.00136542ZM6.17325 14.7994H6.9714V16.5236C6.96539 16.621 7.00185 16.8404 7.43568 16.8463C7.66099 16.8525 9.15377 16.8463 9.16579 16.8463V14.7871H9.96394V17.608C9.96394 18.3025 9.10366 18.4546 8.70274 18.4609H6.19291V17.9311H8.70916C9.22096 17.8762 9.16006 17.6204 9.16006 17.5351V17.3278H7.47227C6.68628 17.3217 6.18049 16.9744 6.17462 16.5784V14.7991L6.17325 14.7994ZM23.2933 12.801C22.8061 12.7887 22.4281 12.8375 22.1113 12.9716C22.0201 13.0085 21.8737 13.0085 21.8617 13.124C21.9105 13.1725 21.9163 13.2518 21.9591 13.319C22.0321 13.441 22.1602 13.6052 22.2759 13.6905C22.404 13.7881 22.5319 13.8855 22.6657 13.9708C22.9033 14.1169 23.1714 14.2023 23.4029 14.3485C23.537 14.4338 23.6709 14.5435 23.805 14.635C23.8733 14.6837 23.9147 14.7631 24 14.7934V14.775C23.9574 14.7203 23.9451 14.6411 23.9026 14.58C23.8416 14.5192 23.7807 14.4642 23.7197 14.4034C23.5431 14.1658 23.3237 13.9585 23.0861 13.7881C22.8911 13.654 22.4647 13.4713 22.3855 13.246L22.3735 13.2337C22.5073 13.2214 22.6657 13.1726 22.7938 13.1361C23.0011 13.0814 23.1898 13.0934 23.4029 13.0387C23.5005 13.0141 23.5979 12.9838 23.6955 12.9533V12.8987C23.5858 12.7891 23.5066 12.6428 23.391 12.5393C23.0803 12.2713 22.7389 12.0092 22.3855 11.7899C22.1967 11.6681 21.9529 11.5888 21.7519 11.4854C21.6786 11.4488 21.5569 11.4305 21.5143 11.3696C21.4044 11.2358 21.3437 11.059 21.2645 10.9004C21.0879 10.5653 20.9172 10.1938 20.7649 9.84037C20.6553 9.60277 20.5881 9.36516 20.4543 9.14586C19.8267 8.11011 19.1442 7.48266 18.0963 6.86722C17.871 6.73927 17.6029 6.68424 17.318 6.61733L16.8611 6.59275C16.7634 6.55014 16.6661 6.43435 16.5807 6.37945C16.2335 6.16015 15.3378 5.68495 15.0818 6.31254C14.9172 6.70854 15.3255 7.0984 15.4641 7.29954C15.5679 7.43964 15.7017 7.59804 15.7751 7.75644C15.816 7.85995 15.8297 7.96974 15.8724 8.07939C15.9698 8.34744 16.0613 8.64608 16.1892 8.89597C16.2575 9.02392 16.3292 9.15815 16.4145 9.27381C16.4633 9.34072 16.5486 9.37131 16.5668 9.48096C16.4814 9.6029 16.4756 9.78547 16.4268 9.938C16.2074 10.6265 16.2927 11.4794 16.6034 11.9849C16.701 12.1372 16.9311 12.4724 17.2433 12.3443C17.5175 12.2347 17.4563 11.8874 17.5355 11.5828C17.5539 11.5097 17.5416 11.461 17.5781 11.4121V11.4244L17.828 11.93C18.0168 12.2285 18.3459 12.5393 18.62 12.7466C18.7661 12.8563 18.8819 13.0452 19.0646 13.1122V13.0937H19.0526C19.016 13.0391 18.9611 13.0145 18.9123 12.9719C18.8027 12.8623 18.6809 12.7282 18.5955 12.6064C18.3398 12.2653 18.1145 11.8874 17.9133 11.4976C17.8157 11.3087 17.7303 11.1016 17.6514 10.9127C17.6145 10.8395 17.6145 10.7297 17.5538 10.6934C17.4623 10.8272 17.3285 10.9433 17.2612 11.1077C17.1454 11.3696 17.1333 11.6926 17.0907 12.0277C17.0662 12.0338 17.0771 12.0277 17.0662 12.0399C16.8714 11.9913 16.8042 11.7901 16.7312 11.6196C16.5485 11.187 16.5179 10.4925 16.6763 9.99289C16.7189 9.86495 16.9019 9.4628 16.8288 9.34099C16.792 9.2252 16.6704 9.15829 16.6032 9.0668C16.524 8.951 16.439 8.80489 16.3841 8.67694C16.238 8.33556 16.1649 7.95799 16.0064 7.61675C15.933 7.45835 15.8052 7.2938 15.7016 7.14769C15.5858 6.98315 15.4581 6.86735 15.3666 6.67249C15.3362 6.60558 15.2936 6.49579 15.3423 6.4226C15.3543 6.37385 15.3789 6.35569 15.4274 6.3434C15.5066 6.27649 15.7322 6.3617 15.8114 6.39802C16.0367 6.48951 16.2255 6.57472 16.4144 6.70253C16.4997 6.76344 16.5912 6.87923 16.7009 6.90982H16.829C17.024 6.95242 17.2431 6.92211 17.4257 6.97673C17.7486 7.08051 18.041 7.23263 18.3032 7.39731C19.1012 7.90296 19.7594 8.62191 20.204 9.4811C20.277 9.6212 20.3075 9.74915 20.3747 9.8954C20.5028 10.194 20.6612 10.4985 20.7888 10.7912C20.9169 11.0775 21.0387 11.3702 21.2214 11.6078C21.3129 11.7357 21.6783 11.8026 21.8427 11.8697C21.9647 11.9243 22.1534 11.9734 22.2633 12.0404C22.4703 12.1683 22.6775 12.3146 22.8724 12.4547C22.9697 12.5276 23.2745 12.68 23.2927 12.8015L23.2933 12.801ZM17.0802 7.50655C16.996 7.50581 16.9121 7.51605 16.8306 7.537V7.54929H16.8426C16.8914 7.64679 16.9767 7.71384 17.0376 7.79918L17.1779 8.09168L17.1899 8.07939C17.2752 8.01849 17.318 7.92099 17.318 7.77488C17.2814 7.73227 17.2754 7.68953 17.2449 7.64693C17.2083 7.58603 17.1291 7.55544 17.0802 7.50683V7.50655Z" fill="#00678C"/>
<path fill-rule="evenodd" clip-rule="evenodd" d="M10.5703 17.3521H12.8611C13.1292 17.3521 13.3852 17.2975 13.5922 17.1998C13.9395 17.0414 14.104 16.8284 14.104 16.5481V15.9632C14.104 15.7379 13.9152 15.5245 13.5376 15.3784C13.3426 15.3053 13.0988 15.2626 12.8612 15.2626H11.8986C11.5756 15.2626 11.4234 15.1649 11.3806 14.9519C11.3746 14.9276 11.3746 14.9032 11.3746 14.8789V14.5193C11.3746 14.5009 11.3746 14.4767 11.3806 14.4524C11.4232 14.2879 11.5086 14.2451 11.7903 14.2148H14.1358V13.6846H11.9059C11.583 13.6846 11.4124 13.703 11.26 13.7518C10.7908 13.8979 10.5837 14.1295 10.5837 14.5375V15.0008C10.5837 15.3599 10.9858 15.6648 11.6682 15.7379C11.7412 15.744 11.8204 15.7441 11.8996 15.7441H12.7222C12.7527 15.7441 12.783 15.7441 12.8073 15.7502C13.0572 15.7745 13.1669 15.8171 13.2399 15.9083C13.2887 15.9571 13.3009 15.9998 13.3009 16.0547V16.5176C13.3009 16.5722 13.2644 16.6457 13.1913 16.7065C13.1182 16.7672 13.0022 16.81 12.8499 16.8161C12.8195 16.8161 12.8014 16.8223 12.7707 16.8223H10.5703V17.3521ZM19.0632 16.4323C19.0632 16.9744 19.4728 17.2789 20.288 17.3401C20.3672 17.3462 20.4403 17.3521 20.5195 17.3521H22.591V16.8223H20.5013C20.038 16.8223 19.8615 16.7065 19.8615 16.4263V13.6846H19.0617V16.4324L19.0632 16.4323ZM14.6095 16.4564V14.5679C14.6095 14.0866 14.9506 13.7939 15.615 13.7027C15.688 13.6966 15.7611 13.6904 15.828 13.6904H17.3388C17.418 13.6904 17.4852 13.6966 17.5644 13.7027C18.2284 13.7939 18.5634 14.0864 18.5634 14.5679V16.4564C18.5634 16.8463 18.4234 17.0536 18.0942 17.1938L18.8739 17.9003H17.9541L17.3205 17.3278L16.6806 17.3644H15.8277C15.6714 17.3636 15.5159 17.3432 15.3647 17.3036C14.8594 17.1632 14.6095 16.8953 14.6095 16.4564ZM15.4684 16.4141C15.4684 16.4384 15.4821 16.4626 15.4869 16.4933C15.5295 16.7125 15.7365 16.8344 16.0533 16.8344H16.7724L16.1145 16.2373H17.0343L17.613 16.7614C17.7229 16.7003 17.7898 16.615 17.8141 16.5053C17.8203 16.481 17.8203 16.4507 17.8203 16.4261V14.6165C17.8203 14.5922 17.8203 14.5681 17.8141 14.5435C17.7715 14.3365 17.5645 14.2208 17.2537 14.2208H16.0534C15.7 14.2208 15.4686 14.3731 15.4686 14.6165L15.4684 16.4141Z" fill="#CE8B2C"/>
</svg>
