<svg width="24" height="24" viewBox="0 0 24 24" fill="none" xmlns="http://www.w3.org/2000/svg">
<path fill-rule="evenodd" clip-rule="evenodd" d="M22.1296 10.9658C23.1011 11.7711 23.5615 12.5656 23.1083 13.2384C22.4115 14.2726 20.465 14.608 17.9838 14.5071C14.4804 14.3648 10.9837 13.7035 7.48438 12.9202C11.0094 13.8833 14.4879 14.6738 17.8793 15.0029C19.7319 15.1825 21.487 15.205 22.7692 14.621C23.6869 14.2032 24.0817 13.643 23.988 13.1097C23.822 12.1646 23.0702 11.5011 22.1296 10.9658Z" fill="white"/>
<path d="M15.0664 13.7452L15.6565 12.1045H15.8598L15.2684 13.7452H15.0664Z" fill="white"/>
<path d="M15.6602 13.7431L16.2689 12.0396L16.9442 13.3227L17.3851 12.1024H17.5785L16.9645 13.8092L16.2909 12.5384L15.8536 13.7431H15.6602Z" fill="white"/>
<path d="M17.3438 13.4445L17.5151 13.3225C17.5356 13.4266 17.5674 13.5007 17.6108 13.5463C17.6539 13.5914 17.7143 13.614 17.7912 13.614C17.8895 13.614 17.975 13.5852 18.0478 13.5274C18.1201 13.4701 18.1671 13.3935 18.1892 13.298C18.203 13.2379 18.2 13.1881 18.1806 13.1488C18.1613 13.1089 18.1023 13.0584 18.004 12.9962C17.8776 12.9161 17.7967 12.8439 17.7618 12.7796C17.727 12.7149 17.7204 12.6366 17.7415 12.5447C17.7736 12.4043 17.8449 12.2892 17.9548 12.1997C18.0654 12.1097 18.1913 12.0649 18.3334 12.0649C18.4278 12.0649 18.5055 12.0856 18.5663 12.1273C18.6278 12.1686 18.6753 12.2326 18.7096 12.3194L18.5405 12.4415C18.5208 12.3718 18.491 12.3206 18.4512 12.2869C18.4116 12.2531 18.3608 12.2363 18.2987 12.2363C18.2126 12.2363 18.1373 12.2624 18.0719 12.3144C18.0065 12.366 17.9646 12.4331 17.9459 12.5144C17.9208 12.6236 17.9808 12.7226 18.1254 12.8113C18.1505 12.8271 18.1702 12.839 18.1838 12.8474C18.2849 12.9138 18.3495 12.9797 18.3779 13.0454C18.406 13.1113 18.4088 13.1939 18.3858 13.2934C18.3511 13.4449 18.2772 13.5654 18.1641 13.6548C18.0511 13.744 17.9149 13.7887 17.7557 13.7887C17.6393 13.7887 17.5462 13.7598 17.477 13.7012C17.4073 13.643 17.363 13.5573 17.3438 13.4445Z" fill="white"/>
<path d="M18.5273 13.7452L19.1176 12.1045H19.3208L18.7295 13.7452H18.5273Z" fill="white"/>
<path d="M19.3838 13.5658H19.4893C19.655 13.5658 19.7719 13.5612 19.8394 13.5517C19.9071 13.5424 19.9673 13.5263 20.0198 13.5042C20.1432 13.4503 20.248 13.3691 20.3339 13.2605C20.42 13.1518 20.48 13.0242 20.5137 12.8775C20.5418 12.7543 20.5425 12.6462 20.515 12.5531C20.4874 12.4602 20.4343 12.3902 20.3564 12.3432C20.3207 12.3206 20.2739 12.3046 20.2158 12.295C20.1577 12.2853 20.0729 12.2804 19.961 12.2804H19.8477L19.3838 13.5658ZM19.125 13.7452L19.7148 12.1045H19.9336C20.1171 12.1045 20.2442 12.1101 20.315 12.1213C20.386 12.1323 20.4442 12.1511 20.4897 12.1772C20.5966 12.2387 20.6694 12.3297 20.7087 12.4506C20.748 12.5719 20.7496 12.7103 20.7137 12.8665C20.68 13.0137 20.6204 13.1504 20.5351 13.2762C20.4501 13.402 20.3487 13.5035 20.2309 13.5803C20.1404 13.6397 20.0417 13.6816 19.9349 13.707C19.8279 13.7326 19.66 13.7452 19.4313 13.7452H19.125Z" fill="white"/>
<path d="M21.6468 13.5635L21.5792 13.7452H20.7109L21.3008 12.1045H22.1384L22.0751 12.2827H21.4286L21.2533 12.7724H21.8982L21.8353 12.9483H21.1893L20.9657 13.5635H21.6468Z" fill="white"/>
<path fill-rule="evenodd" clip-rule="evenodd" d="M13.0214 9.10201C13.9876 9.10201 14.4778 9.67424 14.4778 10.3798C14.4778 11.0854 13.9804 11.6575 13.0214 11.6575C12.0626 11.6575 11.5651 11.0854 11.5651 10.3798C11.5651 9.67424 12.0554 9.10201 13.0214 9.10201ZM9.40988 8.05322C10.3667 8.05322 11.1494 8.84303 11.1494 9.80843C11.1494 10.7737 10.3666 11.5635 9.40988 11.5635H8.01546V8.05322C8.48031 8.05322 8.94502 8.05322 9.40988 8.05322ZM8.92809 10.8139H9.24244C9.79066 10.8139 10.2392 10.3614 10.2392 9.80843C10.2392 9.25531 9.79066 8.80279 9.24244 8.80279H8.92809V10.8139ZM0 8.80409H0.808619V11.5635H1.7115V8.80409H2.52026V8.05322H0V8.80409ZM3.56561 9.10201C4.47567 9.10201 4.93751 9.67424 4.93751 10.3798C4.93751 10.4402 4.93407 10.4995 4.92718 10.5576C4.28442 10.5576 3.6418 10.5576 2.99903 10.5576C3.05585 10.8778 3.25815 11.1538 3.59718 11.1538C3.80866 11.1538 3.96677 11.0464 4.06978 10.8882H4.84583C4.66893 11.3407 4.23765 11.6575 3.56561 11.6575C2.66216 11.6575 2.19372 11.0854 2.19372 10.3798C2.19372 9.67424 2.65556 9.10201 3.56561 9.10201ZM4.16419 10.0558C4.0814 9.80496 3.89173 9.61909 3.59718 9.61909C3.30277 9.61909 3.1131 9.80496 3.03031 10.0558H4.16419ZM6.70568 9.10201C6.8856 9.11909 7.04299 9.17178 7.17943 9.24691V9.95479C7.07613 9.85447 6.91788 9.80713 6.70568 9.80713C6.29492 9.80713 6.08659 10.0799 6.08659 10.3798C6.08659 10.6797 6.29793 10.9806 6.70568 10.9806C6.91716 10.9806 7.0757 10.9253 7.17943 10.8168V11.5318C7.04457 11.6016 6.88761 11.6478 6.70568 11.6575C5.78831 11.7064 5.24928 11.0854 5.24928 10.3798C5.24928 9.67424 5.82274 9.01805 6.70568 9.10201ZM16.3093 9.10201C16.4892 9.11909 16.6466 9.17178 16.783 9.24691V9.95479C16.6797 9.85447 16.5215 9.80713 16.3093 9.80713C15.8985 9.80713 15.6902 10.0799 15.6902 10.3798C15.6902 10.6797 15.9015 10.9806 16.3093 10.9806C16.5206 10.9806 16.6793 10.9253 16.783 10.8168V11.5318C16.6481 11.6016 16.4913 11.6478 16.3093 11.6575C15.3919 11.7064 14.8528 11.0854 14.8528 10.3798C14.8528 9.67424 15.4263 9.01805 16.3093 9.10201ZM13.0214 9.80713C13.4322 9.80713 13.6406 10.0799 13.6406 10.3798C13.6406 10.6797 13.4292 10.9806 13.0214 10.9806C12.6138 10.9806 12.4023 10.6797 12.4023 10.3798C12.4023 10.0799 12.6108 9.80713 13.0214 9.80713Z" fill="white"/>
<path fill-rule="evenodd" clip-rule="evenodd" d="M16.9023 8H17.8504V8.95643H16.9023V8Z" fill="#9D9D9D"/>
</svg>
