<svg width="24" height="24" viewBox="0 0 24 24" fill="none" xmlns="http://www.w3.org/2000/svg">
<path fill-rule="evenodd" clip-rule="evenodd" d="M0.183921 0.467537C0.338275 0.318963 0.560137 0.263965 0.766015 0.323238L23.0461 6.73781C23.2522 6.79714 23.4109 6.96195 23.4625 7.17012C23.514 7.37828 23.4506 7.59814 23.296 7.74681L6.57383 23.8322C6.41932 23.9809 6.19726 24.0358 5.9913 23.9762C5.78535 23.9167 5.6268 23.7518 5.57539 23.5437L0.0175219 1.0437C-0.0338548 0.835713 0.0295673 0.616111 0.183921 0.467537ZM1.4314 1.76355L6.49109 22.2468L21.7144 7.60315L1.4314 1.76355Z" fill="#9D9D9D"/>
<path fill-rule="evenodd" clip-rule="evenodd" d="M11.9047 3.5314C12.1107 3.59092 12.2693 3.75587 12.3207 3.96408L15.0977 15.2174C15.149 15.4254 15.0855 15.645 14.9311 15.7935C14.7767 15.9421 14.5549 15.997 14.349 15.9377L3.21513 12.7294C3.00912 12.67 2.85045 12.5053 2.79888 12.2972C2.74731 12.0891 2.81069 11.8693 2.96514 11.7206L11.3221 3.67557C11.4766 3.52684 11.6987 3.47188 11.9047 3.5314ZM4.54629 11.8642L13.6839 14.4972L11.4049 5.26153L4.54629 11.8642Z" fill="#9D9D9D"/>
<path fill-rule="evenodd" clip-rule="evenodd" d="M6.37953 1.92881C6.58564 1.98829 6.74432 2.15328 6.79571 2.36156L8.08994 7.60718L12.9707 9.00826L16.8593 5.26001C17.0137 5.11113 17.2359 5.05604 17.442 5.11552C17.6481 5.17499 17.8068 5.33999 17.8582 5.54827L19.2375 11.1385C19.2888 11.3464 19.2254 11.5659 19.0711 11.7144C18.9169 11.863 18.6952 11.9181 18.4894 11.859L13.2772 10.3628L9.63735 13.8713L10.9347 19.1294C10.986 19.3373 10.9226 19.5568 10.7684 19.7053C10.6141 19.8539 10.3924 19.9089 10.1866 19.8499L4.6551 18.262C4.449 18.2028 4.29014 18.0382 4.23839 17.8301C4.18664 17.622 4.24987 17.4021 4.40426 17.2533L8.30776 13.4906L7.09547 8.57713L1.8954 7.08438C1.6893 7.02522 1.53043 6.86056 1.47869 6.65247C1.42694 6.44438 1.49017 6.2245 1.64455 6.07569L5.79678 2.0733C5.95123 1.92442 6.17342 1.86933 6.37953 1.92881ZM8.42382 8.95148L9.30539 12.5245L11.9593 9.96639L8.42382 8.95148ZM6.7616 7.23282L5.88003 3.65977L3.22611 6.21792L6.7616 7.23282ZM8.63973 14.8374L5.98582 17.3955L9.5213 18.4104L8.63973 14.8374ZM14.2886 9.40462L17.8241 10.4195L16.9425 6.84648L14.2886 9.40462Z" fill="#9D9D9D"/>
</svg>
