<svg width="24" height="25" viewBox="0 0 24 25" fill="none" xmlns="http://www.w3.org/2000/svg">
<path d="M19.7049 13.9725L11.7906 12.1724C9.75107 11.7098 8.32119 9.86405 8.3759 7.76449C8.4306 5.66492 9.95465 3.8968 12.0154 3.54207C14.0762 3.18735 16.0993 4.34489 16.8468 6.30638C17.5942 8.26787 16.8577 10.4866 15.0879 11.6048C15.0541 11.6301 15.0377 11.6727 15.0458 11.7142C15.0539 11.7558 15.085 11.789 15.1258 11.7996L18.6466 12.6002C18.7304 12.6197 18.8177 12.5882 18.8701 12.5197C20.5755 10.2568 20.9019 7.23432 19.719 4.65673C18.5361 2.07914 16.0363 0.365371 13.2157 0.198347H12.8868C9.59971 0.146704 6.56067 1.94869 5.01729 4.86457C3.4739 7.78044 3.68619 11.319 5.56699 14.0276L12.6086 24.1295C12.6395 24.1721 12.6889 24.1973 12.7414 24.1973C12.7939 24.1973 12.8432 24.1721 12.8742 24.1295L19.8061 14.2394C19.8429 14.1936 19.8528 14.1317 19.8319 14.0767C19.8111 14.0217 19.7627 13.9821 19.7049 13.9725Z" fill="#FFC627"/>
</svg>
