<svg width="24" height="24" viewBox="0 0 24 24" fill="none" xmlns="http://www.w3.org/2000/svg">
<g clip-path="url(#clip0_2513_13349)">
<path d="M7.71384 17.0399C6.86603 16.981 6.02352 16.8477 5.20214 16.6428C4.3283 16.425 3.48804 16.1151 2.69913 15.6787C2.22125 15.4145 1.77395 15.1068 1.36515 14.7396C0.925392 14.3443 0.565662 13.894 0.306717 13.3656C0.148934 13.0436 0.0564533 12.7023 0.015309 12.343C-0.0733968 11.5711 0.151199 10.8863 0.56151 10.2469C0.943511 9.65161 1.45687 9.18657 2.03629 8.79249C2.889 8.21269 3.82475 7.81182 4.81372 7.52456C5.33803 7.37244 5.86989 7.25618 6.40741 7.16974C6.79583 7.10745 7.19104 7.0882 7.5821 7.04177C8.12679 6.97723 8.67299 7.00554 9.21806 7.01007C9.52985 7.01271 9.84126 7.05914 10.1534 7.07688C10.5985 7.10217 11.0363 7.17691 11.4701 7.2709C11.8675 7.35734 12.262 7.4585 12.653 7.56986C13.2453 7.73821 13.8172 7.96469 14.3649 8.24478C14.9639 8.55091 15.532 8.90573 16.0254 9.36889C16.0409 9.38323 16.0541 9.39984 16.0514 9.43759C15.9657 9.39116 15.8804 9.34473 15.7944 9.29906C15.0356 8.89629 14.2286 8.62942 13.3914 8.44823C12.8958 8.34103 12.3952 8.27044 11.8913 8.21118C11.0526 8.11304 10.2123 8.13003 9.37282 8.15154C8.9493 8.16249 8.52766 8.23949 8.10527 8.28819C7.60022 8.34632 7.10497 8.45843 6.61766 8.59771C5.75174 8.84458 4.9164 9.16505 4.17051 9.68332C4.15013 9.69729 4.13126 9.71352 4.09313 9.74259C4.19769 10.2797 4.33471 10.8169 4.45966 11.3563C4.58347 11.8904 4.70463 12.4253 4.85411 12.9643C5.16892 11.8428 5.48373 10.7217 5.80157 9.58971C6.05372 9.54932 6.2953 9.57461 6.55689 9.57084C6.73392 10.1416 6.88113 10.7085 7.03967 11.2725C7.19783 11.8357 7.35712 12.3985 7.54209 12.9594C7.80254 11.8383 8.063 10.7168 8.32723 9.57914C8.60353 9.55838 8.86323 9.5731 9.14219 9.56895C9.13879 9.63991 9.14483 9.68898 9.13275 9.73353C8.8957 10.6021 8.656 11.4699 8.41782 12.3385C8.25437 12.9352 8.09244 13.5324 7.93126 14.125C7.79575 14.1681 7.43224 14.1764 7.17405 14.1405C6.84339 13.0017 6.53575 11.8443 6.17715 10.6919C5.85177 11.841 5.52677 12.99 5.19912 14.1477H4.44946C4.11163 12.8688 3.7753 11.5945 3.43633 10.3103C3.31365 10.3658 3.26005 10.4832 3.18569 10.576C2.83917 11.009 2.62703 11.499 2.63383 12.0591C2.64024 12.5906 2.84785 13.0572 3.17097 13.4731C3.56996 13.9873 4.08596 14.3613 4.64877 14.6743C5.57848 15.191 6.58067 15.5017 7.62249 15.6949C8.12717 15.7886 8.63486 15.8516 9.14747 15.8912C9.82541 15.9437 10.5041 15.9452 11.1794 15.9101C12.3899 15.8471 13.5809 15.6515 14.7276 15.2378C15.1595 15.0819 15.5769 14.8962 15.9729 14.6637C15.9978 14.6493 16.0258 14.6403 16.0729 14.6584C15.9129 14.792 15.7585 14.9324 15.592 15.0574C15.0232 15.4858 14.3989 15.8169 13.7454 16.0977C12.9762 16.4284 12.1763 16.6586 11.3572 16.8194C10.1617 17.0542 8.93156 17.124 7.7127 17.0395L7.71384 17.0399Z" fill="white"/>
<path d="M18.9339 14.1107H18.3454C18.3133 13.9726 18.2813 13.8359 18.2458 13.6838C18.2054 13.7227 18.1688 13.7548 18.1356 13.7903C17.8664 14.076 17.5331 14.201 17.1428 14.204C16.8446 14.2066 16.557 14.1738 16.2791 14.0571C15.7918 13.8529 15.4434 13.5117 15.2449 13.024C14.9863 12.3887 14.9769 11.7432 15.212 11.1012C15.4676 10.4036 15.9715 9.97478 16.7012 9.83889C17.2798 9.73093 17.8241 9.84115 18.3009 10.2031C18.6319 10.4549 18.8041 10.8018 18.8735 11.2046C18.8773 11.2276 18.8678 11.2525 18.8633 11.2838C18.7203 11.3269 18.5761 11.3008 18.4341 11.3054C18.2903 11.3099 18.1465 11.3065 18.0004 11.3065C17.9589 11.2178 17.9264 11.137 17.8849 11.0611C17.7351 10.7871 17.5078 10.6365 17.19 10.6233C16.939 10.6131 16.7012 10.6459 16.4951 10.8011C16.3037 10.9449 16.1667 11.1351 16.1006 11.3612C15.9662 11.8217 15.9477 12.2872 16.1259 12.7424C16.2452 13.0474 16.4452 13.2924 16.777 13.3671C17.1254 13.4456 17.478 13.452 17.7811 13.2108C17.9857 13.0482 18.0502 12.8194 18.0853 12.5484H17.2104C17.1613 12.3876 17.1579 12.0184 17.2009 11.8353H18.9181C18.9599 11.9693 18.9743 13.8042 18.9347 14.1107H18.9339Z" fill="white"/>
<path d="M20.4522 13.2933C20.8194 13.2933 21.1516 13.2899 21.4838 13.2944C21.8077 13.299 22.1323 13.2744 22.472 13.311C22.4913 13.584 22.5045 13.841 22.4633 14.1098H19.496C19.4881 14.0263 19.4745 13.9486 19.4741 13.8705C19.4726 12.9562 19.473 12.0416 19.473 11.1274C19.473 10.7956 19.4719 10.4634 19.4737 10.1316C19.4737 10.0652 19.4851 9.99872 19.4904 9.93908C19.6444 9.89756 20.2045 9.89114 20.4284 9.92814C20.4355 9.99835 20.4503 10.0754 20.4506 10.1527C20.4522 11.1172 20.4518 12.0816 20.4518 13.0461V13.2937L20.4522 13.2933Z" fill="white"/>
<path d="M11.8891 9.99609H12.4594C12.4881 10.4457 12.459 10.8937 12.476 11.3622C12.627 11.2214 12.7765 11.1183 12.9599 11.0587C13.4809 10.8884 14.0905 11.1602 14.3253 11.5551C14.4812 11.8174 14.5827 12.0922 14.5857 12.4044C14.5891 12.7448 14.5646 13.0763 14.4377 13.3979C14.1901 14.0256 13.6613 14.3038 13.0196 14.2291C12.8452 14.2087 12.6821 14.1347 12.5515 14.0067C12.5213 13.9769 12.4896 13.9482 12.4447 13.9059C12.4368 13.9931 12.4311 14.0592 12.4251 14.1234C12.2937 14.169 12.0971 14.1755 11.8887 14.1426C11.8842 14.1385 11.8793 14.1343 11.8751 14.1294C11.8713 14.1249 11.866 14.1188 11.866 14.1139C11.8623 12.8 11.8585 11.486 11.8555 10.172C11.8555 10.1286 11.8589 10.0848 11.863 10.0414C11.8642 10.0304 11.8747 10.0203 11.8887 9.99647L11.8891 9.99609ZM13.9293 12.584C13.9293 12.5044 13.9384 12.4032 13.9278 12.3043C13.8915 11.9718 13.7149 11.6143 13.2951 11.5886C12.9199 11.5656 12.6848 11.7068 12.5685 12.0152C12.4262 12.3923 12.4141 12.7901 12.5187 13.1755C12.6085 13.5055 12.8584 13.6768 13.1834 13.6919C13.4563 13.7048 13.7051 13.5681 13.8379 13.2476C13.9233 13.0419 13.9474 12.8256 13.9293 12.584Z" fill="white"/>
<path d="M11.4752 13.1123C11.4012 13.7238 10.8923 14.2248 10.2548 14.2376C10.0091 14.2425 9.76597 14.2391 9.53345 14.1443C9.08124 13.9601 8.83211 13.6068 8.73359 13.1478C8.6328 12.6782 8.66904 12.2128 8.87891 11.7742C9.09294 11.3265 9.45569 11.0838 9.95055 11.0272C10.1521 11.0042 10.3477 11.0132 10.5432 11.0623C10.8516 11.1397 11.0822 11.3212 11.2374 11.5945C11.3808 11.8474 11.4767 12.1166 11.4906 12.411C11.4959 12.5227 11.5122 12.6341 11.5208 12.7458C11.5227 12.7692 11.5122 12.7934 11.5027 12.8409C11.2668 12.8515 11.0305 12.8447 10.7946 12.8458C10.556 12.847 10.3175 12.8458 10.0793 12.8458C9.84109 12.8458 9.60517 12.8458 9.36736 12.8458C9.39869 13.3962 9.58516 13.6231 10.0498 13.6933C10.4096 13.7476 10.7198 13.5374 10.8806 13.118C11.0698 13.0897 11.266 13.1003 11.4755 13.1112L11.4752 13.1123ZM10.8165 12.3027C10.8806 11.9127 10.5957 11.6047 10.1423 11.5726C9.75729 11.5451 9.32697 11.9588 9.37755 12.3027H10.8169H10.8165Z" fill="white"/>
<path d="M23.8206 14.1188C23.8119 14.0361 23.8066 13.987 23.7994 13.9206C23.7726 13.9885 23.7515 14.0414 23.7281 14.101C23.6934 14.1074 23.6586 14.1139 23.6156 14.1222C23.585 14.0553 23.5571 13.9949 23.5209 13.9164C23.5099 13.9878 23.5016 14.0433 23.4914 14.1093H23.3295C23.3219 13.9783 23.3151 13.8564 23.3076 13.722C23.254 13.7186 23.2079 13.7156 23.1457 13.7115C23.1392 13.8462 23.1336 13.9685 23.1272 14.1025C23.0796 14.1059 23.0407 14.1089 22.9852 14.1131C22.9781 13.9783 22.9716 13.8564 22.9652 13.7281C22.9075 13.7118 22.8558 13.6975 22.7969 13.6813C22.7991 13.6397 22.801 13.6054 22.8033 13.5631C22.8505 13.5575 22.8863 13.5495 22.9226 13.5492C23.1347 13.548 23.3465 13.5484 23.5631 13.5484C23.5952 13.628 23.622 13.6949 23.6564 13.7805C23.69 13.6986 23.7164 13.633 23.7466 13.5593H23.9821C24.0112 13.7386 23.9946 13.9112 23.9946 14.1037C23.9361 14.1089 23.8863 14.1131 23.821 14.1188H23.8206Z" fill="white"/>
</g>
<defs>
<clipPath id="clip0_2513_13349">
<rect width="24" height="10.074" fill="white" transform="translate(0 7)"/>
</clipPath>
</defs>
</svg>
