<svg width="25" height="24" viewBox="0 0 25 24" fill="none" xmlns="http://www.w3.org/2000/svg">
<g clip-path="url(#clip0_2513_13501)">
<path d="M1.8853 13.9557V14.1884H1.79297V13.5057H1.88607V13.5639C1.90834 13.5407 1.93463 13.5218 1.96365 13.508C1.99312 13.4956 2.02478 13.4893 2.05675 13.4894C2.09269 13.4882 2.12849 13.4945 2.16187 13.5078C2.19526 13.5212 2.22551 13.5413 2.25072 13.567C2.27617 13.5923 2.29618 13.6226 2.30952 13.656C2.32286 13.6893 2.32925 13.725 2.32829 13.7609C2.32855 13.7963 2.32196 13.8313 2.3089 13.8641C2.29643 13.8962 2.27771 13.9255 2.25381 13.9502C2.23033 13.9766 2.20115 13.9973 2.16848 14.0107C2.13525 14.0243 2.09961 14.0309 2.06373 14.0301C2.03024 14.0304 1.99702 14.0241 1.96597 14.0115C1.93513 13.9978 1.90721 13.9783 1.88373 13.9541M1.88373 13.7555C1.88313 13.7795 1.88735 13.8035 1.89614 13.8258C1.90493 13.8482 1.91813 13.8686 1.93493 13.8858C1.95025 13.9032 1.96913 13.917 1.99029 13.9264C2.01144 13.9358 2.03438 13.9405 2.05752 13.9401C2.08085 13.94 2.10393 13.9353 2.12545 13.9263C2.14697 13.9173 2.16649 13.9041 2.18292 13.8876C2.19935 13.871 2.21235 13.8513 2.22118 13.8297C2.23002 13.8082 2.23451 13.785 2.23441 13.7617C2.23484 13.7375 2.23047 13.7134 2.22155 13.6909C2.21263 13.6684 2.19933 13.6479 2.18243 13.6306C2.16623 13.6136 2.1467 13.6002 2.12508 13.5911C2.10345 13.582 2.08019 13.5775 2.05674 13.5778C2.03396 13.5779 2.01144 13.5827 1.9906 13.5919C1.96977 13.6011 1.95108 13.6145 1.93571 13.6314C1.91905 13.6474 1.90585 13.6667 1.89691 13.6881C1.88797 13.7094 1.88349 13.7323 1.88373 13.7555" fill="#D4D4D4"/>
<path d="M3.98451 14.0187V13.9519C3.96263 13.9755 3.93625 13.9945 3.90692 14.0078C3.87767 14.021 3.8459 14.0276 3.81383 14.0272C3.77803 14.0281 3.74243 14.0217 3.7092 14.0084C3.67598 13.9951 3.64584 13.9751 3.62064 13.9496C3.59523 13.9241 3.57526 13.8937 3.56192 13.8602C3.54859 13.8267 3.54217 13.7909 3.54305 13.7549C3.54274 13.7196 3.54933 13.6845 3.56244 13.6517C3.57456 13.6199 3.59304 13.5908 3.61675 13.5663C3.64083 13.5406 3.66986 13.5201 3.70209 13.5058C3.73559 13.4923 3.77149 13.4857 3.80762 13.4864C3.84111 13.4861 3.87433 13.4924 3.90538 13.505C3.93476 13.5185 3.96114 13.5378 3.98297 13.5616V13.4996H4.07684V14.0155L3.98451 14.0187ZM3.63776 13.7572C3.63706 13.7814 3.64131 13.8056 3.65024 13.8281C3.65918 13.8507 3.67262 13.8711 3.68974 13.8883C3.70584 13.9057 3.72544 13.9194 3.74724 13.9286C3.76903 13.9379 3.79254 13.9424 3.81621 13.9418C3.83887 13.9418 3.86128 13.937 3.88198 13.9278C3.90269 13.9186 3.92125 13.9051 3.93647 13.8883C3.95326 13.8721 3.96659 13.8527 3.97566 13.8313C3.98473 13.8098 3.98934 13.7867 3.98922 13.7634C3.98971 13.7394 3.98536 13.7156 3.97643 13.6933C3.9675 13.6711 3.95417 13.6508 3.93725 13.6338C3.92175 13.6165 3.90272 13.6027 3.88144 13.5933C3.86017 13.584 3.83713 13.5793 3.81389 13.5795C3.79063 13.5795 3.7676 13.5841 3.74613 13.5931C3.72466 13.602 3.70518 13.6151 3.6888 13.6317C3.67243 13.6482 3.65949 13.6678 3.65073 13.6893C3.64197 13.7109 3.63757 13.7339 3.63777 13.7572" fill="#D4D4D4"/>
<path d="M5.28516 13.5029H5.38446L5.5241 13.887L5.67462 13.5029H5.77471L5.49696 14.1857H5.3992L5.47058 14.0041L5.28516 13.5029Z" fill="#D4D4D4"/>
<path d="M7.30095 13.7578C7.30421 13.7107 7.29484 13.6635 7.27379 13.6213C7.26496 13.607 7.25243 13.5955 7.23753 13.5878C7.22263 13.5802 7.20593 13.5767 7.18922 13.5778C7.17208 13.5767 7.15495 13.5802 7.13956 13.5878C7.12417 13.5954 7.11106 13.607 7.10155 13.6213C7.07944 13.6618 7.06947 13.7079 7.07286 13.754V14.0185H6.98438V13.5026H7.06739V13.5639C7.08262 13.5424 7.10252 13.5246 7.12559 13.5119C7.14953 13.4996 7.17627 13.4937 7.20318 13.4948C7.23584 13.4936 7.26823 13.5011 7.29705 13.5166C7.32378 13.5324 7.34513 13.5559 7.35834 13.584C7.37196 13.5557 7.39388 13.5322 7.42119 13.5166C7.45113 13.5011 7.48452 13.4937 7.51817 13.4948C7.54416 13.4936 7.5701 13.498 7.59421 13.5078C7.61832 13.5176 7.64002 13.5325 7.65783 13.5515C7.695 13.5943 7.71393 13.65 7.71058 13.7066V14.0224H7.61748V13.719C7.61973 13.6825 7.60931 13.6463 7.588 13.6166C7.57893 13.6047 7.56717 13.5951 7.55368 13.5887C7.54019 13.5822 7.52537 13.579 7.51041 13.5794C7.49374 13.5779 7.47698 13.5808 7.46176 13.5877C7.44653 13.5946 7.43336 13.6054 7.42352 13.6189C7.40251 13.6593 7.39336 13.7047 7.39714 13.75V14.02H7.30714L7.30095 13.7578Z" fill="#D4D4D4"/>
<path d="M9.03602 13.7965C9.04225 13.8373 9.0629 13.8744 9.0942 13.9013C9.12097 13.9237 9.15391 13.9375 9.18868 13.9408C9.22345 13.9441 9.2584 13.9368 9.28893 13.9199C9.31428 13.9046 9.33515 13.8829 9.34945 13.857H9.45341C9.43355 13.9096 9.3991 13.9553 9.35411 13.9889C9.31049 14.0194 9.25832 14.0351 9.20515 14.0339C9.16925 14.0342 9.13364 14.0274 9.10041 14.0138C9.06773 13.9999 9.03838 13.9793 9.01432 13.9532C8.99006 13.9277 8.97108 13.8976 8.95846 13.8648C8.94469 13.8324 8.93757 13.7975 8.93751 13.7623C8.93725 13.7273 8.94357 13.6926 8.95614 13.6599C8.96898 13.6281 8.98766 13.5989 9.01122 13.5738C9.03539 13.5471 9.06466 13.5255 9.09731 13.5102C9.13067 13.4961 9.16659 13.4889 9.20282 13.4893C9.24693 13.4888 9.29044 13.4995 9.32929 13.5204C9.36819 13.5417 9.40143 13.5721 9.42627 13.6088C9.44088 13.6331 9.4521 13.6592 9.45963 13.6864C9.46685 13.7182 9.47023 13.7508 9.46972 13.7834V13.7966L9.03602 13.7965ZM9.36808 13.7127C9.35902 13.6744 9.3381 13.6399 9.30829 13.6142C9.27858 13.5911 9.242 13.5785 9.20433 13.5785C9.16667 13.5785 9.13008 13.5911 9.10037 13.6142C9.06974 13.6388 9.04817 13.6729 9.03908 13.7112L9.36808 13.7127Z" fill="#D4D4D4"/>
<path d="M10.7954 14.0188H10.7031V13.5029H10.7923V13.5642C10.8095 13.5428 10.8312 13.5256 10.856 13.5138C10.8804 13.5028 10.9068 13.4973 10.9335 13.4975C10.9622 13.4956 10.9909 13.5 11.0177 13.5104C11.0445 13.5207 11.0687 13.5367 11.0887 13.5573C11.1278 13.6049 11.1472 13.6657 11.143 13.7272V14.022H11.0523V13.7482C11.0553 13.7053 11.0444 13.6626 11.0212 13.6264C11.0099 13.6127 10.9954 13.602 10.9791 13.5951C10.9627 13.5882 10.945 13.5854 10.9273 13.5868C10.9079 13.5853 10.8884 13.5887 10.8708 13.5969C10.8531 13.605 10.8378 13.6176 10.8264 13.6334C10.8021 13.6813 10.7913 13.7349 10.7954 13.7885L10.7954 14.0188Z" fill="#D4D4D4"/>
<path d="M12.4409 14.0185V13.5863H12.3672V13.5025H12.4409V13.335H12.5332V13.5025H12.6061V13.5863H12.5332V14.0185H12.4409Z" fill="#D4D4D4"/>
<path d="M15.3196 13.7965C15.3239 13.8238 15.3347 13.8497 15.3511 13.872C15.3675 13.8942 15.389 13.9121 15.4139 13.9242C15.4387 13.9364 15.4661 13.9423 15.4937 13.9415C15.5214 13.9408 15.5484 13.9334 15.5725 13.9199C15.598 13.9048 15.619 13.8831 15.633 13.8571H15.7378C15.7174 13.9095 15.6827 13.9552 15.6377 13.9889C15.5941 14.0194 15.5419 14.0351 15.4887 14.0339C15.4531 14.0343 15.4177 14.0274 15.3848 14.0138C15.3521 14 15.3227 13.9793 15.2987 13.9533C15.2745 13.9276 15.2552 13.8975 15.2421 13.8648C15.2162 13.799 15.2162 13.7258 15.2421 13.66C15.2546 13.6281 15.273 13.5989 15.2964 13.5739C15.3362 13.5311 15.389 13.5026 15.4467 13.4929C15.5044 13.4832 15.5636 13.4929 15.6152 13.5203C15.6472 13.5373 15.6752 13.5608 15.6975 13.5892C15.7198 13.6177 15.7359 13.6505 15.7448 13.6856C15.7523 13.7174 15.7559 13.7499 15.7557 13.7826V13.7965H15.3196ZM15.6524 13.7127C15.6431 13.6744 15.622 13.6399 15.5919 13.6142C15.5631 13.5907 15.5267 13.5783 15.4895 13.5793C15.4512 13.5788 15.4138 13.5917 15.384 13.6158C15.3536 13.6406 15.3321 13.6746 15.3227 13.7128L15.6524 13.7127Z" fill="#D4D4D4"/>
<path d="M17.0814 14.0188H16.9883V13.5029H17.0775V13.5642C17.0945 13.5426 17.1164 13.5253 17.1413 13.5137C17.1662 13.5021 17.1935 13.4965 17.221 13.4974C17.2496 13.4957 17.2783 13.5001 17.3051 13.5105C17.3319 13.5208 17.3561 13.5367 17.3762 13.5572C17.415 13.605 17.4343 13.6657 17.4305 13.7271V14.022H17.3389V13.7481C17.3422 13.7053 17.3316 13.6626 17.3087 13.6263C17.2973 13.6127 17.2829 13.602 17.2665 13.5951C17.2502 13.5883 17.2325 13.5854 17.2148 13.5868C17.1954 13.5851 17.1759 13.5886 17.1582 13.5967C17.1405 13.6049 17.1253 13.6175 17.1139 13.6333C17.0891 13.6811 17.0784 13.7349 17.0828 13.7885L17.0814 14.0188Z" fill="#D4D4D4"/>
<path d="M18.6998 14.0598H18.7983C18.8119 14.0829 18.8315 14.102 18.855 14.1149C18.8789 14.1275 18.9055 14.1342 18.9326 14.1343C18.9558 14.1352 18.979 14.1314 19.0007 14.1231C19.0225 14.1149 19.0423 14.1023 19.059 14.0862C19.0751 14.0698 19.0875 14.0504 19.0957 14.029C19.1038 14.0077 19.1075 13.9849 19.1064 13.962V13.9519C19.0846 13.9756 19.0582 13.9946 19.0288 14.0078C18.9992 14.0209 18.9672 14.0275 18.9349 14.0272C18.8991 14.0281 18.8635 14.0217 18.8303 14.0084C18.7971 13.995 18.7669 13.975 18.7417 13.9496C18.7163 13.9241 18.6963 13.8936 18.683 13.8602C18.6697 13.8267 18.6633 13.7909 18.6641 13.7549C18.6638 13.7195 18.6704 13.6845 18.6835 13.6517C18.6956 13.6196 18.7144 13.5905 18.7386 13.5663C18.7624 13.5406 18.7912 13.52 18.8232 13.5058C18.8567 13.4923 18.8926 13.4857 18.9287 13.4864C18.9622 13.4861 18.9954 13.4924 19.0265 13.505C19.0572 13.5182 19.0849 13.5375 19.1079 13.5617V13.4996H19.201V13.9302C19.2055 14.0067 19.1805 14.0819 19.1312 14.1405C19.1067 14.1666 19.0767 14.1871 19.0435 14.2005C19.0103 14.2139 18.9745 14.2199 18.9388 14.2181C18.8853 14.2197 18.8325 14.2051 18.7875 14.1762C18.7453 14.148 18.7139 14.1065 18.6982 14.0583M18.7603 13.7557C18.7598 13.7799 18.7641 13.804 18.773 13.8265C18.782 13.849 18.7953 13.8696 18.8123 13.8868C18.8285 13.9041 18.8481 13.9177 18.8699 13.9269C18.8917 13.9362 18.9151 13.9407 18.9388 13.9404C18.9615 13.9403 18.9841 13.9355 19.0049 13.9263C19.0257 13.9171 19.0444 13.9037 19.0598 13.8868C19.0765 13.8706 19.0897 13.8512 19.0986 13.8297C19.1076 13.8082 19.112 13.7852 19.1118 13.7619C19.1122 13.738 19.1079 13.7142 19.0992 13.692C19.0904 13.6698 19.0772 13.6495 19.0606 13.6324C19.045 13.6151 19.0259 13.6014 19.0047 13.592C18.9834 13.5827 18.9604 13.5779 18.9372 13.578C18.9139 13.5779 18.8908 13.5825 18.8692 13.5914C18.8476 13.6003 18.8281 13.6134 18.8116 13.6299C18.7952 13.6464 18.7821 13.6661 18.7733 13.6877C18.7645 13.7093 18.7601 13.7324 18.7603 13.7557Z" fill="#D4D4D4"/>
<path d="M20.5533 13.442H20.4609V13.335H20.5533V13.442ZM20.4617 13.5025H20.5533V14.0177H20.4617V13.5025Z" fill="#D4D4D4"/>
<path d="M21.9095 14.0188H21.8164V13.5029H21.9056V13.5642C21.9228 13.5428 21.9445 13.5256 21.9692 13.5138C21.9936 13.5028 22.0201 13.4973 22.0468 13.4975C22.0755 13.4956 22.1042 13.5 22.131 13.5103C22.1578 13.5207 22.182 13.5367 22.202 13.5573C22.2411 13.6049 22.2605 13.6657 22.2563 13.7272V14.022H22.1632V13.7482C22.1665 13.7053 22.1559 13.6626 22.1329 13.6263C22.1214 13.6126 22.1068 13.6019 22.0904 13.5951C22.0739 13.5882 22.056 13.5853 22.0383 13.5867C22.019 13.585 21.9996 13.5885 21.982 13.5966C21.9644 13.6048 21.9493 13.6174 21.9382 13.6333C21.9134 13.681 21.9027 13.7348 21.9071 13.7884L21.9095 14.0188Z" fill="#D4D4D4"/>
<path d="M23.5907 13.7965C23.5966 13.8374 23.6173 13.8747 23.6489 13.9013C23.6755 13.9237 23.7083 13.9375 23.743 13.9408C23.7776 13.9441 23.8125 13.9368 23.8429 13.9199C23.8686 13.9052 23.8896 13.8833 23.9034 13.857H24.0112C23.9914 13.9096 23.9569 13.9553 23.9119 13.9889C23.8683 14.0194 23.8161 14.0351 23.7629 14.0339C23.727 14.0342 23.6914 14.0274 23.6582 14.0138C23.6255 13.9999 23.5962 13.9793 23.5721 13.9532C23.5479 13.9275 23.5287 13.8975 23.5155 13.8648C23.4896 13.7989 23.4896 13.7258 23.5155 13.6599C23.5281 13.6281 23.5465 13.5989 23.5698 13.5738C23.5944 13.5472 23.6239 13.5256 23.6567 13.5102C23.69 13.4961 23.726 13.4889 23.7622 13.4893C23.8063 13.4888 23.8498 13.4995 23.8887 13.5204C23.9273 13.5418 23.9603 13.5721 23.9849 13.6088C24.0001 13.6327 24.0114 13.6589 24.0182 13.6864C24.0261 13.7181 24.0298 13.7508 24.0291 13.7834V13.7966L23.5907 13.7965ZM23.9228 13.7127C23.9134 13.6745 23.8926 13.6401 23.863 13.6142C23.8333 13.5911 23.7967 13.5785 23.759 13.5785C23.7214 13.5785 23.6848 13.5911 23.6551 13.6142C23.6242 13.6388 23.6024 13.6729 23.593 13.7112L23.9228 13.7127Z" fill="#D4D4D4"/>
<path d="M18.5881 9.41788H17.8122V12.4227H18.1614V11.2411H18.5151C18.9015 11.2411 19.1984 11.1591 19.4058 10.9952C19.6132 10.8312 19.7167 10.5984 19.7162 10.2969C19.7162 9.71242 19.3409 9.42044 18.5904 9.42096M19.1467 10.7942C19.0086 10.8943 18.7844 10.9439 18.4756 10.9439H18.1605V9.72047H18.5485C18.8239 9.72047 19.0272 9.76935 19.1567 9.86634C19.2231 9.91871 19.2756 9.98653 19.3097 10.0639C19.3438 10.1412 19.3584 10.2258 19.3523 10.3101C19.3523 10.5304 19.283 10.6908 19.1444 10.7911M21.1173 9.40625L19.9295 12.4227H20.2864L20.6526 11.4692H21.8567L22.2306 12.4251H22.5922L21.4114 9.40625H21.1173ZM20.776 11.1527L21.1297 10.2217C21.1812 10.0797 21.2244 9.93489 21.2593 9.78798C21.2983 9.93486 21.3449 10.0796 21.3989 10.2217L21.7481 11.1527H20.776ZM24.5714 9.41788L23.7699 10.9207L22.9747 9.41788H22.5922L23.593 11.2737V12.4228H23.9468V11.259L24.9492 9.41947L24.5714 9.41788ZM3.8889 11.2698C3.82577 11.5036 3.77655 11.7409 3.74149 11.9805C3.70153 11.7374 3.64581 11.4971 3.57468 11.2612L3.00988 9.41788H2.63979L2.10134 11.245C2.02881 11.4859 1.97384 11.7317 1.93686 11.9805C1.90178 11.7425 1.85388 11.5065 1.79338 11.2737L1.3193 9.41788H0.949219L1.74834 12.4227H2.0936L2.68091 10.4234C2.74196 10.2287 2.7899 10.0302 2.82439 9.82912C2.83782 9.91168 2.85648 9.99331 2.88026 10.0735C2.91595 10.2093 2.94853 10.3218 2.97724 10.411L3.58322 12.4227H3.92848L4.73148 9.41788H4.36139L3.8889 11.2698ZM5.9767 9.4078L4.78887 12.4243H5.14266L5.51274 11.4692H6.71607L7.09003 12.4251H7.45157L6.27075 9.40852L5.9767 9.4078ZM5.63533 11.1542L5.98911 10.2232C6.04054 10.0812 6.0838 9.93644 6.11869 9.78952C6.16679 9.96098 6.21257 10.1053 6.25834 10.2232L6.60748 11.1542L5.63533 11.1542ZM8.62935 10.9215L7.83411 9.4179H7.45158L8.45238 11.2737V12.4228H8.80384V11.259L9.81244 9.41793H9.4346L8.62935 10.9215Z" fill="white"/>
<mask id="mask0_2513_13501" style="mask-type:luminance" maskUnits="userSpaceOnUse" x="10" y="9" width="8" height="4">
<path d="M13.3627 11.9691V11.7045C13.304 11.6775 13.2564 11.6313 13.2276 11.5735C13.1988 11.5157 13.1906 11.4498 13.2044 11.3867C13.2182 11.3236 13.2532 11.2671 13.3035 11.2266C13.3538 11.1861 13.4165 11.1641 13.481 11.1641C13.5456 11.1641 13.6083 11.1861 13.6586 11.2266C13.7089 11.2671 13.7439 11.3236 13.7577 11.3867C13.7715 11.4498 13.7633 11.5157 13.7345 11.5735C13.7057 11.6313 13.658 11.6775 13.5994 11.7045V11.9691C13.6007 11.9854 13.5986 12.0019 13.5933 12.0174C13.5879 12.0329 13.5795 12.0471 13.5683 12.0592C13.5572 12.0713 13.5437 12.0809 13.5287 12.0875C13.5137 12.0941 13.4974 12.0975 13.481 12.0975C13.4646 12.0975 13.4484 12.0941 13.4334 12.0875C13.4184 12.0809 13.4049 12.0713 13.3938 12.0592C13.3826 12.0471 13.3741 12.0329 13.3688 12.0174C13.3635 12.0019 13.3614 11.9855 13.3627 11.9691ZM14.2821 10.9248V10.9364H12.6831V10.9248H12.3898V10.9364C12.3898 11.4056 12.486 11.7736 12.6784 12.0405C12.7675 12.1689 12.8875 12.2727 13.0273 12.3426C13.1671 12.4124 13.3222 12.4459 13.4784 12.44C13.6361 12.4476 13.7932 12.4156 13.9354 12.347C14.0777 12.2785 14.2006 12.1755 14.293 12.0475C14.4839 11.7852 14.5793 11.4162 14.5793 10.9403V10.9248L14.2821 10.9248ZM10.3672 9.41502V12.4191H10.7163V11.1358H11.9616V10.8255H10.7163V9.72614H12.0415V9.4158L10.3672 9.41502ZM15.5537 9.72225H16.0076C16.2662 9.72225 16.4542 9.76596 16.5716 9.85337C16.689 9.94079 16.7477 10.0841 16.7477 10.2832C16.7536 10.3649 16.7412 10.4469 16.7112 10.5232C16.6813 10.5994 16.6346 10.668 16.5747 10.7239C16.4599 10.8216 16.2789 10.8705 16.0316 10.8705H15.5537L15.5537 9.72225ZM15.2046 9.4158V12.4199H15.5537V11.1708H16.1806L16.9076 12.4199H17.3203L16.5049 11.0699C16.9073 10.9303 17.1087 10.6618 17.1093 10.2646C17.1093 9.98063 17.0208 9.76882 16.8447 9.62763C16.6686 9.48643 16.3963 9.41582 16.0277 9.41582L15.2046 9.4158ZM12.6746 9.80372C12.4837 10.0652 12.3883 10.3468 12.3883 10.8263V10.8418H12.6831V10.8302C12.6831 10.4423 12.7514 10.2258 12.8887 10.0217C12.953 9.92196 13.0424 9.84078 13.1479 9.78633C13.2534 9.73187 13.3714 9.70604 13.49 9.71141C13.6072 9.70531 13.724 9.73029 13.8285 9.78383C13.933 9.83737 14.0215 9.91757 14.085 10.0163C14.2193 10.2196 14.2868 10.4337 14.2868 10.8271V10.8387H14.58V10.8271C14.58 10.3616 14.4838 10.0738 14.2922 9.80761C14.2031 9.67887 14.0829 9.57469 13.9428 9.50471C13.8027 9.43474 13.6472 9.40123 13.4908 9.40728C13.3331 9.39992 13.176 9.43204 13.0339 9.50073C12.8918 9.56943 12.7691 9.67253 12.6769 9.80067" fill="white"/>
</mask>
<g mask="url(#mask0_2513_13501)">
<path d="M17.318 9.41162H10.3672V12.4421H17.318V9.41162Z" fill="#9D9D9D"/>
</g>
</g>
<defs>
<clipPath id="clip0_2513_13501">
<rect width="24" height="4.81211" fill="white" transform="translate(0.945312 9.40625)"/>
</clipPath>
</defs>
</svg>
