<svg width="24" height="24" viewBox="0 0 24 24" fill="none" xmlns="http://www.w3.org/2000/svg">
<path d="M2.22739 5H21.7628C22.9992 5 24 5.99597 24 7.2264V14.6475C24 15.8779 22.9992 16.8739 21.7628 16.8739H14.7572L15.7188 19.2174L11.4898 16.8739H2.23714C1.00085 16.8739 7.2007e-05 15.8779 7.2007e-05 14.6475V7.2264C-0.00977175 6.00576 0.990917 5 2.22739 5Z" fill="#404040"/>
<path d="M1.47095 7.01462C1.60621 6.83051 1.80905 6.73371 2.07957 6.71435C2.57233 6.67554 2.8525 6.90795 2.92009 7.41169C3.21957 9.43615 3.54801 11.1507 3.89577 12.5551L6.01144 8.51597C6.20472 8.14785 6.44628 7.95415 6.7361 7.93479C7.16119 7.90575 7.42196 8.17689 7.52825 8.74839C7.7698 10.0366 8.07894 11.1312 8.446 12.0611C8.69721 9.6008 9.1223 7.82822 9.72126 6.73371C9.86608 6.46248 10.0787 6.32686 10.3588 6.30741C10.5811 6.28814 10.7839 6.35591 10.9675 6.5012C11.151 6.6465 11.2476 6.83051 11.2669 7.05334C11.2766 7.22768 11.2476 7.37297 11.1704 7.51827C10.7936 8.2157 10.4844 9.38775 10.2332 11.0149C9.99178 12.5938 9.90479 13.824 9.96272 14.7055C9.98212 14.9475 9.94341 15.1607 9.84686 15.3448C9.73082 15.5578 9.55704 15.6741 9.33479 15.6934C9.08359 15.7128 8.82282 15.5966 8.57161 15.3351C7.67316 14.4148 6.95825 13.0394 6.43662 11.2087C5.8086 12.4485 5.3449 13.3784 5.04542 13.9983C4.47542 15.0929 3.99241 15.6547 3.58663 15.6838C3.32577 15.7031 3.10362 15.4803 2.91043 15.0155C2.41776 13.7465 1.88638 11.2959 1.31648 7.66356C1.27777 7.41169 1.33569 7.18886 1.47095 7.01462ZM22.2319 8.53534C21.8841 7.92511 21.3721 7.55708 20.6862 7.41169C20.5026 7.37297 20.3288 7.35361 20.1645 7.35361C19.2371 7.35361 18.4835 7.8379 17.8942 8.80657C17.3918 9.62984 17.1407 10.5403 17.1407 11.538C17.1407 12.2839 17.2953 12.9231 17.6044 13.4559C17.9522 14.0661 18.4642 14.4342 19.1501 14.5795C19.3336 14.6183 19.5075 14.6376 19.6718 14.6376C20.6089 14.6376 21.3624 14.1534 21.9421 13.1847C22.4444 12.3516 22.6956 11.4411 22.6956 10.4435C22.7052 9.68802 22.541 9.05834 22.2319 8.53534ZM21.0147 11.2184C20.8794 11.8577 20.6378 12.3323 20.2803 12.6519C20.0003 12.9038 19.7394 13.0103 19.4979 12.9619C19.266 12.9135 19.0728 12.7101 18.9279 12.3323C18.8119 12.032 18.7541 11.7317 18.7541 11.4508C18.7541 11.2087 18.7734 10.9665 18.8216 10.7438C18.9086 10.3466 19.0729 9.95915 19.3336 9.59112C19.6525 9.11642 19.9906 8.92282 20.3384 8.99058C20.5703 9.03898 20.7635 9.24245 20.9084 9.62016C21.0243 9.92043 21.0822 10.2207 21.0822 10.5016C21.0822 10.7535 21.0629 10.9956 21.0147 11.2183V11.2184ZM16.1842 8.53534C15.8365 7.92511 15.3148 7.55708 14.6386 7.41169C14.455 7.37297 14.2812 7.35361 14.1168 7.35361C13.1894 7.35361 12.4359 7.8379 11.8466 8.80657C11.3443 9.62984 11.0931 10.5403 11.0931 11.538C11.0931 12.2839 11.2476 12.9231 11.5568 13.4559C11.9045 14.0661 12.4166 14.4342 13.1024 14.5795C13.2861 14.6183 13.4599 14.6376 13.6242 14.6376C14.5612 14.6376 15.3148 14.1534 15.8944 13.1847C16.3968 12.3516 16.6479 11.4411 16.6479 10.4435C16.6479 9.68802 16.4934 9.05834 16.1842 8.53534ZM14.9574 11.2184C14.8221 11.8577 14.5805 12.3323 14.2231 12.6519C13.943 12.9038 13.6821 13.0103 13.4405 12.9619C13.2087 12.9135 13.0156 12.7101 12.8705 12.3323C12.7547 12.032 12.6968 11.7317 12.6968 11.4508C12.6968 11.2087 12.7161 10.9665 12.7643 10.7438C12.8513 10.3466 13.0156 9.95915 13.2764 9.59112C13.5952 9.11642 13.9333 8.92282 14.2811 8.99058C14.513 9.03898 14.7062 9.24245 14.8511 9.62016C14.9671 9.92043 15.0249 10.2207 15.0249 10.5016C15.0347 10.7535 15.0056 10.9956 14.9574 11.2183V11.2184Z" fill="white"/>
</svg>
