<svg width="24" height="24" viewBox="0 0 24 24" fill="none" xmlns="http://www.w3.org/2000/svg">
<g clip-path="url(#clip0_2222_28371)">
<path d="M2.2382 5.03125H21.7657C23.0016 5.03125 24.002 6.03564 24.002 7.27648V14.7604C24.002 16.0012 23.0016 17.0056 21.7657 17.0056H14.7629L15.7241 19.3689L11.4968 17.0056H2.24794C1.01217 17.0056 0.0117907 16.0012 0.0117907 14.7604V7.27648C0.00195097 6.04552 1.00223 5.03125 2.2382 5.03125Z" fill="#9B5C8F"/>
<path d="M1.37487 7.0775C1.51141 6.8914 1.71617 6.79355 1.98925 6.77398C2.48667 6.73474 2.76949 6.96968 2.83771 7.47889C3.14003 9.52531 3.47158 11.2584 3.82263 12.6781L5.95832 8.59515C6.15343 8.22303 6.39727 8.02723 6.68984 8.00766C7.11894 7.97831 7.38218 8.25239 7.48948 8.83009C7.73332 10.1323 8.04538 11.2387 8.41592 12.1787C8.6695 9.69175 9.09861 7.89993 9.70324 6.79355C9.84943 6.51937 10.064 6.38229 10.3468 6.36262C10.5712 6.34315 10.776 6.41164 10.9612 6.55851C11.1465 6.70539 11.244 6.8914 11.2635 7.11665C11.2733 7.29287 11.244 7.43974 11.1661 7.58662C10.7857 8.29162 10.4735 9.47638 10.2201 11.1212C9.97631 12.7173 9.8885 13.9608 9.94698 14.8518C9.96657 15.0965 9.92749 15.3119 9.83003 15.498C9.71289 15.7134 9.53746 15.8309 9.31311 15.8505C9.05953 15.8701 8.79629 15.7526 8.54271 15.4882C7.63576 14.558 6.91409 13.1677 6.38752 11.3171C5.75356 12.5704 5.28547 13.5103 4.98315 14.1369C4.40776 15.2434 3.92018 15.8113 3.51056 15.8407C3.24723 15.8603 3.02298 15.635 2.82797 15.1651C2.33064 13.8824 1.79423 11.4052 1.21893 7.73349C1.17986 7.47889 1.23833 7.25364 1.37487 7.0775ZM22.3322 8.61472C21.9812 7.99788 21.4643 7.62585 20.7719 7.47889C20.5866 7.43974 20.4111 7.42017 20.2453 7.42017C19.3091 7.42017 18.5484 7.90972 17.9535 8.88889C17.4464 9.7211 17.1929 10.6415 17.1929 11.65C17.1929 12.4039 17.3489 13.0501 17.661 13.5887C18.012 14.2055 18.5289 14.5776 19.2213 14.7244C19.4065 14.7637 19.5821 14.7832 19.7479 14.7832C20.6939 14.7832 21.4545 14.2937 22.0397 13.3145C22.5467 12.4724 22.8003 11.5521 22.8003 10.5436C22.8101 9.77991 22.6443 9.1434 22.3322 8.61472ZM21.1035 11.3269C20.9669 11.9731 20.7231 12.4529 20.3622 12.776C20.0795 13.0306 19.8162 13.1382 19.5724 13.0893C19.3383 13.0403 19.1432 12.8348 18.997 12.4529C18.8799 12.1493 18.8215 11.8458 18.8215 11.5618C18.8215 11.3171 18.841 11.0723 18.8897 10.8472C18.9775 10.4457 19.1433 10.054 19.4065 9.68196C19.7284 9.20211 20.0697 9.00641 20.4208 9.0749C20.6549 9.12383 20.85 9.32951 20.9962 9.71132C21.1132 10.0148 21.1717 10.3184 21.1717 10.6023C21.1717 10.8569 21.1522 11.1017 21.1035 11.3268V11.3269ZM16.2274 8.61472C15.8763 7.99788 15.3497 7.62585 14.6671 7.47889C14.4818 7.43974 14.3063 7.42017 14.1404 7.42017C13.2042 7.42017 12.4436 7.90972 11.8487 8.88889C11.3416 9.7211 11.088 10.6415 11.088 11.65C11.088 12.4039 11.244 13.0501 11.5561 13.5887C11.9072 14.2055 12.4241 14.5776 13.1164 14.7244C13.3018 14.7637 13.4772 14.7832 13.6431 14.7832C14.589 14.7832 15.3497 14.2937 15.9348 13.3145C16.442 12.4724 16.6955 11.5521 16.6955 10.5436C16.6955 9.77991 16.5394 9.1434 16.2274 8.61472ZM14.9889 11.3269C14.8523 11.9731 14.6085 12.4529 14.2477 12.776C13.9649 13.0306 13.7015 13.1382 13.4577 13.0893C13.2237 13.0403 13.0287 12.8348 12.8823 12.4529C12.7654 12.1493 12.7069 11.8458 12.7069 11.5618C12.7069 11.3171 12.7264 11.0723 12.7751 10.8472C12.8629 10.4457 13.0287 10.054 13.292 9.68196C13.6138 9.20211 13.9551 9.00641 14.3062 9.0749C14.5403 9.12383 14.7354 9.32951 14.8816 9.71132C14.9987 10.0148 15.0571 10.3184 15.0571 10.6023C15.0669 10.8569 15.0376 11.1017 14.9889 11.3268V11.3269Z" fill="white"/>
</g>
<defs>
<clipPath id="clip0_2222_28371">
<rect width="24" height="14.4" fill="white" transform="translate(0 5)"/>
</clipPath>
</defs>
</svg>
