<svg width="24" height="25" viewBox="0 0 24 25" fill="none" xmlns="http://www.w3.org/2000/svg">
<path d="M1.70703 12.4995C1.70703 16.5743 4.07503 20.0955 7.5088 21.7644L2.59829 8.30997C2.00963 9.62816 1.70592 11.0558 1.70703 12.4995ZM18.9507 11.98C18.9507 10.7077 18.4938 9.82667 18.1018 9.14089C17.58 8.29293 17.0911 7.57483 17.0911 6.72687C17.0911 5.78057 17.8086 4.8997 18.8195 4.8997C18.8651 4.8997 18.9084 4.90538 18.9531 4.90793C17.1214 3.23002 14.6813 2.20557 12.0013 2.20557C8.40495 2.20557 5.24091 4.05076 3.40022 6.84557C3.64174 6.85282 3.86955 6.85772 4.06269 6.85772C5.13944 6.85772 6.80618 6.72706 6.80618 6.72706C7.36111 6.69435 7.42653 7.50941 6.87239 7.57503C6.87239 7.57503 6.31452 7.64065 5.69398 7.67316L9.44273 18.8236L11.6957 12.0671L10.0917 7.67297C9.53734 7.64045 9.01218 7.57483 9.01218 7.57483C8.45745 7.54232 8.52248 6.69416 9.07721 6.72687C9.07721 6.72687 10.7773 6.85752 11.7888 6.85752C12.8653 6.85752 14.5323 6.72687 14.5323 6.72687C15.0876 6.69416 15.1528 7.50921 14.5983 7.57483C14.5983 7.57483 14.0394 7.64045 13.4201 7.67297L17.1402 18.739L18.1668 15.3078C18.6121 13.8839 18.9507 12.8612 18.9507 11.98Z" fill="white"/>
<path d="M12.1824 13.3999L9.09375 22.3748C10.038 22.653 11.0174 22.7943 12.0018 22.7943C13.2006 22.7943 14.3502 22.5869 15.4203 22.2108C15.3916 22.1659 15.3671 22.1184 15.347 22.069L12.1824 13.3999ZM21.0346 7.56055C21.0789 7.88845 21.1039 8.24064 21.1039 8.61908C21.1039 9.66371 20.9088 10.838 20.3212 12.3063L17.1767 21.3977C20.2372 19.613 22.2957 16.2974 22.2957 12.4995C22.2984 10.7732 21.8646 9.07421 21.0346 7.56055Z" fill="white"/>
<path d="M12 0.5C5.38337 0.5 0 5.88298 0 12.4996C0 19.117 5.38317 24.5 12 24.5C18.6164 24.5 24.0006 19.1172 24.0006 12.4996C24.0004 5.88298 18.6164 0.5 12 0.5ZM12 23.9498C5.68679 23.9498 0.550227 18.8132 0.550227 12.4996C0.550227 6.18659 5.68659 1.05042 12 1.05042C18.313 1.05042 23.4492 6.18659 23.4492 12.4996C23.4492 18.8132 18.3128 23.9498 12 23.9498Z" fill="white"/>
</svg>
