<svg width="24" height="24" viewBox="0 0 24 24" fill="none" xmlns="http://www.w3.org/2000/svg">
<path d="M1.70703 11.9995C1.70703 16.0743 4.07503 19.5955 7.5088 21.2644L2.59829 7.80997C2.00963 9.12816 1.70592 10.5558 1.70703 11.9995ZM18.9507 11.48C18.9507 10.2077 18.4938 9.32667 18.1018 8.64089C17.58 7.79293 17.0911 7.07483 17.0911 6.22687C17.0911 5.28057 17.8086 4.3997 18.8195 4.3997C18.8651 4.3997 18.9084 4.40538 18.9531 4.40793C17.1214 2.73002 14.6813 1.70557 12.0013 1.70557C8.40495 1.70557 5.2409 3.55076 3.40022 6.34557C3.64174 6.35282 3.86955 6.35772 4.06269 6.35772C5.13944 6.35772 6.80618 6.22706 6.80618 6.22706C7.36111 6.19435 7.42653 7.00941 6.87239 7.07503C6.87239 7.07503 6.31452 7.14065 5.69398 7.17316L9.44273 18.3236L11.6957 11.5671L10.0917 7.17297C9.53734 7.14045 9.01218 7.07483 9.01218 7.07483C8.45745 7.04232 8.52248 6.19416 9.07721 6.22687C9.07721 6.22687 10.7773 6.35752 11.7888 6.35752C12.8653 6.35752 14.5323 6.22687 14.5323 6.22687C15.0876 6.19416 15.1528 7.00921 14.5983 7.07483C14.5983 7.07483 14.0394 7.14045 13.4201 7.17297L17.1402 18.239L18.1668 14.8078C18.6121 13.3839 18.9507 12.3612 18.9507 11.48Z" fill="#00749A"/>
<path d="M12.1824 12.8999L9.09375 21.8748C10.038 22.153 11.0174 22.2943 12.0018 22.2943C13.2006 22.2943 14.3502 22.0869 15.4203 21.7108C15.3916 21.6659 15.3671 21.6184 15.347 21.569L12.1824 12.8999ZM21.0346 7.06055C21.0789 7.38845 21.1039 7.74064 21.1039 8.11908C21.1039 9.16371 20.9088 10.338 20.3212 11.8063L17.1767 20.8977C20.2372 19.113 22.2957 15.7974 22.2957 11.9995C22.2984 10.2732 21.8646 8.57421 21.0346 7.06055Z" fill="#00749A"/>
<path d="M12 0C5.38337 0 0 5.38298 0 11.9996C0 18.617 5.38317 24 12 24C18.6164 24 24.0006 18.6172 24.0006 11.9996C24.0004 5.38298 18.6164 0 12 0ZM12 23.4498C5.68679 23.4498 0.550227 18.3132 0.550227 11.9996C0.550227 5.68659 5.68659 0.550423 12 0.550423C18.313 0.550423 23.4492 5.68659 23.4492 11.9996C23.4492 18.3132 18.3128 23.4498 12 23.4498Z" fill="#00749A"/>
</svg>
