<svg width="25" height="24" viewBox="0 0 25 24" fill="none" xmlns="http://www.w3.org/2000/svg">
<g clip-path="url(#clip0_2513_12635)">
<path d="M4.3429 0.00244141H20.1817C22.5831 0.00244141 24.5246 1.95076 24.5246 4.36052V19.6394C24.5246 22.0492 22.5831 23.9975 20.1817 23.9975H4.3429C1.94153 23.9975 0 22.0492 0 19.6394V4.36052C0 1.95076 1.94153 0.00244141 4.3429 0.00244141Z" fill="#404040"/>
<path d="M12.8976 6.30876L9.832 11.3846L13.1019 16.7682C13.1224 16.8092 13.1326 16.8502 13.1224 16.8912C13.1122 16.9322 13.0713 16.9015 13.01 16.9117H10.6699C10.5064 16.9117 10.394 16.9015 10.3225 16.7989C10.1079 16.3682 9.88309 15.9478 9.6685 15.5171C9.45391 15.0967 9.21888 14.666 8.97364 14.2251C8.72839 13.7842 8.48315 13.3432 8.2379 12.892H8.21746C8.00287 13.333 7.76784 13.7739 7.53282 14.2148C7.29779 14.6558 7.06276 15.0967 6.83795 15.5274C6.60293 15.9581 6.3679 16.399 6.13287 16.8194C6.092 16.922 6.01025 16.9322 5.89785 16.9322H3.64976C3.60888 16.9322 3.57823 16.9527 3.57823 16.9015C3.56801 16.8604 3.57823 16.8194 3.59866 16.7887L6.77664 11.559L3.68041 6.29851C3.64976 6.25749 3.63954 6.21647 3.65998 6.19597C3.68041 6.1652 3.72129 6.15495 3.76216 6.15495H6.08178C6.13287 6.15495 6.18397 6.1652 6.22484 6.17546C6.26571 6.19597 6.29637 6.22673 6.32703 6.26775C6.52118 6.70868 6.74599 7.14962 6.98101 7.59055C7.22626 8.03149 7.46129 8.46217 7.71675 8.89285C7.962 9.32353 8.18681 9.75421 8.4014 10.1951H8.42183C8.63642 9.74396 8.86123 9.30302 9.08604 8.87234C9.31085 8.44166 9.54588 8.01098 9.7809 7.5803C10.0159 7.14962 10.2407 6.70868 10.4655 6.28825C10.4758 6.24724 10.4962 6.20622 10.5269 6.18571C10.5677 6.1652 10.6086 6.15495 10.6597 6.1652H12.8158C12.8669 6.15495 12.918 6.18571 12.9282 6.23698C12.9384 6.24724 12.918 6.28825 12.8976 6.30876ZM17.6186 17.1271C16.8624 17.1373 16.1062 16.9835 15.4216 16.6656C14.7778 16.3682 14.2464 15.876 13.8786 15.271C13.5005 14.6455 13.3165 13.8662 13.3165 12.933C13.3063 12.1742 13.5005 11.4257 13.8786 10.7694C14.2669 10.1029 14.8289 9.54912 15.5033 9.17997C16.2186 8.78005 17.077 8.58522 18.0886 8.58522C18.1397 8.58522 18.2112 8.58522 18.3032 8.59547C18.3952 8.60573 18.4974 8.60573 18.62 8.61598V5.37562C18.62 5.30384 18.6506 5.26282 18.7222 5.26282H20.7965C20.8476 5.25257 20.8885 5.29359 20.8987 5.3346V15.1172C20.8987 15.3018 20.9089 15.5069 20.9192 15.7325C20.9396 15.9478 20.9498 16.1529 20.96 16.3272C20.96 16.399 20.9294 16.4605 20.8578 16.4913C20.3265 16.7169 19.7645 16.881 19.1922 16.9835C18.6711 17.0758 18.1499 17.1271 17.6186 17.1271ZM18.62 15.0762V10.5643C18.528 10.5438 18.436 10.5233 18.3441 10.513C18.2317 10.5028 18.1193 10.4925 18.0069 10.4925C17.6083 10.4925 17.2098 10.5746 16.8522 10.7591C16.5047 10.9335 16.2084 11.1898 15.9836 11.518C15.7588 11.8461 15.6464 12.287 15.6464 12.8202C15.6362 13.1791 15.6975 13.538 15.8201 13.8764C15.9223 14.1533 16.0756 14.3994 16.2799 14.6045C16.4741 14.7891 16.7091 14.9326 16.9748 15.0147C17.2507 15.107 17.5368 15.148 17.8229 15.148C17.9762 15.148 18.1193 15.1377 18.2521 15.1275C18.3849 15.1377 18.4974 15.1172 18.62 15.0762Z" fill="white"/>
</g>
<defs>
<clipPath id="clip0_2513_12635">
<rect width="24.5246" height="24" fill="white"/>
</clipPath>
</defs>
</svg>
