<svg width="24" height="25" viewBox="0 0 24 25" fill="none" xmlns="http://www.w3.org/2000/svg">
<path d="M0.92415 13.5823C0.741422 13.5827 0.562693 13.5288 0.41065 13.4274C0.258606 13.3261 0.140102 13.1819 0.0701805 13.013C0.000258595 12.8442 -0.0179284 12.6584 0.0179265 12.4793C0.0537813 12.3001 0.142062 12.1356 0.271564 12.0067L5.80978 6.46878C5.98285 6.29571 6.2176 6.19849 6.46236 6.19849C6.70713 6.19849 6.94187 6.29571 7.11495 6.46878C7.28803 6.64185 7.38526 6.87658 7.38526 7.12134C7.38526 7.36609 7.28803 7.60082 7.11495 7.77389L1.57674 13.3118C1.49114 13.3977 1.38942 13.4658 1.27743 13.5122C1.16543 13.5586 1.04538 13.5824 0.92415 13.5823Z" fill="#FE6F21"/>
<path d="M6.46111 19.1201C6.33988 19.1202 6.21983 19.0964 6.10783 19.05C5.99584 19.0036 5.89412 18.9355 5.80852 18.8497L0.270311 13.3117C0.184612 13.226 0.116631 13.1243 0.0702512 13.0123C0.0238714 12.9004 0 12.7804 0 12.6592C0 12.538 0.0238714 12.418 0.0702512 12.306C0.116631 12.1941 0.184612 12.0923 0.270311 12.0066C0.443387 11.8336 0.678129 11.7363 0.922896 11.7363C1.04409 11.7363 1.1641 11.7602 1.27607 11.8066C1.38804 11.853 1.48978 11.9209 1.57548 12.0066L7.1137 17.5446C7.2432 17.6735 7.33148 17.838 7.36733 18.0171C7.40319 18.1963 7.385 18.3821 7.31508 18.5509C7.24516 18.7197 7.12665 18.8639 6.97461 18.9653C6.82257 19.0666 6.64384 19.1205 6.46111 19.1201ZM17.5375 19.1201C17.3548 19.1205 17.1761 19.0666 17.024 18.9653C16.872 18.8639 16.7535 18.7197 16.6836 18.5509C16.6136 18.3821 16.5955 18.1963 16.6313 18.0171C16.6672 17.838 16.7554 17.6735 16.8849 17.5446L22.4232 12.0066C22.5089 11.9209 22.6106 11.853 22.7226 11.8066C22.8345 11.7602 22.9546 11.7363 23.0757 11.7363C23.1969 11.7363 23.317 11.7602 23.4289 11.8066C23.5409 11.853 23.6426 11.9209 23.7283 12.0066C23.814 12.0923 23.882 12.1941 23.9284 12.306C23.9748 12.418 23.9986 12.538 23.9986 12.6592C23.9986 12.7804 23.9748 12.9004 23.9284 13.0123C23.882 13.1243 23.814 13.226 23.7283 13.3117L18.1901 18.8497C18.1045 18.9355 18.0028 19.0036 17.8908 19.05C17.7788 19.0964 17.6588 19.1202 17.5375 19.1201Z" fill="#FE6F21"/>
<path d="M23.0758 13.5824C22.9546 13.5825 22.8346 13.5586 22.7226 13.5122C22.6106 13.4658 22.5089 13.3978 22.4233 13.3119L16.885 7.77397C16.7993 7.68828 16.7314 7.58654 16.685 7.47458C16.6386 7.36261 16.6147 7.24261 16.6147 7.12142C16.6147 7.00023 16.6386 6.88022 16.685 6.76826C16.7314 6.65629 16.7993 6.55456 16.885 6.46886C16.9707 6.38317 17.0725 6.31519 17.1845 6.26881C17.2964 6.22243 17.4164 6.19856 17.5376 6.19856C17.6588 6.19856 17.7788 6.22243 17.8908 6.26881C18.0028 6.31519 18.1045 6.38317 18.1902 6.46886L23.7284 12.0068C23.8579 12.1357 23.9462 12.3002 23.9821 12.4794C24.0179 12.6585 23.9997 12.8443 23.9298 13.0131C23.8599 13.1819 23.7414 13.3262 23.5893 13.4275C23.4373 13.5289 23.2586 13.5828 23.0758 13.5824ZM9.23031 20.9663C9.08256 20.9663 8.93695 20.9309 8.80572 20.863C8.67449 20.7951 8.56148 20.6967 8.47619 20.5761C8.3909 20.4554 8.33582 20.3161 8.31558 20.1697C8.29535 20.0233 8.31054 19.8743 8.35989 19.735L13.8981 4.04417C13.9385 3.92987 14.001 3.82463 14.082 3.73448C14.163 3.64433 14.261 3.57102 14.3704 3.51874C14.4798 3.46645 14.5984 3.43623 14.7194 3.42977C14.8405 3.42332 14.9616 3.44078 15.0759 3.48114C15.1902 3.5215 15.2954 3.58398 15.3856 3.66501C15.4758 3.74605 15.5491 3.84404 15.6014 3.9534C15.6536 4.06277 15.6839 4.18136 15.6903 4.3024C15.6968 4.42345 15.6793 4.54458 15.639 4.65888L10.1007 20.3497C10.0373 20.5299 9.91951 20.686 9.76361 20.7965C9.60771 20.9069 9.42137 20.9662 9.23031 20.9663Z" fill="#FE6F21"/>
</svg>
