<svg width="24" height="24" viewBox="0 0 24 24" fill="none" xmlns="http://www.w3.org/2000/svg">
<path d="M19.4697 2C20.8514 2.69313 22.0382 4.51203 21.9787 6.98018C21.7981 10.0213 19.5583 12.6422 17.1214 15.057C16.9849 12.1121 16.3345 10.2354 15.3189 7.59623C14.36 4.9367 17.1634 2.08512 19.4697 2Z" fill="white"/>
<path d="M11.9957 14.9534C12.7377 14.0449 13.2636 13.2358 13.6305 12.5047C16.1443 13.7986 15.5512 13.557 16.7636 14.9356C16.7677 14.9785 16.7715 15.0213 16.7752 15.0639C16.8757 16.9754 15.4593 21.3944 9.88203 22C9.49597 19.0307 10.7511 16.4979 11.9957 14.9534Z" fill="white"/>
<path d="M3.02017 3.84603C6.99405 2.29793 11.2709 3.88377 13.7399 7.18787C13.9788 7.50745 14.2053 7.83946 14.419 8.18113C14.8048 10.6058 14.5106 11.9523 13.7596 12.6661C13.2659 12.4209 12.739 12.2034 12.1766 12.0023C10.8692 11.5347 9.66244 11.2252 7.9391 10.7229C3.84689 9.62341 2.83773 6.16902 3.02017 3.84603Z" fill="white"/>
<path d="M14.2671 7.94375C14.2931 7.9836 14.3189 8.02317 14.3443 8.06332L14.3757 8.11283C14.4394 8.21367 14.502 8.31511 14.5636 8.41778L14.574 8.43489L14.5906 8.46268L14.6057 8.48835L14.6498 8.56294L14.6528 8.56836L14.7126 8.67162L14.7145 8.67461C14.7577 8.74979 14.8004 8.82526 14.8423 8.90132L14.8475 8.91097L14.8942 8.99609L14.8954 8.99829L14.9466 9.09299L14.9613 9.12078L14.9899 9.1749L15.0586 9.30617C15.0929 9.37316 15.1269 9.44022 15.1603 9.5072L15.169 9.5238C15.2292 9.64526 15.288 9.76742 15.3452 9.89026L15.3888 9.98416L15.3931 9.99352L15.421 10.0545L15.4536 10.1267L15.4719 10.1684L15.5014 10.2351L15.5225 10.283L15.567 10.3863L15.57 10.3935L15.6176 10.5058L15.6234 10.5194C15.674 10.6408 15.7231 10.7622 15.7706 10.8843L15.7752 10.8956L15.8144 10.998L15.8169 11.0036L15.8396 11.064C15.8648 11.131 15.8896 11.1981 15.9141 11.2653L15.9236 11.2917C15.9506 11.3668 15.9773 11.4423 16.003 11.5174L16.0113 11.5413C16.0355 11.6119 16.0588 11.6825 16.0822 11.7532L16.0935 11.7879L16.0963 11.796L16.133 11.9105L16.1345 11.9156L16.1686 12.0249L16.2026 12.1375L16.2036 12.1399L16.2318 12.235L16.2408 12.2658L16.2578 12.3247C16.2771 12.3926 16.2962 12.4602 16.3146 12.5281L16.3284 12.5788L16.3551 12.679L16.3563 12.6839C16.3888 12.8071 16.4194 12.9302 16.4486 13.0531L16.4513 13.0658L16.4544 13.0787C16.4924 13.2409 16.5274 13.4024 16.5596 13.5633L16.5627 13.5793C16.6119 13.8267 16.6544 14.0753 16.6902 14.325L16.6908 14.3283C16.7019 14.4043 16.712 14.4801 16.7215 14.5559L16.7255 14.5885L16.7384 14.6968L16.7494 14.7974L16.7531 14.8306L16.761 14.91L16.7642 14.942L16.7654 14.955L16.7752 15.0639C15.8973 13.9509 14.8485 13.1838 13.59 12.5837C14.6057 10.6069 14.463 9.19845 14.2671 7.94375Z" fill="white"/>
</svg>
