<svg width="24" height="24" viewBox="0 0 24 24" fill="none" xmlns="http://www.w3.org/2000/svg">
<path d="M19.3741 2C20.83 2.69312 22.0805 4.512 22.0178 6.98012C21.8275 10.0212 19.4675 12.6421 16.8998 15.0568C16.756 12.112 16.0706 10.2353 15.0005 7.59617C13.9901 4.93666 16.944 2.08512 19.3741 2Z" fill="url(#paint0_linear_2222_28194)"/>
<path d="M11.4974 14.9536C12.2792 14.045 12.8333 13.2359 13.2199 12.5049C15.8687 13.7988 15.2437 13.5571 16.5212 14.9357C16.5255 14.9786 16.5296 15.0214 16.5334 15.0641C16.6394 16.9755 15.1469 21.3944 9.2702 22C8.86341 19.0307 10.1859 16.498 11.4974 14.9536Z" fill="url(#paint1_linear_2222_28194)"/>
<path d="M2.04078 3.84591C6.22801 2.29783 10.7344 3.88364 13.3361 7.18771C13.5878 7.50728 13.8265 7.83929 14.0516 8.18095C14.4581 10.6056 14.1481 11.9521 13.3568 12.6659C12.8365 12.4206 12.2814 12.2032 11.6888 12.002C10.3112 11.5345 9.03966 11.225 7.2238 10.7226C2.91189 9.62321 1.84855 6.16887 2.04078 3.84591Z" fill="url(#paint2_linear_2222_28194)"/>
<path d="M13.8931 7.94385C13.9205 7.9837 13.9477 8.02327 13.9745 8.06341L14.0075 8.11292C14.0747 8.21377 14.1406 8.3152 14.2055 8.41787L14.2165 8.43499L14.2339 8.46277L14.2498 8.48844L14.2963 8.56304L14.2995 8.56845L14.3626 8.67171L14.3645 8.6747C14.4101 8.74988 14.455 8.82535 14.4992 8.90141L14.5047 8.91106L14.5539 8.99618L14.5552 8.99838L14.6091 9.09308L14.6246 9.12087L14.6547 9.17498L14.6915 9.2416L14.7271 9.30625C14.7632 9.37324 14.7991 9.4403 14.8343 9.50728L14.8434 9.52388C14.9069 9.64534 14.9688 9.7675 15.0291 9.89034L15.0751 9.98424L15.0795 9.9936L15.109 10.0546L15.1432 10.1268L15.1626 10.1684L15.1937 10.2351L15.2159 10.2831L15.2628 10.3864L15.266 10.3936L15.3161 10.5059L15.3222 10.5195C15.3756 10.6409 15.4272 10.7623 15.4773 10.8844L15.4822 10.8956L15.5235 10.998L15.5261 11.0037L15.55 11.0641C15.5765 11.1311 15.6027 11.1982 15.6285 11.2654L15.6386 11.2917C15.667 11.3668 15.6951 11.4424 15.7222 11.5175L15.7309 11.5413C15.7564 11.612 15.781 11.6826 15.8056 11.7532L15.8176 11.788L15.8205 11.7961L15.8592 11.9105L15.8608 11.9157L15.8967 12.0249L15.9326 12.1375L15.9336 12.1399L15.9633 12.235L15.9727 12.2659L15.9907 12.3247C16.0111 12.3926 16.0311 12.4603 16.0505 12.5282L16.0651 12.5789L16.0932 12.6791L16.0944 12.684C16.1287 12.8071 16.161 12.9303 16.1917 13.0531L16.1946 13.0658L16.1978 13.0788C16.2379 13.2409 16.2748 13.4025 16.3087 13.5633L16.3119 13.5794C16.3638 13.8267 16.4086 14.0754 16.4463 14.325L16.447 14.3283C16.4586 14.4043 16.4693 14.4801 16.4793 14.5559L16.4834 14.5885L16.4971 14.6968V14.6971L16.5086 14.7974L16.5126 14.8306L16.5209 14.91L16.5242 14.942L16.5255 14.955L16.5358 15.064C15.6108 13.9509 14.5057 13.1838 13.1797 12.5837C14.2498 10.607 14.0996 9.19853 13.8931 7.94385Z" fill="url(#paint3_linear_2222_28194)"/>
<defs>
<linearGradient id="paint0_linear_2222_28194" x1="18.4085" y1="2" x2="18.4085" y2="15.0568" gradientUnits="userSpaceOnUse">
<stop stop-color="#73B723"/>
<stop offset="1" stop-color="#D8EE61"/>
</linearGradient>
<linearGradient id="paint1_linear_2222_28194" x1="15.4267" y1="14.9975" x2="8.8199" y2="20.2844" gradientUnits="userSpaceOnUse">
<stop stop-color="#98C9EA"/>
<stop offset="0.68865" stop-color="#026FB2"/>
<stop offset="1" stop-color="#086EB6"/>
</linearGradient>
<linearGradient id="paint2_linear_2222_28194" x1="2.01953" y1="3.84417" x2="10.4673" y2="11.958" gradientUnits="userSpaceOnUse">
<stop stop-color="#D73721"/>
<stop offset="1" stop-color="#F7D768"/>
</linearGradient>
<linearGradient id="paint3_linear_2222_28194" x1="14.2188" y1="10.1506" x2="17.1096" y2="11.3898" gradientUnits="userSpaceOnUse">
<stop stop-color="#D4C883"/>
<stop offset="1" stop-color="#A1D1A7"/>
</linearGradient>
</defs>
</svg>
