<svg width="209" height="75" viewBox="0 0 209 75" fill="none" xmlns="http://www.w3.org/2000/svg">
<path d="M41.913 56.177C41.913 57.3083 40.9972 58.2241 39.8659 58.2241H2.0741C0.942775 58.2241 0 57.3083 0 56.177V17.8734C0 16.7421 0.915839 15.7993 2.0741 15.7993H39.8659C40.9972 15.7993 41.913 16.7152 41.913 17.8734V56.177Z" fill="#D4D4D4"/>
<path d="M34.5056 32.5002V23.5034H25.482V32.5002H16.4583V23.5034H7.43457V50.5476H16.4583V41.5239H25.482V50.5476H34.5056V41.5239H25.482V32.5002H34.5056Z" fill="#292929"/>
<path d="M55.8397 52.4868H54.7622V47.2611H51.9339V52.4868H50.8564V46.3184H55.8397V52.4868Z" fill="#F1F1F1"/>
<path d="M58.4255 49.2544H59.934C60.6343 49.2544 61.1192 48.9581 61.1192 48.2308C61.1192 47.4227 60.5266 47.2342 59.8531 47.2342H58.4525V49.2544H58.4255ZM60.0417 46.3184C61.3077 46.3184 62.1966 46.911 62.1966 48.2039C62.1966 49.3622 61.4424 50.1164 60.2033 50.1164H58.4525V52.4868H57.375V46.3184H60.0417Z" fill="#F1F1F1"/>
<path d="M64.1083 49.389C64.1083 50.8167 64.8356 51.7325 65.9938 51.7325C67.1252 51.7325 67.8525 50.8167 67.8525 49.416C67.8525 48.0153 67.1252 47.0994 65.9938 47.0994C64.8356 47.0994 64.1083 47.9883 64.1083 49.389ZM68.9299 49.416C68.9299 51.3284 67.7178 52.6483 65.9669 52.6483C64.1891 52.6483 63.0039 51.3284 63.0039 49.416C63.0039 47.6112 64.1083 46.1836 65.9938 46.1836C67.7178 46.1836 68.9299 47.5035 68.9299 49.416Z" fill="#F1F1F1"/>
<path d="M76.5261 52.4868H75.5025V47.746L73.7786 52.4868H72.9166L71.1388 47.746V52.4868H70.1152V46.3184H71.6506L73.3745 51.14L75.0177 46.3184H76.5261V52.4868Z" fill="#F1F1F1"/>
<path d="M78.0078 46.3184H79.1122V51.0592L81.752 46.3184H83.018V52.4868H81.9405V47.7729L79.2738 52.4868H78.0078V46.3184Z" fill="#F1F1F1"/>
<path d="M87.1122 52.6483C85.3613 52.6483 84.23 51.3554 84.23 49.416C84.23 47.6651 85.3074 46.1836 87.1661 46.1836C88.4051 46.1836 89.5364 46.857 89.7519 48.2846H88.6745C88.5398 47.5304 87.9472 47.0994 87.1391 47.0994C85.8462 47.0994 85.3074 48.2577 85.3074 49.416C85.3074 50.5473 85.8192 51.7325 87.1391 51.7325C88.1358 51.7325 88.5937 51.0591 88.7284 50.1432H89.8058C89.6711 51.6517 88.6476 52.6483 87.1122 52.6483Z" fill="#F1F1F1"/>
<path d="M94.5462 52.4868V47.2611H92.6337L92.5259 50.1972C92.4451 51.9211 91.7448 52.5945 90.8828 52.5945C90.6404 52.5945 90.3979 52.5407 90.2363 52.4868V51.6518C90.371 51.7056 90.5596 51.7326 90.6673 51.7326C91.0983 51.7326 91.4485 51.4632 91.5023 49.9009L91.637 46.3184H95.6505V52.4868H94.5462Z" fill="#F1F1F1"/>
<path d="M97.886 49.389C97.886 50.8167 98.6133 51.7325 99.7716 51.7325C100.903 51.7325 101.63 50.8167 101.63 49.416C101.63 48.0153 100.903 47.0994 99.7447 47.0994C98.6403 47.0994 97.886 47.9883 97.886 49.389ZM102.735 49.416C102.735 51.3284 101.522 52.6483 99.7716 52.6483C97.9938 52.6483 96.8086 51.3284 96.8086 49.416C96.8086 47.6112 97.886 46.1836 99.7716 46.1836C101.522 46.1836 102.735 47.5035 102.735 49.416Z" fill="#F1F1F1"/>
<path d="M104.97 51.5979H106.586C107.314 51.5979 107.933 51.4363 107.933 50.6282C107.933 49.7932 107.287 49.6585 106.586 49.6585H104.97V51.5979ZM104.97 48.9043H106.452C107.26 48.9043 107.664 48.6888 107.664 48.0692C107.664 47.2881 107.098 47.2342 106.478 47.2342H104.97V48.9043ZM106.721 46.3184C108.068 46.3184 108.714 46.9648 108.714 47.8807C108.714 48.4733 108.337 48.9851 107.825 49.1736C108.526 49.3352 108.984 49.874 108.984 50.6821C108.984 51.7864 108.175 52.5137 107.044 52.5137H103.893V46.3453L106.721 46.3184Z" fill="#F1F1F1"/>
<path d="M111.007 49.389C111.007 50.8167 111.734 51.7325 112.892 51.7325C114.024 51.7325 114.751 50.8167 114.751 49.416C114.751 48.0153 114.024 47.0994 112.865 47.0994C111.734 47.0994 111.007 47.9883 111.007 49.389ZM115.828 49.416C115.828 51.3284 114.616 52.6483 112.865 52.6483C111.088 52.6483 109.902 51.3284 109.902 49.416C109.902 47.6112 110.98 46.1836 112.892 46.1836C114.643 46.1836 115.828 47.5035 115.828 49.416Z" fill="#F1F1F1"/>
<path d="M119.327 49.6587H116.795V50.5745H119.327V49.6587Z" fill="#F1F1F1"/>
<path d="M123.503 49.5777H121.725V51.6248H123.53C124.231 51.6248 124.608 51.3016 124.608 50.6282C124.581 49.9548 124.177 49.5777 123.503 49.5777ZM123.557 52.4868H120.621V46.3184H125.173V47.2611H121.725V48.6888H123.584C124.931 48.6888 125.685 49.3622 125.685 50.5743C125.658 51.8134 124.904 52.4868 123.557 52.4868Z" fill="#F1F1F1"/>
<path d="M126.224 46.3184H127.409L128.89 49.6315L130.426 46.3184H131.584L129.187 51.2208C128.675 52.2713 128.109 52.6215 127.436 52.6215C127.166 52.6215 126.87 52.5407 126.708 52.4599V51.544C126.816 51.6248 127.032 51.7056 127.409 51.7056C127.813 51.7056 128.028 51.3555 128.352 50.7629V50.7359L126.224 46.3184Z" fill="#F1F1F1"/>
<path d="M135.759 47.2611H133.873V47.6382C133.873 49.1736 133.55 50.7898 133.173 51.571H135.759V47.2611ZM136.486 54.0222V52.4868H132.472V54.0222H131.422V51.544H132.014C132.472 50.709 132.823 48.9581 132.823 47.2611V46.3184H136.836V51.544H137.536V54.0222H136.486Z" fill="#F1F1F1"/>
<path d="M139.583 46.3184H138.506V52.4868H139.583V46.3184Z" fill="#F1F1F1"/>
<path d="M142.17 51.5979H143.786C144.514 51.5979 145.133 51.4363 145.133 50.6282C145.133 49.7932 144.487 49.6585 143.786 49.6585H142.197L142.17 51.5979ZM142.17 48.9043H143.652C144.46 48.9043 144.864 48.6888 144.864 48.0692C144.864 47.2881 144.298 47.2342 143.679 47.2342H142.17V48.9043ZM143.921 46.3184C145.268 46.3184 145.914 46.9648 145.914 47.8807C145.914 48.4733 145.564 48.9851 145.025 49.1736C145.726 49.3352 146.184 49.874 146.184 50.6821C146.184 51.7864 145.376 52.5137 144.244 52.5137H141.093V46.3453L143.921 46.3184Z" fill="#F1F1F1"/>
<path d="M151.867 47.2342H148.5V48.8773H151.625V49.7393H148.5V51.571H151.894V52.4868H147.423V46.3184H151.867V47.2342Z" fill="#F1F1F1"/>
<path d="M156.823 52.4868V47.2611H154.91L154.802 50.1972C154.721 51.9211 154.021 52.5945 153.159 52.5945C152.917 52.5945 152.674 52.5407 152.513 52.4868V51.6518C152.647 51.7056 152.836 51.7326 152.944 51.7326C153.375 51.7326 153.725 51.4632 153.779 49.9009L153.913 46.3184H157.954V52.4868H156.823Z" fill="#F1F1F1"/>
<path d="M162.078 49.5777H160.489V51.6248H162.078C162.778 51.6248 163.155 51.3016 163.155 50.6282C163.155 49.9548 162.751 49.5777 162.078 49.5777ZM162.132 52.4868H159.411V46.3184H160.489V48.6618H162.132C163.479 48.6618 164.233 49.3352 164.233 50.5474C164.233 51.8134 163.479 52.4868 162.132 52.4868Z" fill="#F1F1F1"/>
<path d="M170.371 52.4868H169.293V49.7123H166.465V52.4868H165.388V46.3184H166.465V48.7696H169.293V46.3184H170.371V52.4868Z" fill="#F1F1F1"/>
<path d="M174.117 47.4497L173.148 50.0356H175.033L174.117 47.4497ZM177.053 52.4868H175.895L175.303 50.8437H172.851L172.259 52.4868H171.154L173.525 46.3184H174.683L177.053 52.4868Z" fill="#F1F1F1"/>
<path d="M180.476 52.4868V46.3184H184.678V47.2611H181.58V52.4868H180.476Z" fill="#F1F1F1"/>
<path d="M186.67 49.2544H188.179C188.879 49.2544 189.364 48.9581 189.364 48.2308C189.364 47.4227 188.771 47.2342 188.098 47.2342H186.697L186.67 49.2544ZM188.259 46.3184C189.525 46.3184 190.414 46.911 190.414 48.2039C190.414 49.3622 189.66 50.1164 188.421 50.1164H186.67V52.4868H185.593V46.3184H188.259Z" fill="#F1F1F1"/>
<path d="M190.871 46.3184H192.056L193.538 49.6315L195.073 46.3184H196.231L193.834 51.2208C193.322 52.2713 192.757 52.6215 192.083 52.6215C191.814 52.6215 191.518 52.5407 191.356 52.4599V51.544C191.464 51.6248 191.679 51.7056 192.056 51.7056C192.46 51.7056 192.676 51.3555 192.999 50.7629V50.7359L190.871 46.3184Z" fill="#F1F1F1"/>
<path d="M202.023 52.4868H200.946V47.2611H198.117V52.4868H197.04V46.3184H202.023V52.4868Z" fill="#F1F1F1"/>
<path d="M205.767 47.4497L204.797 50.0356H206.683L205.767 47.4497ZM208.73 52.4868H207.571L206.979 50.8437H204.528L203.935 52.4868H202.804L205.174 46.3184H206.332L208.73 52.4868Z" fill="#F1F1F1"/>
<path d="M60.2035 23.6382H65.8332L58.7759 32.4464L65.8332 41.5509H60.1227L55.5166 35.167L55.355 35.3555V41.5509H50.8027V23.6382H55.355V30.2645L60.2035 23.6382Z" fill="#F1F1F1"/>
<path d="M69.7119 35.6516C69.7119 36.9714 71.1934 37.591 72.6211 37.591C74.0756 37.591 75.5032 36.9445 75.5032 35.6516V29.537C75.5032 28.1363 74.0217 27.5168 72.5402 27.5168C71.1126 27.5168 69.7119 28.2171 69.7119 29.537V35.6516ZM65.1597 29.537C65.1597 25.4157 68.85 23.3955 72.5672 23.3955C76.2844 23.3955 80.0016 25.4427 80.0016 29.537V35.6516C80.0016 39.7459 76.3113 41.7931 72.5941 41.7931C68.8769 41.7931 65.1597 39.7459 65.1597 35.6516V29.537Z" fill="#F1F1F1"/>
<path d="M89.5894 37.5912C92.31 37.5912 92.283 33.9279 89.5894 33.9279H86.9496V37.5912H89.5894ZM89.5894 30.6416C91.7982 30.6416 91.879 27.4632 89.5894 27.4632H86.9496V30.6416H89.5894ZM93.576 32.0154C96.0272 33.2545 96.3235 35.5441 96.108 36.9178C95.6501 39.8 93.7107 41.5509 89.7241 41.5509H82.4243V23.6382H89.6163C93.0373 23.6382 95.5423 25.6853 95.4346 29.1063C95.4077 29.9144 94.8689 31.3689 93.576 32.0154Z" fill="#F1F1F1"/>
<path d="M105.809 33.9279L104.57 28.7022H104.435L103.115 33.9279H105.809ZM112.92 41.5509H108.071L106.913 37.9683H102.118L101.014 41.5509H96.1655L102.415 23.6382H106.536L112.92 41.5509Z" fill="#F1F1F1"/>
<path d="M121.295 33.3892C121.079 37.5374 119.221 42.1435 113.375 41.5509V37.3219C117.066 37.5374 116.796 33.6046 117.066 29.645L117.497 23.6382H129.457V41.5509H124.904V27.948H121.591L121.295 33.3892Z" fill="#F1F1F1"/>
<path d="M139.26 37.5912C140.795 37.5912 141.253 36.5138 141.253 35.3555C141.253 34.0356 140.499 33.3353 139.26 33.3353H136.566V37.5912H139.26ZM139.395 41.5509H132.041V23.6382H136.593V29.7258H139.287C144.135 29.7258 145.725 31.9885 145.725 35.3825C145.698 38.9111 143.354 41.5509 139.395 41.5509Z" fill="#F1F1F1"/>
<path d="M160.729 37.7795C159.248 40.6887 156.527 41.7931 154.264 41.7931C150.763 41.7931 147.207 39.7459 147.207 35.6785V29.5101C147.207 25.4696 150.763 23.3955 154.345 23.3955C156.554 23.3955 159.194 24.3383 160.648 27.5168L156.958 28.9983C155.746 26.7626 151.759 27.2743 151.759 29.5101V35.6785C151.759 37.8334 155.8 38.426 156.796 35.9479L160.729 37.7795Z" fill="#F1F1F1"/>
<path d="M169.618 37.5912C171.154 37.5912 171.612 36.5138 171.612 35.3555C171.612 34.0356 170.858 33.3353 169.618 33.3353H166.925V37.5912H169.618ZM169.726 41.5509H162.373V23.6382H166.925V29.7258H169.618C174.467 29.7258 176.083 31.9885 176.083 35.3825C176.056 38.9111 173.713 41.5509 169.726 41.5509Z" fill="#F1F1F1"/>
<path d="M187.047 23.6382H192.677L185.592 32.4464L192.65 41.5509H186.966L182.333 35.167L182.171 35.3555V41.5509H177.619V23.6382H182.171V30.2645L187.047 23.6382Z" fill="#F1F1F1"/>
<path d="M198.494 23.6382L192.245 41.5509H197.094L198.198 37.9683H202.993L204.151 41.5509H209L202.589 23.6382C202.616 23.6382 198.494 23.6382 198.494 23.6382ZM200.542 28.7022H200.676L201.915 33.9279H199.222L200.542 28.7022Z" fill="#F1F1F1"/>
</svg>
