<svg width="209" height="75" viewBox="0 0 209 75" fill="none" xmlns="http://www.w3.org/2000/svg">
<path fill-rule="evenodd" clip-rule="evenodd" d="M117.959 43.7653L122.938 31.8094L127.382 36.8792L122.893 47.6537H86.518L91.7793 35.0276H113.406L111.789 38.9071H96.7226L94.7053 43.7653H117.959ZM77.0131 39.0923L81.4566 44.1621L88.499 27.2598H81.9473L77.0131 39.0923ZM118.295 31.1393H93.3968L94.151 29.323C94.6871 28.0445 95.8866 27.2598 97.3042 27.2598H119.903L118.295 31.1393ZM207.383 31.1393H182.776L182.875 30.9012C183.811 28.6617 185.956 27.251 188.446 27.251H209L207.383 31.1393ZM201.84 35.0276C203.975 35.0276 205.22 35.6977 205.82 36.6235C206.42 37.5405 206.383 38.7132 205.974 39.7007L204.439 43.395C203.893 44.7 203.003 45.7668 201.876 46.4986C200.749 47.2393 199.405 47.6449 197.951 47.6449H175.969L176.733 45.8197C177.26 44.5501 178.468 43.7565 179.886 43.7565H195.706C196.342 43.7565 196.924 43.5802 197.396 43.2804C197.869 42.9718 198.26 42.5133 198.487 41.9402L199.75 38.8983H186.219C183.948 38.8983 181.994 37.2407 181.74 35.0188H201.84V35.0276ZM63.2737 28.6176L79.9664 47.6537H76.4225C75.2048 47.6537 74.1598 47.1864 73.3784 46.287L56.6948 27.2598H60.2387C61.4473 27.2598 62.4923 27.7271 63.2737 28.6176ZM181.485 27.2598H148.082L141.903 42.0989L130.081 28.6176C129.29 27.7183 128.254 27.251 127.036 27.251H123.502L140.194 46.2782C140.976 47.1775 142.03 47.6449 143.238 47.6449H146.155L153.034 31.1393H179.877L181.485 27.2598ZM169.145 35.0276L163.884 47.6537H157.332L162.584 35.0276H169.145Z" fill="#F1F1F1"/>
<path fill-rule="evenodd" clip-rule="evenodd" d="M48.6241 36.2091C48.6423 36.4736 48.6514 36.7381 48.6514 37.0114C48.6514 46.6837 37.7653 54.5221 24.3348 54.5221C12.5946 54.5221 2.80796 48.5353 0.518066 40.5735L8.35097 36.1826C8.3328 36.4559 8.3328 36.7293 8.3328 37.0114C8.3328 45.5904 15.5024 52.5383 24.3439 52.5383C31.6952 52.5383 37.8834 47.733 39.7644 41.1819L48.6241 36.2091Z" fill="#F1F1F1"/>
<path fill-rule="evenodd" clip-rule="evenodd" d="M24.3256 19.501C36.0659 19.501 45.8525 25.4878 48.1424 33.4496L40.3095 37.8405C40.3276 37.5671 40.3367 37.2938 40.3367 37.0117C40.3367 28.4327 33.1672 21.4848 24.3347 21.4848C16.9834 21.4848 10.7952 26.2901 8.91425 32.8412L0.0363476 37.814C0.0090869 37.5407 0 37.2762 0 37.0117C0 27.3393 10.8861 19.501 24.3256 19.501Z" fill="#F1F1F1"/>
<path fill-rule="evenodd" clip-rule="evenodd" d="M21.9533 27.2337L23.8343 24.0772C23.9978 24.0684 24.1614 24.0684 24.325 24.0684C26.2696 24.0684 28.1142 24.4739 29.7862 25.1969L24.325 34.3755L21.9533 30.3902C21.3536 29.3939 21.3536 28.2477 21.9533 27.2337ZM26.6876 46.7811L24.8066 49.9376C24.643 49.9465 24.4795 49.9465 24.3159 49.9465C22.3713 49.9465 20.5176 49.5409 18.8547 48.8179L24.3159 39.6393L26.6876 43.6246C27.2964 44.6298 27.2964 45.776 26.6876 46.7811ZM34.2297 39.9038C33.63 38.8987 32.6031 38.3256 31.4128 38.3256H26.6694L32.1306 47.5041C33.7844 46.3491 35.1475 44.8326 36.1107 43.0691L34.2297 39.9038ZM31.858 30.1345C30.6676 30.1345 29.6408 30.7164 29.0411 31.7128L26.6694 35.6981H37.5918C37.3828 33.6701 36.6832 31.7745 35.62 30.1345H31.858ZM16.7828 43.8891C17.9823 43.8891 19.0001 43.3072 19.5998 42.3109L21.9715 38.3256H11.0581C11.2671 40.3535 11.9668 42.2492 13.03 43.8891H16.7828ZM14.4203 34.1198C15.02 35.125 16.0468 35.6981 17.2372 35.6981H21.9806L16.5102 26.5195C14.8564 27.6745 13.4934 29.1911 12.5302 30.9545L14.4203 34.1198Z" fill="#F1F1F1"/>
</svg>
