<svg width="210" height="75" viewBox="0 0 210 75" fill="none" xmlns="http://www.w3.org/2000/svg">
<path d="M42.1123 56.8777C42.1123 58.009 41.1964 58.9248 40.0651 58.9248H2.27332C1.14199 58.9248 0.199219 58.009 0.199219 56.8777V18.5741C0.199219 17.4428 1.11506 16.5 2.27332 16.5H40.0651C41.1964 16.5 42.1123 17.4158 42.1123 18.5741V56.8777Z" fill="#E30613"/>
<path d="M34.7039 33.2009V24.2041H25.6802V33.2009H16.6565V24.2041H7.63281V51.2482H16.6565V42.2246H25.6802V51.2482H34.7039V42.2246H25.6802V33.2009H34.7039Z" fill="#141412"/>
<path d="M56.0379 53.1875H54.9605V47.9618H52.1321V53.1875H51.0547V47.019H56.0379V53.1875Z" fill="#141412"/>
<path d="M58.6247 49.9551H60.1332C60.8335 49.9551 61.3184 49.6588 61.3184 48.9315C61.3184 48.1234 60.7258 47.9349 60.0524 47.9349H58.6517V49.9551H58.6247ZM60.2409 47.019C61.5069 47.019 62.3958 47.6116 62.3958 48.9046C62.3958 50.0629 61.6416 50.8171 60.4025 50.8171H58.6517V53.1875H57.5742V47.019H60.2409Z" fill="#141412"/>
<path d="M64.3075 50.0897C64.3075 51.5173 65.0348 52.4332 66.1931 52.4332C67.3244 52.4332 68.0517 51.5173 68.0517 50.1166C68.0517 48.716 67.3244 47.8001 66.1931 47.8001C65.0348 47.8001 64.3075 48.689 64.3075 50.0897ZM69.1291 50.1166C69.1291 52.0291 67.917 53.349 66.1661 53.349C64.3883 53.349 63.2031 52.0291 63.2031 50.1166C63.2031 48.3119 64.3075 46.8843 66.1931 46.8843C67.917 46.8843 69.1291 48.2042 69.1291 50.1166Z" fill="#141412"/>
<path d="M76.7234 53.1875H75.6998V48.4467L73.9759 53.1875H73.1139L71.3361 48.4467V53.1875H70.3125V47.019H71.8479L73.5718 51.8407L75.2149 47.019H76.7234V53.1875Z" fill="#141412"/>
<path d="M78.207 47.019H79.3114V51.7598L81.9512 47.019H83.2172V53.1875H82.1397V48.4736L79.473 53.1875H78.207V47.019Z" fill="#141412"/>
<path d="M87.3119 53.3495C85.561 53.3495 84.4297 52.0566 84.4297 50.1171C84.4297 48.3663 85.5071 46.8848 87.3658 46.8848C88.6048 46.8848 89.7362 47.5582 89.9516 48.9858H88.8742C88.7395 48.2316 88.1469 47.8006 87.3388 47.8006C86.0459 47.8006 85.5071 48.9589 85.5071 50.1171C85.5071 51.2485 86.0189 52.4337 87.3388 52.4337C88.3355 52.4337 88.7934 51.7603 88.9281 50.8444H90.0055C89.8708 52.3529 88.8473 53.3495 87.3119 53.3495Z" fill="#141412"/>
<path d="M94.7434 53.1875V47.9618H92.8309L92.7232 50.8979C92.6424 52.6218 91.942 53.2952 91.0801 53.2952C90.8376 53.2952 90.5952 53.2413 90.4336 53.1875V52.3525C90.5683 52.4063 90.7568 52.4333 90.8646 52.4333C91.2956 52.4333 91.6457 52.1639 91.6996 50.6016L91.8343 47.019H95.8478V53.1875H94.7434Z" fill="#141412"/>
<path d="M98.0853 50.0902C98.0853 51.5178 98.8126 52.4337 99.9708 52.4337C101.102 52.4337 101.829 51.5178 101.829 50.1171C101.829 48.7164 101.102 47.8006 99.9439 47.8006C98.8395 47.8006 98.0853 48.6895 98.0853 50.0902ZM102.934 50.1171C102.934 52.0296 101.722 53.3495 99.9708 53.3495C98.193 53.3495 97.0078 52.0296 97.0078 50.1171C97.0078 48.3124 98.0853 46.8848 99.9708 46.8848C101.722 46.8848 102.934 48.2046 102.934 50.1171Z" fill="#141412"/>
<path d="M105.171 52.2986H106.787C107.515 52.2986 108.134 52.137 108.134 51.3289C108.134 50.4938 107.488 50.3592 106.787 50.3592H105.171V52.2986ZM105.171 49.6049H106.653C107.461 49.6049 107.865 49.3894 107.865 48.7699C107.865 47.9888 107.299 47.9349 106.68 47.9349H105.171V49.6049ZM106.922 47.019C108.269 47.019 108.915 47.6655 108.915 48.5814C108.915 49.174 108.538 49.6857 108.026 49.8743C108.727 50.0359 109.185 50.5746 109.185 51.3827C109.185 52.4871 108.377 53.2144 107.245 53.2144H104.094V47.046L106.922 47.019Z" fill="#141412"/>
<path d="M111.206 50.0897C111.206 51.5173 111.933 52.4332 113.092 52.4332C114.223 52.4332 114.95 51.5173 114.95 50.1166C114.95 48.716 114.223 47.8001 113.065 47.8001C111.933 47.8001 111.206 48.689 111.206 50.0897ZM116.028 50.1166C116.028 52.0291 114.815 53.349 113.065 53.349C111.287 53.349 110.102 52.0291 110.102 50.1166C110.102 48.3119 111.179 46.8843 113.092 46.8843C114.842 46.8843 116.028 48.2042 116.028 50.1166Z" fill="#141412"/>
<path d="M119.524 50.3594H116.992V51.2752H119.524V50.3594Z" fill="#141412"/>
<path d="M123.703 50.2783H121.925V52.3255H123.729C124.43 52.3255 124.807 52.0023 124.807 51.3289C124.78 50.6555 124.376 50.2783 123.703 50.2783ZM123.756 53.1875H120.82V47.019H125.373V47.9618H121.925V49.3894H123.783C125.13 49.3894 125.884 50.0629 125.884 51.275C125.857 52.5141 125.103 53.1875 123.756 53.1875Z" fill="#141412"/>
<path d="M126.422 47.019H127.607L129.089 50.3322L130.624 47.019H131.782L129.385 51.9215C128.873 52.972 128.307 53.3222 127.634 53.3222C127.365 53.3222 127.068 53.2414 126.907 53.1605V52.2447C127.014 52.3255 127.23 52.4063 127.607 52.4063C128.011 52.4063 128.227 52.0561 128.55 51.4635V51.4366L126.422 47.019Z" fill="#141412"/>
<path d="M135.958 47.9618H134.072V48.3389C134.072 49.8743 133.749 51.4905 133.372 52.2716H135.958V47.9618ZM136.685 54.7228V53.1875H132.672V54.7228H131.621V52.2447H132.214C132.672 51.4097 133.022 49.6588 133.022 47.9618V47.019H137.035V52.2447H137.736V54.7228H136.685Z" fill="#141412"/>
<path d="M139.781 47.019H138.703V53.1875H139.781V47.019Z" fill="#141412"/>
<path d="M142.37 52.2986H143.987C144.714 52.2986 145.333 52.137 145.333 51.3289C145.333 50.4938 144.687 50.3592 143.987 50.3592H142.397L142.37 52.2986ZM142.37 49.6049H143.852C144.66 49.6049 145.064 49.3894 145.064 48.7699C145.064 47.9888 144.498 47.9349 143.879 47.9349H142.37V49.6049ZM144.121 47.019C145.468 47.019 146.115 47.6655 146.115 48.5814C146.115 49.174 145.764 49.6857 145.226 49.8743C145.926 50.0359 146.384 50.5746 146.384 51.3827C146.384 52.4871 145.576 53.2144 144.445 53.2144H141.293V47.046L144.121 47.019Z" fill="#141412"/>
<path d="M152.066 47.9349H148.699V49.578H151.823V50.44H148.699V52.2716H152.093V53.1875H147.621V47.019H152.066V47.9349Z" fill="#141412"/>
<path d="M157.021 53.1875V47.9618H155.108L155.001 50.8979C154.92 52.6218 154.219 53.2952 153.357 53.2952C153.115 53.2952 152.873 53.2413 152.711 53.1875V52.3525C152.846 52.4063 153.034 52.4333 153.142 52.4333C153.573 52.4333 153.923 52.1639 153.977 50.6016L154.112 47.019H158.152V53.1875H157.021Z" fill="#141412"/>
<path d="M162.276 50.2783H160.687V52.3255H162.276C162.976 52.3255 163.354 52.0023 163.354 51.3289C163.354 50.6555 162.949 50.2783 162.276 50.2783ZM162.33 53.1875H159.609V47.019H160.687V49.3625H162.33C163.677 49.3625 164.431 50.0359 164.431 51.2481C164.431 52.5141 163.677 53.1875 162.33 53.1875Z" fill="#141412"/>
<path d="M170.569 53.1875H169.492V50.413H166.663V53.1875H165.586V47.019H166.663V49.4703H169.492V47.019H170.569V53.1875Z" fill="#141412"/>
<path d="M174.318 48.1504L173.349 50.7363H175.234L174.318 48.1504ZM177.255 53.1875H176.096L175.504 51.5444H173.052L172.46 53.1875H171.355L173.726 47.019H174.884L177.255 53.1875Z" fill="#141412"/>
<path d="M180.676 53.1875V47.019H184.878V47.9618H181.78V53.1875H180.676Z" fill="#141412"/>
<path d="M186.87 49.9551H188.379C189.079 49.9551 189.564 49.6588 189.564 48.9315C189.564 48.1234 188.971 47.9349 188.298 47.9349H186.897L186.87 49.9551ZM188.46 47.019C189.726 47.019 190.615 47.6116 190.615 48.9046C190.615 50.0629 189.86 50.8171 188.621 50.8171H186.87V53.1875H185.793V47.019H188.46Z" fill="#141412"/>
<path d="M191.07 47.019H192.256L193.737 50.3322L195.272 47.019H196.431L194.033 51.9215C193.522 52.972 192.956 53.3222 192.282 53.3222C192.013 53.3222 191.717 53.2414 191.555 53.1605V52.2447C191.663 52.3255 191.878 52.4063 192.256 52.4063C192.66 52.4063 192.875 52.0561 193.198 51.4635V51.4366L191.07 47.019Z" fill="#141412"/>
<path d="M202.222 53.1875H201.144V47.9618H198.316V53.1875H197.238V47.019H202.222V53.1875Z" fill="#141412"/>
<path d="M205.967 48.1504L204.997 50.7363H206.883L205.967 48.1504ZM208.93 53.1875H207.772L207.179 51.5444H204.728L204.135 53.1875H203.004L205.374 47.019H206.533L208.93 53.1875Z" fill="#141412"/>
<path d="M60.4008 24.3389H66.0305L58.9732 33.1471L66.0305 42.2516H60.32L55.7139 35.8676L55.5523 36.0562V42.2516H51V24.3389H55.5523V30.9652L60.4008 24.3389Z" fill="#141412"/>
<path d="M69.9116 36.3522C69.9116 37.6721 71.3931 38.2917 72.8208 38.2917C74.2753 38.2917 75.7029 37.6452 75.7029 36.3522V30.2377C75.7029 28.837 74.2214 28.2175 72.7399 28.2175C71.3123 28.2175 69.9116 28.9178 69.9116 30.2377V36.3522ZM65.3594 30.2377C65.3594 26.1164 69.0497 24.0962 72.7669 24.0962C76.4841 24.0962 80.2013 26.1434 80.2013 30.2377V36.3522C80.2013 40.4466 76.511 42.4937 72.7938 42.4937C69.0766 42.4937 65.3594 40.4466 65.3594 36.3522V30.2377Z" fill="#141412"/>
<path d="M89.7901 38.2919C92.5107 38.2919 92.4837 34.6286 89.7901 34.6286H87.1503V38.2919H89.7901ZM89.7901 31.3423C91.9989 31.3423 92.0797 28.1638 89.7901 28.1638H87.1503V31.3423H89.7901ZM93.7767 32.7161C96.2279 33.9552 96.5242 36.2448 96.3087 37.6185C95.8508 40.5007 93.9114 42.2516 89.9248 42.2516H82.625V24.3389H89.817C93.2379 24.3389 95.743 26.386 95.6353 29.807C95.6083 30.615 95.0696 32.0696 93.7767 32.7161Z" fill="#141412"/>
<path d="M106.061 34.6286L104.822 29.4029H104.687L103.368 34.6286H106.061ZM113.172 42.2516H108.324L107.166 38.669H102.371L101.267 42.2516H96.418L102.667 24.3389H106.788L113.172 42.2516Z" fill="#141412"/>
<path d="M121.494 34.0898C121.278 38.238 119.419 42.8442 113.574 42.2516V38.0226C117.265 38.238 116.995 34.3053 117.265 30.3457L117.695 24.3389H129.655V42.2516H125.103V28.6487H121.79L121.494 34.0898Z" fill="#141412"/>
<path d="M139.461 38.2919C140.997 38.2919 141.454 37.2145 141.454 36.0562C141.454 34.7363 140.7 34.036 139.461 34.036H136.767V38.2919H139.461ZM139.596 42.2516H132.242V24.3389H136.794V30.4265H139.488C144.337 30.4265 145.926 32.6891 145.926 36.0831C145.899 39.6118 143.555 42.2516 139.596 42.2516Z" fill="#141412"/>
<path d="M160.928 38.4802C159.447 41.3894 156.726 42.4937 154.464 42.4937C150.962 42.4937 147.406 40.4466 147.406 36.3792V30.2108C147.406 26.1703 150.962 24.0962 154.544 24.0962C156.753 24.0962 159.393 25.039 160.848 28.2175L157.157 29.699C155.945 27.4632 151.959 27.975 151.959 30.2108V36.3792C151.959 38.5341 155.999 39.1267 156.996 36.6486L160.928 38.4802Z" fill="#141412"/>
<path d="M169.816 38.2919C171.352 38.2919 171.809 37.2145 171.809 36.0562C171.809 34.7363 171.055 34.036 169.816 34.036H167.123V38.2919H169.816ZM169.924 42.2516H162.57V24.3389H167.123V30.4265H169.816C174.665 30.4265 176.281 32.6891 176.281 36.0831C176.254 39.6118 173.911 42.2516 169.924 42.2516Z" fill="#141412"/>
<path d="M187.244 24.3389H192.874L185.79 33.1471L192.847 42.2516H187.163L182.53 35.8676L182.369 36.0562V42.2516H177.816V24.3389H182.369V30.9652L187.244 24.3389Z" fill="#141412"/>
<path d="M198.695 24.3389L192.445 42.2516H197.294L198.398 38.669H203.193L204.351 42.2516H209.2L202.789 24.3389C202.816 24.3389 198.695 24.3389 198.695 24.3389ZM200.742 29.4029H200.876L202.115 34.6286H199.422L200.742 29.4029Z" fill="#141412"/>
</svg>
