<svg width="210" height="75" viewBox="0 0 210 75" fill="none" xmlns="http://www.w3.org/2000/svg">
<path d="M32.3814 8.96821C27.2137 13.1492 29.0021 19.6982 34.1451 23.1022C34.8481 23.5709 36.4021 24.8289 37.5984 25.3592C37.7711 25.4332 37.7341 25.6922 37.5367 25.7045C29.6927 26.5062 20.5167 27.3449 16.6441 35.2752C12.1917 44.3772 24.7594 58.8812 27.3494 62.6799C27.4604 62.8402 27.2754 63.0499 27.1027 62.9389C24.4141 61.2985 15.3614 54.9099 11.2791 48.2992C7.69005 42.4902 7.88738 34.8682 9.08372 28.0849C10.9707 17.3672 18.8394 8.42555 29.1747 5.07088C32.5541 3.98555 36.9694 3.84988 40.6201 3.77588C40.8174 3.77588 40.8791 4.03488 40.7064 4.12121C38.7947 5.12021 34.0094 7.64855 32.3814 8.96821Z" fill="#F1F1F1"/>
<path d="M41.5943 14.8509C40.6076 13.9506 40.7063 12.8036 41.2983 11.6443C42.6303 9.06659 46.2563 8.22792 48.9326 7.99359C51.979 7.73459 55.5186 8.31425 58.0223 10.1519C60.7356 12.1376 62.746 15.0113 64.4973 17.8356C70.553 27.6406 70.96 41.0223 64.6823 50.7903C62.7953 53.7256 56.974 62.2233 53.5576 60.0896C47.5883 56.3526 34.1203 47.2383 35.884 42.5763C37.8943 37.2483 52.3366 35.8916 56.5793 29.0959C57.1713 28.1833 57.5536 27.1103 57.5166 26.0126C57.4056 22.7566 54.717 21.6713 52.1763 20.5859C48.834 19.1676 45.615 17.4903 42.5563 15.5539C42.2356 15.3443 41.8903 15.1099 41.5943 14.8386V14.8509Z" fill="#D4D4D4"/>
<path d="M162.313 43.2051C162.412 41.1084 162.51 39.1721 162.609 37.1988C170.811 40.2698 188.213 44.4754 188.423 37.1988C188.534 33.4001 161.154 37.1618 161.154 24.0391C161.154 12.9884 183.206 10.0778 196.156 17.5641C196.069 19.1551 195.958 21.0544 195.835 23.3484C187.325 20.3021 171.07 16.7624 170.786 24.6928C170.675 27.7268 187.683 28.3928 191.358 29.9591C198.215 32.8821 198.585 39.6654 192.505 44.2411C185.697 49.3594 171.612 49.0634 162.325 43.2298L162.313 43.2051Z" fill="#F1F1F1"/>
<path d="M83.0714 27.1724H118.739V34.9054C109.699 34.9054 100.585 34.856 91.2977 34.856C91.1744 36.7554 91.1744 38.0874 91.1991 40.0114H119.035C119.035 43.0207 119.011 45.142 119.035 47.769H83.0591V27.1724H83.0714Z" fill="#F1F1F1"/>
<path d="M32.4183 8.83237C32.4183 8.83237 32.4059 8.83237 32.3936 8.83237L32.2209 8.56104L32.4183 8.82004V8.83237Z" fill="#F1F1F1"/>
<path d="M144.763 21.1163V47.4233H136.66V20.808C131.541 20.808 126.694 20.8326 121.835 20.8326V13.7656H158.551C158.662 15.628 158.403 18.44 158.551 21.067C154.284 21.141 149.721 20.8203 144.763 21.1163Z" fill="#F1F1F1"/>
<path d="M82.9973 20.29V13.186H118.764V20.29H82.9973Z" fill="#D4D4D4"/>
<path d="M90.4153 60.2866V63.5444C90.2942 63.7046 90.1047 63.8804 89.8469 64.0718C89.593 64.2593 89.2551 64.4214 88.8333 64.5581C88.4114 64.6948 87.886 64.7632 87.2571 64.7632C86.7219 64.7632 86.2317 64.6733 85.7864 64.4937C85.3411 64.3101 84.9563 64.0425 84.6321 63.6909C84.3118 63.3394 84.0637 62.9116 83.8879 62.4077C83.7122 61.8999 83.6243 61.3218 83.6243 60.6733V60.0815C83.6243 59.437 83.7043 58.8628 83.8645 58.3589C84.0286 57.8511 84.2629 57.4214 84.5676 57.0698C84.8723 56.7183 85.2395 56.4526 85.6692 56.2729C86.1028 56.0894 86.593 55.9976 87.1399 55.9976C87.8391 55.9976 88.4172 56.1147 88.8743 56.3491C89.3352 56.5796 89.6907 56.8999 89.9407 57.3101C90.1907 57.7202 90.3489 58.189 90.4153 58.7163H88.9739C88.927 58.4194 88.8352 58.1538 88.6985 57.9194C88.5657 57.6851 88.3743 57.5015 88.1243 57.3687C87.8782 57.2319 87.5579 57.1636 87.1633 57.1636C86.8235 57.1636 86.5247 57.228 86.2668 57.3569C86.009 57.4858 85.7942 57.6753 85.6223 57.9253C85.4543 58.1753 85.3274 58.48 85.2415 58.8394C85.1555 59.1987 85.1125 59.6089 85.1125 60.0698V60.6733C85.1125 61.1421 85.1614 61.5581 85.259 61.9214C85.3606 62.2847 85.5051 62.5913 85.6926 62.8413C85.884 63.0913 86.1165 63.2808 86.3899 63.4097C86.6633 63.5347 86.9719 63.5972 87.3157 63.5972C87.6516 63.5972 87.927 63.5698 88.1418 63.5151C88.3567 63.4565 88.5266 63.3882 88.6516 63.3101C88.7805 63.228 88.8801 63.1499 88.9504 63.0757V61.3823H87.175V60.2866H90.4153ZM105.124 56.1147H108.142C108.79 56.1147 109.343 56.2124 109.8 56.4077C110.257 56.603 110.607 56.8921 110.849 57.2749C111.095 57.6538 111.218 58.1226 111.218 58.6812C111.218 59.1069 111.14 59.4819 110.984 59.8062C110.827 60.1304 110.607 60.4038 110.321 60.6265C110.036 60.8452 109.696 61.0151 109.302 61.1362L108.857 61.353H106.144L106.132 60.187H108.165C108.517 60.187 108.81 60.1245 109.044 59.9995C109.278 59.8745 109.454 59.7046 109.571 59.4897C109.693 59.271 109.753 59.0249 109.753 58.7515C109.753 58.4546 109.695 58.1968 109.577 57.978C109.464 57.7554 109.288 57.5854 109.05 57.4683C108.812 57.3472 108.509 57.2866 108.142 57.2866H106.595V64.646H105.124V56.1147ZM109.993 64.646L107.989 60.814L109.53 60.8081L111.564 64.5698V64.646H109.993ZM132.566 60.146V60.6147C132.566 61.2593 132.482 61.8374 132.314 62.3491C132.146 62.8608 131.905 63.2964 131.593 63.6558C131.284 64.0151 130.913 64.2905 130.48 64.4819C130.046 64.6694 129.566 64.7632 129.038 64.7632C128.515 64.7632 128.036 64.6694 127.603 64.4819C127.173 64.2905 126.8 64.0151 126.483 63.6558C126.167 63.2964 125.921 62.8608 125.745 62.3491C125.573 61.8374 125.487 61.2593 125.487 60.6147V60.146C125.487 59.5015 125.573 58.9253 125.745 58.4175C125.917 57.9058 126.159 57.4702 126.472 57.1108C126.788 56.7476 127.161 56.4722 127.591 56.2847C128.025 56.0933 128.503 55.9976 129.026 55.9976C129.554 55.9976 130.034 56.0933 130.468 56.2847C130.901 56.4722 131.275 56.7476 131.587 57.1108C131.9 57.4702 132.14 57.9058 132.308 58.4175C132.48 58.9253 132.566 59.5015 132.566 60.146ZM131.095 60.6147V60.1343C131.095 59.6577 131.048 59.2378 130.954 58.8745C130.864 58.5073 130.73 58.2007 130.55 57.9546C130.374 57.7046 130.157 57.5171 129.9 57.3921C129.642 57.2632 129.351 57.1987 129.026 57.1987C128.702 57.1987 128.413 57.2632 128.159 57.3921C127.905 57.5171 127.689 57.7046 127.509 57.9546C127.333 58.2007 127.198 58.5073 127.105 58.8745C127.011 59.2378 126.964 59.6577 126.964 60.1343V60.6147C126.964 61.0913 127.011 61.5132 127.105 61.8804C127.198 62.2476 127.335 62.5581 127.515 62.812C127.698 63.062 127.917 63.2515 128.171 63.3804C128.425 63.5054 128.714 63.5679 129.038 63.5679C129.366 63.5679 129.657 63.5054 129.911 63.3804C130.165 63.2515 130.38 63.062 130.556 62.812C130.732 62.5581 130.864 62.2476 130.954 61.8804C131.048 61.5132 131.095 61.0913 131.095 60.6147ZM151.903 56.1147H153.368V61.8159C153.368 62.4644 153.228 63.0073 152.946 63.4448C152.665 63.8823 152.282 64.2124 151.798 64.4351C151.317 64.6538 150.78 64.7632 150.187 64.7632C149.573 64.7632 149.026 64.6538 148.546 64.4351C148.065 64.2124 147.687 63.8823 147.409 63.4448C147.136 63.0073 146.999 62.4644 146.999 61.8159V56.1147H148.464V61.8159C148.464 62.2261 148.534 62.564 148.675 62.8296C148.815 63.0913 149.015 63.2847 149.272 63.4097C149.53 63.5347 149.835 63.5972 150.187 63.5972C150.538 63.5972 150.841 63.5347 151.095 63.4097C151.353 63.2847 151.552 63.0913 151.692 62.8296C151.833 62.564 151.903 62.2261 151.903 61.8159V56.1147ZM171.288 61.4644H169.067V60.2983H171.288C171.675 60.2983 171.987 60.2358 172.226 60.1108C172.464 59.9858 172.638 59.814 172.747 59.5952C172.86 59.3726 172.917 59.1187 172.917 58.8335C172.917 58.564 172.86 58.312 172.747 58.0776C172.638 57.8394 172.464 57.6479 172.226 57.5034C171.987 57.3589 171.675 57.2866 171.288 57.2866H169.518V64.646H168.048V56.1147H171.288C171.948 56.1147 172.509 56.2319 172.97 56.4663C173.435 56.6968 173.788 57.0171 174.03 57.4272C174.272 57.8335 174.393 58.2983 174.393 58.8218C174.393 59.3726 174.272 59.8452 174.03 60.2397C173.788 60.6343 173.435 60.937 172.97 61.1479C172.509 61.3589 171.948 61.4644 171.288 61.4644Z" fill="#D4D4D4"/>
</svg>
