<svg width="210" height="75" viewBox="0 0 210 75" fill="none" xmlns="http://www.w3.org/2000/svg">
<path d="M71.6796 18.8909V48.2837L57.8329 18.8909L41.1939 18.8909L23.3594 56.7471H38.7109L40.7292 51.9636L58.3003 51.9636L60.3185 56.7471H70.9744H105.717V46.4411L85.791 46.4411V18.8909H71.6796ZM49.1912 32.3215H49.8383L54.2746 42.5519H44.7549L49.1912 32.3215Z" fill="#E30613"/>
<path fill-rule="evenodd" clip-rule="evenodd" d="M90.7812 33.1952H105.707V41.0845H90.7812V33.1952Z" fill="#E30613"/>
<path fill-rule="evenodd" clip-rule="evenodd" d="M165.652 45.9941C160.962 45.9941 157.158 42.1899 157.158 37.501C157.158 32.8107 160.962 29.0065 165.652 29.0065C170.341 29.0065 174.145 32.8107 174.145 37.501C174.145 42.1899 170.341 45.9941 165.652 45.9941ZM165.652 17.501C153.955 17.501 144.469 26.4561 144.469 37.501C144.469 41.2146 145.543 44.6904 147.411 47.6705L135.956 36.4959L135.984 36.4608L150.548 18.8938H142.707L134.09 18.8938L124.611 30.9883L123.843 30.9883V18.8938H109.797V56.7499H123.907V44.3595H124.738L138.151 56.7499L154.738 56.7499L156.054 55.3328C158.934 56.7188 162.197 57.501 165.652 57.501C177.348 57.501 186.836 48.5432 186.836 37.501C186.836 26.4561 177.348 17.501 165.652 17.501Z" fill="#E30613"/>
</svg>
