<svg width="209" height="75" viewBox="0 0 209 75" fill="none" xmlns="http://www.w3.org/2000/svg">
<path d="M112.28 21.4992C112.276 22.4427 111.992 23.364 111.463 24.1467C110.935 24.9293 110.186 25.5383 109.311 25.8966C108.436 26.255 107.474 26.3467 106.547 26.1602C105.62 25.9738 104.769 25.5174 104.101 24.8488C103.434 24.1802 102.98 23.3293 102.797 22.4036C102.614 21.4778 102.71 20.5187 103.073 19.6473C103.436 18.7759 104.049 18.0313 104.836 17.5075C105.622 16.9837 106.547 16.7041 107.493 16.7041C108.123 16.7054 108.746 16.8305 109.328 17.0722C109.909 17.3138 110.438 17.6674 110.882 18.1127C111.327 18.5579 111.679 19.0862 111.919 19.6672C112.158 20.2483 112.281 20.8708 112.28 21.4992Z" fill="#D4D4D4"/>
<path d="M124.667 21.4992C124.663 22.4427 124.379 23.364 123.85 24.1467C123.322 24.9293 122.573 25.5383 121.698 25.8966C120.823 26.255 119.861 26.3467 118.934 26.1602C118.007 25.9738 117.156 25.5174 116.488 24.8488C115.821 24.1802 115.367 23.3293 115.184 22.4036C115.001 21.4778 115.097 20.5187 115.46 19.6473C115.822 18.7759 116.436 18.0313 117.223 17.5075C118.009 16.9837 118.934 16.7041 119.88 16.7041C120.51 16.7054 121.134 16.8305 121.715 17.0722C122.296 17.3138 122.824 17.6674 123.269 18.1127C123.713 18.5579 124.066 19.0862 124.306 19.6672C124.546 20.2483 124.668 20.8708 124.667 21.4992Z" fill="#D4D4D4"/>
<path d="M78.8224 37.7551L84.8598 30.4346C85.2967 29.9096 85.0486 29.3152 84.3931 29.3152H79.8649C79.6266 29.3181 79.3919 29.375 79.1787 29.4813C78.9655 29.5877 78.779 29.7409 78.6337 29.9293L74.5028 35.1894V30.2364C74.5227 30.1017 74.511 29.9642 74.4681 29.8348C74.4254 29.7055 74.3529 29.588 74.2563 29.4917C74.1598 29.3954 74.0418 29.3229 73.9122 29.2803C73.7825 29.2375 73.6447 29.2258 73.5097 29.2459H70.1929C70.0576 29.2235 69.9187 29.2338 69.7881 29.2756C69.6574 29.3176 69.5385 29.3899 69.4414 29.4867C69.3444 29.5837 69.2719 29.7022 69.2298 29.8325C69.1879 29.9628 69.1776 30.1014 69.2 30.2364V47.2352C69.1776 47.3702 69.1879 47.5086 69.2298 47.639C69.2719 47.7694 69.3444 47.8879 69.4414 47.9848C69.5385 48.0816 69.6574 48.154 69.7881 48.1959C69.9187 48.2377 70.0576 48.248 70.1929 48.2257H73.5295C73.665 48.248 73.8038 48.2377 73.9345 48.1959C74.0652 48.154 74.184 48.0816 74.281 47.9848C74.3782 47.8879 74.4507 47.7694 74.4926 47.639C74.5347 47.5086 74.5448 47.3702 74.5226 47.2352V40.6674L80.0933 47.6016C80.2159 47.7908 80.3813 47.9483 80.5763 48.062C80.7712 48.1755 80.9902 48.2417 81.2155 48.2554H85.9224C86.0487 48.2548 86.1722 48.2181 86.2784 48.1501C86.3846 48.0819 86.4692 47.9852 86.5222 47.8709C86.5754 47.7567 86.5947 47.6297 86.5781 47.5048C86.5617 47.38 86.5098 47.2623 86.4289 47.1657L78.8224 37.7551Z" fill="#F1F1F1"/>
<path d="M172.316 29.2344H158.145C157.931 29.2344 157.725 29.3193 157.574 29.4704C157.422 29.6215 157.337 29.8265 157.337 30.0401V33.7112C157.337 33.9248 157.422 34.1298 157.574 34.2809C157.725 34.432 157.931 34.5169 158.145 34.5169H162.613V47.4497C162.613 47.6634 162.698 47.8683 162.85 48.0195C163.001 48.1706 163.206 48.2555 163.42 48.2555H167.07C167.285 48.2555 167.491 48.1706 167.643 48.0195C167.794 47.8683 167.878 47.6634 167.878 47.4497V34.5169H172.297C172.511 34.5169 172.716 34.432 172.867 34.2809C173.019 34.1298 173.104 33.9248 173.104 33.7112V30.0401C173.104 29.8265 173.019 29.6215 172.867 29.4704C172.716 29.3193 172.511 29.2344 172.297 29.2344" fill="#F1F1F1"/>
<path d="M130.488 44.0163H125.928V40.4556H130.488C133.277 40.4556 133.487 44.0163 130.488 44.0163ZM125.928 33.4835H129.368C129.766 33.4835 130.147 33.6411 130.428 33.9216C130.709 34.2023 130.868 34.5828 130.868 34.9796C130.868 35.3764 130.709 35.7569 130.428 36.0375C130.147 36.3182 129.766 36.4757 129.368 36.4757H125.928V33.4835ZM134.547 37.8722C137.917 34.6404 135.667 29.2344 130.488 29.2344H121.589C121.374 29.2344 121.168 29.3194 121.016 29.471C120.864 29.6225 120.779 29.8281 120.779 30.0422V47.4476C120.779 47.6617 120.864 47.8674 121.016 48.0188C121.168 48.1703 121.374 48.2555 121.589 48.2555H131.358C138.137 48.2555 139.946 40.4556 134.547 37.8722Z" fill="#F1F1F1"/>
<path d="M116.604 30.0422C116.604 29.8281 116.519 29.6225 116.367 29.471C116.215 29.3194 116.009 29.2344 115.794 29.2344H111.585C111.37 29.2344 111.164 29.3194 111.012 29.471C110.86 29.6225 110.775 29.8281 110.775 30.0422V47.4476C110.775 47.6617 110.86 47.8674 111.012 48.0188C111.164 48.1703 111.37 48.2555 111.585 48.2555H115.794C116.009 48.2555 116.215 48.1703 116.367 48.0188C116.519 47.8674 116.604 47.6617 116.604 47.4476V30.0422Z" fill="#F1F1F1"/>
<path d="M201.364 37.9981H198.508V33.6161H201.293C203.171 33.6161 203.82 34.4925 203.82 35.7573C203.82 36.8428 203.321 37.9682 201.364 37.9682V37.9981ZM201.764 29.2344H193.996C193.782 29.2344 193.577 29.3194 193.425 29.4707C193.272 29.622 193.188 29.8271 193.188 30.041V47.4487C193.188 47.6627 193.272 47.8679 193.425 48.0191C193.577 48.1704 193.782 48.2555 193.996 48.2555H197.68C197.894 48.2555 198.101 48.1704 198.252 48.0191C198.404 47.8679 198.489 47.6627 198.489 47.4487V42.3101H201.483C205.756 42.3101 209 40.0694 209 35.827C209 31.8435 205.677 29.2643 201.703 29.2643" fill="#F1F1F1"/>
<path d="M179.366 40.7566L181.457 34.5367L183.549 40.7566H179.366ZM191.458 47.2545L185.003 29.9664C184.942 29.739 184.8 29.5411 184.605 29.4083C184.41 29.2754 184.173 29.2162 183.938 29.241H179.027C178.792 29.2136 178.552 29.2717 178.355 29.4048C178.158 29.5379 178.015 29.7371 177.952 29.9664L171.478 47.2545C171.412 47.3602 171.378 47.4822 171.38 47.6063C171.382 47.7304 171.419 47.8515 171.486 47.9555C171.554 48.0597 171.651 48.1423 171.764 48.1941C171.876 48.2458 172.002 48.2646 172.126 48.2481H176.249C176.423 48.2388 176.59 48.1794 176.732 48.0772C176.874 47.9749 176.982 47.8343 177.046 47.6719L177.893 45.1382H185.003L185.841 47.6719C185.904 47.8343 186.012 47.9749 186.154 48.0772C186.296 48.1794 186.463 48.2388 186.637 48.2481H190.761C190.885 48.2669 191.011 48.2499 191.126 48.1989C191.242 48.1481 191.338 48.0654 191.408 47.9609C191.477 47.8564 191.514 47.7344 191.516 47.6092C191.519 47.4841 191.483 47.361 191.417 47.2545" fill="#F1F1F1"/>
<path d="M106.733 47.4476V30.0422C106.733 29.8281 106.648 29.6225 106.496 29.471C106.344 29.3194 106.138 29.2344 105.923 29.2344H101.924C101.775 29.2361 101.628 29.2742 101.498 29.3456C101.367 29.4168 101.256 29.5191 101.174 29.6434L93.6748 39.8371V30.0422C93.6748 29.8281 93.5894 29.6225 93.4376 29.471C93.2856 29.3194 93.0796 29.2344 92.8648 29.2344H89.1653C88.9505 29.2344 88.7445 29.3194 88.5927 29.471C88.4407 29.6225 88.3555 29.8281 88.3555 30.0422V47.4476C88.3555 47.6617 88.4407 47.8674 88.5927 48.0188C88.7445 48.1703 88.9505 48.2555 89.1653 48.2555H93.2248C93.3721 48.2521 93.5164 48.2132 93.6453 48.142C93.7742 48.0707 93.8838 47.9693 93.9647 47.8465L101.464 37.6527V47.4476C101.464 47.6617 101.549 47.8674 101.701 48.0188C101.853 48.1703 102.059 48.2555 102.274 48.2555H105.963C106.179 48.2555 106.386 48.1707 106.539 48.0195C106.693 47.8682 106.781 47.6627 106.783 47.4476H106.733Z" fill="#F1F1F1"/>
<path d="M156.1 44.6488L153.916 42.3507C153.84 42.2575 153.745 42.1822 153.636 42.1306C153.527 42.0789 153.408 42.0522 153.288 42.0523C153.084 42.0564 152.889 42.1342 152.739 42.2711C151.571 43.3115 150.057 43.8822 148.491 43.8729C147.134 43.8729 145.833 43.3351 144.874 42.3781C143.914 41.421 143.375 40.1229 143.375 38.7694C143.375 37.4159 143.914 36.1177 144.874 35.1606C145.833 34.2036 147.134 33.666 148.491 33.666C150.056 33.6509 151.571 34.2184 152.739 35.2576C152.887 35.3979 153.084 35.4762 153.288 35.4766C153.408 35.4766 153.527 35.4499 153.636 35.3983C153.745 35.3467 153.84 35.2714 153.916 35.178L156.1 32.88C156.243 32.7335 156.321 32.5369 156.319 32.3329C156.32 32.2256 156.299 32.1194 156.258 32.0203C156.217 31.9211 156.156 31.8313 156.08 31.7559C155.1 30.7575 153.928 29.9664 152.634 29.4295C151.34 28.8929 149.952 28.6217 148.551 28.6321C145.917 28.7144 143.419 29.816 141.586 31.7035C139.752 33.5909 138.727 36.1161 138.727 38.7445C138.727 41.3729 139.752 43.8981 141.586 45.7856C143.419 47.673 145.917 48.7746 148.551 48.8569C149.952 48.8757 151.343 48.6124 152.641 48.0825C153.938 47.5526 155.114 46.7671 156.1 45.773C156.177 45.6983 156.239 45.6084 156.28 45.5092C156.321 45.41 156.341 45.3034 156.339 45.196C156.341 44.9918 156.262 44.7954 156.12 44.6488H156.1Z" fill="#F1F1F1"/>
<path d="M26.5861 31.0424L26.571 31.0423C27.0164 31.0394 27.457 30.95 27.8681 30.7789C28.2841 30.6061 28.6617 30.3531 28.9797 30.0346C29.2975 29.7161 29.5494 29.3381 29.721 28.9225C29.8925 28.507 29.9802 28.0616 29.9792 27.6121V15.0246C30.024 14.5512 29.9692 14.0736 29.8184 13.6225C29.6674 13.1715 29.4237 12.7568 29.1028 12.4051C28.7821 12.0534 28.3911 11.7724 27.955 11.5802C27.5191 11.3879 27.0477 11.2886 26.571 11.2886C26.0942 11.2886 25.6228 11.3879 25.1867 11.5802C24.7508 11.7724 24.3598 12.0534 24.0389 12.4051C23.7181 12.7568 23.4744 13.1715 23.3235 13.6225C23.1727 14.0736 23.1179 14.5512 23.1625 15.0246V27.6121C23.1616 28.0616 23.2494 28.507 23.4209 28.9225C23.5924 29.3381 23.8442 29.7161 24.1622 30.0346C24.48 30.3531 24.8578 30.6061 25.2736 30.7789C25.6849 30.95 26.1255 31.0394 26.571 31.0423L26.5558 31.0424H26.5861Z" fill="#F1F1F1"/>
<path d="M18.5878 36.868C18.451 37.2958 18.231 37.6925 17.9401 38.0352C17.6492 38.378 17.2932 38.66 16.8927 38.865C16.4922 39.0699 16.0551 39.1941 15.6064 39.2299C15.1577 39.2658 14.7063 39.2129 14.2781 39.0743L2.34143 35.183C1.48413 34.8952 0.77509 34.2819 0.367962 33.476C-0.0391667 32.6702 -0.111592 31.7368 0.166381 30.8781C0.444351 30.0194 1.05033 29.3045 1.85299 28.8884C2.65568 28.4724 3.59039 28.3884 4.45459 28.6551L16.3913 32.5462C17.2564 32.8297 17.9735 33.4438 18.3854 34.2541C18.7972 35.0642 18.8698 36.0042 18.5878 36.868Z" fill="#F1F1F1"/>
<path d="M35.2326 38.0375C34.9413 37.6942 34.7209 37.2967 34.5843 36.868C34.3042 36.0042 34.378 35.0652 34.7894 34.2554C35.201 33.4457 35.9168 32.8313 36.7808 32.5462L48.725 28.6551C49.5891 28.3884 50.5239 28.4724 51.3266 28.8884C52.1292 29.3045 52.7352 30.0194 53.0132 30.8781C53.2912 31.7368 53.2188 32.6702 52.8116 33.476C52.4045 34.2819 51.6955 34.8952 50.8381 35.183L38.9015 39.0743C38.4728 39.214 38.0207 39.2678 37.5711 39.2325C37.1216 39.1971 36.6836 39.0733 36.2821 38.8683C35.8808 38.6632 35.5242 38.3809 35.2326 38.0375Z" fill="#F1F1F1"/>
<path d="M10.2337 62.0506C9.49786 61.5129 9.00525 60.7065 8.86335 59.8076C8.72145 58.9087 8.94179 57.9903 9.47625 57.253L16.8533 47.1059C17.117 46.7425 17.4498 46.4348 17.8329 46.2001C18.2159 45.9654 18.6417 45.8085 19.0857 45.7384C19.5297 45.6681 19.9833 45.6859 20.4203 45.7911C20.8574 45.8961 21.2693 46.0861 21.6326 46.3502C22.3685 46.888 22.861 47.6944 23.0029 48.5933C23.1448 49.4922 22.9245 50.4106 22.39 51.1481L15.0205 61.2876C14.7562 61.6511 14.4226 61.959 14.0389 62.1939C13.6551 62.4286 13.2288 62.5855 12.7841 62.6558C12.3395 62.7259 11.8854 62.7079 11.4477 62.6029C11.0101 62.4977 10.5975 62.3076 10.2337 62.0431V62.0506Z" fill="#F1F1F1"/>
<path d="M44.3085 59.8077C44.1665 60.7065 43.6739 61.5129 42.9381 62.0507V62.0809C42.5749 62.3451 42.163 62.5353 41.7259 62.6403C41.2888 62.7452 40.8353 62.7631 40.3913 62.693C39.9473 62.6227 39.5215 62.4658 39.1384 62.2311C38.7553 61.9965 38.4225 61.6887 38.1589 61.3255L30.7818 51.1406C30.5162 50.7774 30.3249 50.3657 30.2189 49.9287C30.1129 49.4919 30.0942 49.0384 30.1638 48.5943C30.2334 48.1501 30.3901 47.7241 30.6247 47.3403C30.8594 46.9566 31.1677 46.6228 31.5316 46.3579C31.8956 46.0929 32.3085 45.9021 32.7464 45.7963C33.1844 45.6905 33.6389 45.6719 34.0841 45.7413C34.5293 45.8108 34.9564 45.967 35.3411 46.2011C35.7258 46.4354 36.0604 46.7427 36.326 47.1059L43.6956 57.253C44.23 57.9903 44.4503 58.9088 44.3085 59.8077Z" fill="#F1F1F1"/>
</svg>
