<svg width="210" height="75" viewBox="0 0 210 75" fill="none" xmlns="http://www.w3.org/2000/svg">
<path d="M142.256 1.0382C142.765 1.56238 142.934 2.32707 142.7 3.01776C141.79 5.57701 140.908 9.6348 139.906 15.0031C138.901 20.3775 138.025 27.2134 138.025 37.4905C138.025 47.7676 138.901 54.6035 139.906 59.978C140.908 65.3493 141.775 69.3917 142.681 71.9509C142.803 72.2896 142.826 72.6558 142.747 73.0069C142.668 73.358 142.492 73.6795 142.237 73.9341C141.983 74.1887 141.662 74.3658 141.311 74.4448C140.96 74.5239 140.594 74.5016 140.255 74.3807C137.696 73.4711 133.662 72.5892 128.291 71.5871C122.917 70.5819 116.081 69.7062 105.801 69.7062C95.5204 69.7062 88.6875 70.5819 83.31 71.5871C77.9386 72.5892 73.8808 73.4865 71.3216 74.393C70.9835 74.5104 70.6193 74.5317 70.2698 74.4544C69.9203 74.3771 69.5991 74.2042 69.342 73.9552C69.0935 73.7003 68.9214 73.3809 68.8451 73.0332C68.7688 72.6855 68.7914 72.3234 68.9104 71.9879C69.8231 69.4287 70.7142 65.3678 71.7163 59.9996C72.7246 54.6221 73.5972 47.7892 73.5972 37.5121C73.5972 27.235 72.7246 20.3991 71.7163 15.0246C70.7142 9.6533 69.8354 5.60784 68.9258 3.04859C68.8052 2.71008 68.7831 2.3443 68.8621 1.99374C68.941 1.64317 69.1179 1.3222 69.3719 1.0681C69.626 0.814004 69.947 0.6372 70.2976 0.558224C70.6481 0.479247 71.0139 0.50134 71.3524 0.621935C73.9117 1.53155 77.9571 2.41032 83.3285 3.41552C88.706 4.41764 95.5419 5.29641 105.822 5.29641C116.099 5.29641 122.935 4.41764 128.313 3.41552C133.684 2.41032 137.733 1.51921 140.292 0.609602C140.627 0.490865 140.988 0.468076 141.335 0.543809C141.682 0.619542 142.001 0.790782 142.256 1.0382Z" fill="#E20026"/>
<path fill-rule="evenodd" clip-rule="evenodd" d="M87.422 26.4605V23.3092C87.422 22.5137 87.0921 22.082 86.2626 22.082H82.6797V25.2333C82.6797 26.0319 83.0127 26.4605 83.8421 26.4605H87.422ZM87.422 48.026V30.4381C87.422 29.6426 87.0921 29.2109 86.2626 29.2109H82.6797V46.7957C82.6797 47.5912 83.0127 48.0229 83.8421 48.0229H87.422V48.026ZM99.361 32.5996C98.0043 32.5996 96.9406 33.2965 95.8459 34.388V44.3783C96.5952 44.6312 97.3784 44.7668 98.1678 44.773C101.19 44.773 102.481 42.8828 102.481 38.8035C102.481 34.5884 101.421 32.5996 99.3641 32.5996H99.361ZM91.1036 46.2345C91.1036 47.064 91.4366 47.2644 92.2969 47.5296C93.8232 47.9921 96.0464 48.2912 97.9365 48.2912C104.868 48.2912 107.489 44.2766 107.489 38.0388C107.489 32.8648 105.895 28.7176 100.656 28.7176C98.8985 28.7176 97.141 29.5131 95.8459 30.7742V23.3123C95.8459 22.5137 95.516 22.082 94.6866 22.082H91.1036V46.2345ZM114.951 30.4412V48.026H111.368C110.542 48.026 110.209 47.5943 110.209 46.7988V29.214H113.791C114.621 29.214 114.951 29.6457 114.951 30.4412ZM114.951 26.4636V23.3092C114.951 22.5137 114.621 22.082 113.788 22.082H110.209V25.2333C110.209 26.0319 110.542 26.4605 111.368 26.4605H114.951V26.4636ZM125.065 36.2504C127.411 37.2741 130.473 38.6092 130.473 42.6177C130.473 46.1328 127.621 48.2912 123.609 48.2912C121.75 48.2912 120.094 48.0568 118.765 47.6282C118.52 47.5226 118.313 47.3452 118.171 47.1195C118.029 46.8939 117.959 46.6305 117.97 46.364V43.9775C119.496 44.3783 121.485 44.7082 122.78 44.7082C124.935 44.7082 125.795 44.0761 125.795 42.8828C125.795 41.6433 124.439 41.0328 122.844 40.3205C120.557 39.2937 117.769 38.0449 117.769 34.3911C117.769 31.4372 119.761 28.9827 124.204 28.9827C125.712 28.9766 127.211 29.1986 128.651 29.6457C129.181 29.8122 129.48 30.3425 129.48 30.9068V33.2965C128.05 32.8517 126.565 32.6058 125.068 32.5657C122.878 32.5657 122.413 33.2286 122.413 34.1228C122.413 35.091 123.6 35.609 125.065 36.2504Z" fill="white"/>
<path d="M97.6231 60.2624C97.4471 60.2624 97.3779 60.1773 97.3779 60.0043V58.3245H95.6723V60.2624H95.0098C94.8338 60.2624 94.7656 60.1773 94.7656 60.0043V55.8457H95.4291C95.6051 55.8457 95.6723 55.9317 95.6723 56.1028V57.5987H97.3779V55.8457H98.0403C98.2173 55.8457 98.2855 55.9317 98.2855 56.1028V60.2624H97.6231Z" fill="white"/>
<path d="M101.857 58.0496C101.857 56.8749 101.538 56.4696 100.92 56.4696C100.288 56.4696 99.9757 56.9521 99.9757 58.0496C99.9757 59.2261 100.295 59.6394 100.912 59.6394C101.546 59.6394 101.857 59.148 101.857 58.0496ZM99.0156 58.0584C99.0156 56.5704 99.6781 55.73 100.957 55.73C102.17 55.73 102.817 56.4854 102.817 58.0496C102.817 59.5307 102.155 60.38 100.873 60.38C99.6623 60.38 99.0156 59.6236 99.0156 58.0584Z" fill="white"/>
<path d="M104.564 60.2624C104.389 60.2624 104.321 60.1773 104.321 60.0043V56.5704H103.094V56.1107C103.094 55.9317 103.163 55.8457 103.337 55.8457H106.452V56.3213C106.452 56.5012 106.369 56.5704 106.202 56.5704H105.227V60.2624H104.564Z" fill="white"/>
<path d="M110.073 59.9361C110.073 60.0834 110.003 60.1773 109.873 60.208C109.509 60.294 108.991 60.3257 108.632 60.3257C107.293 60.3257 107.078 59.8807 107.078 58.7289V55.8457H109.921V56.3213C109.921 56.5012 109.837 56.5704 109.669 56.5704H107.986V57.5987H109.73V58.0743C109.73 58.2533 109.646 58.3245 109.479 58.3245H107.986V58.7289C107.986 59.4912 108.169 59.6009 108.869 59.6009C109.227 59.6009 109.723 59.5465 110.073 59.4605V59.9361Z" fill="white"/>
<path d="M113.48 59.9361C113.48 60.0834 113.412 60.1773 113.282 60.208C112.91 60.294 112.59 60.3257 112.247 60.3257C110.997 60.3257 110.77 59.8807 110.77 58.7289V55.8457H111.432C111.606 55.8457 111.675 55.9317 111.675 56.1018V58.7289C111.675 59.4912 111.881 59.6009 112.482 59.6009C112.825 59.6009 113.145 59.5465 113.48 59.4605V59.9361Z" fill="white"/>
<path d="M115.31 60.3258C114.885 60.3258 114.534 60.2784 114.228 60.1775C114.116 60.1311 114.046 60.0361 114.046 59.9046V59.4449C114.397 59.5398 114.824 59.6169 115.151 59.6169C115.708 59.6169 115.951 59.43 115.951 59.0632C115.951 58.2297 114 58.471 114 57.0146C114 56.3373 114.452 55.7915 115.433 55.7915C115.86 55.7915 116.142 55.8548 116.424 55.9398C116.546 55.9794 116.614 56.0802 116.614 56.2127V56.6735C116.286 56.5706 115.928 56.5014 115.6 56.5014C115.037 56.5014 114.9 56.6873 114.9 56.9602C114.9 57.7087 116.842 57.4892 116.842 59.0177C116.842 59.8028 116.249 60.3258 115.31 60.3258Z" fill="white"/>
</svg>
