<svg width="210" height="75" viewBox="0 0 210 75" fill="none" xmlns="http://www.w3.org/2000/svg">
<path d="M161.451 59.3157H163.424L164.066 55.9205C164.296 55.9205 164.571 55.9664 164.892 55.9664C166.039 55.9664 167.094 55.6911 167.874 55.0946C168.608 54.5441 169.159 53.6265 169.159 52.4336C169.159 51.516 168.792 50.8736 168.15 50.4607C167.461 49.956 166.498 49.8184 165.672 49.8184C164.754 49.8184 163.837 49.9101 163.24 50.0478L161.451 59.3157ZM164.892 51.5618C165.076 51.5159 165.351 51.516 165.718 51.516C166.498 51.516 167.14 51.7912 167.14 52.7088C167.14 53.6265 166.36 54.4064 165.122 54.4064C164.8 54.4064 164.571 54.3606 164.342 54.3606L164.892 51.5618ZM151.587 49.956L150.623 55.1864C150.531 55.6452 150.486 56.104 150.486 56.517C150.486 58.5357 151.678 59.4992 153.605 59.4992C156.129 59.4992 157.414 58.1228 157.918 55.3241L158.928 50.0019H156.955L155.945 55.4158C155.624 57.1593 154.936 57.8475 153.881 57.8475C152.963 57.8475 152.504 57.251 152.504 56.517C152.504 56.104 152.55 55.737 152.596 55.4158L153.605 50.0478L151.587 49.956ZM146.907 53.7182C146.907 51.4701 145.622 49.8184 143.145 49.8184C141.814 49.8184 140.621 50.323 139.749 51.1489C138.648 52.2042 138.006 53.9017 138.006 55.5535C138.006 57.7099 139.382 59.4533 141.814 59.4533C143.191 59.4533 144.383 58.9486 145.255 58.1228C146.31 57.0675 146.907 55.4158 146.907 53.7182ZM141.264 52.1583C141.676 51.6995 142.227 51.4701 142.869 51.4701C144.338 51.4701 144.75 52.6171 144.75 53.7641C144.75 54.8652 144.338 56.3793 143.603 57.1134C143.191 57.5263 142.594 57.8016 142.044 57.8016C140.667 57.8016 140.071 56.8381 140.071 55.5076C140.117 54.3606 140.529 52.8924 141.264 52.1583ZM126.995 59.3157H128.968L129.656 55.6452H130.252C131.032 55.6452 131.445 56.0123 131.537 57.1134C131.629 58.2604 131.72 59.0863 131.812 59.3157H133.877C133.693 58.9486 133.647 57.7098 133.51 56.6546C133.418 55.8287 133.189 55.1864 132.638 54.957V54.9111C133.831 54.4982 134.748 53.6723 134.748 52.25C134.748 51.3783 134.29 50.7818 133.693 50.4148C133.051 50.0019 132.133 49.8642 131.216 49.8642C130.298 49.8642 129.335 49.956 128.738 50.0936L126.995 59.3157ZM130.482 51.516C130.665 51.4701 130.894 51.4242 131.262 51.4242C132.042 51.4242 132.684 51.7453 132.684 52.5253C132.684 53.4429 131.904 54.0853 130.803 54.0853H129.977L130.482 51.516ZM122.911 58.8569C122.177 59.0863 121.076 59.3616 119.883 59.3616C118.598 59.3616 117.543 59.0404 116.763 58.3522C116.029 57.664 115.57 56.6546 115.57 55.4617C115.57 53.7182 116.304 52.2042 117.497 51.1948C118.553 50.323 120.021 49.8184 121.627 49.8184C122.865 49.8184 123.737 50.0478 124.104 50.2313L123.508 51.9289C123.095 51.7454 122.361 51.5618 121.535 51.5618C120.617 51.5618 119.791 51.8371 119.149 52.2959C118.323 52.9382 117.818 54.0394 117.818 55.3241C117.818 56.884 118.736 57.664 120.204 57.664C120.663 57.664 120.984 57.6181 121.214 57.4805L121.581 55.5076H120.113L120.434 53.9017H123.829L122.911 58.8569Z" fill="#034EA2"/>
<path fill-rule="evenodd" clip-rule="evenodd" d="M167.098 20.868H164.116L161.226 38.3945H164.254L164.942 34.357H163.336L164.162 29.2642H172.283L170.585 39.5874L165.584 43.6708H158.427L154.619 39.5415L154.802 38.578L157.922 19.6293L162.877 15.5459H170.126L173.843 19.6293L172.65 26.7867H166.089L167.098 20.868ZM147.324 32.063L145.397 43.6249H151.682L153.609 32.063L150.994 29.2184L154.435 26.9243L155.628 19.5834L151.958 15.5H140.854L136.266 43.6249H142.781L144.708 32.063H147.324ZM149.113 20.868L148.149 26.8325H145.443L146.406 20.868H149.113ZM126.586 15.5459H138.515L137.643 20.8222H132.183L131.311 26.0985H135.808L134.936 31.3747H130.44L129.292 38.3486H134.752L133.881 43.6249H121.906L126.586 15.5459ZM118.465 29.2642L121.997 26.4655L123.236 19.0787L120.07 15.5459H108.738L104.15 43.6708H115.482L120.438 39.5874L121.676 32.0171L118.465 29.2642ZM115.069 32.1088L114.06 38.3945H111.491L112.5 32.1088H115.069ZM116.905 20.868L115.941 26.8325H113.326L114.289 20.868H116.905ZM96.1666 38.3486L99.9288 15.5459H106.444L102.498 39.5874L97.543 43.6708H90.4774L86.7151 39.5874L90.6609 15.5459H97.1759L93.4596 38.3486H96.1666ZM79.053 38.4404H75.2908L73.8685 43.6708H67.537L76.1167 15.5459H85.5681L85.1093 43.6708H78.7319L79.053 38.4404ZM79.6495 20.8222L76.5755 33.1182H79.3742L80.1083 20.8222H79.6495ZM59.2785 15.5459L54.6904 43.6708H66.2064L67.8581 38.3945H62.0772L65.7935 15.5918H59.2785V15.5459ZM51.2034 29.2642L54.3233 32.0171L53.0845 39.5874L48.1294 43.6708H36.7969L41.385 15.5459H52.7175L55.8833 19.0787L54.6904 26.4655L51.2034 29.2642ZM47.7624 32.1088H45.193L44.1837 38.3945H46.753L47.7624 32.1088ZM49.6435 20.868H47.0742L46.1107 26.8325H48.68L49.6435 20.868Z" fill="black"/>
</svg>
