<svg width="209" height="75" viewBox="0 0 209 75" fill="none" xmlns="http://www.w3.org/2000/svg">
<rect x="68" y="0.0117188" width="73" height="74" rx="6" fill="#F1F1F1"/>
<path d="M89.6816 18.6523H86.3066L82.9668 24.0664L79.627 18.6523H76.1816L81.4199 26.7734V32.0117H84.4434V26.8086L89.6816 18.6523ZM96.5723 32.1875C100.545 32.1875 103.217 29.4453 103.217 25.332C103.217 21.1836 100.58 18.4766 96.5723 18.4766C92.5996 18.4766 89.9277 21.2188 89.9277 25.332C89.9277 29.4805 92.5645 32.1875 96.5723 32.1875ZM96.5723 29.5859C94.4277 29.5859 93.0215 27.8984 93.0215 25.332C93.0215 22.7656 94.4277 21.0781 96.5723 21.0781C98.7168 21.0781 100.123 22.7656 100.123 25.332C100.123 27.8984 98.7168 29.5859 96.5723 29.5859ZM111.373 32.1875C115.1 32.1875 117.35 30.0078 117.35 26.6328V18.6523H114.326V26.5273C114.326 28.4258 113.271 29.5156 111.373 29.5156C109.475 29.5156 108.42 28.4258 108.42 26.5273V18.6523H105.396V26.6328C105.396 30.0078 107.646 32.1875 111.373 32.1875ZM129.021 32.0117H132.396L129.162 26.668C130.779 26.0352 131.693 24.6992 131.693 22.8359C131.693 20.1992 129.83 18.6523 126.666 18.6523H120.76V32.0117H123.748V27.0898H126.174L129.021 32.0117ZM123.748 21.1836H126.455C127.896 21.1836 128.635 21.7812 128.635 22.9414C128.635 24.1016 127.896 24.7344 126.455 24.7344H123.748V21.1836ZM81.6133 54.2695V43.6523H78.5898V57.0117H88.1523V54.2695H81.6133ZM95.1133 57.1875C99.0859 57.1875 101.758 54.4453 101.758 50.332C101.758 46.1836 99.1211 43.4766 95.1133 43.4766C91.1406 43.4766 88.4688 46.2188 88.4688 50.332C88.4688 54.4805 91.1055 57.1875 95.1133 57.1875ZM95.1133 54.5859C92.9688 54.5859 91.5625 52.8984 91.5625 50.332C91.5625 47.7656 92.9688 46.0781 95.1133 46.0781C97.2578 46.0781 98.6641 47.7656 98.6641 50.332C98.6641 52.8984 97.2578 54.5859 95.1133 54.5859ZM110.301 50.0508V52.125H113.324C112.867 53.8125 111.602 54.6562 110.055 54.6562C107.875 54.6562 106.539 53.0391 106.539 50.332C106.539 47.6602 107.91 46.0078 110.16 46.0078C111.602 46.0078 112.656 46.7812 113.184 48.0469L115.961 46.9922C115.012 44.7422 112.973 43.4766 110.266 43.4766C106.117 43.4766 103.445 46.2188 103.445 50.4023C103.445 54.4805 105.906 57.1875 109.633 57.1875C111.496 57.1875 112.902 56.4844 113.816 55.1484L113.992 57.0117H116.207V50.0508H110.301ZM124.715 57.1875C128.688 57.1875 131.359 54.4453 131.359 50.332C131.359 46.1836 128.723 43.4766 124.715 43.4766C120.742 43.4766 118.07 46.2188 118.07 50.332C118.07 54.4805 120.707 57.1875 124.715 57.1875ZM124.715 54.5859C122.57 54.5859 121.164 52.8984 121.164 50.332C121.164 47.7656 122.57 46.0781 124.715 46.0781C126.859 46.0781 128.266 47.7656 128.266 50.332C128.266 52.8984 126.859 54.5859 124.715 54.5859Z" fill="#373737"/>
</svg>
