<svg width="210" height="75" viewBox="0 0 210 75" fill="none" xmlns="http://www.w3.org/2000/svg">
<path d="M71.6913 18.8914V48.2842L57.8446 18.8914L41.2056 18.8914L23.3711 56.7476H38.7227L40.7409 51.964L58.312 51.964L60.3302 56.7476H70.9861H105.728V46.4416L85.8027 46.4416V18.8914H71.6913ZM49.2029 32.322H49.85L54.2863 42.5524H44.7666L49.2029 32.322Z" fill="white"/>
<path fill-rule="evenodd" clip-rule="evenodd" d="M90.793 33.1957H105.719V41.085H90.793V33.1957Z" fill="white"/>
<path fill-rule="evenodd" clip-rule="evenodd" d="M165.66 45.9945C160.97 45.9945 157.166 42.1904 157.166 37.5015C157.166 32.8112 160.97 29.007 165.66 29.007C170.349 29.007 174.153 32.8112 174.153 37.5015C174.153 42.1904 170.349 45.9945 165.66 45.9945ZM165.66 17.5015C153.963 17.5015 144.477 26.4565 144.477 37.5015C144.477 41.2151 145.551 44.6909 147.419 47.671L135.963 36.4964L135.992 36.4613L150.556 18.8942H142.715L134.098 18.8942L124.619 30.9888L123.851 30.9888V18.8942H109.805V56.7504H123.915V44.36H124.746L138.159 56.7504L154.746 56.7504L156.062 55.3333C158.942 56.7193 162.205 57.5015 165.66 57.5015C177.356 57.5015 186.844 48.5437 186.844 37.5015C186.844 26.4565 177.356 17.5015 165.66 17.5015Z" fill="white"/>
</svg>
