<svg width="210" height="75" viewBox="0 0 210 75" fill="none" xmlns="http://www.w3.org/2000/svg">
<path d="M32.4629 9.39253C27.2953 13.5735 29.0836 20.1225 34.2266 23.5265C34.9296 23.9952 36.4836 25.2532 37.6799 25.7835C37.8526 25.8575 37.8156 26.1165 37.6183 26.1289C29.7743 26.9305 20.5983 27.7692 16.7256 35.6995C12.2733 44.8015 24.8409 59.3055 27.4309 63.1042C27.5419 63.2645 27.3569 63.4742 27.1843 63.3632C24.4956 61.7229 15.4429 55.3342 11.3606 48.7235C7.77159 42.9145 7.96893 35.2925 9.16526 28.5092C11.0523 17.7915 18.9209 8.84986 29.2563 5.4952C32.6356 4.40986 37.0509 4.2742 40.7016 4.2002C40.8989 4.2002 40.9606 4.4592 40.7879 4.54553C38.8763 5.54453 34.0909 8.07286 32.4629 9.39253Z" fill="#8AC758"/>
<path d="M41.6768 15.2752C40.6901 14.3749 40.7888 13.2279 41.3808 12.0686C42.7128 9.4909 46.3388 8.65224 49.0151 8.4179C52.0615 8.1589 55.6011 8.73857 58.1048 10.5762C60.8181 12.5619 62.8285 15.4356 64.5798 18.2599C70.6355 28.0649 71.0425 41.4466 64.7648 51.2146C62.8778 54.1499 57.0565 62.6476 53.6401 60.5139C47.6708 56.7769 34.2028 47.6626 35.9665 43.0006C37.9768 37.6726 52.4191 36.3159 56.6618 29.5202C57.2538 28.6076 57.6362 27.5346 57.5991 26.4369C57.4881 23.1809 54.7995 22.0956 52.2588 21.0102C48.9165 19.5919 45.6975 17.9146 42.6388 15.9782C42.3181 15.7686 41.9728 15.5342 41.6768 15.2629V15.2752Z" fill="#6C655E"/>
<path d="M162.394 43.6294C162.492 41.5327 162.591 39.5964 162.69 37.6231C170.891 40.6941 188.294 44.8997 188.503 37.6231C188.614 33.8244 161.234 37.5861 161.234 24.4634C161.234 13.4127 183.286 10.5021 196.236 17.9884C196.15 19.5794 196.039 21.4787 195.916 23.7727C187.406 20.7264 171.15 17.1867 170.867 25.1171C170.756 28.1511 187.763 28.8171 191.439 30.3834C198.296 33.3064 198.666 40.0897 192.586 44.6654C185.778 49.7837 171.693 49.4877 162.406 43.6541L162.394 43.6294Z" fill="#8FC761"/>
<path d="M83.153 27.5967H118.821V35.3297C109.781 35.3297 100.666 35.2803 91.3793 35.2803C91.256 37.1797 91.256 38.5117 91.2806 40.4357H119.117C119.117 43.445 119.092 45.5663 119.117 48.1933H83.1406V27.5967H83.153Z" fill="#8FC860"/>
<path d="M32.502 9.25668C32.502 9.25668 32.4897 9.25668 32.4774 9.25668L32.3047 8.98535L32.502 9.24435V9.25668Z" fill="#8AC758"/>
<path d="M144.846 21.5406V47.8476H136.743V21.2323C131.624 21.2323 126.777 21.2569 121.918 21.2569V14.1899H158.634C158.745 16.0523 158.486 18.8643 158.634 21.4913C154.367 21.5653 149.804 21.2446 144.846 21.5406Z" fill="#8FC761"/>
<path d="M83.0781 20.7144V13.6104H118.845V20.7144H83.0781Z" fill="#746D67"/>
<path d="M90.4961 60.7109V63.9688C90.375 64.1289 90.1855 64.3047 89.9277 64.4961C89.6738 64.6836 89.3359 64.8457 88.9141 64.9824C88.4922 65.1191 87.9668 65.1875 87.3379 65.1875C86.8027 65.1875 86.3125 65.0977 85.8672 64.918C85.4219 64.7344 85.0371 64.4668 84.7129 64.1152C84.3926 63.7637 84.1445 63.3359 83.9688 62.832C83.793 62.3242 83.7051 61.7461 83.7051 61.0977V60.5059C83.7051 59.8613 83.7852 59.2871 83.9453 58.7832C84.1094 58.2754 84.3438 57.8457 84.6484 57.4941C84.9531 57.1426 85.3203 56.877 85.75 56.6973C86.1836 56.5137 86.6738 56.4219 87.2207 56.4219C87.9199 56.4219 88.498 56.5391 88.9551 56.7734C89.416 57.0039 89.7715 57.3242 90.0215 57.7344C90.2715 58.1445 90.4297 58.6133 90.4961 59.1406H89.0547C89.0078 58.8438 88.916 58.5781 88.7793 58.3438C88.6465 58.1094 88.4551 57.9258 88.2051 57.793C87.959 57.6562 87.6387 57.5879 87.2441 57.5879C86.9043 57.5879 86.6055 57.6523 86.3477 57.7812C86.0898 57.9102 85.875 58.0996 85.7031 58.3496C85.5352 58.5996 85.4082 58.9043 85.3223 59.2637C85.2363 59.623 85.1934 60.0332 85.1934 60.4941V61.0977C85.1934 61.5664 85.2422 61.9824 85.3398 62.3457C85.4414 62.709 85.5859 63.0156 85.7734 63.2656C85.9648 63.5156 86.1973 63.7051 86.4707 63.834C86.7441 63.959 87.0527 64.0215 87.3965 64.0215C87.7324 64.0215 88.0078 63.9941 88.2227 63.9395C88.4375 63.8809 88.6074 63.8125 88.7324 63.7344C88.8613 63.6523 88.9609 63.5742 89.0312 63.5V61.8066H87.2559V60.7109H90.4961ZM105.205 56.5391H108.223C108.871 56.5391 109.424 56.6367 109.881 56.832C110.338 57.0273 110.687 57.3164 110.93 57.6992C111.176 58.0781 111.299 58.5469 111.299 59.1055C111.299 59.5312 111.221 59.9062 111.064 60.2305C110.908 60.5547 110.687 60.8281 110.402 61.0508C110.117 61.2695 109.777 61.4395 109.383 61.5605L108.937 61.7773H106.225L106.213 60.6113H108.246C108.598 60.6113 108.891 60.5488 109.125 60.4238C109.359 60.2988 109.535 60.1289 109.652 59.9141C109.773 59.6953 109.834 59.4492 109.834 59.1758C109.834 58.8789 109.775 58.6211 109.658 58.4023C109.545 58.1797 109.369 58.0098 109.131 57.8926C108.892 57.7715 108.59 57.7109 108.223 57.7109H106.676V65.0703H105.205V56.5391ZM110.074 65.0703L108.07 61.2383L109.611 61.2324L111.644 64.9941V65.0703H110.074ZM132.646 60.5703V61.0391C132.646 61.6836 132.562 62.2617 132.394 62.7734C132.226 63.2852 131.986 63.7207 131.674 64.0801C131.365 64.4395 130.994 64.7148 130.56 64.9062C130.127 65.0938 129.646 65.1875 129.119 65.1875C128.596 65.1875 128.117 65.0938 127.683 64.9062C127.254 64.7148 126.881 64.4395 126.564 64.0801C126.248 63.7207 126.002 63.2852 125.826 62.7734C125.654 62.2617 125.568 61.6836 125.568 61.0391V60.5703C125.568 59.9258 125.654 59.3496 125.826 58.8418C125.998 58.3301 126.24 57.8945 126.553 57.5352C126.869 57.1719 127.242 56.8965 127.672 56.709C128.105 56.5176 128.584 56.4219 129.107 56.4219C129.635 56.4219 130.115 56.5176 130.549 56.709C130.982 56.8965 131.355 57.1719 131.668 57.5352C131.98 57.8945 132.221 58.3301 132.389 58.8418C132.56 59.3496 132.646 59.9258 132.646 60.5703ZM131.176 61.0391V60.5586C131.176 60.082 131.129 59.6621 131.035 59.2988C130.945 58.9316 130.81 58.625 130.631 58.3789C130.455 58.1289 130.238 57.9414 129.98 57.8164C129.722 57.6875 129.431 57.623 129.107 57.623C128.783 57.623 128.494 57.6875 128.24 57.8164C127.986 57.9414 127.769 58.1289 127.59 58.3789C127.414 58.625 127.279 58.9316 127.185 59.2988C127.092 59.6621 127.045 60.082 127.045 60.5586V61.0391C127.045 61.5156 127.092 61.9375 127.185 62.3047C127.279 62.6719 127.416 62.9824 127.596 63.2363C127.779 63.4863 127.998 63.6758 128.252 63.8047C128.506 63.9297 128.795 63.9922 129.119 63.9922C129.447 63.9922 129.738 63.9297 129.992 63.8047C130.246 63.6758 130.461 63.4863 130.637 63.2363C130.812 62.9824 130.945 62.6719 131.035 62.3047C131.129 61.9375 131.176 61.5156 131.176 61.0391ZM151.984 56.5391H153.449V62.2402C153.449 62.8887 153.308 63.4316 153.027 63.8691C152.746 64.3066 152.363 64.6367 151.879 64.8594C151.398 65.0781 150.861 65.1875 150.267 65.1875C149.654 65.1875 149.107 65.0781 148.627 64.8594C148.146 64.6367 147.767 64.3066 147.49 63.8691C147.217 63.4316 147.08 62.8887 147.08 62.2402V56.5391H148.545V62.2402C148.545 62.6504 148.615 62.9883 148.756 63.2539C148.896 63.5156 149.095 63.709 149.353 63.834C149.611 63.959 149.916 64.0215 150.267 64.0215C150.619 64.0215 150.922 63.959 151.176 63.834C151.433 63.709 151.633 63.5156 151.773 63.2539C151.914 62.9883 151.984 62.6504 151.984 62.2402V56.5391ZM171.369 61.8887H169.148V60.7227H171.369C171.756 60.7227 172.068 60.6602 172.306 60.5352C172.545 60.4102 172.718 60.2383 172.828 60.0195C172.941 59.7969 172.998 59.543 172.998 59.2578C172.998 58.9883 172.941 58.7363 172.828 58.502C172.718 58.2637 172.545 58.0723 172.306 57.9277C172.068 57.7832 171.756 57.7109 171.369 57.7109H169.599V65.0703H168.129V56.5391H171.369C172.029 56.5391 172.59 56.6562 173.05 56.8906C173.515 57.1211 173.869 57.4414 174.111 57.8516C174.353 58.2578 174.474 58.7227 174.474 59.2461C174.474 59.7969 174.353 60.2695 174.111 60.6641C173.869 61.0586 173.515 61.3613 173.05 61.5723C172.59 61.7832 172.029 61.8887 171.369 61.8887Z" fill="#6C655E"/>
</svg>
