<svg width="209" height="75" viewBox="0 0 209 75" fill="none" xmlns="http://www.w3.org/2000/svg">
<g clip-path="url(#clip0_2716_10247)">
<path d="M134.38 0.0117188H75.6196C71.4114 0.0117188 68 3.42314 68 7.63134V66.3921C68 70.6003 71.4114 74.0117 75.6196 74.0117H134.38C138.589 74.0117 142 70.6003 142 66.3921V7.63134C142 3.42314 138.589 0.0117188 134.38 0.0117188Z" fill="#F1F1F1"/>
<path d="M128.575 47.2144H81.4915V50.9571H128.575V47.2144Z" fill="#373737"/>
<path d="M94.9263 28.5465V24.7573H81.4915V42.5175H86.188V36.1919H93.7767V32.3821H86.188V28.5465H94.9263Z" fill="#373737"/>
<path d="M108.727 33.2947C110.609 32.4286 111.599 31.0573 111.599 29.3354C111.599 26.4639 109.465 24.7368 105.887 24.7368H96.7825V42.5176H105.98C109.893 42.5176 112.228 40.6617 112.228 37.5118C112.228 35.4806 110.934 33.9546 108.727 33.2947ZM101.386 28.3662H104.995C106.315 28.3662 107.026 28.9745 107.026 30.0932C107.026 31.2119 106.315 31.8151 104.995 31.8151H101.386V28.3662ZM105.32 38.9295H101.386V35.3775H105.371C106.691 35.3775 107.433 36.0116 107.433 37.2076C107.428 38.3263 106.691 38.9089 105.32 38.9089V38.9295Z" fill="#373737"/>
<path d="M123.229 31.7171L121.1 31.4129C118.992 31.1036 118.368 30.5881 118.368 29.6086C118.368 28.629 119.193 27.9588 121.028 27.9588C122.724 27.9588 123.554 28.5775 123.951 30.1241L128.426 29.5519C127.766 26.0514 125.25 24.3501 121.157 24.3501C116.569 24.3501 113.553 26.6442 113.553 30.1447C113.553 33.1606 115.383 34.9134 119.121 35.429L121.358 35.7383C123.729 36.0734 124.297 36.6147 124.297 37.6458C124.297 38.6768 123.42 39.2955 121.332 39.2955C120.587 39.3318 119.851 39.1189 119.241 38.6904C118.63 38.2619 118.18 37.6422 117.961 36.9292L113.321 37.6251C114.079 41.2339 116.826 42.8991 121.219 42.8991C126.194 42.8991 129.132 40.7648 129.132 37.1302C129.107 33.9597 127.287 32.31 123.229 31.7171Z" fill="#373737"/>
</g>
<defs>
<clipPath id="clip0_2716_10247">
<rect width="74" height="74" fill="white" transform="translate(68 0.0117188)"/>
</clipPath>
</defs>
</svg>
