<svg width="210" height="75" viewBox="0 0 210 75" fill="none" xmlns="http://www.w3.org/2000/svg">
<g clip-path="url(#clip0_4950_21885)">
<path d="M48.7029 48.5872L35.3984 29.4541H42.3674L51.8706 44.0257L61.1204 29.5808H68.0894L54.9117 48.5872V59.9911H48.7029V48.5872ZM68.8497 44.6592C68.8497 42.3785 69.2298 40.2244 70.1168 38.3238C71.0037 36.4231 72.1441 34.7759 73.6646 33.3821C75.1851 31.9883 77.0858 30.9746 79.1131 30.2144C81.2672 29.4541 83.6746 29.074 86.2088 29.074C88.743 29.074 91.1505 29.4541 93.3045 30.2144C95.4586 30.9746 97.2325 31.9883 98.8797 33.3821C100.4 34.7759 101.541 36.4231 102.428 38.3238C103.315 40.2244 103.695 42.3785 103.695 44.6592C103.695 46.94 103.315 49.0941 102.428 50.9947C101.541 52.8953 100.4 54.5426 98.8797 55.9364C97.3592 57.3302 95.4586 58.4705 93.3045 59.2308C91.1505 59.991 88.743 60.3712 86.2088 60.3712C83.5479 60.3712 81.2672 59.991 79.1131 59.2308C76.9591 58.4705 75.1851 57.3302 73.6646 55.9364C72.1441 54.5426 71.0037 52.8953 70.1168 50.9947C69.3565 49.0941 68.8497 46.94 68.8497 44.6592ZM75.0584 44.6592C75.0584 46.1797 75.3118 47.7003 75.9454 48.9673C76.4522 50.2344 77.3392 51.2481 78.3529 52.2618C79.3665 53.1487 80.5069 53.7823 81.9007 54.2891C83.2945 54.796 84.815 55.0494 86.3355 55.0494C87.8561 55.0494 89.5033 54.796 90.7704 54.2891C92.1642 53.7823 93.3046 53.1487 94.3182 52.2618C95.3319 51.3748 96.0922 50.2344 96.7257 48.9673C97.3592 47.7003 97.6127 46.3065 97.6127 44.6592C97.6127 43.1387 97.3592 41.6182 96.7257 40.4778C96.0922 39.2107 95.3319 38.1971 94.3182 37.3101C93.3046 36.4231 92.1642 35.7896 90.7704 35.2828C89.3766 34.7759 87.8561 34.6492 86.3355 34.6492C84.815 34.6492 83.1678 34.9026 81.9007 35.2828C80.5069 35.7896 79.3665 36.4231 78.3529 37.3101C77.3392 38.1971 76.5789 39.2107 75.9454 40.4778C75.3118 41.6182 75.0584 43.1387 75.0584 44.6592ZM123.588 38.3238L126.502 34.7759H108.13V29.4541H138.033L120.927 50.9947L117.886 54.796H137.019V60.1178H106.609L123.588 38.3238ZM85.3219 22.105H76.8324L82.9144 14.5024H91.4039L85.3219 22.105ZM78.733 21.218H84.815L89.5033 15.3894H83.2945L78.733 21.218ZM97.3592 22.105H88.8697L94.9518 14.5024H103.441L97.3592 22.105ZM90.7704 21.218H96.9791L101.667 15.3894H95.4586L90.7704 21.218ZM143.101 29.4541H149.31V59.9911H143.101V29.4541ZM168.19 29.4541H174.398V59.9911H168.19V29.4541Z" fill="white"/>
<path d="M148.423 40.2244H169.33V45.5462H148.423V40.2244Z" fill="white"/>
</g>
<defs>
<clipPath id="clip0_4950_21885">
<rect width="139" height="45.9954" fill="white" transform="translate(35.3984 14.5024)"/>
</clipPath>
</defs>
</svg>
