<svg width="210" height="75" viewBox="0 0 210 75" fill="none" xmlns="http://www.w3.org/2000/svg">
<g clip-path="url(#clip0_4950_21649)">
<path d="M112.609 21.7101C112.605 22.6537 112.322 23.575 111.794 24.3576C111.267 25.1403 110.52 25.7492 109.647 26.1076C108.774 26.4659 107.815 26.5577 106.89 26.3712C105.965 26.1847 105.116 25.7283 104.45 25.0597C103.784 24.3911 103.332 23.5402 103.149 22.6145C102.966 21.6888 103.062 20.7296 103.424 19.8583C103.786 18.9869 104.398 18.2423 105.183 17.7184C105.968 17.1946 106.89 16.915 107.834 16.915C108.462 16.9163 109.084 17.0414 109.664 17.2831C110.244 17.5248 110.771 17.8783 111.214 18.3236C111.658 18.7689 112.009 19.2971 112.248 19.8782C112.488 20.4592 112.61 21.0817 112.609 21.7101Z" fill="#F4D400"/>
<path d="M124.964 21.7106C124.96 22.6542 124.677 23.5754 124.15 24.3581C123.623 25.1407 122.876 25.7497 122.003 26.1081C121.13 26.4664 120.171 26.5582 119.245 26.3717C118.321 26.1852 117.472 25.7288 116.806 25.0602C116.14 24.3916 115.687 23.5407 115.504 22.615C115.322 21.6892 115.418 20.7301 115.779 19.8587C116.141 18.9874 116.754 18.2428 117.538 17.7189C118.323 17.1951 119.246 16.9155 120.189 16.9155C120.818 16.9168 121.44 17.0419 122.02 17.2836C122.6 17.5253 123.126 17.8788 123.57 18.3241C124.013 18.7693 124.365 19.2976 124.604 19.8786C124.843 20.4597 124.966 21.0822 124.964 21.7106Z" fill="#F4D400"/>
<path d="M79.2315 37.9665L85.2542 30.6461C85.6901 30.121 85.4425 29.5266 84.7887 29.5266H80.2715C80.0337 29.5295 79.7997 29.5864 79.587 29.6927C79.3743 29.7991 79.1883 29.9523 79.0432 30.1408L74.9224 35.4008V30.4478C74.9423 30.3131 74.9306 30.1756 74.8878 30.0462C74.8452 29.917 74.7729 29.7994 74.6766 29.7031C74.5803 29.6068 74.4626 29.5343 74.3333 29.4917C74.2039 29.449 74.0665 29.4372 73.9317 29.4573H70.6231C70.4881 29.435 70.3495 29.4453 70.2193 29.4871C70.0889 29.529 69.9702 29.6014 69.8734 29.6982C69.7767 29.7951 69.7043 29.9136 69.6624 30.044C69.6206 30.1742 69.6103 30.3128 69.6326 30.4478V47.4466C69.6103 47.5816 69.6206 47.7201 69.6624 47.8505C69.7043 47.9808 69.7767 48.0993 69.8734 48.1963C69.9702 48.293 70.0889 48.3654 70.2193 48.4074C70.3495 48.4492 70.4881 48.4594 70.6231 48.4371H73.9515C74.0867 48.4594 74.2252 48.4492 74.3555 48.4074C74.4859 48.3654 74.6044 48.293 74.7012 48.1963C74.7981 48.0993 74.8705 47.9808 74.9123 47.8505C74.9542 47.7201 74.9644 47.5816 74.9422 47.4466V40.8788L80.4993 47.813C80.6217 48.0022 80.7866 48.1598 80.9812 48.2734C81.1755 48.3869 81.394 48.4532 81.6188 48.4668H86.3142C86.4402 48.4662 86.5634 48.4295 86.6693 48.3615C86.7753 48.2934 86.8597 48.1966 86.9126 48.0823C86.9656 47.9681 86.9849 47.8411 86.9684 47.7162C86.952 47.5914 86.9002 47.4738 86.8195 47.3771L79.2315 37.9665Z" fill="#0087E6"/>
<path d="M172.497 29.4458H158.36C158.147 29.4458 157.942 29.5307 157.791 29.6818C157.64 29.8329 157.555 30.0379 157.555 30.2516V33.9226C157.555 34.1362 157.64 34.3412 157.791 34.4923C157.942 34.6435 158.147 34.7284 158.36 34.7284H162.817V47.6611C162.817 47.8748 162.902 48.0798 163.053 48.2309C163.205 48.382 163.409 48.4669 163.623 48.4669H167.264C167.478 48.4669 167.684 48.382 167.835 48.2309C167.986 48.0798 168.069 47.8748 168.069 47.6611V34.7284H172.478C172.692 34.7284 172.896 34.6435 173.047 34.4923C173.198 34.3412 173.283 34.1362 173.283 33.9226V30.2516C173.283 30.0379 173.198 29.8329 173.047 29.6818C172.896 29.5307 172.692 29.4458 172.478 29.4458" fill="#0087E6"/>
<path d="M130.771 44.2277H126.223V40.667H130.771C133.554 40.667 133.763 44.2277 130.771 44.2277ZM126.223 33.6949H129.654C130.051 33.6949 130.431 33.8525 130.712 34.133C130.992 34.4137 131.15 34.7943 131.15 35.1911C131.15 35.5878 130.992 35.9684 130.712 36.2489C130.431 36.5296 130.051 36.6872 129.654 36.6872H126.223V33.6949ZM134.821 38.0836C138.182 34.8518 135.938 29.4458 130.771 29.4458H121.894C121.68 29.4458 121.474 29.5308 121.323 29.6825C121.171 29.8339 121.086 30.0395 121.086 30.2537V47.659C121.086 47.8732 121.171 48.0788 121.323 48.2302C121.474 48.3817 121.68 48.4669 121.894 48.4669H131.639C138.401 48.4669 140.207 40.667 134.821 38.0836Z" fill="#0087E6"/>
<path d="M116.92 30.2542C116.92 30.04 116.835 29.8344 116.684 29.6829C116.532 29.5313 116.327 29.4463 116.113 29.4463H111.913C111.699 29.4463 111.494 29.5313 111.342 29.6829C111.191 29.8344 111.105 30.04 111.105 30.2542V47.6595C111.105 47.8737 111.191 48.0793 111.342 48.2307C111.494 48.3822 111.699 48.4674 111.913 48.4674H116.113C116.327 48.4674 116.532 48.3822 116.684 48.2307C116.835 48.0793 116.92 47.8737 116.92 47.6595V30.2542Z" fill="#0087E6"/>
<path d="M201.476 38.21H198.627V33.8281H201.405C203.278 33.8281 203.926 34.7044 203.926 35.9692C203.926 37.0547 203.428 38.1801 201.476 38.1801V38.21ZM201.875 29.4463H194.126C193.912 29.4463 193.708 29.5313 193.557 29.6826C193.404 29.8339 193.32 30.039 193.32 30.2529V47.6606C193.32 47.8746 193.404 48.0798 193.557 48.2311C193.708 48.3823 193.912 48.4674 194.126 48.4674H197.801C198.015 48.4674 198.221 48.3823 198.372 48.2311C198.523 48.0798 198.608 47.8746 198.608 47.6606V42.522H201.595C205.857 42.522 209.093 40.2813 209.093 36.039C209.093 32.0554 205.778 29.4762 201.814 29.4762" fill="#0087E6"/>
<path d="M179.529 40.968L181.615 34.7481L183.702 40.968H179.529ZM191.591 47.466L185.152 30.1778C185.091 29.9505 184.95 29.7526 184.755 29.6198C184.561 29.4868 184.324 29.4276 184.09 29.4524H179.191C178.956 29.4251 178.717 29.4831 178.521 29.6162C178.325 29.7493 178.181 29.9485 178.119 30.1778L171.661 47.466C171.595 47.5716 171.561 47.6936 171.563 47.8177C171.564 47.9418 171.601 48.0629 171.669 48.1669C171.736 48.2711 171.833 48.3537 171.945 48.4055C172.058 48.4573 172.183 48.4761 172.307 48.4595H176.419C176.593 48.4502 176.76 48.3909 176.902 48.2886C177.043 48.1864 177.151 48.0457 177.215 47.8833L178.059 45.3496H185.152L185.988 47.8833C186.051 48.0457 186.159 48.1864 186.3 48.2886C186.442 48.3909 186.609 48.4502 186.783 48.4595H190.897C191.02 48.4783 191.146 48.4613 191.26 48.4103C191.376 48.3595 191.472 48.2769 191.541 48.1724C191.61 48.0679 191.647 47.9459 191.649 47.8206C191.652 47.6955 191.617 47.5724 191.551 47.466" fill="#0087E6"/>
<path d="M107.075 47.6595V30.2542C107.075 30.04 106.99 29.8344 106.838 29.6829C106.687 29.5313 106.481 29.4463 106.267 29.4463H102.277C102.129 29.4481 101.983 29.4862 101.852 29.5575C101.722 29.6288 101.611 29.731 101.529 29.8553L94.0485 40.049V30.2542C94.0485 30.04 93.9633 29.8344 93.8119 29.6829C93.6603 29.5313 93.4548 29.4463 93.2405 29.4463H89.5501C89.3357 29.4463 89.1303 29.5313 88.9788 29.6829C88.8272 29.8344 88.7422 30.04 88.7422 30.2542V47.6595C88.7422 47.8737 88.8272 48.0793 88.9788 48.2307C89.1303 48.3822 89.3357 48.4674 89.5501 48.4674H93.5997C93.7466 48.464 93.8905 48.4251 94.0191 48.3539C94.1477 48.2827 94.2571 48.1812 94.3378 48.0584L101.819 37.8646V47.6595C101.819 47.8737 101.904 48.0793 102.055 48.2307C102.207 48.3822 102.412 48.4674 102.626 48.4674H106.307C106.522 48.4674 106.729 48.3827 106.882 48.2314C107.035 48.0801 107.122 47.8746 107.125 47.6595H107.075Z" fill="#0087E6"/>
<path d="M156.319 44.8602L154.14 42.5622C154.065 42.4689 153.969 42.3937 153.861 42.3421C153.753 42.2903 153.634 42.2636 153.514 42.2638C153.311 42.2678 153.116 42.3456 152.967 42.4826C151.801 43.5229 150.291 44.0936 148.729 44.0843C147.375 44.0843 146.077 43.5465 145.12 42.5895C144.163 41.6324 143.625 40.3344 143.625 38.9809C143.625 37.6273 144.163 36.3291 145.12 35.3721C146.077 34.415 147.375 33.8774 148.729 33.8774C150.29 33.8623 151.801 34.4298 152.967 35.469C153.114 35.6094 153.31 35.6877 153.514 35.688C153.634 35.688 153.753 35.6613 153.861 35.6097C153.969 35.5581 154.065 35.4828 154.14 35.3894L156.319 33.0914C156.461 32.9449 156.54 32.7483 156.538 32.5443C156.539 32.4371 156.518 32.3308 156.477 32.2318C156.436 32.1326 156.375 32.0427 156.299 31.9673C155.321 30.9689 154.152 30.1778 152.862 29.641C151.571 29.1043 150.186 28.8331 148.788 28.8436C146.161 28.9259 143.669 30.0275 141.84 31.9149C140.011 33.8023 138.988 36.3275 138.988 38.9559C138.988 41.5844 140.011 44.1096 141.84 45.997C143.669 47.8844 146.161 48.986 148.788 49.0683C150.186 49.0871 151.574 48.8238 152.868 48.2939C154.162 47.764 155.336 46.9785 156.319 45.9844C156.396 45.9097 156.457 45.8198 156.498 45.7206C156.539 45.6214 156.56 45.5148 156.558 45.4074C156.56 45.2033 156.481 45.0068 156.339 44.8602H156.319Z" fill="#0087E6"/>
<path d="M27.1217 31.2539L27.1065 31.2537C27.5509 31.2508 27.9905 31.1614 28.4006 30.9904C28.8155 30.8175 29.1922 30.5645 29.5094 30.246C29.8264 29.9275 30.0777 29.5496 30.2489 29.134C30.42 28.7184 30.5075 28.2731 30.5065 27.8235V15.236C30.5512 14.7626 30.4965 14.2851 30.346 13.834C30.1954 13.3829 29.9523 12.9682 29.6322 12.6165C29.3123 12.2648 28.9223 11.9838 28.4872 11.7916C28.0524 11.5993 27.5821 11.5 27.1065 11.5C26.631 11.5 26.1607 11.5993 25.7257 11.7916C25.2908 11.9838 24.9008 12.2648 24.5807 12.6165C24.2606 12.9682 24.0175 13.3829 23.867 13.834C23.7166 14.2851 23.6619 14.7626 23.7064 15.236V27.8235C23.7055 28.2731 23.7931 28.7184 23.9642 29.134C24.1352 29.5496 24.3865 29.9275 24.7037 30.246C25.0207 30.5645 25.3976 30.8175 25.8124 30.9904C26.2226 31.1614 26.6622 31.2508 27.1065 31.2537L27.0914 31.2539H27.1217Z" fill="#0087E6"/>
<path d="M19.144 37.079C19.0075 37.5068 18.7881 37.9034 18.4979 38.2462C18.2077 38.5889 17.8526 38.8709 17.4531 39.0759C17.0536 39.2809 16.6175 39.405 16.1699 39.4408C15.7223 39.4767 15.272 39.4238 14.8449 39.2852L2.93728 35.394C2.08207 35.1062 1.37476 34.4928 0.968627 33.6869C0.562491 32.8811 0.490243 31.9477 0.767537 31.089C1.04483 30.2304 1.64933 29.5154 2.45004 29.0994C3.25077 28.6833 4.1832 28.5994 5.04529 28.8661L16.9529 32.7572C17.8159 33.0406 18.5312 33.6548 18.9421 34.465C19.3529 35.2751 19.4254 36.2152 19.144 37.079Z" fill="#0087E6"/>
<path d="M35.7472 38.2484C35.4566 37.9052 35.2368 37.5076 35.1005 37.079C34.8211 36.2152 34.8947 35.2761 35.3051 34.4663C35.7157 33.6567 36.4297 33.0422 37.2916 32.7572L49.2067 28.8661C50.0687 28.5994 51.0012 28.6833 51.802 29.0994C52.6026 29.5154 53.2071 30.2304 53.4844 31.089C53.7618 31.9477 53.6896 32.8811 53.2833 33.6869C52.8772 34.4928 52.17 35.1062 51.3147 35.394L39.4072 39.2852C38.9795 39.4249 38.5286 39.4788 38.08 39.4434C37.6316 39.408 37.1946 39.2843 36.7942 39.0793C36.3939 38.8741 36.0381 38.5918 35.7472 38.2484Z" fill="#0087E6"/>
<path d="M10.8113 62.2616C10.0773 61.7238 9.58586 60.9174 9.4443 60.0185C9.30274 59.1197 9.52255 58.2012 10.0557 57.4639L17.4148 47.3168C17.6778 46.9535 18.0098 46.6458 18.3919 46.411C18.7741 46.1763 19.1988 46.0194 19.6418 45.9493C20.0847 45.879 20.5371 45.8969 20.9731 46.002C21.4091 46.107 21.82 46.297 22.1824 46.5612C22.9165 47.099 23.4078 47.9054 23.5494 48.8042C23.6909 49.7031 23.4711 50.6216 22.938 51.359L15.5864 61.4986C15.3227 61.8621 14.99 62.1699 14.6072 62.4048C14.2244 62.6396 13.7991 62.7965 13.3555 62.8667C12.912 62.9368 12.459 62.9188 12.0224 62.8138C11.5858 62.7087 11.1743 62.5185 10.8113 62.254V62.2616Z" fill="#0087E6"/>
<path d="M44.8037 60.0186C44.6621 60.9175 44.1706 61.7239 43.4367 62.2617V62.2919C43.0743 62.556 42.6634 62.7462 42.2274 62.8512C41.7914 62.9562 41.339 62.974 40.896 62.9039C40.4531 62.8337 40.0284 62.6768 39.6462 62.442C39.2641 62.2075 38.9321 61.8996 38.6691 61.5364L31.31 51.3515C31.0451 50.9884 30.8542 50.5766 30.7484 50.1397C30.6427 49.7028 30.624 49.2493 30.6935 48.8053C30.7629 48.3611 30.9192 47.935 31.1533 47.5513C31.3873 47.1675 31.6949 46.8338 32.0579 46.5688C32.4211 46.3039 32.833 46.113 33.2698 46.0072C33.7068 45.9015 34.1601 45.8828 34.6042 45.9523C35.0484 46.0217 35.4744 46.178 35.8582 46.4121C36.2419 46.6463 36.5757 46.9537 36.8406 47.3169L44.1923 57.464C44.7254 58.2013 44.9452 59.1197 44.8037 60.0186Z" fill="#0087E6"/>
</g>
<defs>
<clipPath id="clip0_4950_21649">
<rect width="209" height="51.4462" fill="white" transform="translate(0.601562 11.5)"/>
</clipPath>
</defs>
</svg>
