<svg width="209" height="75" viewBox="0 0 209 75" fill="none" xmlns="http://www.w3.org/2000/svg">
<rect x="68" y="0.5" width="73" height="74" rx="6" fill="#FE6F21"/>
<path d="M89.6816 19.1406L84.4434 27.2969V32.5H81.4199V27.2617L76.1816 19.1406H79.627L82.9668 24.5547L86.3066 19.1406H89.6816ZM96.5723 32.6758C92.5645 32.6758 89.9277 29.9688 89.9277 25.8203C89.9277 21.707 92.5996 18.9648 96.5723 18.9648C100.58 18.9648 103.217 21.6719 103.217 25.8203C103.217 29.9336 100.545 32.6758 96.5723 32.6758ZM96.5723 30.0742C98.7168 30.0742 100.123 28.3867 100.123 25.8203C100.123 23.2539 98.7168 21.5664 96.5723 21.5664C94.4277 21.5664 93.0215 23.2539 93.0215 25.8203C93.0215 28.3867 94.4277 30.0742 96.5723 30.0742ZM111.373 32.6758C107.646 32.6758 105.396 30.4961 105.396 27.1211V19.1406H108.42V27.0156C108.42 28.9141 109.475 30.0039 111.373 30.0039C113.271 30.0039 114.326 28.9141 114.326 27.0156V19.1406H117.35V27.1211C117.35 30.4961 115.1 32.6758 111.373 32.6758ZM129.021 32.5L126.174 27.5781H123.748V32.5H120.76V19.1406H126.666C129.83 19.1406 131.693 20.6875 131.693 23.3242C131.693 25.1875 130.779 26.5234 129.162 27.1562L132.396 32.5H129.021ZM123.748 21.6719V25.2227H126.455C127.896 25.2227 128.635 24.5898 128.635 23.4297C128.635 22.2695 127.896 21.6719 126.455 21.6719H123.748ZM81.6133 54.7578H88.1523V57.5H78.5898V44.1406H81.6133V54.7578ZM95.1133 57.6758C91.1055 57.6758 88.4688 54.9688 88.4688 50.8203C88.4688 46.707 91.1406 43.9648 95.1133 43.9648C99.1211 43.9648 101.758 46.6719 101.758 50.8203C101.758 54.9336 99.0859 57.6758 95.1133 57.6758ZM95.1133 55.0742C97.2578 55.0742 98.6641 53.3867 98.6641 50.8203C98.6641 48.2539 97.2578 46.5664 95.1133 46.5664C92.9688 46.5664 91.5625 48.2539 91.5625 50.8203C91.5625 53.3867 92.9688 55.0742 95.1133 55.0742ZM110.301 50.5391H116.207V57.5H113.992L113.816 55.6367C112.902 56.9727 111.496 57.6758 109.633 57.6758C105.906 57.6758 103.445 54.9688 103.445 50.8906C103.445 46.707 106.117 43.9648 110.266 43.9648C112.973 43.9648 115.012 45.2305 115.961 47.4805L113.184 48.5352C112.656 47.2695 111.602 46.4961 110.16 46.4961C107.91 46.4961 106.539 48.1484 106.539 50.8203C106.539 53.5273 107.875 55.1445 110.055 55.1445C111.602 55.1445 112.867 54.3008 113.324 52.6133H110.301V50.5391ZM124.715 57.6758C120.707 57.6758 118.07 54.9688 118.07 50.8203C118.07 46.707 120.742 43.9648 124.715 43.9648C128.723 43.9648 131.359 46.6719 131.359 50.8203C131.359 54.9336 128.688 57.6758 124.715 57.6758ZM124.715 55.0742C126.859 55.0742 128.266 53.3867 128.266 50.8203C128.266 48.2539 126.859 46.5664 124.715 46.5664C122.57 46.5664 121.164 48.2539 121.164 50.8203C121.164 53.3867 122.57 55.0742 124.715 55.0742Z" fill="white"/>
</svg>
