<svg width="210" height="75" viewBox="0 0 210 75" fill="none" xmlns="http://www.w3.org/2000/svg">
<rect x="68.6667" y="0.0756836" width="73" height="74" rx="6" fill="#F1F1F1"/>
<g clip-path="url(#clip0_2716_4246)">
<path d="M105.167 11.0757C90.829 11.0757 79.1667 22.7379 79.1667 37.0757C79.1667 51.4134 90.829 63.0757 105.167 63.0757C119.504 63.0757 131.167 51.4134 131.167 37.0757C131.167 22.7379 119.504 11.0757 105.167 11.0757ZM105.167 60.8118C92.0638 60.8118 81.4306 50.1785 81.4306 37.0757C81.4306 23.9728 92.0638 13.3395 105.167 13.3395C118.27 13.3395 128.903 23.9728 128.903 37.0757C128.903 50.1785 118.27 60.8118 105.167 60.8118Z" fill="#2B2B2B"/>
<path d="M120.808 30.1455L117.653 44.9633C116.967 48.1876 115.457 50.6573 113.125 52.2351C110.998 53.6758 108.186 54.3617 104.618 54.3617C98.3068 54.3617 95.1513 52.0293 95.1513 47.433C95.1513 46.6098 95.2883 45.718 95.4942 44.689L98.5812 30.0769H102.697L101.462 35.7707L108.871 35.8393L110.518 28.4304C110.655 27.813 110.724 27.1955 110.724 26.6468C110.724 23.9713 108.803 22.6679 104.824 22.6679C100.022 22.6679 97.3464 24.5887 96.5232 28.499L93.3676 43.1797H89.2515L92.4071 28.3617C93.0932 25.1375 94.6024 22.6679 96.9349 21.09C99.0615 19.6494 101.874 18.9634 105.441 18.9634C111.753 18.9634 114.908 21.2958 114.908 25.8922C114.908 26.7154 114.771 27.6072 114.565 28.6362L111.41 43.2483H107.362L108.254 39.0636L100.845 38.995L99.6103 44.8947C99.473 45.5122 99.4044 46.1296 99.4044 46.6785C99.4044 49.3539 101.325 50.6573 105.304 50.6573C110.106 50.6573 112.782 48.7365 113.605 44.8261L116.761 30.1455H120.808Z" fill="#2B2B2B"/>
</g>
<defs>
<clipPath id="clip0_2716_4246">
<rect width="52" height="52" fill="white" transform="translate(79.1667 11.0757)"/>
</clipPath>
</defs>
</svg>
