<svg width="209" height="75" viewBox="0 0 209 75" fill="none" xmlns="http://www.w3.org/2000/svg">
<path d="M52.3814 25.459H42.8203L35.3477 49.5407H41.9941L43.3711 44.693H52.0556L53.4326 49.5407H60.3177L52.8588 25.459H52.3814ZM45.0373 38.8224L47.0707 31.6338H48.333L50.3893 38.8224H45.0373Z" fill="#2768D4"/>
<path d="M180.944 25.4585H171.383L163.91 49.5402H170.561L171.938 44.6925H180.623L182 49.5402H188.885L181.426 25.4585H180.944ZM173.6 38.8219L175.633 31.6333H176.9L178.956 38.8219H173.6Z" fill="#2768D4"/>
<path d="M66.1602 25.4585H62.5938V49.5402H69.1071V31.6517H79.3521V25.4585H69.1071H66.1602Z" fill="#2768D4"/>
<path d="M92.9852 25.459H82.0195V49.5407H88.5466V42.4535H92.999C99.0671 42.4535 102.152 38.6334 102.152 33.9563C102.152 29.2791 99.0533 25.459 92.9852 25.459ZM92.9852 36.6059H88.5466V31.3066H92.999C94.7846 31.3066 95.6383 32.5093 95.6383 33.9563C95.6383 35.4032 94.7708 36.6059 92.9852 36.6059Z" fill="#2768D4"/>
<path d="M117.118 24.9429C109.815 24.9429 104.266 30.3804 104.266 37.4998C104.266 44.6193 109.815 50.0568 117.118 50.0568C124.421 50.0568 129.97 44.6239 129.97 37.4998C129.97 30.3758 124.416 24.9429 117.118 24.9429ZM117.118 43.5226C113.62 43.5226 111.119 41.0112 111.119 37.4998C111.119 33.9885 113.62 31.4771 117.118 31.4771C120.615 31.4771 123.113 33.9885 123.113 37.5044C123.113 41.0204 120.611 43.5226 117.118 43.5226Z" fill="#2768D4"/>
<path d="M155.022 25.4585H152.897L147.393 35.9234L141.963 25.4585H139.599H136.138H133.086V49.5402H139.599V34.8083L144.772 44.6925H149.775L155.022 34.7345V49.5402H161.531V25.4585H158.414H155.022Z" fill="#2768D4"/>
<path d="M209.002 25.4585H201.121H194.608H186.727V31.6517H194.608V49.5402H201.121V31.6517H209.002V25.4585Z" fill="#2768D4"/>
<path d="M25.4107 25.4585L16.1984 30.8315L6.9861 25.4585L0 37.5362L9.33622 42.983V49.5402H23.2488V42.8724L32.383 37.5362L25.4107 25.4585ZM16.1984 33.3567L18.6495 37.5915H13.7519L16.1984 33.3567ZM9.33622 41.1351L2.1757 36.9556L7.56445 27.6427L15.1105 32.0434L11.8975 37.5731L10.9795 39.1721L10.929 39.2596L9.72179 41.3471L9.33622 41.1351ZM21.656 47.9412H10.929V42.453L12.8247 39.1813H19.5767L21.656 42.7802V47.9412ZM22.6796 41.3563L21.656 39.596L21.4173 39.1813L20.4993 37.5823L17.2862 32.0526L24.8277 27.6519L30.2257 36.9556L23.2488 41.0245L22.6796 41.3563Z" fill="#2768D4"/>
</svg>
