<svg width="210" height="75" viewBox="0 0 210 75" fill="none" xmlns="http://www.w3.org/2000/svg">
<path fill-rule="evenodd" clip-rule="evenodd" d="M118.119 44.617L123.094 32.0133L127.516 37.3433L123.032 48.6929H86.6737L91.9556 35.3994H113.574L111.977 39.4752H96.9303L94.9036 44.5543H118.119V44.617ZM77.1542 39.7261L81.5762 45.056L88.6391 27.2478H82.0675L77.1542 39.7261ZM118.426 31.3236H93.5524L94.2894 29.3797C94.8421 28.0629 96.0091 27.1851 97.4216 27.1851H120.023L118.426 31.3236ZM207.48 31.3236H182.913L183.036 31.0728C183.958 28.69 186.107 27.2478 188.625 27.2478H209.2L207.48 31.3236ZM201.953 35.3994C204.102 35.3994 205.331 36.0892 205.945 37.0924C206.559 38.033 206.497 39.2871 206.129 40.3531L204.594 44.2408C204.041 45.6203 203.181 46.749 202.014 47.5015C200.909 48.2539 199.557 48.6929 198.083 48.6929H176.096L176.833 46.8117C177.386 45.4949 178.553 44.617 179.965 44.617H195.75C196.364 44.617 196.978 44.4289 197.469 44.1154C197.961 43.8019 198.329 43.3002 198.575 42.7359L199.864 39.5379H186.353C184.08 39.5379 182.115 37.7822 181.869 35.4621H201.953V35.3994ZM63.4583 28.69L80.1636 48.6929H76.6014C75.3731 48.6929 74.329 48.1912 73.5306 47.2506L56.8867 27.2478H60.3875C61.6158 27.2478 62.6599 27.7494 63.4583 28.69ZM181.624 27.2478H148.213L142.071 42.8613L130.279 28.69C129.481 27.7494 128.437 27.2478 127.209 27.2478H123.647L140.352 47.2506C141.15 48.1912 142.194 48.6929 143.423 48.6929H146.371L153.126 31.3236H179.965L181.624 27.2478ZM169.279 35.3994L163.997 48.6929H157.426L162.707 35.3994H169.279Z" fill="#939598"/>
<path fill-rule="evenodd" clip-rule="evenodd" d="M48.7795 36.6533C48.7795 36.9041 48.7795 37.2177 48.7795 37.4685C48.7795 47.6267 37.9088 55.9037 24.4585 55.9037C12.728 55.9037 2.96274 49.6332 0.628906 41.2308L8.55164 36.6533C8.55164 36.9668 8.55164 37.2177 8.55164 37.5312C8.55164 46.5607 15.7374 53.8345 24.5814 53.8345C31.9513 53.8345 38.093 48.7554 39.9969 41.9205L48.7795 36.6533Z" fill="#00ABE6"/>
<path fill-rule="evenodd" clip-rule="evenodd" d="M24.5202 19.0962C36.2507 19.0962 46.016 25.3667 48.3498 33.7692L40.5499 38.4093C40.5499 38.0958 40.5499 37.845 40.5499 37.5315C40.5499 28.5019 33.3642 21.2282 24.5202 21.2282C17.1502 21.2282 11.0085 26.3073 9.10462 33.1421L0.199219 38.3466C0.199219 38.0958 0.199219 37.7823 0.199219 37.5315C0.199219 27.3732 11.0699 19.0962 24.5202 19.0962Z" fill="#ED1C24"/>
<path fill-rule="evenodd" clip-rule="evenodd" d="M22.1246 27.2482L24.0285 23.9248C24.2128 23.9248 24.3356 23.9248 24.5199 23.9248C26.4852 23.9248 28.3277 24.3637 29.986 25.1162L24.5199 34.7728L22.1246 30.5715C21.5719 29.5055 21.5719 28.3142 22.1246 27.2482ZM26.8537 47.8154L24.9498 51.1388C24.7655 51.1388 24.6427 51.1388 24.4585 51.1388C22.4931 51.1388 20.6506 50.6998 18.9924 49.9474L24.4585 40.2908L26.8537 44.492C27.4679 45.4953 27.4679 46.7494 26.8537 47.8154ZM34.4079 40.5416C33.7938 39.4756 32.8111 38.8486 31.5828 38.8486H26.8537L32.3198 48.5679C33.978 47.3765 35.3292 45.7461 36.3119 43.9277L34.4079 40.5416ZM32.0741 30.258C30.9072 30.258 29.8631 30.8851 29.249 31.951L26.8537 36.1523H37.7859C37.6016 34.0203 36.8646 32.0137 35.8205 30.3207H32.0741V30.258ZM16.9656 44.7428C18.1326 44.7428 19.1766 44.1158 19.7908 43.0498L22.1861 38.8486H11.2539C11.4382 40.9806 12.1752 42.9871 13.2192 44.6801H16.9656V44.7428ZM14.6318 34.4592C15.246 35.5252 16.2286 36.1523 17.457 36.1523H22.1861L16.72 26.4957C15.0617 27.6871 13.7106 29.3174 12.7279 31.1359L14.6318 34.4592Z" fill="#939598"/>
</svg>
