<svg width="209" height="75" viewBox="0 0 209 75" fill="none" xmlns="http://www.w3.org/2000/svg">
<path d="M12.4961 64.8101H13.6275V68.0013L16.9533 64.8101H18.4333L15.3418 67.7263L18.4847 71.4102H17.0275L14.4504 68.4138L13.6275 69.1128V71.4102H12.4961V64.8101Z" fill="#F1F1F1"/>
<path d="M20.4495 68.1449C20.4495 68.5001 20.4895 68.8324 20.5524 69.136C20.6267 69.434 20.7353 69.6975 20.8781 69.9209C21.0267 70.1444 21.2095 70.3163 21.4267 70.4366C21.6438 70.5626 21.9067 70.6257 22.2038 70.6257C22.5181 70.6257 22.7867 70.5626 23.0153 70.4366C23.2438 70.3163 23.4267 70.1444 23.5753 69.9209C23.7238 69.6975 23.8324 69.434 23.901 69.136C23.9696 68.8324 24.0038 68.5001 24.0038 68.1449C24.0038 67.7667 23.9696 67.4287 23.901 67.1136C23.8324 66.8042 23.7238 66.5292 23.5753 66.3057C23.4267 66.0766 23.2438 65.9047 23.0153 65.7786C22.7867 65.6526 22.5181 65.5896 22.2038 65.5896C21.9067 65.5896 21.6438 65.6526 21.4267 65.7786C21.2095 65.9047 21.0267 66.0766 20.8781 66.3057C20.7353 66.5292 20.6267 66.8042 20.5524 67.1136C20.4895 67.4287 20.4495 67.7667 20.4495 68.1449ZM19.3467 64.8104H20.4781V65.7156H20.501C20.5753 65.5609 20.6667 65.4177 20.781 65.2802C20.8953 65.1484 21.0324 65.0281 21.1867 64.9307C21.3467 64.8276 21.5238 64.7474 21.7353 64.6901C21.941 64.6328 22.1753 64.6099 22.4438 64.6099C22.7981 64.6099 23.1353 64.6729 23.4553 64.8104C23.7867 64.9422 24.0724 65.1484 24.3238 65.4177C24.5696 65.687 24.7696 66.0307 24.9181 66.4375C25.0667 66.85 25.141 67.3198 25.141 67.8641C25.141 68.5459 25.0724 69.1188 24.9296 69.5944C24.7981 70.0699 24.6038 70.4595 24.3524 70.7574C24.0953 71.0554 23.7924 71.2788 23.4324 71.4106C23.0781 71.5481 22.6838 71.6111 22.2381 71.6111C22.0267 71.6111 21.821 71.5825 21.6324 71.5309C21.4438 71.4736 21.2781 71.3991 21.1238 71.3017C20.9753 71.21 20.8495 71.1069 20.741 70.9923L20.501 70.6658H20.4781V74.0117H19.3467V64.8104Z" fill="#F1F1F1"/>
<path d="M30.3812 68.0475L30.0498 68.2136C29.9184 68.2537 29.7698 68.2938 29.6098 68.3225C29.4498 68.3568 29.2784 68.3798 29.0955 68.4027C28.9184 68.4199 28.7355 68.4428 28.5583 68.4714C28.3526 68.5001 28.1641 68.5402 27.9926 68.5975C27.8212 68.6433 27.6726 68.7178 27.5412 68.8037L27.2441 69.1188C27.1755 69.2334 27.1469 69.3767 27.1469 69.5428C27.1469 69.7319 27.1698 69.898 27.2326 70.0413C27.2898 70.1902 27.3698 70.3105 27.4783 70.4079C27.5812 70.5053 27.7069 70.5798 27.8555 70.6257C28.0041 70.6772 28.1641 70.7059 28.3412 70.7059C28.4555 70.7059 28.5812 70.6887 28.7241 70.66C28.8669 70.6314 29.0098 70.5913 29.1641 70.5454C29.3184 70.4881 29.4669 70.4194 29.6098 70.3335C29.7584 70.2475 29.8898 70.1501 29.9984 70.0298C30.1184 69.9152 30.2098 69.7777 30.2784 69.623C30.3469 69.4683 30.3812 69.3022 30.3812 69.1131V68.0475ZM26.3012 66.787C26.3126 66.386 26.3869 66.0422 26.5241 65.7672C26.6669 65.4922 26.8555 65.2687 27.0955 65.0911C27.3298 64.9192 27.6155 64.7932 27.9412 64.7187C28.2612 64.6442 28.6212 64.6099 29.0041 64.6099C29.3298 64.6099 29.6384 64.6328 29.9355 64.7015C30.2384 64.7646 30.5069 64.8734 30.7412 65.0224C30.9755 65.1656 31.1641 65.3547 31.3069 65.5896C31.4441 65.8188 31.5127 66.0995 31.5127 66.4375V70.2762L31.5984 70.5512L31.8784 70.6658L32.0555 70.6486L32.2441 70.6199V71.3991L31.9698 71.4679L31.6384 71.4965C31.4441 71.4965 31.2726 71.4793 31.1298 71.4507L30.7755 71.2845L30.5469 70.9866C30.4955 70.8663 30.4612 70.7173 30.4441 70.5454C30.3069 70.6887 30.1584 70.8376 29.9984 70.9637C29.8441 71.0955 29.6726 71.21 29.4784 71.3017C29.2898 71.3991 29.0726 71.4793 28.8326 71.5309C28.5984 71.5882 28.3241 71.6111 28.0269 71.6111C27.7755 71.6111 27.5298 71.5767 27.2898 71.4908C27.0498 71.4106 26.8326 71.2903 26.6383 71.1298C26.4498 70.9694 26.3012 70.7689 26.1812 70.534C26.0669 70.2934 26.0098 70.0241 26.0098 69.709C26.0098 69.3709 26.0669 69.073 26.1812 68.8266C26.3012 68.5746 26.4441 68.3683 26.6326 68.2021C26.8155 68.036 27.0326 67.91 27.2669 67.8183C27.5012 67.7266 27.7469 67.6693 27.9926 67.6407L29.8441 67.4115C30.0212 67.3886 30.1584 67.3198 30.2555 67.2052C30.3584 67.0849 30.4098 66.9016 30.4098 66.638C30.4098 66.2427 30.2784 65.9563 30.0212 65.7786C29.7584 65.601 29.3812 65.5151 28.8955 65.5151C28.3926 65.5151 28.0212 65.624 27.7755 65.8359C27.5298 66.0479 27.3926 66.363 27.3583 66.787H26.3012Z" fill="#F1F1F1"/>
<path d="M41.1657 71.4107H33.2686V64.8105H34.4V70.4253H36.7771V64.8105H37.9086V70.4253H40.2743V64.8105H41.4057V70.4253H42.2229V73.0264H41.1657V71.4107Z" fill="#F1F1F1"/>
<path d="M47.7418 67.6006C47.7361 67.2797 47.6847 66.9933 47.599 66.7469C47.5133 66.4948 47.3876 66.2828 47.2333 66.1109C47.0733 65.9448 46.8847 65.813 46.6618 65.7271C46.439 65.6297 46.1933 65.5896 45.9247 65.5896C45.6675 65.5896 45.4275 65.6411 45.2104 65.7443C44.9933 65.8417 44.8047 65.9792 44.639 66.1625C44.4733 66.3401 44.3418 66.5521 44.2447 66.7985C44.1475 67.0391 44.0904 67.3084 44.0675 67.6006H47.7418ZM48.8104 69.3022C48.7647 69.5886 48.6676 69.8751 48.5133 70.1444C48.359 70.4194 48.1647 70.6715 47.919 70.8835C47.6676 71.1069 47.3818 71.2845 47.0447 71.4163C46.7133 71.5481 46.3418 71.6111 45.9361 71.6111C45.4904 71.6111 45.0847 71.5423 44.7075 71.3991C44.3361 71.2501 44.0104 71.0324 43.7361 70.7402C43.4618 70.4423 43.2504 70.0756 43.0904 69.6288C42.9361 69.1876 42.8618 68.6662 42.8618 68.0646C42.8618 67.6579 42.9075 67.2969 42.9932 66.9703C43.079 66.6438 43.199 66.3516 43.3475 66.0938C43.5018 65.8359 43.6732 65.6125 43.8675 65.4292C44.0675 65.2401 44.2733 65.0854 44.4961 64.9651C44.7133 64.8448 44.9361 64.7531 45.1647 64.6958C45.3933 64.6328 45.6161 64.6099 45.8333 64.6099C46.279 64.6099 46.6961 64.6729 47.0676 64.8104C47.4447 64.9422 47.759 65.1484 48.0333 65.4292C48.2961 65.7042 48.5133 66.0479 48.6561 66.4719C48.8104 66.8844 48.879 67.3771 48.879 67.9386V68.5058H44.0675C44.0733 68.8266 44.1133 69.1188 44.2047 69.3767C44.2904 69.6402 44.4104 69.8637 44.5761 70.047C44.7304 70.2303 44.919 70.3793 45.1533 70.4767C45.3761 70.5798 45.639 70.6257 45.9247 70.6257C46.2161 70.6257 46.4618 70.5855 46.6618 70.5053C46.8675 70.4194 47.0333 70.3163 47.1647 70.1902C47.3018 70.0642 47.4104 69.9209 47.4961 69.7605C47.5818 69.6116 47.6504 69.4569 47.7076 69.3022H48.8104Z" fill="#F1F1F1"/>
<path d="M57.908 65.7955H54.8394V71.4102H53.708V64.8101H59.0509V71.4102H57.908V65.7955Z" fill="#F1F1F1"/>
<path d="M65.2752 68.099C65.2752 67.7381 65.2352 67.3943 65.1495 67.0907C65.0695 66.787 64.9438 66.5177 64.7838 66.3C64.6181 66.0766 64.4124 65.9047 64.1781 65.7786C63.9381 65.6526 63.6581 65.5896 63.3438 65.5896C63.0238 65.5896 62.7495 65.6526 62.5095 65.7786C62.2752 65.9047 62.0752 66.0766 61.9095 66.3C61.7495 66.5177 61.6238 66.787 61.5381 67.0907C61.4581 67.3943 61.4181 67.7381 61.4181 68.099C61.4181 68.4714 61.4581 68.8095 61.5381 69.1188C61.6238 69.4282 61.7495 69.6975 61.9095 69.9209C62.0752 70.1444 62.2752 70.3163 62.5095 70.4366C62.7495 70.5626 63.0238 70.6257 63.3438 70.6257C63.6581 70.6257 63.9381 70.5626 64.1781 70.4366C64.4124 70.3163 64.6181 70.1444 64.7838 69.9209C64.9438 69.6975 65.0695 69.4282 65.1495 69.1188C65.2352 68.8095 65.2752 68.4714 65.2752 68.099ZM66.4067 68.099C66.4067 68.6433 66.3381 69.1303 66.1952 69.5657C66.0524 69.9954 65.8524 70.3678 65.5952 70.6715C65.3324 70.9751 65.0124 71.21 64.6352 71.3705C64.2524 71.5309 63.8238 71.6111 63.3438 71.6111C62.8638 71.6111 62.4352 71.5309 62.0581 71.3705C61.6809 71.21 61.3609 70.9751 61.0981 70.6715C60.8352 70.3678 60.6352 69.9954 60.4981 69.5657C60.3552 69.1303 60.2866 68.6433 60.2866 68.099C60.2866 67.5662 60.3552 67.0792 60.4981 66.6495C60.6352 66.2198 60.8352 65.8531 61.0981 65.5495C61.3609 65.2458 61.6809 65.0109 62.0581 64.8448C62.4352 64.6843 62.8638 64.6099 63.3438 64.6099C63.8238 64.6099 64.2524 64.6843 64.6352 64.8448C65.0124 65.0109 65.3324 65.2458 65.5952 65.5495C65.8524 65.8531 66.0524 66.2198 66.1952 66.6495C66.3381 67.0792 66.4067 67.5662 66.4067 68.099Z" fill="#F1F1F1"/>
<path d="M71.5538 68.7461C71.3081 68.8149 71.0395 68.8722 70.7481 68.9123C70.4566 68.9581 70.1824 68.981 69.9252 68.981C69.0452 68.981 68.3938 68.8091 67.9652 68.4711C67.5423 68.1331 67.3252 67.6002 67.3252 66.8669V64.8101H68.4623V66.6377C68.4623 66.8841 68.4852 67.1018 68.5481 67.2794C68.6052 67.457 68.7023 67.6117 68.8395 67.7263C68.9709 67.8466 69.1481 67.9325 69.3709 67.9898C69.5938 68.0471 69.8623 68.0758 70.1938 68.0758L70.4966 68.0471L70.8738 67.9898L71.2452 67.9096L71.5538 67.8065V64.8101H72.6909V71.4102H71.5538V68.7461Z" fill="#F1F1F1"/>
<path d="M74.3018 64.8101H75.4332V69.8748H75.4618L78.6961 64.8101H79.9932V71.4102H78.8561V66.3455H78.8332L75.6046 71.4102H74.3018V64.8101Z" fill="#F1F1F1"/>
<path d="M81.5996 64.8105H82.7368V67.469H85.8111V64.8105H86.9482V71.4107H85.8111V68.4601H82.7368V71.4107H81.5996V64.8105Z" fill="#F1F1F1"/>
<path d="M92.5813 68.0475L92.2441 68.2136C92.1127 68.2537 91.9641 68.2938 91.8041 68.3225C91.6441 68.3568 91.4727 68.3798 91.2955 68.4027C91.1127 68.4199 90.9355 68.4428 90.7527 68.4714C90.5527 68.5001 90.3584 68.5402 90.187 68.5975C90.0155 68.6433 89.867 68.7178 89.7355 68.8037L89.4441 69.1188C89.3698 69.2334 89.3355 69.3767 89.3355 69.5428C89.3355 69.7319 89.3698 69.898 89.427 70.0413C89.4841 70.1902 89.5698 70.3105 89.6727 70.4079C89.7755 70.5053 89.9013 70.5798 90.0498 70.6257C90.1984 70.6772 90.3584 70.7059 90.5355 70.7059L90.9184 70.66C91.0613 70.6314 91.2098 70.5913 91.3584 70.5454C91.5127 70.4881 91.6613 70.4194 91.8098 70.3335C91.9527 70.2475 92.0841 70.1501 92.1984 70.0298C92.3127 69.9152 92.4041 69.7777 92.4727 69.623C92.5413 69.4683 92.5813 69.3022 92.5813 69.1131V68.0475ZM88.4955 66.787C88.507 66.386 88.5812 66.0422 88.7184 65.7672C88.8612 65.4922 89.0498 65.2687 89.2898 65.0911C89.5298 64.9192 89.8098 64.7932 90.1355 64.7187C90.4613 64.6442 90.8155 64.6099 91.2041 64.6099C91.5241 64.6099 91.8327 64.6328 92.1355 64.7015C92.4327 64.7646 92.7013 64.8734 92.9298 65.0224C93.1698 65.1656 93.3584 65.3547 93.5013 65.5896C93.6384 65.8188 93.7127 66.0995 93.7127 66.4375V70.2762L93.7984 70.5512L94.0727 70.6658L94.2498 70.6486L94.4441 70.6199V71.3991L94.1584 71.4679L93.8327 71.4965C93.6384 71.4965 93.467 71.4793 93.3298 71.4507C93.187 71.4163 93.067 71.3647 92.9698 71.2845L92.7413 70.9866C92.6898 70.8663 92.6556 70.7173 92.6384 70.5454C92.5013 70.6887 92.3527 70.8376 92.1984 70.9637C92.0441 71.0955 91.867 71.21 91.6727 71.3017C91.4784 71.3991 91.267 71.4793 91.027 71.5309C90.787 71.5882 90.5241 71.6111 90.2213 71.6111C89.9698 71.6111 89.7241 71.5767 89.4841 71.4908C89.2384 71.4106 89.027 71.2903 88.8384 71.1298C88.6441 70.9694 88.4955 70.7689 88.3755 70.534C88.2612 70.2934 88.2041 70.0241 88.2041 69.709C88.2041 69.3709 88.2612 69.073 88.3755 68.8266C88.4955 68.5746 88.6441 68.3683 88.827 68.2021C89.0098 68.036 89.2212 67.91 89.4613 67.8183C89.6955 67.7266 89.9413 67.6693 90.187 67.6407L92.0384 67.4115C92.2155 67.3886 92.3527 67.3198 92.4498 67.2052C92.5584 67.0849 92.6041 66.9016 92.6041 66.638C92.6041 66.2427 92.4727 65.9563 92.2155 65.7786C91.9527 65.601 91.5755 65.5151 91.0898 65.5151C90.5927 65.5151 90.2213 65.624 89.9698 65.8359C89.7241 66.0479 89.587 66.363 89.5527 66.787H88.4955Z" fill="#F1F1F1"/>
<path d="M100.691 69.2506C100.606 69.6574 100.48 70.0069 100.314 70.3048C100.143 70.6027 99.9429 70.8491 99.7143 71.0439C99.4743 71.233 99.2057 71.3819 98.9029 71.4736C98.6 71.5653 98.28 71.6111 97.9372 71.6111C97.4629 71.6111 97.0457 71.5309 96.68 71.3533C96.3143 71.1814 96.0114 70.9408 95.76 70.6314C95.5143 70.322 95.3257 69.9496 95.1943 69.5199C95.0629 69.0902 95 68.6089 95 68.0876C95 67.5777 95.0629 67.1078 95.1943 66.6839C95.3257 66.2599 95.5143 65.8875 95.76 65.5781C96.0114 65.2687 96.3143 65.0281 96.68 64.862C97.0457 64.6901 97.4629 64.6099 97.9372 64.6099C98.2286 64.6099 98.5257 64.65 98.8229 64.7359C99.12 64.8276 99.3886 64.9651 99.6343 65.1484C99.8857 65.3375 100.097 65.5724 100.274 65.8589C100.451 66.1453 100.566 66.4834 100.617 66.8787H99.5315C99.4972 66.7183 99.44 66.5636 99.3657 66.4031C99.2857 66.2484 99.1829 66.1109 99.0629 65.9906C98.9372 65.8703 98.7829 65.7786 98.6 65.7042C98.4172 65.6297 98.2 65.5896 97.96 65.5896C97.4286 65.5896 97.0114 65.7729 96.7143 66.1396C96.4229 66.5063 96.2514 67.0162 96.2057 67.6865H98.4743V68.5975H96.2057C96.2114 68.8266 96.2457 69.0558 96.32 69.3022C96.3943 69.5371 96.4972 69.7605 96.64 69.9553C96.7829 70.1501 96.9714 70.3163 97.1943 70.4366C97.4114 70.5626 97.6743 70.6257 97.9714 70.6257C98.1829 70.6257 98.3772 70.5913 98.56 70.5283C98.7429 70.4595 98.8972 70.3621 99.04 70.2418C99.1772 70.1215 99.2857 69.9782 99.3772 69.8064C99.4629 69.6402 99.5143 69.4569 99.5315 69.2506H100.691Z" fill="#F1F1F1"/>
<path d="M103.475 65.796H101.207V64.8105H106.875V65.796H104.607V71.4107H103.475V65.796Z" fill="#F1F1F1"/>
<path d="M109.04 70.5055H110.645C110.845 70.5055 111.023 70.4883 111.194 70.4425C111.365 70.4024 111.514 70.3336 111.64 70.2419C111.76 70.1503 111.857 70.03 111.925 69.8867C111.994 69.7435 112.028 69.5602 112.028 69.3539C112.028 69.1476 111.994 68.9758 111.92 68.8268L111.623 68.4716C111.491 68.3799 111.337 68.3112 111.154 68.2711C110.971 68.2252 110.765 68.208 110.543 68.208H109.04V70.5055ZM107.908 64.8105H109.04V67.2913H110.868C111.228 67.2913 111.548 67.3429 111.834 67.4346C112.114 67.532 112.36 67.6695 112.554 67.8528C112.748 68.0304 112.897 68.2481 113.005 68.5002C113.108 68.7523 113.16 69.0331 113.16 69.3539C113.16 69.6747 113.108 69.9612 113.005 70.2133C112.897 70.4654 112.748 70.6831 112.554 70.8607C112.36 71.0383 112.114 71.1758 111.834 71.2732C111.548 71.3649 111.228 71.4107 110.868 71.4107H107.908V64.8105Z" fill="#F1F1F1"/>
<path d="M119.467 69.0902C119.45 69.2449 119.416 69.4225 119.37 69.6116C119.324 69.8006 119.256 69.9897 119.164 70.1788C119.073 70.3621 118.959 70.5454 118.816 70.7173C118.679 70.8835 118.501 71.0382 118.301 71.1757C118.101 71.3074 117.861 71.4163 117.587 71.4908C117.313 71.5767 116.999 71.6111 116.644 71.6111C116.45 71.6111 116.244 71.5939 116.033 71.5481C115.821 71.4965 115.61 71.4163 115.41 71.3074C115.204 71.1986 115.016 71.0554 114.833 70.8777C114.65 70.7059 114.484 70.4881 114.353 70.2246C114.21 69.9725 114.101 69.6689 114.027 69.3251C113.941 68.9813 113.901 68.586 113.901 68.1449C113.901 67.5948 113.981 67.1078 114.136 66.6667C114.29 66.2313 114.496 65.8589 114.759 65.5552C115.016 65.2515 115.324 65.0166 115.667 64.8505C116.016 64.6843 116.381 64.6099 116.759 64.6099C117.101 64.6099 117.41 64.6442 117.673 64.713C117.936 64.7875 118.17 64.8849 118.364 65.0109C118.559 65.1312 118.73 65.2745 118.861 65.4406C118.999 65.601 119.107 65.7729 119.193 65.9505C119.279 66.1281 119.341 66.3115 119.381 66.4948C119.421 66.6839 119.45 66.8558 119.467 67.0276H118.41C118.353 66.5808 118.199 66.2255 117.947 65.9734C117.696 65.7156 117.336 65.5896 116.884 65.5896C116.576 65.5896 116.301 65.6583 116.067 65.7844C115.839 65.9104 115.644 66.088 115.49 66.3172C115.336 66.5406 115.221 66.8157 115.141 67.1365C115.067 67.4631 115.033 67.8183 115.033 68.2079C115.033 68.6433 115.073 69.0157 115.153 69.3308C115.239 69.6459 115.353 69.9038 115.501 70.1043C115.656 70.3105 115.844 70.4595 116.061 70.5569C116.284 70.6543 116.53 70.7059 116.81 70.7059C117.004 70.7059 117.193 70.6658 117.37 70.5913C117.547 70.5225 117.701 70.4194 117.844 70.2819C117.981 70.1444 118.101 69.9725 118.199 69.772C118.301 69.5715 118.364 69.3423 118.41 69.0902H119.467Z" fill="#F1F1F1"/>
<path d="M124.771 65.8074H123.046C122.897 65.8074 122.771 65.8074 122.663 65.8074L122.383 65.8246L122.166 65.8647L121.966 65.9564C121.817 66.0366 121.714 66.1569 121.634 66.3174C121.56 66.4778 121.52 66.6497 121.52 66.8273C121.52 67.0049 121.549 67.1538 121.6 67.2742L121.811 67.5778L122.109 67.7611L122.44 67.8528L122.771 67.8815L123.046 67.8929H124.771V65.8074ZM125.909 71.4107H124.771V68.7982H123.309C123.051 68.7982 122.817 68.7982 122.623 68.8096C122.429 68.8268 122.263 68.8612 122.131 68.9242L121.811 69.2336C121.737 69.3711 121.691 69.5716 121.669 69.8294L121.617 70.5456L121.606 70.6659L121.583 70.8836L121.531 71.1529L121.463 71.4107H120.211L120.291 71.2961L120.377 71.1357L120.446 70.8607C120.469 70.7519 120.491 70.6144 120.509 70.4367L120.589 69.5945C120.611 69.3711 120.64 69.1878 120.674 69.0502L120.823 68.7008L121.069 68.4716C121.177 68.4143 121.303 68.357 121.463 68.294C120.754 68.0362 120.4 67.5148 120.4 66.7241C120.4 66.5236 120.423 66.346 120.474 66.1799C120.526 66.0137 120.589 65.8647 120.669 65.7272L120.943 65.3835L121.246 65.1314C121.371 65.0512 121.514 64.9882 121.663 64.9481C121.811 64.9022 121.966 64.8678 122.12 64.8507C122.274 64.8277 122.423 64.8163 122.577 64.8163C122.72 64.8105 122.857 64.8105 122.977 64.8105H125.909V71.4107Z" fill="#F1F1F1"/>
<path d="M136.257 69.0902C136.24 69.2449 136.211 69.4225 136.16 69.6116C136.114 69.8006 136.046 69.9897 135.954 70.1788C135.869 70.3621 135.754 70.5454 135.611 70.7173C135.469 70.8835 135.291 71.0382 135.091 71.1757C134.886 71.3074 134.651 71.4163 134.371 71.4908C134.103 71.5767 133.783 71.6111 133.434 71.6111C133.24 71.6111 133.04 71.5939 132.829 71.5481C132.611 71.4965 132.4 71.4163 132.2 71.3074C132 71.1986 131.806 71.0554 131.623 70.8777C131.44 70.7059 131.28 70.4881 131.143 70.2246C131.006 69.9725 130.897 69.6689 130.817 69.3251C130.737 68.9813 130.691 68.586 130.691 68.1449C130.691 67.5948 130.766 67.1078 130.926 66.6667C131.08 66.2313 131.291 65.8589 131.549 65.5552C131.811 65.2515 132.114 65.0166 132.457 64.8505C132.806 64.6843 133.171 64.6099 133.554 64.6099C133.891 64.6099 134.2 64.6442 134.463 64.713C134.731 64.7875 134.96 64.8849 135.16 65.0109C135.354 65.1312 135.52 65.2745 135.657 65.4406C135.789 65.601 135.903 65.7729 135.983 65.9505C136.069 66.1281 136.131 66.3115 136.171 66.4948C136.217 66.6839 136.246 66.8558 136.257 67.0276H135.2C135.143 66.5808 134.989 66.2255 134.737 65.9734C134.486 65.7156 134.131 65.5896 133.674 65.5896C133.366 65.5896 133.091 65.6583 132.857 65.7844C132.629 65.9104 132.434 66.088 132.28 66.3172C132.126 66.5406 132.011 66.8157 131.937 67.1365C131.857 67.4631 131.823 67.8183 131.823 68.2079C131.823 68.6433 131.863 69.0157 131.943 69.3308C132.029 69.6459 132.143 69.9038 132.297 70.1043C132.451 70.3105 132.634 70.4595 132.851 70.5569C133.074 70.6543 133.32 70.7059 133.6 70.7059C133.794 70.7059 133.983 70.6658 134.16 70.5913C134.337 70.5225 134.491 70.4194 134.634 70.2819C134.771 70.1444 134.891 69.9725 134.989 69.772C135.091 69.5715 135.16 69.3423 135.2 69.0902H136.257Z" fill="#F1F1F1"/>
<path d="M138.547 70.5055H140.153C140.347 70.5055 140.53 70.4883 140.701 70.4425C140.873 70.4024 141.015 70.3336 141.141 70.2419C141.261 70.1503 141.358 70.03 141.427 69.8867C141.501 69.7435 141.535 69.5602 141.535 69.3539C141.535 69.1476 141.495 68.9758 141.427 68.8268L141.124 68.4716C140.998 68.3799 140.838 68.3112 140.655 68.2711C140.473 68.2252 140.273 68.208 140.044 68.208H138.547V70.5055ZM137.41 64.8105H138.547V67.2913H140.37C140.73 67.2913 141.055 67.3429 141.335 67.4346C141.615 67.532 141.861 67.6695 142.055 67.8528C142.255 68.0304 142.404 68.2481 142.507 68.5002C142.615 68.7523 142.667 69.0331 142.667 69.3539C142.667 69.6747 142.615 69.9612 142.507 70.2133C142.404 70.4654 142.255 70.6831 142.055 70.8607C141.861 71.0383 141.615 71.1758 141.335 71.2732C141.055 71.3649 140.73 71.4107 140.37 71.4107H137.41V64.8105Z" fill="#F1F1F1"/>
<path d="M148.394 68.099C148.394 67.7381 148.354 67.3943 148.274 67.0907C148.189 66.787 148.069 66.5177 147.903 66.3C147.743 66.0766 147.537 65.9047 147.297 65.7786C147.057 65.6526 146.777 65.5896 146.463 65.5896C146.149 65.5896 145.869 65.6526 145.634 65.7786C145.394 65.9047 145.194 66.0766 145.029 66.3C144.869 66.5177 144.743 66.787 144.657 67.0907C144.577 67.3943 144.537 67.7381 144.537 68.099C144.537 68.4714 144.577 68.8095 144.657 69.1188C144.743 69.4282 144.869 69.6975 145.029 69.9209C145.194 70.1444 145.394 70.3163 145.634 70.4366C145.869 70.5626 146.149 70.6257 146.463 70.6257C146.777 70.6257 147.057 70.5626 147.297 70.4366C147.537 70.3163 147.743 70.1444 147.903 69.9209C148.069 69.6975 148.189 69.4282 148.274 69.1188C148.354 68.8095 148.394 68.4714 148.394 68.099ZM149.526 68.099C149.526 68.6433 149.457 69.1303 149.32 69.5657C149.177 69.9954 148.977 70.3678 148.714 70.6715C148.452 70.9751 148.131 71.21 147.754 71.3705C147.371 71.5309 146.943 71.6111 146.463 71.6111C145.983 71.6111 145.554 71.5309 145.177 71.3705C144.8 71.21 144.48 70.9751 144.217 70.6715C143.954 70.3678 143.754 69.9954 143.617 69.5657C143.474 69.1303 143.406 68.6433 143.406 68.099C143.406 67.5662 143.474 67.0792 143.617 66.6495C143.754 66.2198 143.954 65.8531 144.217 65.5495C144.48 65.2458 144.8 65.0109 145.177 64.8448C145.554 64.6843 145.983 64.6099 146.463 64.6099C146.943 64.6099 147.371 64.6843 147.754 64.8448C148.131 65.0109 148.452 65.2458 148.714 65.5495C148.977 65.8531 149.177 66.2198 149.32 66.6495C149.457 67.0792 149.526 67.5662 149.526 68.099Z" fill="#F1F1F1"/>
<path d="M150.778 64.8105H154.864V65.796H151.909V71.4107H150.778V64.8105Z" fill="#F1F1F1"/>
<path d="M160.309 68.099C160.309 67.7381 160.275 67.3943 160.189 67.0907C160.103 66.787 159.983 66.5177 159.818 66.3C159.658 66.0766 159.458 65.9047 159.212 65.7786C158.978 65.6526 158.698 65.5896 158.378 65.5896C158.063 65.5896 157.789 65.6526 157.555 65.7786C157.309 65.9047 157.109 66.0766 156.949 66.3C156.778 66.5177 156.658 66.787 156.578 67.0907C156.498 67.3943 156.458 67.7381 156.458 68.099C156.458 68.4714 156.498 68.8095 156.578 69.1188C156.658 69.4282 156.778 69.6975 156.949 69.9209C157.109 70.1444 157.309 70.3163 157.555 70.4366C157.789 70.5626 158.063 70.6257 158.378 70.6257C158.698 70.6257 158.978 70.5626 159.212 70.4366C159.458 70.3163 159.658 70.1444 159.818 69.9209C159.983 69.6975 160.103 69.4282 160.189 69.1188C160.275 68.8095 160.309 68.4714 160.309 68.099ZM161.446 68.099C161.446 68.6433 161.372 69.1303 161.235 69.5657C161.092 69.9954 160.892 70.3678 160.635 70.6715C160.366 70.9751 160.046 71.21 159.669 71.3705C159.286 71.5309 158.858 71.6111 158.378 71.6111C157.898 71.6111 157.475 71.5309 157.098 71.3705C156.715 71.21 156.4 70.9751 156.132 70.6715C155.875 70.3678 155.675 69.9954 155.532 69.5657C155.395 69.1303 155.326 68.6433 155.326 68.099C155.326 67.5662 155.395 67.0792 155.532 66.6495C155.675 66.2198 155.875 65.8531 156.132 65.5495C156.4 65.2458 156.715 65.0109 157.098 64.8448C157.475 64.6843 157.898 64.6099 158.378 64.6099C158.858 64.6099 159.286 64.6843 159.669 64.8448C160.046 65.0109 160.366 65.2458 160.635 65.5495C160.892 65.8531 161.092 66.2198 161.235 66.6495C161.372 67.0792 161.446 67.5662 161.446 68.099Z" fill="#F1F1F1"/>
<path d="M166.931 70.4253V65.796H164.542C164.514 66.1684 164.485 66.5523 164.451 66.9476C164.422 67.3429 164.382 67.7382 164.331 68.1336C164.279 68.5346 164.211 68.9242 164.125 69.3081C164.039 69.6919 163.931 70.0701 163.799 70.4253H166.931ZM167.931 71.4107H162.839V73.0264H161.776V70.4253H162.651C162.828 69.9784 162.971 69.5315 163.079 69.0674C163.182 68.6034 163.268 68.1393 163.325 67.6695C163.382 67.1939 163.416 66.7184 163.439 66.2429C163.451 65.7673 163.456 65.2861 163.456 64.8105H168.056V70.4253H168.988V73.0264H167.931V71.4107Z" fill="#F1F1F1"/>
<path d="M170.073 64.8105H171.205V67.469H174.279V64.8105H175.416V71.4107H174.279V68.4601H171.205V71.4107H170.073V64.8105Z" fill="#F1F1F1"/>
<path d="M176.999 64.81H178.13V71.4102H176.999V64.81ZM176.999 62.4209H178.13V63.71H176.999V62.4209Z" fill="#F1F1F1"/>
<path d="M65.3439 53.5181L65.3553 41.5495H60.5781V37.8369H74.6468V41.5495H69.8982V53.5181H65.3439Z" fill="#F1F1F1"/>
<path d="M85.4913 41.5092C84.977 40.9477 84.1998 40.6613 83.1484 40.6613C82.4627 40.6613 81.8912 40.7758 81.4398 41.0107C80.9884 41.2399 80.6227 41.5321 80.3484 41.8759C80.0798 42.2139 79.8855 42.5806 79.7769 42.9644C79.6627 43.3483 79.5998 43.6921 79.5769 43.9957H86.5656C86.3598 42.9014 86.0056 42.0764 85.4913 41.5092ZM80.6398 49.7594C81.2855 50.3896 82.2112 50.7048 83.4227 50.7048C84.2855 50.7048 85.0341 50.4813 85.657 50.0459C86.2798 49.6162 86.6627 49.1521 86.8113 48.6708H90.5941C89.9884 50.5558 89.057 51.8965 87.8113 52.7043C86.5541 53.5064 85.0398 53.9132 83.2741 53.9132C82.0398 53.9132 80.9312 53.7184 79.9427 53.3288C78.9484 52.9277 78.1084 52.3663 77.4341 51.6444C76.7426 50.911 76.2169 50.0459 75.8398 49.0318C75.4626 48.0234 75.2798 46.9062 75.2798 45.6973C75.2798 44.5285 75.4741 43.4342 75.8512 42.4144C76.2398 41.4118 76.7826 40.5295 77.4912 39.7961C78.1941 39.057 79.0398 38.4784 80.0227 38.0487C80.9941 37.6247 82.0798 37.4185 83.2741 37.4185C84.5998 37.4185 85.7598 37.6705 86.7484 38.1919C87.737 38.7018 88.5484 39.3951 89.1827 40.2659C89.817 41.1368 90.2799 42.128 90.5599 43.2395C90.8456 44.3509 90.9427 45.514 90.8627 46.7229H79.5769C79.6398 48.1208 79.9941 49.1292 80.6398 49.7594Z" fill="#F1F1F1"/>
<path d="M116.035 41.5092C115.526 40.9477 114.738 40.6613 113.686 40.6613C113.006 40.6613 112.435 40.7758 111.978 41.0107C111.532 41.2399 111.16 41.5321 110.892 41.8759C110.618 42.2139 110.429 42.5806 110.32 42.9644C110.206 43.3483 110.143 43.6921 110.115 43.9957H117.109C116.909 42.9014 116.549 42.0764 116.035 41.5092ZM111.178 49.7594C111.823 50.3896 112.755 50.7048 113.96 50.7048C114.829 50.7048 115.578 50.4813 116.2 50.0459C116.823 49.6162 117.212 49.1521 117.349 48.6708H121.132C120.532 50.5558 119.6 51.8965 118.349 52.7043C117.098 53.5064 115.583 53.9132 113.812 53.9132C112.583 53.9132 111.475 53.7184 110.48 53.3288C109.492 52.9277 108.658 52.3663 107.978 51.6444C107.286 50.911 106.755 50.0459 106.383 49.0318C106.006 48.0234 105.823 46.9062 105.823 45.6973C105.823 44.5285 106.018 43.4342 106.395 42.4144C106.783 41.4118 107.326 40.5295 108.029 39.7961C108.738 39.057 109.583 38.4784 110.56 38.0487C111.538 37.6247 112.623 37.4185 113.812 37.4185C115.143 37.4185 116.298 37.6705 117.292 38.1919C118.28 38.7018 119.098 39.3951 119.732 40.2659C120.366 41.1368 120.818 42.128 121.098 43.2395C121.389 44.3509 121.486 45.514 121.406 46.7229H110.115C110.183 48.1208 110.532 49.1292 111.178 49.7594Z" fill="#F1F1F1"/>
<path d="M123.171 37.8369H127.588V43.4001L132.92 37.8369H138.148L132.32 43.5204L139.131 53.5181H133.777L129.302 46.5168L127.588 48.1726V53.5181H123.171V37.8369Z" fill="#F1F1F1"/>
<path d="M95.1316 53.5181L98.3545 42.4032L101.577 53.5181H105.835L101.869 39.9052C101.457 38.4615 100.366 37.6192 98.7145 37.4416L98.5774 37.4359L98.3831 37.4302H98.3145L98.1259 37.4359L97.9831 37.4416C96.3145 37.6192 95.2459 38.4615 94.823 39.9052L90.8916 53.5181H95.1316Z" fill="#F1F1F1"/>
<path d="M161.12 42.4027L164.354 53.5176H168.606L171.829 42.4027L174.103 53.5176H178.36L175.354 39.9048C174.937 38.461 173.851 37.6016 172.194 37.4411L172.057 37.4354L171.869 37.4297H171.794L171.6 37.4354L171.463 37.4411C169.8 37.6073 168.72 38.461 168.303 39.9048L166.486 47.1753L164.646 39.9048C164.234 38.461 163.149 37.6016 161.491 37.4411L161.354 37.4354L161.16 37.4297H161.08L160.891 37.4354L160.749 37.4411C159.086 37.613 158.011 38.461 157.6 39.9048L154.611 53.5176H158.857L161.12 42.4027Z" fill="#F1F1F1"/>
<path d="M142.622 47.5076C142.747 48.1035 142.947 48.6363 143.245 49.1118C143.542 49.5988 143.925 49.9712 144.41 50.2577C144.896 50.5384 145.502 50.676 146.227 50.676C146.948 50.676 147.565 50.5384 148.056 50.2577C148.548 49.9712 148.942 49.5988 149.233 49.1118C149.525 48.6363 149.736 48.1035 149.856 47.5076C149.976 46.9118 150.039 46.2987 150.039 45.6743C150.039 45.044 149.976 44.431 149.856 43.8237C149.736 43.2164 149.525 42.6778 149.233 42.2137C148.942 41.7554 148.548 41.3773 148.056 41.0793C147.565 40.7871 146.948 40.6382 146.227 40.6382C145.502 40.6382 144.896 40.7871 144.41 41.0793C143.925 41.3773 143.542 41.7554 143.245 42.2137C142.947 42.6778 142.747 43.2164 142.622 43.8237C142.507 44.431 142.445 45.044 142.445 45.6743C142.445 46.2987 142.507 46.9118 142.622 47.5076ZM138.725 42.2596C139.107 41.234 139.65 40.3746 140.359 39.6527C141.067 38.9366 141.907 38.3751 142.896 37.9798C143.885 37.5902 144.993 37.3896 146.227 37.3896C147.456 37.3896 148.565 37.5902 149.57 37.9798C150.57 38.3751 151.416 38.9366 152.125 39.6527C152.833 40.3746 153.376 41.234 153.753 42.2596C154.142 43.2794 154.33 44.4253 154.33 45.6743C154.33 46.929 154.142 48.0576 153.753 49.0717C153.376 50.0858 152.833 50.9452 152.125 51.6671C151.416 52.3833 150.57 52.9333 149.57 53.3172C148.565 53.701 147.456 53.8958 146.227 53.8958C144.993 53.8958 143.885 53.701 142.896 53.3172C141.907 52.9333 141.067 52.3833 140.359 51.6671C139.65 50.9452 139.107 50.0858 138.725 49.0717C138.336 48.0576 138.147 46.929 138.147 45.6743C138.147 44.4253 138.336 43.2794 138.725 42.2596Z" fill="#F1F1F1"/>
<path d="M27.0234 37.8369H31.4349V43.4001L36.7663 37.8369H41.9892L36.1663 43.5204L42.9721 53.5181H37.6235L33.1492 46.5168L31.4349 48.1726V53.5181H27.0234V37.8369Z" fill="#F1F1F1"/>
<path d="M55.5066 47.9549C55.3923 48.5508 55.1809 49.0893 54.8952 49.5648C54.5981 50.0404 54.2038 50.4185 53.7123 50.705C53.2152 50.9857 52.6038 51.1289 51.8838 51.1289C51.1523 51.1289 50.5466 50.9857 50.0609 50.705C49.5809 50.4185 49.1923 50.0404 48.8952 49.5648C48.6094 49.0893 48.398 48.5508 48.278 47.9549C48.1694 47.4049 48.1123 46.8377 48.0952 46.2647V45.9095C48.1123 45.3366 48.1694 44.7751 48.278 44.2251C48.398 43.6293 48.6094 43.0907 48.8952 42.6094C49.1923 42.1396 49.5809 41.7615 50.0609 41.4808C50.5466 41.1943 51.1523 41.0511 51.8838 41.0511C52.6038 41.0511 53.2152 41.1943 53.7123 41.4808C54.2038 41.7615 54.5981 42.1396 54.8952 42.6094C55.1809 43.0907 55.3923 43.6293 55.5066 44.2251C55.6266 44.821 55.6952 45.4283 55.6952 46.0585V46.1215C55.6952 46.746 55.6266 47.3648 55.5066 47.9549ZM59.9809 46.0585C59.9809 44.8038 59.7981 43.6694 59.4152 42.661C59.0324 41.6469 58.4838 40.7818 57.7809 40.0599C57.0723 39.3495 56.2209 38.7994 55.2209 38.4098C54.2266 38.026 53.1123 37.8369 51.8838 37.8369C49.998 37.8369 48.2494 38.9198 48.0952 38.9885V37.8369H43.8037V59.213H48.0952V53.1915C48.2494 53.2603 49.998 54.3374 51.8838 54.3374C53.1123 54.3374 54.2266 54.1483 55.2209 53.7644C56.2209 53.3806 57.0723 52.8306 57.7809 52.1144C58.4838 51.3982 59.0324 50.5274 59.4152 49.519C59.7981 48.5049 59.9809 47.3705 59.9809 46.1215V46.0585Z" fill="#F1F1F1"/>
<path d="M20.119 37.8364V46.6539C20.119 47.6909 19.8504 48.4815 19.3819 49.0029C18.8962 49.53 18.1819 49.8508 17.0733 49.8508C16.2161 49.8508 15.5019 49.6274 15.0276 49.1805C14.5418 48.7393 14.2218 48.0575 14.2104 46.9575V37.8364H10.0275C10.0275 37.8364 10.0161 43.2736 10.0161 46.4992C10.0161 49.7133 10.6733 50.7045 11.8276 51.8446C12.8161 52.8186 14.2904 53.5462 16.4161 53.5462C18.5476 53.5462 19.8962 52.3259 20.1533 52.1139C20.2219 53.1452 20.1019 54.2166 19.119 55.0072C18.519 55.4999 16.479 56.5713 13.2447 55.1275L12.3247 58.588C13.5018 59.2125 15.239 59.6136 17.1704 59.5849C18.5362 59.5735 20.3933 59.0693 21.8162 57.9406C23.2448 56.8234 24.3248 55.0817 24.3248 52.1597V37.8364H20.119Z" fill="#F1F1F1"/>
<path d="M147.913 9.39062C146.41 9.39062 145.193 10.6224 145.193 12.1235V25.914H159.113C160.616 25.914 161.839 24.6879 161.839 23.1868V9.39062H147.913Z" fill="#F1F1F1"/>
<path d="M147.914 9.39062H161.84V6.49731C161.84 4.99623 160.617 3.77016 159.114 3.77016H155.874V0.0117188L151.771 3.77016H136.279C134.782 3.77016 133.554 4.99623 133.554 6.49731V23.1868C133.554 24.6879 134.782 25.914 136.279 25.914H145.194V12.1235C145.194 10.6224 146.411 9.39062 147.914 9.39062Z" fill="#F1F1F1"/>
<path d="M198.984 14.8507C198.984 8.5714 191.944 3.47803 183.258 3.47803C177.304 3.47803 172.126 5.86716 169.452 9.39069H182.441C183.932 9.39069 185.161 10.6225 185.161 12.1236V26.1318C187.007 25.9714 188.755 25.5818 190.344 24.9974L195.429 27.1287L193.687 23.3531C196.938 21.2733 198.984 18.231 198.984 14.8507Z" fill="#F1F1F1"/>
<path d="M167.53 14.8507C167.53 12.8741 168.227 11.012 169.45 9.39062H161.839V23.1868C161.839 24.6879 160.616 25.914 159.113 25.914H145.193V28.8188C145.193 30.3198 146.41 31.5402 147.913 31.5402H151.73V35.3158L155.856 31.5402H182.439C183.93 31.5402 185.159 30.3198 185.159 28.8188V26.1317C184.53 26.189 183.902 26.2176 183.256 26.2176C174.564 26.2176 167.53 21.1243 167.53 14.8507Z" fill="#D4D4D4"/>
<path d="M182.441 9.39062H169.452C168.229 11.012 167.532 12.8741 167.532 14.8507C167.532 21.1243 174.567 26.2177 183.258 26.2177C183.904 26.2177 184.532 26.189 185.161 26.1317V12.1235C185.161 10.6224 183.932 9.39062 182.441 9.39062Z" fill="#F1F1F1"/>
</svg>
