<svg width="210" height="75" viewBox="0 0 210 75" fill="none" xmlns="http://www.w3.org/2000/svg">
<path d="M161.455 59.3152H163.428L164.07 55.92C164.3 55.92 164.575 55.9659 164.896 55.9659C166.043 55.9659 167.098 55.6906 167.878 55.0942C168.612 54.5436 169.163 53.626 169.163 52.4331C169.163 51.5155 168.796 50.8731 168.154 50.4602C167.465 49.9555 166.502 49.8179 165.676 49.8179C164.758 49.8179 163.841 49.9096 163.244 50.0473L161.455 59.3152ZM164.896 51.5613C165.08 51.5155 165.355 51.5155 165.722 51.5155C166.502 51.5155 167.144 51.7907 167.144 52.7084C167.144 53.626 166.364 54.4059 165.125 54.4059C164.804 54.4059 164.575 54.3601 164.345 54.3601L164.896 51.5613ZM151.591 49.9555L150.627 55.1859C150.535 55.6447 150.489 56.1035 150.489 56.5165C150.489 58.5352 151.682 59.4987 153.609 59.4987C156.133 59.4987 157.417 58.1223 157.922 55.3236L158.932 50.0014H156.959L155.949 55.4153C155.628 57.1588 154.94 57.847 153.885 57.847C152.967 57.847 152.508 57.2506 152.508 56.5165C152.508 56.1035 152.554 55.7365 152.6 55.4153L153.609 50.0473L151.591 49.9555ZM146.911 53.7177C146.911 51.4696 145.626 49.8179 143.149 49.8179C141.818 49.8179 140.625 50.3226 139.753 51.1484C138.652 52.2037 138.01 53.9013 138.01 55.553C138.01 57.7094 139.386 59.4528 141.818 59.4528C143.194 59.4528 144.387 58.9481 145.259 58.1223C146.314 57.067 146.911 55.4153 146.911 53.7177ZM141.267 52.1578C141.68 51.699 142.231 51.4696 142.873 51.4696C144.341 51.4696 144.754 52.6166 144.754 53.7636C144.754 54.8648 144.341 56.3788 143.607 57.1129C143.194 57.5258 142.598 57.8011 142.047 57.8011C140.671 57.8011 140.075 56.8376 140.075 55.5071C140.12 54.3601 140.533 52.8919 141.267 52.1578ZM126.999 59.3152H128.971L129.66 55.6447H130.256C131.036 55.6447 131.449 56.0118 131.541 57.1129C131.632 58.2599 131.724 59.0858 131.816 59.3152H133.881C133.697 58.9481 133.651 57.7094 133.514 56.6541C133.422 55.8282 133.192 55.1859 132.642 54.9565V54.9106C133.835 54.4977 134.752 53.6718 134.752 52.2495C134.752 51.3778 134.294 50.7814 133.697 50.4143C133.055 50.0014 132.137 49.8638 131.22 49.8638C130.302 49.8638 129.338 49.9555 128.742 50.0932L126.999 59.3152ZM130.485 51.5155C130.669 51.4696 130.898 51.4237 131.265 51.4237C132.045 51.4237 132.688 51.7449 132.688 52.5248C132.688 53.4424 131.908 54.0848 130.807 54.0848H129.981L130.485 51.5155ZM122.915 58.8564C122.181 59.0858 121.08 59.3611 119.887 59.3611C118.602 59.3611 117.547 59.0399 116.767 58.3517C116.033 57.6635 115.574 56.6541 115.574 55.4612C115.574 53.7177 116.308 52.2037 117.501 51.1943C118.556 50.3226 120.025 49.8179 121.63 49.8179C122.869 49.8179 123.741 50.0473 124.108 50.2308L123.512 51.9284C123.099 51.7449 122.365 51.5613 121.539 51.5613C120.621 51.5613 119.795 51.8366 119.153 52.2954C118.327 52.9378 117.822 54.0389 117.822 55.3236C117.822 56.8835 118.74 57.6635 120.208 57.6635C120.667 57.6635 120.988 57.6176 121.218 57.48L121.585 55.5071H120.116L120.438 53.9013H123.833L122.915 58.8564Z" fill="white"/>
<path fill-rule="evenodd" clip-rule="evenodd" d="M167.102 20.8676H164.12L161.229 38.394H164.258L164.946 34.3565H163.34L164.166 29.2637H172.287L170.589 39.5869L165.588 43.6703H158.431L154.623 39.541L154.806 38.5775L157.926 19.6288L162.881 15.5454H170.13L173.847 19.6288L172.654 26.7862H166.093L167.102 20.8676ZM147.328 32.0625L145.401 43.6244H151.686L153.613 32.0625L150.998 29.2179L154.439 26.9238L155.632 19.5829L151.962 15.4995H140.858L136.27 43.6244H142.785L144.712 32.0625H147.328ZM149.117 20.8676L148.153 26.8321H145.446L146.41 20.8676H149.117ZM126.589 15.5454H138.518L137.647 20.8217H132.187L131.315 26.098H135.811L134.94 31.3743H130.443L129.296 38.3481H134.756L133.884 43.6244H121.91L126.589 15.5454ZM118.469 29.2637L122.001 26.465L123.24 19.0782L120.074 15.5454H108.742L104.154 43.6703H115.486L120.441 39.5869L121.68 32.0166L118.469 29.2637ZM115.073 32.1083L114.064 38.394H111.495L112.504 32.1083H115.073ZM116.909 20.8676L115.945 26.8321H113.33L114.293 20.8676H116.909ZM96.1705 38.3481L99.9327 15.5454H106.448L102.502 39.5869L97.5469 43.6703H90.4813L86.719 39.5869L90.6648 15.5454H97.1799L93.4635 38.3481H96.1705ZM79.057 38.4399H75.2947L73.8724 43.6703H67.5409L76.1206 15.5454H85.572L85.1132 43.6703H78.7358L79.057 38.4399ZM79.6534 20.8217L76.5794 33.1177H79.3781L80.1122 20.8217H79.6534ZM59.2824 15.5454L54.6943 43.6703H66.2103L67.8621 38.394H62.0811L65.7974 15.5913H59.2824V15.5454ZM51.2073 29.2637L54.3272 32.0166L53.0885 39.5869L48.1333 43.6703H36.8008L41.3889 15.5454H52.7214L55.8872 19.0782L54.6943 26.465L51.2073 29.2637ZM47.7663 32.1083H45.197L44.1876 38.394H46.7569L47.7663 32.1083ZM49.6474 20.8676H47.0781L46.1146 26.8321H48.6839L49.6474 20.8676Z" fill="white"/>
</svg>
