<svg width="209" height="75" viewBox="0 0 209 75" fill="none" xmlns="http://www.w3.org/2000/svg">
<path d="M140.954 0.549917C141.462 1.0741 141.632 1.83879 141.398 2.52948C140.488 5.08873 139.606 9.14652 138.604 14.5148C137.599 19.8892 136.723 26.7252 136.723 37.0022C136.723 47.2793 137.599 54.1153 138.604 59.4897C139.606 64.861 140.473 68.9034 141.379 71.4626C141.501 71.8013 141.523 72.1675 141.445 72.5186C141.366 72.8697 141.189 73.1912 140.935 73.4458C140.681 73.7004 140.36 73.8775 140.009 73.9566C139.658 74.0356 139.291 74.0134 138.953 73.8924C136.393 72.9828 132.36 72.1009 126.989 71.0988C121.614 70.0936 114.778 69.2179 104.498 69.2179C94.2181 69.2179 87.3852 70.0936 82.0077 71.0988C76.6364 72.1009 72.5786 72.9982 70.0194 73.9047C69.6812 74.0222 69.3171 74.0434 68.9676 73.9661C68.6181 73.8888 68.2969 73.716 68.0398 73.4669C67.7913 73.212 67.6191 72.8926 67.5428 72.545C67.4665 72.1973 67.4891 71.8351 67.6081 71.4996C68.5208 68.9404 69.4119 64.8795 70.414 59.5113C71.4223 54.1338 72.2949 47.3009 72.2949 37.0238C72.2949 26.7467 71.4223 19.9108 70.414 14.5364C69.4119 9.16502 68.5331 5.11956 67.6235 2.56031C67.5029 2.2218 67.4808 1.85602 67.5598 1.50546C67.6388 1.15489 67.8156 0.833923 68.0697 0.579823C68.3238 0.325723 68.6448 0.148919 68.9953 0.0699425C69.3459 -0.00903397 69.7117 0.013059 70.0502 0.133653C72.6094 1.04327 76.6549 1.92204 82.0262 2.92724C87.4037 3.92936 94.2397 4.80813 104.52 4.80813C114.797 4.80813 121.633 3.92936 127.01 2.92724C132.382 1.92204 136.43 1.03093 138.99 0.12132C139.324 0.00258327 139.686 -0.0202055 140.033 0.0555277C140.38 0.131261 140.699 0.302501 140.954 0.549917Z" fill="#F1F1F1"/>
<path fill-rule="evenodd" clip-rule="evenodd" d="M86.1183 25.9722V22.821C86.1183 22.0254 85.7884 21.5938 84.9589 21.5938H81.376V24.745C81.376 25.5436 81.709 25.9722 82.5384 25.9722H86.1183ZM86.1183 47.5377V29.9498C86.1183 29.1543 85.7884 28.7226 84.9589 28.7226H81.376V46.3074C81.376 47.103 81.709 47.5346 82.5384 47.5346H86.1183V47.5377ZM98.0573 32.1113C96.7006 32.1113 95.6368 32.8082 94.5422 33.8997V43.89C95.2915 44.1429 96.0747 44.2785 96.864 44.2847C99.8858 44.2847 101.178 42.3946 101.178 38.3152C101.178 34.1001 100.117 32.1113 98.0604 32.1113H98.0573ZM89.7999 45.7463C89.7999 46.5757 90.1329 46.7761 90.9932 47.0413C92.5195 47.5038 94.7427 47.8029 96.6328 47.8029C103.564 47.8029 106.185 43.7883 106.185 37.5505C106.185 32.3765 104.591 28.2293 99.3524 28.2293C97.5948 28.2293 95.8373 29.0248 94.5422 30.2859V22.824C94.5422 22.0254 94.2123 21.5938 93.3828 21.5938H89.7999V45.7463ZM113.647 29.9529V47.5377H110.064C109.238 47.5377 108.905 47.1061 108.905 46.3105V28.7257H112.488C113.317 28.7257 113.647 29.1574 113.647 29.9529ZM113.647 25.9753V22.821C113.647 22.0254 113.317 21.5938 112.485 21.5938H108.905V24.745C108.905 25.5436 109.238 25.9722 110.064 25.9722H113.647V25.9753ZM123.761 35.7621C126.107 36.7858 129.169 38.1209 129.169 42.1294C129.169 45.6445 126.317 47.8029 122.305 47.8029C120.446 47.8029 118.79 47.5686 117.461 47.14C117.217 47.0343 117.01 46.8569 116.868 46.6312C116.726 46.4056 116.655 46.1422 116.666 45.8758V43.4892C118.192 43.89 120.181 44.22 121.476 44.22C123.631 44.22 124.492 43.5879 124.492 42.3946C124.492 41.155 123.135 40.5445 121.541 39.8322C119.253 38.8055 116.465 37.5567 116.465 33.9028C116.465 30.9489 118.457 28.4945 122.901 28.4945C124.408 28.4883 125.907 28.7103 127.347 29.1574C127.877 29.3239 128.176 29.8543 128.176 30.4185V32.8082C126.746 32.3634 125.261 32.1175 123.764 32.0774C121.575 32.0774 121.109 32.7404 121.109 33.6345C121.109 34.6027 122.296 35.1208 123.761 35.7621Z" fill="#373737"/>
<path d="M96.3194 59.7741C96.1434 59.7741 96.0741 59.6891 96.0741 59.516V57.8362H94.3686V59.7741H93.7061C93.5301 59.7741 93.4619 59.6891 93.4619 59.516V55.3574H94.1254C94.3013 55.3574 94.3686 55.4434 94.3686 55.6145V57.1104H96.0741V55.3574H96.7366C96.9136 55.3574 96.9818 55.4434 96.9818 55.6145V59.7741H96.3194Z" fill="#373737"/>
<path d="M100.555 57.5613C100.555 56.3867 100.235 55.9813 99.6172 55.9813C98.9854 55.9813 98.673 56.4638 98.673 57.5613C98.673 58.7379 98.9923 59.1512 99.6093 59.1512C100.243 59.1512 100.555 58.6598 100.555 57.5613ZM97.7129 57.5702C97.7129 56.0821 98.3753 55.2417 99.6548 55.2417C100.867 55.2417 101.515 55.9971 101.515 57.5613C101.515 59.0424 100.852 59.8917 99.5707 59.8917C98.3595 59.8917 97.7129 59.1353 97.7129 57.5702Z" fill="#373737"/>
<path d="M103.26 59.7741C103.085 59.7741 103.017 59.6891 103.017 59.516V56.0822H101.79V55.6224C101.79 55.4434 101.859 55.3574 102.033 55.3574H105.149V55.833C105.149 56.013 105.066 56.0822 104.899 56.0822H103.924V59.7741H103.26Z" fill="#373737"/>
<path d="M108.767 59.4478C108.767 59.5951 108.697 59.6891 108.568 59.7197C108.204 59.8057 107.686 59.8374 107.327 59.8374C105.987 59.8374 105.772 59.3924 105.772 58.2406V55.3574H108.615V55.833C108.615 56.013 108.531 56.0822 108.363 56.0822H106.68V57.1104H108.424V57.586C108.424 57.765 108.34 57.8362 108.173 57.8362H106.68V58.2406C106.68 59.0029 106.863 59.1126 107.563 59.1126C107.921 59.1126 108.417 59.0583 108.767 58.9722V59.4478Z" fill="#373737"/>
<path d="M112.177 59.4478C112.177 59.5951 112.11 59.6891 111.98 59.7197C111.608 59.8057 111.288 59.8374 110.944 59.8374C109.695 59.8374 109.467 59.3924 109.467 58.2406V55.3574H110.13C110.304 55.3574 110.373 55.4434 110.373 55.6135V58.2406C110.373 59.0029 110.579 59.1126 111.18 59.1126C111.523 59.1126 111.843 59.0583 112.177 58.9722V59.4478Z" fill="#373737"/>
<path d="M114.006 59.8376C113.581 59.8376 113.23 59.7901 112.925 59.6892C112.812 59.6428 112.743 59.5479 112.743 59.4164V58.9566C113.094 59.0515 113.52 59.1286 113.847 59.1286C114.404 59.1286 114.647 58.9418 114.647 58.5749C114.647 57.7414 112.696 57.9827 112.696 56.5263C112.696 55.849 113.148 55.3032 114.129 55.3032C114.556 55.3032 114.838 55.3665 115.121 55.4515C115.242 55.4911 115.311 55.5919 115.311 55.7244V56.1852C114.982 56.0823 114.624 56.0131 114.296 56.0131C113.733 56.0131 113.596 56.199 113.596 56.4719C113.596 57.2204 115.538 57.0009 115.538 58.5295C115.538 59.3145 114.946 59.8376 114.006 59.8376Z" fill="#373737"/>
</svg>
