<svg width="209" height="75" viewBox="0 0 209 75" fill="none" xmlns="http://www.w3.org/2000/svg">
<g clip-path="url(#clip0_4950_22633)">
<path d="M146.126 62.5C160.001 62.5 171.126 51.25 171.126 37.5C171.126 23.75 159.876 12.5 146.126 12.5C132.376 12.5 121.126 23.625 121.126 37.375C121.001 51.25 132.251 62.5 146.126 62.5Z" fill="#9D9D9D"/>
<path d="M146.125 48.5C140 48.5 134.875 43.5 134.875 37.375C134.875 31.25 139.875 26.25 145.75 26.25V29.375C141.875 29.375 138.125 32.875 138.125 37.25C138.125 41.5 141.75 45.125 146.125 45.125C150.375 45.125 154 41.625 154 37.25C154 36 153.75 34.625 153.125 33.375C151 35.625 147.75 39.125 147.75 39.25L146.75 40.375L141.875 36.25L144 33.875L146.375 35.875C148 34.125 150.875 30.875 152.125 29.75L153.375 28.5L154.5 29.75C156.25 31.75 157.25 34.375 157.25 37.125C157.125 43.625 152.125 48.5 146.125 48.5Z" fill="white"/>
<path d="M38.25 23H45.125C48.25 23 50.625 23.5 52 24.375C53.375 25.25 54.125 26.75 54.125 28.75C54.125 30 53.75 31.25 53.125 32.125C52.5 33 51.5 33.625 50.125 33.75V33.875C51.75 34.125 52.875 34.75 53.75 35.625C54.5 36.5 54.875 37.75 54.875 39.375C54.875 41.375 54.125 43.125 52.75 44.25C51.25 45.5 49.25 46 46.625 46H38.25V23ZM42.125 32.625H45.75C47.375 32.625 48.5 32.5 49.25 31.875C50 31.375 50.375 30.625 50.375 29.25C50.375 28.125 50 27.375 49.125 26.875C48.375 26.5 47 26.25 45.375 26.25H42.125V32.625ZM42.125 35.75V43.125H46.125C47.75 43.125 48.875 42.875 49.75 42.25C50.625 41.75 51 40.625 51 39.375C51 38.125 50.625 37.375 49.75 36.625C48.875 36.125 47.75 35.75 46 35.75H42.125Z" fill="white"/>
<path d="M62.625 28.625V35C62.625 36.75 63.5 37.75 65.375 37.75C66.25 37.75 67.125 37.625 68 37.375C68.875 37.25 69.75 36.75 70.75 36.125V28.625H74.5V46.125H70.75V38.625C69.75 39.25 68.75 39.75 67.75 40C66.875 40.25 65.75 40.5 64.625 40.5C62.75 40.5 61.375 40 60.375 39.125C59.375 38.25 58.875 36.875 58.875 35.125V28.625H62.625Z" fill="white"/>
<path d="M90.75 46.125L90 43.75H89.875C89 44.75 88.25 45.5 87.375 45.875C86.5 46.25 85.375 46.375 84 46.375C82.375 46.375 80.875 45.875 80 45C79.125 44.125 78.625 42.75 78.625 41C78.625 39.25 79.25 37.875 80.625 36.875C81.875 36 84 35.5 86.75 35.375L89.875 35.25V34.375C89.875 33.25 89.625 32.375 89.125 31.875C88.625 31.375 87.875 31 86.75 31C85.875 31 85 31.125 84.125 31.375C83.25 31.625 82.5 31.875 81.75 32.25L80.5 29.5C81.375 29 82.5 28.625 83.625 28.375C84.75 28.125 85.875 28 86.75 28C89 28 90.625 28.5 91.75 29.5C92.875 30.375 93.375 32 93.375 34.125V46L90.75 46.125ZM85.25 43.625C86.5 43.625 87.625 43.25 88.5 42.5C89.375 41.75 89.75 40.75 89.75 39.375V37.875L87.5 38C85.75 38 84.375 38.375 83.625 38.875C82.875 39.375 82.375 40.125 82.375 41.25C82.375 42 82.5 42.625 83 43C83.625 43.5 84.375 43.625 85.25 43.625Z" fill="white"/>
<path d="M105.75 46.5C103 46.5 101.125 45.75 99.625 44.125C98.25 42.5 97.625 40.25 97.625 37.375C97.625 34.375 98.375 32.125 99.75 30.625C101.125 29 103.25 28.25 106 28.25C107.875 28.25 109.5 28.5 111 29.25L109.875 32.25C108.25 31.75 107 31.375 106 31.375C102.875 31.375 101.375 33.375 101.375 37.5C101.375 39.5 101.75 41 102.5 41.875C103.25 42.75 104.375 43.375 105.875 43.375C107.5 43.375 109.125 43 110.5 42.125V45.375C109.875 45.75 109.125 46 108.375 46.25C107.75 46.5 106.875 46.5 105.75 46.5Z" fill="white"/>
<path d="M118.5 28.625V35.75H126.75V28.625H130.5V46.125H126.75V38.625H118.5V46.125H114.75V28.625H118.5Z" fill="white"/>
</g>
<defs>
<clipPath id="clip0_4950_22633">
<rect width="132.5" height="50" fill="white" transform="translate(38.25 12.5)"/>
</clipPath>
</defs>
</svg>
