<svg width="209" height="75" viewBox="0 0 209 75" fill="none" xmlns="http://www.w3.org/2000/svg">
<path d="M52.3819 24.9702H42.8208L35.3481 49.0519H41.9946L43.3716 44.2043H52.056L53.4331 49.0519H60.3182L52.8593 24.9702H52.3819ZM45.0378 38.3336L47.0712 31.145H48.3335L50.3898 38.3336H45.0378Z" fill="white"/>
<path d="M180.944 24.9702H171.383L163.91 49.0519H170.561L171.938 44.2043H180.623L182 49.0519H188.885L181.426 24.9702H180.944ZM173.6 38.3336L175.633 31.145H176.9L178.956 38.3336H173.6Z" fill="white"/>
<path d="M66.1583 24.9702H62.5918V49.0519H69.1051V31.1635H79.3502V24.9702H69.1051H66.1583Z" fill="white"/>
<path d="M92.9843 24.9702H82.0186V49.0519H88.5457V41.9647H92.998C99.0661 41.9647 102.151 38.1447 102.151 33.4675C102.151 28.7903 99.0524 24.9702 92.9843 24.9702ZM92.9843 36.1171H88.5457V30.8178H92.998C94.7836 30.8178 95.6373 32.0206 95.6373 33.4675C95.6373 34.9144 94.7698 36.1171 92.9843 36.1171Z" fill="white"/>
<path d="M117.12 24.4546C109.817 24.4546 104.268 29.8921 104.268 37.0116C104.268 44.131 109.817 49.5685 117.12 49.5685C124.423 49.5685 129.972 44.1356 129.972 37.0116C129.972 29.8875 124.418 24.4546 117.12 24.4546ZM117.12 43.0343C113.622 43.0343 111.121 40.5229 111.121 37.0116C111.121 33.5002 113.622 30.9888 117.12 30.9888C120.617 30.9888 123.114 33.5002 123.114 37.0162C123.114 40.5321 120.613 43.0343 117.12 43.0343Z" fill="white"/>
<path d="M155.022 24.9702H152.897L147.393 35.4351L141.963 24.9702H139.599H136.138H133.086V49.0519H139.599V34.32L144.772 44.2043H149.775L155.022 34.2462V49.0519H161.531V24.9702H158.414H155.022Z" fill="white"/>
<path d="M209 24.9702H201.119H194.606H186.725V31.1635H194.606V49.0519H201.119V31.1635H209V24.9702Z" fill="white"/>
<path d="M25.4107 24.9702L16.1984 30.3432L6.9861 24.9702L0 37.0479L9.33622 42.4947V49.052H23.2488V42.3841L32.383 37.0479L25.4107 24.9702ZM16.1984 32.8684L18.6495 37.1032H13.7519L16.1984 32.8684ZM9.33622 40.6468L2.1757 36.4673L7.56445 27.1544L15.1105 31.5551L11.8975 37.0848L10.9795 38.6838L10.929 38.7714L9.72179 40.8588L9.33622 40.6468ZM21.656 47.453H10.929V41.9648L12.8247 38.693H19.5767L21.656 42.2919V47.453ZM22.6796 40.868L21.656 39.1078L21.4173 38.693L20.4993 37.094L17.2862 31.5644L24.8277 27.1637L30.2257 36.4673L23.2488 40.5363L22.6796 40.868Z" fill="white"/>
</svg>
