<svg width="209" height="75" viewBox="0 0 209 75" fill="none" xmlns="http://www.w3.org/2000/svg">
<path fill-rule="evenodd" clip-rule="evenodd" d="M30.6057 56.1056C30.6057 56.1056 28.8631 49.9759 30.965 45.0865C33.0668 40.1972 33.2285 38.5962 30.9147 36.9664C28.6009 35.3367 14.6031 27.8512 12.4689 20.2792C10.3348 12.7072 15.2282 3.33231 28.8092 8.52815C27.8212 7.64115 20.5888 1.06071 11.4306 4.87556C0.709509 10.2012 1.6185 24.296 7.55031 32.0951C11.8833 37.7994 18.4007 41.8306 25.2595 48.5516C27.5575 50.6585 29.3803 53.234 30.6057 56.1056Z" fill="white"/>
<circle cx="37.7097" cy="24.1482" r="8.94801" fill="white"/>
<path d="M34.5142 59.9403C34.5142 59.9403 29.4013 47.477 36.4317 40.7659C43.4621 34.0549 50.5841 33.2862 57.204 27.6635C63.8553 22.0142 66.791 15.2002 66.791 15.2002C66.791 15.2002 65.422 22.1652 59.7606 29.9005C56.995 33.6791 51.502 37.9392 47.9363 41.0855C37.071 50.6727 36.7514 53.2292 36.1123 54.8271C35.4731 56.425 34.5142 59.9403 34.5142 59.9403Z" fill="white"/>
<path fill-rule="evenodd" clip-rule="evenodd" d="M94.2604 13.7329H88.2431L81.9642 29.1283L75.6911 13.7329H69.668L79.2143 36.5829H84.7141L94.2604 13.7329ZM112.568 32.5375L114.056 36.4449H119.87L110.527 13.6008H105.295L95.9697 36.4449H101.783L103.237 32.5375H112.568ZM110.754 27.7358H105.062L107.905 20.2031L110.754 27.7538V27.7358ZM135.306 29.8726L140.033 36.4749H146.631L140.969 28.7922C142.252 28.1599 143.332 27.1589 144.079 25.9091C144.825 24.6593 145.207 23.2137 145.178 21.7457C145.178 16.836 141.521 13.7629 136.085 13.7629H126.44V36.4749H131.911V29.8726H135.306ZM131.911 24.7948V18.7086H135.98C138.085 18.7086 139.771 19.909 139.771 21.7097C139.771 23.5103 138.085 24.7828 135.98 24.7828L131.911 24.7948ZM169.7 18.7926V13.7509H150.213V18.7926H157.236V36.4629H162.706V18.7746L169.7 18.7926ZM186.45 13.2827C179.817 13.2827 174.822 18.4925 174.822 25.1069C174.822 31.7212 179.834 36.931 186.45 36.931C193.066 36.931 198.136 31.7212 198.136 25.1069C198.136 18.4925 193.119 13.2827 186.45 13.2827ZM186.45 31.6852C182.892 31.6852 180.334 28.6841 180.334 25.0829C180.334 21.4816 182.892 18.4805 186.45 18.4805C190.008 18.4805 192.566 21.4816 192.566 25.0829C192.566 28.6841 190.008 31.6672 186.444 31.6672L186.45 31.6852Z" fill="white"/>
<path d="M198.539 43.3228C197.665 43.3228 69.668 44.2815 69.668 44.2815C69.668 44.2815 197.665 45.2402 198.539 45.2402C199.706 45.2402 199.706 43.3227 198.539 43.3228Z" fill="white"/>
<path fill-rule="evenodd" clip-rule="evenodd" d="M72.1984 52.4843V57.1479C72.1984 57.2465 72.146 57.2903 72.0412 57.2903H71.7444C71.6396 57.2903 71.5872 57.2465 71.5872 57.1479V52.4843C71.5843 52.4643 71.5864 52.4438 71.5933 52.4246C71.6002 52.4055 71.6116 52.388 71.6269 52.3737C71.6421 52.3594 71.6606 52.3486 71.681 52.3421C71.7013 52.3356 71.723 52.3337 71.7444 52.3364H72.0412C72.0625 52.3337 72.0842 52.3356 72.1046 52.3421C72.125 52.3486 72.1435 52.3594 72.1587 52.3737C72.1739 52.388 72.1854 52.4055 72.1923 52.4246C72.1992 52.4438 72.2013 52.4643 72.1984 52.4843ZM80.5513 57.2903H80.2137C80.1879 57.291 80.1623 57.2859 80.139 57.2754C80.1158 57.2649 80.0955 57.2494 80.0798 57.2301L76.8551 53.2296V57.1479C76.8551 57.2465 76.8027 57.2903 76.6921 57.2903H76.401C76.2963 57.2903 76.2439 57.2465 76.2439 57.1479V52.4898C76.2436 52.4696 76.2475 52.4494 76.2555 52.4306C76.2635 52.4118 76.2754 52.3947 76.2904 52.3802C76.3037 52.3649 76.3207 52.353 76.3399 52.3453C76.3592 52.3377 76.3802 52.3346 76.401 52.3364H76.791C76.8175 52.3353 76.8438 52.3409 76.8673 52.3524C76.8908 52.3639 76.9107 52.3811 76.9249 52.4021L80.1147 56.3039V52.4679C80.1154 52.4496 80.1201 52.4317 80.1285 52.4152C80.137 52.3987 80.149 52.3841 80.1638 52.3722C80.1785 52.3603 80.1958 52.3515 80.2144 52.3463C80.233 52.3411 80.2526 52.3396 80.2719 52.3418H80.5629C80.6053 52.3414 80.6465 52.3549 80.6793 52.3802C80.6967 52.3932 80.7105 52.41 80.7196 52.429C80.7287 52.4481 80.7329 52.4689 80.7317 52.4898V57.1533C80.7317 57.252 80.6735 57.2958 80.5629 57.2958L80.5513 57.2903ZM87.7167 53.3666C87.6482 53.3065 87.5763 53.2498 87.5014 53.1967C87.4101 53.1302 87.3127 53.0715 87.2103 53.0214C87.0972 52.9631 86.9783 52.9153 86.8553 52.8789C86.7173 52.8408 86.5741 52.8223 86.4303 52.8241C86.2565 52.8199 86.0832 52.8439 85.9181 52.8953C85.7877 52.9319 85.6668 52.9934 85.563 53.0762C85.4765 53.1422 85.407 53.2258 85.3596 53.3207C85.3122 53.4156 85.2883 53.5193 85.2895 53.6242C85.2879 53.732 85.3271 53.8369 85.4001 53.9201C85.4804 54.0095 85.5795 54.0822 85.6911 54.1338C85.8209 54.1995 85.9574 54.2528 86.0986 54.2927L86.5526 54.4188L87.1987 54.5942C87.4017 54.6585 87.5968 54.743 87.7808 54.8462C87.9562 54.9442 88.1087 55.0747 88.229 55.2298C88.3521 55.4007 88.4133 55.6044 88.4036 55.8107C88.4076 56.0351 88.3536 56.257 88.2464 56.4574C88.1448 56.6475 87.9997 56.8141 87.8215 56.9451C87.6344 57.0837 87.4211 57.1878 87.1929 57.252C86.9404 57.3259 86.6773 57.3629 86.4129 57.3616C86.0495 57.362 85.6902 57.2891 85.3593 57.1479C85.0272 57.0088 84.7386 56.7918 84.5211 56.5177C84.4883 56.4845 84.4678 56.4422 84.4629 56.3971C84.464 56.3762 84.4704 56.3558 84.4815 56.3377C84.4927 56.3196 84.5082 56.3043 84.5269 56.293L84.7539 56.1121C84.7845 56.0915 84.8211 56.08 84.8587 56.0792C84.8771 56.0789 84.8954 56.0821 84.9124 56.0887C84.9295 56.0953 84.9449 56.1052 84.9577 56.1176L85.0159 56.1779C85.1209 56.282 85.2403 56.3723 85.3709 56.4464C85.4952 56.5217 85.6256 56.5877 85.7609 56.6437C85.8818 56.6911 86.0063 56.7296 86.1335 56.7588C86.2323 56.7833 86.334 56.7961 86.4362 56.7971C86.5913 56.7971 86.7458 56.7787 86.896 56.7423C87.0521 56.7054 87.2013 56.6463 87.3384 56.567C87.4687 56.4919 87.5799 56.3909 87.6644 56.2711C87.7517 56.146 87.7964 55.9987 87.7924 55.8491C87.7946 55.7243 87.7515 55.6025 87.6702 55.5038C87.58 55.4072 87.4714 55.3272 87.35 55.2682C87.206 55.1957 87.0537 55.1387 86.896 55.0983L86.3605 54.9613C85.8932 54.8667 85.4477 54.6941 85.045 54.4517C84.907 54.3623 84.7952 54.2417 84.7199 54.1009C84.6446 53.9601 84.6083 53.8037 84.6142 53.6461C84.613 53.4567 84.6568 53.2695 84.7423 53.0981C84.8264 52.927 84.952 52.7768 85.109 52.6597C85.2833 52.5339 85.4806 52.4391 85.6911 52.3802C85.9338 52.3076 86.1874 52.2725 86.442 52.2761C86.7413 52.2793 87.0366 52.3409 87.3093 52.4569C87.5857 52.5633 87.8384 52.7176 88.0544 52.9118L88.1417 53.0104C88.1673 53.0338 88.1837 53.0647 88.1882 53.0981C88.187 53.1192 88.1813 53.1397 88.1713 53.1586C88.1612 53.1775 88.1472 53.1942 88.13 53.2077L87.9205 53.3995C87.8976 53.4269 87.8641 53.4447 87.8273 53.4488C87.7771 53.4436 87.7311 53.42 87.6993 53.3831L87.7167 53.3666ZM92.7168 52.4843V55.2682C92.7152 55.4733 92.7506 55.6771 92.8216 55.871C92.8891 56.0529 92.9939 56.2204 93.1301 56.3642C93.2711 56.5027 93.4391 56.6143 93.6249 56.693C93.8274 56.7739 94.0453 56.8149 94.2652 56.8136C94.4946 56.8152 94.722 56.7742 94.9346 56.693C95.1201 56.6169 95.2852 56.5027 95.4177 56.3587C95.551 56.2169 95.652 56.051 95.7146 55.871C95.7856 55.6771 95.821 55.4733 95.8194 55.2682V52.4843C95.8192 52.4649 95.8232 52.4456 95.8312 52.4277C95.8392 52.4098 95.851 52.3937 95.8659 52.3802C95.8804 52.3649 95.8984 52.3529 95.9186 52.3453C95.9388 52.3377 95.9606 52.3346 95.9823 52.3364H96.2501C96.2964 52.3337 96.342 52.3474 96.3782 52.3747C96.3974 52.3864 96.4129 52.4028 96.4232 52.422C96.4334 52.4413 96.438 52.4628 96.4364 52.4843V55.312C96.439 55.5992 96.3816 55.8841 96.2676 56.1505C96.1558 56.3909 95.9957 56.6086 95.7961 56.7917C95.5957 56.9696 95.3604 57.1092 95.1034 57.2027C94.8367 57.3022 94.5521 57.3524 94.2652 57.3506C93.9754 57.3509 93.6885 57.2969 93.4212 57.1917C93.1652 57.0871 92.9323 56.9384 92.7343 56.7533C92.5295 56.5664 92.3672 56.3422 92.2571 56.0945C92.1471 55.8468 92.0916 55.5806 92.094 55.312V52.4624C92.0933 52.4241 92.1079 52.387 92.1348 52.3583C92.1482 52.3447 92.1644 52.3338 92.1824 52.3262C92.2004 52.3187 92.2198 52.3147 92.2395 52.3144H92.5539C92.5746 52.3139 92.5951 52.3176 92.6142 52.3251C92.6333 52.3327 92.6504 52.344 92.6645 52.3583C92.6814 52.3705 92.6949 52.3863 92.704 52.4044C92.7131 52.4225 92.7175 52.4424 92.7168 52.4624V52.4843ZM103.631 53.9037C103.63 53.7738 103.603 53.6453 103.549 53.5255C103.497 53.4076 103.422 53.2998 103.328 53.2077C103.231 53.1158 103.116 53.0415 102.991 52.9885C102.86 52.9285 102.717 52.8985 102.572 52.9008H100.988V54.9065H102.595C102.738 54.907 102.881 54.8809 103.014 54.8298C103.136 54.7766 103.247 54.7022 103.34 54.6106C103.532 54.4194 103.64 54.1668 103.643 53.9037H103.631ZM100.365 57.1479V52.4953C100.365 52.3912 100.418 52.3364 100.523 52.3364H102.583C102.883 52.3381 103.177 52.4154 103.434 52.5603C103.691 52.7053 103.902 52.9125 104.046 53.1604C104.189 53.4083 104.259 53.6878 104.248 53.9699C104.238 54.2519 104.147 54.5262 103.986 54.764C103.808 55.0034 103.565 55.1928 103.282 55.312L104.213 57.1479C104.213 57.1807 104.213 57.2027 104.213 57.2081C104.213 57.2136 104.172 57.2903 104.085 57.2903H103.695C103.655 57.292 103.616 57.2804 103.584 57.2575C103.556 57.2303 103.532 57.1988 103.515 57.1643L102.653 55.471H100.988V57.115C100.988 57.2136 100.936 57.2575 100.831 57.2575H100.534C100.429 57.2575 100.377 57.2136 100.377 57.115L100.365 57.1479ZM108.66 56.2108L108.288 57.1588C108.273 57.1973 108.246 57.2307 108.211 57.2542C108.175 57.2778 108.133 57.2904 108.09 57.2903H107.781C107.682 57.2903 107.636 57.2575 107.636 57.1862C107.633 57.1662 107.633 57.146 107.636 57.1259C107.633 57.117 107.633 57.1075 107.636 57.0985C107.979 56.3258 108.264 55.6737 108.497 55.1422C108.73 54.6106 108.928 54.1831 109.079 53.8379C109.231 53.4927 109.353 53.2241 109.434 53.0378C109.516 52.8515 109.58 52.72 109.615 52.6323L109.685 52.4788C109.695 52.4506 109.71 52.4245 109.731 52.4021C109.731 52.3692 109.795 52.3583 109.859 52.3583H110.069C110.092 52.3552 110.116 52.3576 110.139 52.3652C110.161 52.3729 110.181 52.3855 110.197 52.4021C110.215 52.4259 110.231 52.4517 110.243 52.4788L112.287 57.1259C112.287 57.1533 112.287 57.1698 112.287 57.1807C112.287 57.1917 112.234 57.2849 112.129 57.2849H111.827C111.784 57.2888 111.741 57.2783 111.706 57.2552C111.671 57.2321 111.645 57.1979 111.635 57.1588L111.221 56.2053L108.66 56.2108ZM109.958 53.1967L108.928 55.6408H111.006L109.97 53.1967H109.958ZM120.296 57.2903H119.964C119.938 57.291 119.913 57.2859 119.89 57.2754C119.866 57.2649 119.846 57.2494 119.83 57.2301L116.594 53.2296V57.1479C116.594 57.2465 116.542 57.2903 116.431 57.2903H116.14C116.035 57.2903 115.983 57.2465 115.983 57.1479V52.4898C115.982 52.4696 115.986 52.4494 115.994 52.4306C116.002 52.4118 116.014 52.3947 116.029 52.3802C116.042 52.3646 116.059 52.3523 116.078 52.3446C116.098 52.337 116.119 52.3341 116.14 52.3364H116.53C116.556 52.3353 116.583 52.3409 116.606 52.3524C116.63 52.3639 116.65 52.3811 116.664 52.4021L119.854 56.3039V52.4679C119.854 52.4496 119.859 52.4317 119.867 52.4152C119.876 52.3987 119.888 52.3841 119.903 52.3722C119.917 52.3603 119.935 52.3515 119.953 52.3463C119.972 52.3411 119.991 52.3396 120.011 52.3418H120.296C120.34 52.34 120.384 52.3537 120.418 52.3802C120.436 52.3932 120.449 52.41 120.458 52.429C120.468 52.4481 120.472 52.4689 120.471 52.4898V57.1533C120.471 57.252 120.412 57.2958 120.296 57.2958V57.2903ZM128.544 52.7693C128.608 52.8022 128.637 52.8405 128.637 52.8844C128.643 52.9041 128.643 52.925 128.637 52.9446L128.602 52.994L128.457 53.2187C128.41 53.268 128.375 53.2954 128.335 53.2954H128.282L128.207 53.2625C128.028 53.1413 127.832 53.0453 127.624 52.9775C127.417 52.9084 127.198 52.8732 126.978 52.8734C126.685 52.8704 126.393 52.9245 126.123 53.0323C125.873 53.1358 125.646 53.2827 125.453 53.4653C125.267 53.6457 125.119 53.8577 125.017 54.09C124.917 54.331 124.865 54.5875 124.865 54.8462C124.864 55.112 124.922 55.3751 125.034 55.6189C125.146 55.8529 125.304 56.0649 125.5 56.2436C125.696 56.4179 125.922 56.5588 126.169 56.6601C126.59 56.8237 127.056 56.8526 127.496 56.7423C127.701 56.6857 127.897 56.6027 128.078 56.4957C128.129 56.4703 128.176 56.439 128.218 56.4026C128.25 56.3709 128.294 56.3515 128.34 56.3478C128.379 56.3478 128.42 56.3752 128.463 56.43L128.626 56.6821C128.631 56.7129 128.631 56.7444 128.626 56.7752C128.626 56.7992 128.619 56.8227 128.606 56.8431C128.592 56.8635 128.573 56.8799 128.55 56.8903C128.321 57.0441 128.07 57.1659 127.805 57.252C127.524 57.3417 127.229 57.3861 126.932 57.3835C126.569 57.3867 126.21 57.3176 125.878 57.1807C125.556 57.0531 125.263 56.8669 125.017 56.6327C124.77 56.3996 124.572 56.1243 124.435 55.8217C124.291 55.5084 124.218 55.1708 124.219 54.8298C124.219 54.4889 124.292 54.1515 124.435 53.8379C124.712 53.2265 125.229 52.7395 125.878 52.4788C126.212 52.3468 126.57 52.2796 126.932 52.2816C127.222 52.2788 127.512 52.3214 127.787 52.4076C128.058 52.4953 128.313 52.6209 128.544 52.7803V52.7693ZM132.531 52.3364H135.942C136.047 52.3364 136.1 52.3857 136.1 52.4898V52.7638C136.101 52.7829 136.097 52.8019 136.09 52.8198C136.083 52.8376 136.073 52.854 136.059 52.8679C136.044 52.8844 136.025 52.8974 136.004 52.9059C135.983 52.9145 135.96 52.9183 135.937 52.9173H132.985V54.3914H135.314C135.354 54.3933 135.392 54.4067 135.424 54.4297C135.439 54.4451 135.451 54.4633 135.458 54.4832C135.465 54.503 135.467 54.524 135.465 54.5448V54.8188C135.466 54.8579 135.454 54.8963 135.43 54.9284C135.416 54.9441 135.398 54.9563 135.378 54.964C135.357 54.9716 135.335 54.9745 135.314 54.9723H132.985V56.7095H135.966C136.076 56.7095 136.129 56.7643 136.129 56.8739V57.1479C136.129 57.2465 136.076 57.2903 135.972 57.2903H132.531C132.427 57.2903 132.374 57.2465 132.374 57.1533V52.4898C132.374 52.3857 132.427 52.3364 132.531 52.3364ZM148.323 52.7693C148.348 52.7792 148.369 52.7951 148.384 52.8154C148.399 52.8357 148.409 52.8595 148.411 52.8844C148.417 52.9041 148.417 52.925 148.411 52.9446C148.413 52.961 148.413 52.9776 148.411 52.994L148.259 53.2187C148.219 53.268 148.178 53.2954 148.143 53.2954H148.085L148.015 53.2625C147.837 53.1407 147.641 53.0446 147.433 52.9775C147.225 52.9076 147.007 52.8723 146.787 52.8734C146.369 52.8681 145.959 52.9813 145.61 53.1982C145.261 53.4152 144.99 53.7259 144.831 54.09C144.726 54.3299 144.673 54.5869 144.674 54.8462C144.672 55.1126 144.732 55.3762 144.848 55.6189C144.96 55.8529 145.118 56.0649 145.314 56.2436C145.509 56.4188 145.736 56.5598 145.983 56.6601C146.234 56.758 146.503 56.8082 146.775 56.8081C146.956 56.8078 147.136 56.7857 147.311 56.7423C147.516 56.6868 147.712 56.6037 147.893 56.4957C147.946 56.4718 147.995 56.4404 148.038 56.4026C148.07 56.3709 148.114 56.3515 148.16 56.3478C148.201 56.3478 148.242 56.3478 148.277 56.43L148.44 56.6821C148.448 56.7126 148.448 56.7446 148.44 56.7752C148.44 56.7992 148.433 56.8227 148.42 56.8431C148.406 56.8635 148.387 56.8799 148.364 56.8903C148.136 57.0441 147.885 57.1659 147.619 57.252C147.338 57.3409 147.043 57.3853 146.746 57.3835C146.383 57.3874 146.024 57.3182 145.692 57.1807C145.042 56.9261 144.525 56.4395 144.255 55.8272C144.109 55.5148 144.035 55.1766 144.039 54.8353C144.036 54.4941 144.11 54.1561 144.255 53.8434C144.39 53.5395 144.588 53.2638 144.837 53.0323C145.087 52.7943 145.385 52.6058 145.714 52.4778C146.043 52.3498 146.396 52.2849 146.752 52.287C147.042 52.2843 147.332 52.3269 147.607 52.4131C147.878 52.5016 148.133 52.6272 148.364 52.7857L148.323 52.7693ZM154.319 52.2706C154.681 52.2687 155.039 52.3358 155.372 52.4679C155.694 52.5973 155.986 52.7833 156.234 53.0159C156.488 53.2529 156.689 53.5356 156.825 53.8472C156.961 54.1588 157.029 54.4929 157.025 54.8298C157.028 55.1686 156.957 55.5044 156.816 55.8162C156.676 56.1162 156.479 56.3893 156.234 56.6218C155.987 56.8547 155.694 57.0408 155.372 57.1698C155.036 57.3067 154.673 57.3758 154.307 57.3725C153.945 57.3752 153.586 57.3062 153.254 57.1698C152.934 57.0407 152.643 56.8547 152.398 56.6218C152.151 56.3883 151.954 56.1132 151.816 55.8107C151.674 55.4971 151.603 55.1595 151.606 54.8188C151.604 54.4783 151.676 54.1408 151.816 53.8269C151.955 53.5252 152.153 53.2503 152.398 53.0159C152.648 52.7831 152.942 52.5971 153.265 52.4679C153.598 52.3348 153.957 52.2676 154.319 52.2706ZM152.223 54.8134C152.221 55.077 152.276 55.3382 152.386 55.5806C152.491 55.8174 152.643 56.0332 152.834 56.2162C153.026 56.3941 153.251 56.5372 153.498 56.6382C153.757 56.7421 154.037 56.7944 154.319 56.7917C154.597 56.7943 154.873 56.742 155.128 56.6382C155.632 56.4378 156.032 56.0576 156.24 55.5806C156.35 55.3382 156.405 55.077 156.403 54.8134C156.405 54.5515 156.35 54.292 156.24 54.0516C156.136 53.8174 155.984 53.605 155.791 53.4269C155.604 53.2443 155.378 53.1006 155.128 53.0049C154.873 52.9011 154.597 52.8489 154.319 52.8515C154.037 52.8488 153.757 52.901 153.498 53.0049C153.249 53.102 153.023 53.2455 152.834 53.4269C152.642 53.605 152.49 53.8174 152.386 54.0516C152.276 54.292 152.221 54.5515 152.223 54.8134ZM163.661 57.0766H163.388C163.329 57.0766 163.283 57.0383 163.242 56.9561L161.612 53.3447L161.222 57.1479C161.222 57.2465 161.164 57.2903 161.059 57.2903H160.757C160.736 57.2931 160.715 57.2913 160.695 57.2851C160.676 57.2789 160.658 57.2685 160.643 57.2547C160.629 57.2409 160.617 57.224 160.611 57.2055C160.604 57.1869 160.602 57.1672 160.605 57.1479C160.687 56.3642 160.774 55.586 160.861 54.8134C160.949 54.0407 161.03 53.268 161.112 52.4843C161.111 52.4635 161.115 52.4426 161.124 52.4236C161.133 52.4045 161.147 52.3878 161.164 52.3747C161.198 52.3482 161.242 52.3346 161.286 52.3364H161.723C161.799 52.3364 161.851 52.3747 161.88 52.4624L163.527 56.1889L164.348 54.3256C164.628 53.7064 164.901 53.0871 165.175 52.4624C165.175 52.3747 165.245 52.3364 165.32 52.3364H165.786C165.807 52.3346 165.828 52.3377 165.847 52.3453C165.866 52.353 165.883 52.3649 165.896 52.3802C165.911 52.3937 165.923 52.4098 165.931 52.4277C165.939 52.4456 165.943 52.4649 165.943 52.4843L166.461 57.1479C166.461 57.2465 166.403 57.2903 166.292 57.2903H165.995C165.891 57.2903 165.838 57.2465 165.838 57.1479L165.442 53.3447L163.813 56.9561C163.778 57.0383 163.725 57.0766 163.661 57.0766ZM170.268 57.1479V52.4953C170.268 52.3912 170.32 52.3364 170.431 52.3364H172.177C172.401 52.334 172.623 52.375 172.829 52.4569C173.026 52.534 173.204 52.6475 173.353 52.7906C173.501 52.9336 173.618 53.1034 173.696 53.2899C173.859 53.6695 173.859 54.094 173.696 54.4736C173.536 54.8435 173.229 55.1402 172.841 55.3011C172.639 55.383 172.42 55.4241 172.2 55.4216H170.867V57.1479C170.867 57.2465 170.815 57.2903 170.71 57.2903H170.413C170.309 57.2903 170.256 57.2465 170.256 57.1479H170.268ZM173.219 53.8598C173.221 53.7333 173.193 53.6078 173.138 53.4927C173.087 53.3757 173.011 53.2695 172.916 53.1803C172.824 53.0897 172.713 53.0171 172.59 52.9666C172.465 52.911 172.328 52.8829 172.189 52.8844H170.879V54.8353H172.189C172.327 54.8385 172.464 54.8122 172.59 54.7586C172.711 54.7054 172.822 54.6331 172.916 54.5448C173.011 54.4556 173.087 54.3494 173.138 54.2325C173.194 54.1156 173.222 53.9882 173.219 53.8598ZM176.56 56.1943L176.164 57.1424C176.15 57.1809 176.123 57.2142 176.088 57.2378C176.052 57.2614 176.01 57.274 175.967 57.2739H175.658C175.559 57.2739 175.512 57.241 175.512 57.1698C175.51 57.1498 175.51 57.1295 175.512 57.1095C175.51 57.1006 175.51 57.091 175.512 57.0821C175.856 56.3094 176.141 55.6573 176.374 55.1257C176.607 54.5942 176.805 54.1667 176.956 53.8215C177.107 53.4762 177.23 53.2077 177.311 53.0214C177.393 52.8351 177.457 52.7035 177.492 52.6159L177.561 52.4624C177.571 52.4342 177.587 52.4081 177.608 52.3857C177.608 52.3528 177.672 52.3418 177.736 52.3418H177.946C177.969 52.3392 177.993 52.3418 178.015 52.3494C178.037 52.357 178.057 52.3695 178.074 52.3857C178.092 52.4095 178.108 52.4352 178.12 52.4624L180.163 57.1095C180.165 57.1277 180.165 57.1461 180.163 57.1643C180.163 57.2355 180.111 57.2684 180.006 57.2684H179.703C179.661 57.2724 179.618 57.2618 179.583 57.2387C179.548 57.2156 179.522 57.1815 179.511 57.1424L179.098 56.1889L176.56 56.1943ZM177.858 53.1803L176.816 55.6244H178.894L177.858 53.1803ZM188.202 57.2739H187.864C187.839 57.2745 187.813 57.2694 187.79 57.2589C187.766 57.2485 187.746 57.2329 187.73 57.2136L184.494 53.2132V57.1314C184.494 57.2301 184.442 57.2739 184.331 57.2739H184.04C183.935 57.2739 183.883 57.2301 183.883 57.1314V52.4734C183.883 52.4531 183.886 52.433 183.894 52.4142C183.902 52.3954 183.914 52.3782 183.929 52.3638C183.942 52.3481 183.959 52.3359 183.979 52.3282C183.998 52.3205 184.019 52.3177 184.04 52.3199H184.43C184.456 52.3189 184.483 52.3244 184.506 52.336C184.53 52.3475 184.55 52.3647 184.564 52.3857L187.754 56.2875V52.4514C187.754 52.4332 187.759 52.4152 187.768 52.3987C187.776 52.3823 187.788 52.3676 187.803 52.3558C187.818 52.3439 187.835 52.3351 187.853 52.3298C187.872 52.3246 187.892 52.3231 187.911 52.3254H188.202C188.244 52.3249 188.286 52.3385 188.318 52.3638C188.336 52.3768 188.349 52.3935 188.359 52.4126C188.368 52.4317 188.372 52.4525 188.371 52.4734V57.1369C188.371 57.2355 188.312 57.2794 188.202 57.2794V57.2739ZM193.842 55.0819L192.125 52.4569C192.1 52.4291 192.083 52.3948 192.079 52.3583C192.079 52.3144 192.114 52.2925 192.183 52.2925H192.649C192.682 52.2921 192.715 52.3017 192.742 52.3199C192.777 52.3523 192.806 52.3892 192.829 52.4295L194.145 54.49L195.484 52.4021C195.503 52.3704 195.529 52.3425 195.559 52.3199C195.586 52.3043 195.616 52.2949 195.647 52.2925H196.13C196.188 52.2925 196.217 52.2925 196.217 52.3528C196.22 52.3637 196.22 52.3748 196.217 52.3857C196.218 52.4039 196.218 52.4222 196.217 52.4405L195.356 53.7502L194.494 55.0654V57.0931C194.497 57.1138 194.495 57.135 194.488 57.1548C194.48 57.1747 194.469 57.1927 194.453 57.2075C194.437 57.2223 194.418 57.2336 194.397 57.2403C194.376 57.2471 194.353 57.2492 194.331 57.2465H194.023C193.924 57.2465 193.877 57.1972 193.877 57.0931L193.842 55.0819Z" fill="white"/>
</svg>
