<svg width="173" height="40" viewBox="0 0 173 40" fill="none" xmlns="http://www.w3.org/2000/svg">
<path d="M1.25928 3.60156H3.37744C3.85791 3.60156 4.26367 3.6748 4.59473 3.82129C4.92871 3.96777 5.18213 4.18457 5.35498 4.47168C5.53076 4.75586 5.61865 5.10596 5.61865 5.52197C5.61865 5.81494 5.55859 6.08301 5.43848 6.32617C5.32129 6.56641 5.15137 6.77148 4.92871 6.94141C4.70898 7.1084 4.44531 7.23291 4.1377 7.31494L3.90039 7.40723H1.90967L1.90088 6.71729H3.40381C3.7085 6.71729 3.96191 6.66455 4.16406 6.55908C4.36621 6.45068 4.51855 6.30566 4.62109 6.12402C4.72363 5.94238 4.7749 5.7417 4.7749 5.52197C4.7749 5.27588 4.72656 5.06055 4.62988 4.87598C4.5332 4.69141 4.38086 4.54932 4.17285 4.44971C3.96777 4.34717 3.70264 4.2959 3.37744 4.2959H2.10742V10H1.25928V3.60156ZM4.99902 10L3.44336 7.09961L4.32666 7.09521L5.9043 9.94727V10H4.99902ZM10.8701 9.31006V10H7.48193V9.31006H10.8701ZM7.65332 3.60156V10H6.80518V3.60156H7.65332ZM10.4219 6.35254V7.04248H7.48193V6.35254H10.4219ZM10.8262 3.60156V4.2959H7.48193V3.60156H10.8262ZM13.9858 9.02881L15.8711 3.60156H16.7896L14.4209 10H13.7661L13.9858 9.02881ZM12.2236 3.60156L14.0913 9.02881L14.3242 10H13.6694L11.3052 3.60156H12.2236ZM18.5605 3.60156V10H17.7124V3.60156H18.5605ZM24.168 9.31006V10H20.7798V9.31006H24.168ZM20.9512 3.60156V10H20.103V3.60156H20.9512ZM23.7197 6.35254V7.04248H20.7798V6.35254H23.7197ZM24.124 3.60156V4.2959H20.7798V3.60156H24.124ZM26.9014 8.06641L28.1714 3.60156H28.7866L28.4307 5.3374L27.064 10H26.4531L26.9014 8.06641ZM25.5874 3.60156L26.5981 7.97852L26.9014 10H26.2949L24.7437 3.60156H25.5874ZM30.4302 7.97412L31.4189 3.60156H32.2671L30.7202 10H30.1138L30.4302 7.97412ZM28.8789 3.60156L30.1138 8.06641L30.562 10H29.9512L28.6328 5.3374L28.2725 3.60156H28.8789ZM37.2725 9.31006V10H33.8843V9.31006H37.2725ZM34.0557 3.60156V10H33.2075V3.60156H34.0557ZM36.8242 6.35254V7.04248H33.8843V6.35254H36.8242ZM37.2285 3.60156V4.2959H33.8843V3.60156H37.2285ZM40.0542 10H38.7183L38.7271 9.31006H40.0542C40.5112 9.31006 40.8921 9.21484 41.1968 9.02441C41.5015 8.83105 41.73 8.56152 41.8823 8.21582C42.0376 7.86719 42.1152 7.45996 42.1152 6.99414V6.60303C42.1152 6.23682 42.0713 5.91162 41.9834 5.62744C41.8955 5.34033 41.7666 5.09863 41.5967 4.90234C41.4268 4.70312 41.2188 4.55225 40.9727 4.44971C40.7295 4.34717 40.4497 4.2959 40.1333 4.2959H38.6919V3.60156H40.1333C40.5522 3.60156 40.9346 3.67188 41.2803 3.8125C41.626 3.9502 41.9233 4.15088 42.1724 4.41455C42.4243 4.67529 42.6177 4.9917 42.7524 5.36377C42.8872 5.73291 42.9546 6.14893 42.9546 6.61182V6.99414C42.9546 7.45703 42.8872 7.87451 42.7524 8.24658C42.6177 8.61572 42.4229 8.93066 42.168 9.19141C41.916 9.45215 41.6113 9.65283 41.2539 9.79346C40.8994 9.93115 40.4995 10 40.0542 10ZM39.1709 3.60156V10H38.3228V3.60156H39.1709ZM51.3877 6.59863V7.00293C51.3877 7.4834 51.3276 7.91406 51.2075 8.29492C51.0874 8.67578 50.9146 8.99951 50.689 9.26611C50.4634 9.53271 50.1924 9.73633 49.876 9.87695C49.5625 10.0176 49.2109 10.0879 48.8213 10.0879C48.4434 10.0879 48.0962 10.0176 47.7798 9.87695C47.4663 9.73633 47.1938 9.53271 46.9624 9.26611C46.7339 8.99951 46.5566 8.67578 46.4307 8.29492C46.3047 7.91406 46.2417 7.4834 46.2417 7.00293V6.59863C46.2417 6.11816 46.3032 5.68896 46.4263 5.31104C46.5522 4.93018 46.7295 4.60645 46.958 4.33984C47.1865 4.07031 47.4575 3.86523 47.771 3.72461C48.0874 3.58398 48.4346 3.51367 48.8125 3.51367C49.2021 3.51367 49.5537 3.58398 49.8672 3.72461C50.1836 3.86523 50.4546 4.07031 50.6802 4.33984C50.9087 4.60645 51.083 4.93018 51.2031 5.31104C51.3262 5.68896 51.3877 6.11816 51.3877 6.59863ZM50.5483 7.00293V6.58984C50.5483 6.20898 50.5088 5.87207 50.4297 5.5791C50.3535 5.28613 50.2407 5.04004 50.0913 4.84082C49.9419 4.6416 49.7588 4.49072 49.542 4.38818C49.3281 4.28564 49.085 4.23438 48.8125 4.23438C48.5488 4.23438 48.3101 4.28564 48.0962 4.38818C47.8853 4.49072 47.7036 4.6416 47.5513 4.84082C47.4019 5.04004 47.2861 5.28613 47.2041 5.5791C47.1221 5.87207 47.0811 6.20898 47.0811 6.58984V7.00293C47.0811 7.38672 47.1221 7.72656 47.2041 8.02246C47.2861 8.31543 47.4033 8.56299 47.5557 8.76514C47.7109 8.96436 47.894 9.11523 48.105 9.21777C48.3188 9.32031 48.5576 9.37158 48.8213 9.37158C49.0967 9.37158 49.3413 9.32031 49.5552 9.21777C49.769 9.11523 49.9492 8.96436 50.0957 8.76514C50.2451 8.56299 50.3579 8.31543 50.4341 8.02246C50.5103 7.72656 50.5483 7.38672 50.5483 7.00293ZM57.5796 3.60156V10H56.7271L53.5059 5.06494V10H52.6577V3.60156H53.5059L56.7402 8.5498V3.60156H57.5796Z" fill="white"/>
<path d="M91.2142 34.5408L90.5638 34.3738L90.8846 31.1877H94.1673V31.9392H91.5745L91.3812 33.6794C91.4984 33.6121 91.6463 33.5491 91.825 33.4905C92.0067 33.4319 92.2147 33.4026 92.449 33.4026C92.7449 33.4026 93.0101 33.4539 93.2444 33.5564C93.4788 33.656 93.678 33.7996 93.8421 33.9871C94.0091 34.1746 94.1365 34.4001 94.2244 34.6638C94.3123 34.9275 94.3563 35.2219 94.3563 35.5471C94.3563 35.8547 94.3138 36.1375 94.2288 36.3953C94.1468 36.6531 94.0223 36.8787 93.8553 37.072C93.6883 37.2625 93.4774 37.4104 93.2225 37.5159C92.9705 37.6213 92.6732 37.6741 92.3304 37.6741C92.0726 37.6741 91.8279 37.6389 91.5965 37.5686C91.368 37.4954 91.1629 37.3855 90.9813 37.239C90.8026 37.0896 90.6561 36.905 90.5418 36.6853C90.4305 36.4626 90.3602 36.2019 90.3309 35.9031H91.1043C91.1395 36.1433 91.2098 36.3455 91.3152 36.5095C91.4207 36.6736 91.5584 36.7981 91.7283 36.8831C91.9012 36.9651 92.1019 37.0061 92.3304 37.0061C92.5237 37.0061 92.6951 36.9724 92.8445 36.905C92.994 36.8376 93.1199 36.741 93.2225 36.615C93.325 36.489 93.4026 36.3367 93.4554 36.158C93.511 35.9792 93.5389 35.7786 93.5389 35.5559C93.5389 35.3538 93.511 35.1663 93.4554 34.9934C93.3997 34.8206 93.3162 34.6697 93.2049 34.5408C93.0965 34.4119 92.9632 34.3123 92.805 34.2419C92.6468 34.1687 92.4651 34.1321 92.2601 34.1321C91.9876 34.1321 91.7811 34.1687 91.6404 34.2419C91.5027 34.3152 91.3607 34.4148 91.2142 34.5408ZM97.6917 31.1877H99.8099C100.29 31.1877 100.696 31.261 101.027 31.4075C101.361 31.554 101.615 31.7708 101.787 32.0579C101.963 32.342 102.051 32.6921 102.051 33.1082C102.051 33.4011 101.991 33.6692 101.871 33.9124C101.754 34.1526 101.584 34.3577 101.361 34.5276C101.141 34.6946 100.878 34.8191 100.57 34.9011L100.333 34.9934H98.3421L98.3333 34.3035H99.8362C100.141 34.3035 100.394 34.2507 100.596 34.1453C100.799 34.0369 100.951 33.8918 101.054 33.7102C101.156 33.5286 101.207 33.3279 101.207 33.1082C101.207 32.8621 101.159 32.6467 101.062 32.4622C100.966 32.2776 100.813 32.1355 100.605 32.0359C100.4 31.9333 100.135 31.8821 99.8099 31.8821H98.5399V37.5862H97.6917V31.1877ZM101.431 37.5862L99.8758 34.6858L100.759 34.6814L102.337 37.5334V37.5862H101.431ZM107.303 36.8962V37.5862H103.914V36.8962H107.303ZM104.086 31.1877V37.5862H103.238V31.1877H104.086ZM106.854 33.9387V34.6287H103.914V33.9387H106.854ZM107.259 31.1877V31.8821H103.914V31.1877H107.259ZM110.418 36.615L112.304 31.1877H113.222L110.853 37.5862H110.199L110.418 36.615ZM108.656 31.1877L110.524 36.615L110.757 37.5862H110.102L107.738 31.1877H108.656ZM114.993 31.1877V37.5862H114.145V31.1877H114.993ZM120.6 36.8962V37.5862H117.212V36.8962H120.6ZM117.384 31.1877V37.5862H116.535V31.1877H117.384ZM120.152 33.9387V34.6287H117.212V33.9387H120.152ZM120.556 31.1877V31.8821H117.212V31.1877H120.556ZM123.334 35.6526L124.604 31.1877H125.219L124.863 32.9236L123.496 37.5862H122.886L123.334 35.6526ZM122.02 31.1877L123.031 35.5647L123.334 37.5862H122.727L121.176 31.1877H122.02ZM126.863 35.5603L127.851 31.1877H128.7L127.153 37.5862H126.546L126.863 35.5603ZM125.311 31.1877L126.546 35.6526L126.994 37.5862H126.384L125.065 32.9236L124.705 31.1877H125.311ZM133.05 35.969C133.05 35.8196 133.027 35.6877 132.98 35.5735C132.936 35.4563 132.857 35.3508 132.742 35.2571C132.631 35.1633 132.476 35.074 132.277 34.989C132.08 34.9041 131.831 34.8176 131.53 34.7297C131.213 34.636 130.928 34.532 130.673 34.4177C130.418 34.3005 130.2 34.1672 130.018 34.0178C129.836 33.8684 129.697 33.697 129.6 33.5037C129.504 33.3103 129.455 33.0891 129.455 32.8401C129.455 32.5911 129.507 32.3611 129.609 32.1501C129.712 31.9392 129.858 31.7561 130.049 31.6008C130.242 31.4426 130.472 31.3196 130.739 31.2317C131.005 31.1438 131.303 31.0999 131.631 31.0999C132.111 31.0999 132.518 31.1921 132.852 31.3767C133.189 31.5583 133.446 31.7971 133.621 32.093C133.797 32.386 133.885 32.6995 133.885 33.0334H133.041C133.041 32.7932 132.99 32.5808 132.888 32.3962C132.785 32.2087 132.63 32.0623 132.422 31.9568C132.214 31.8484 131.95 31.7942 131.631 31.7942C131.329 31.7942 131.08 31.8396 130.884 31.9304C130.687 32.0212 130.541 32.1443 130.444 32.2996C130.35 32.4548 130.304 32.6321 130.304 32.8313C130.304 32.9661 130.331 33.0891 130.387 33.2004C130.446 33.3088 130.535 33.4099 130.655 33.5037C130.778 33.5974 130.933 33.6838 131.121 33.7629C131.311 33.842 131.538 33.9182 131.802 33.9915C132.165 34.094 132.479 34.2083 132.742 34.3342C133.006 34.4602 133.223 34.6023 133.393 34.7605C133.566 34.9158 133.693 35.093 133.775 35.2922C133.86 35.4885 133.903 35.7112 133.903 35.9602C133.903 36.2209 133.85 36.4568 133.744 36.6677C133.639 36.8787 133.488 37.0588 133.292 37.2083C133.096 37.3577 132.86 37.4734 132.584 37.5554C132.312 37.6345 132.007 37.6741 131.67 37.6741C131.374 37.6741 131.083 37.6331 130.796 37.551C130.512 37.469 130.252 37.3459 130.018 37.1819C129.786 37.0178 129.6 36.8157 129.46 36.5754C129.322 36.3323 129.253 36.051 129.253 35.7317H130.097C130.097 35.9514 130.139 36.1404 130.224 36.2986C130.309 36.4539 130.425 36.5828 130.572 36.6853C130.721 36.7878 130.889 36.864 131.077 36.9138C131.267 36.9607 131.465 36.9841 131.67 36.9841C131.966 36.9841 132.217 36.9431 132.422 36.8611C132.627 36.7791 132.782 36.6619 132.888 36.5095C132.996 36.3572 133.05 36.177 133.05 35.969Z" fill="white"/>
<path d="M94.9091 12.4567L99.542 15.1623L98.3125 10.0629L102.406 6.6319L97.0156 6.18943L94.9091 1.38019L92.8026 6.18943L87.4127 6.6319L91.5057 10.0629L90.2763 15.1623L94.9091 12.4567Z" fill="#EF4335"/>
<path d="M111.404 12.4558L116.037 15.1614L114.807 10.062L118.9 6.63099L113.51 6.18851L111.404 1.37927L109.297 6.18851L103.907 6.63099L108 10.062L106.771 15.1614L111.404 12.4558Z" fill="#EF4335"/>
<path d="M127.896 12.4558L132.528 15.1614L131.299 10.062L135.392 6.63099L130.002 6.18851L127.896 1.37927L125.789 6.18851L120.399 6.63099L124.492 10.062L123.263 15.1614L127.896 12.4558Z" fill="#EF4335"/>
<path d="M144.385 12.4558L149.018 15.1614L147.789 10.062L151.882 6.63099L146.492 6.18851L144.385 1.37927L142.279 6.18851L136.889 6.63099L140.982 10.062L139.753 15.1614L144.385 12.4558Z" fill="#EF4335"/>
<path d="M162.203 12.4558L166.836 15.1614L165.606 10.062L169.699 6.63099L164.31 6.18851L162.203 1.37927L160.097 6.18851L154.707 6.63099L158.8 10.062L157.57 15.1614L162.203 12.4558Z" fill="#EF4335"/>
<path d="M18.2101 20.6894H21.3963V39.8354H18.2101V20.6894ZM32.5479 33.7278C32.5479 36.6579 29.9854 36.8915 29.2231 36.8915C27.3186 36.8915 26.9721 35.1776 26.9721 34.1437V26.8161H23.7859V34.1284C23.7859 35.9434 24.3785 37.4414 25.4172 38.44C26.3349 39.323 27.7097 39.8055 29.1992 39.8055C30.2554 39.8055 31.7513 39.4892 32.5479 38.79V39.8354H35.734V26.8161H32.5479V33.7278ZM42.1063 22.2211H38.9202V26.8161H36.5306V29.8795H38.9202V39.8354H42.1063V29.8795H44.496V26.8161H42.1063V22.2211ZM54.53 35.9426C53.8362 36.5423 52.9202 36.8747 51.9149 36.8747C49.699 36.8747 48.0716 35.31 48.0716 33.1619C48.0716 31.0137 49.6472 29.5149 51.9149 29.5149C52.9026 29.5149 53.8362 29.8312 54.5475 30.4309L55.031 30.8306L57.1793 28.7659L56.6416 28.2995C55.3775 27.2021 53.6992 26.5864 51.9141 26.5864C47.9314 26.5864 45.0392 29.3495 45.0392 33.1458C45.0392 36.926 48.0007 39.7879 51.9141 39.7879C53.7326 39.7879 55.4285 39.1722 56.6767 38.0571L57.196 37.5907L55.0143 35.5275L54.53 35.9426ZM68.5515 27.9511C67.6339 27.0688 66.5585 26.5864 65.069 26.5864C64.0128 26.5864 62.8164 26.9027 62.0198 27.6011V20.6894H58.8337V39.8354H62.0198V32.6633C62.0198 29.7332 64.1848 29.5004 64.9471 29.5004C66.8517 29.5004 66.7991 31.2151 66.7991 32.2474V39.8354H69.9852V32.2635C69.9852 30.4485 69.591 28.9505 68.5515 27.9511Z" fill="white"/>
<path d="M52.1395 30.9499C52.7505 30.9499 53.3364 31.1832 53.7684 31.5986C54.2004 32.014 54.4431 32.5773 54.4431 33.1647C54.4431 33.7521 54.2004 34.3155 53.7684 34.7309C53.3364 35.1462 52.7505 35.3796 52.1395 35.3796C51.5286 35.3796 50.9427 35.1462 50.5106 34.7309C50.0786 34.3155 49.8359 33.7521 49.8359 33.1647C49.8359 32.5773 50.0786 32.014 50.5106 31.5986C50.9427 31.1832 51.5286 30.9499 52.1395 30.9499Z" fill="#EF4335"/>
<path d="M13.7487 35.0262C12.5372 36.2247 10.8915 36.8741 9.15984 36.8741C5.61046 36.8741 3.02967 34.1937 3.02967 30.5146C3.02967 26.8187 5.61046 24.1382 9.15984 24.1382C10.8748 24.1382 12.5021 24.7869 13.732 25.9694L14.2163 26.4358L16.3462 24.3879L15.8787 23.9215C14.1127 22.1731 11.7231 21.225 9.15984 21.225C3.93056 21.225 -0.000366211 25.2204 -0.000366211 30.5307C-0.000366211 35.8249 3.94808 39.8043 9.15984 39.8043C11.7406 39.8043 14.1303 38.8393 15.8962 37.0909L16.3638 36.6245L14.2513 34.5437L13.7487 35.0262Z" fill="white"/>
</svg>
