<svg width="432" height="101" viewBox="0 0 432 101" fill="none" xmlns="http://www.w3.org/2000/svg">
<path d="M3.18994 9.39832H8.60303C9.83089 9.39832 10.8678 9.58549 11.7139 9.95984C12.5674 10.3342 13.215 10.8882 13.6567 11.6219C14.106 12.3482 14.3306 13.2429 14.3306 14.306C14.3306 15.0547 14.1771 15.7398 13.8701 16.3612C13.5706 16.9751 13.1364 17.4992 12.5674 17.9335C12.0059 18.3602 11.332 18.6784 10.5459 18.8881L9.93945 19.1239H4.85205L4.82959 17.3607H8.67041C9.44906 17.3607 10.0967 17.226 10.6133 16.9564C11.1299 16.6794 11.5192 16.3088 11.7812 15.8446C12.0433 15.3804 12.1743 14.8676 12.1743 14.306C12.1743 13.6771 12.0508 13.1268 11.8037 12.6552C11.5566 12.1835 11.1673 11.8204 10.6357 11.5658C10.1117 11.3038 9.43408 11.1727 8.60303 11.1727H5.35742V25.7499H3.18994V9.39832ZM12.7471 25.7499L8.77148 18.3378L11.0288 18.3265L15.0605 25.6151V25.7499H12.7471ZM27.751 23.9867V25.7499H19.0923V23.9867H27.751ZM19.5303 9.39832V25.7499H17.3628V9.39832H19.5303ZM26.6055 16.4286V18.1918H19.0923V16.4286H26.6055ZM27.6387 9.39832V11.1727H19.0923V9.39832H27.6387ZM35.7134 23.2679L40.5312 9.39832H42.8784L36.8252 25.7499H35.1519L35.7134 23.2679ZM31.21 9.39832L35.9829 23.2679L36.5781 25.7499H34.9048L28.8628 9.39832H31.21ZM47.4043 9.39832V25.7499H45.2368V9.39832H47.4043ZM61.7344 23.9867V25.7499H53.0757V23.9867H61.7344ZM53.5137 9.39832V25.7499H51.3462V9.39832H53.5137ZM60.5889 16.4286V18.1918H53.0757V16.4286H60.5889ZM61.6221 9.39832V11.1727H53.0757V9.39832H61.6221ZM68.7197 20.8085L71.9653 9.39832H73.5376L72.6279 13.8344L69.1353 25.7499H67.5742L68.7197 20.8085ZM65.3618 9.39832L67.9448 20.5839L68.7197 25.7499H67.1699L63.2056 9.39832H65.3618ZM77.7378 20.5726L80.2646 9.39832H82.4321L78.479 25.7499H76.9292L77.7378 20.5726ZM73.7734 9.39832L76.9292 20.8085L78.0747 25.7499H76.5137L73.1445 13.8344L72.2236 9.39832H73.7734ZM95.2236 23.9867V25.7499H86.5649V23.9867H95.2236ZM87.0029 9.39832V25.7499H84.8354V9.39832H87.0029ZM94.0781 16.4286V18.1918H86.5649V16.4286H94.0781ZM95.1113 9.39832V11.1727H86.5649V9.39832H95.1113ZM102.333 25.7499H98.9185L98.9409 23.9867H102.333C103.5 23.9867 104.474 23.7434 105.252 23.2567C106.031 22.7626 106.615 22.0738 107.004 21.1903C107.401 20.2994 107.6 19.2587 107.6 18.0682V17.0687C107.6 16.1329 107.487 15.3018 107.263 14.5756C107.038 13.8418 106.709 13.2242 106.274 12.7225C105.84 12.2134 105.309 11.8278 104.68 11.5658C104.058 11.3038 103.343 11.1727 102.535 11.1727H98.8511V9.39832H102.535C103.605 9.39832 104.582 9.578 105.466 9.93738C106.349 10.2893 107.109 10.8021 107.746 11.476C108.389 12.1423 108.884 12.9509 109.228 13.9017C109.572 14.8451 109.745 15.9082 109.745 17.0912V18.0682C109.745 19.2512 109.572 20.3181 109.228 21.2689C108.884 22.2123 108.386 23.0171 107.734 23.6835C107.09 24.3498 106.312 24.8627 105.398 25.222C104.493 25.5739 103.471 25.7499 102.333 25.7499ZM100.075 9.39832V25.7499H97.9077V9.39832H100.075ZM131.296 17.0575V18.0907C131.296 19.3186 131.142 20.4191 130.835 21.3925C130.528 22.3658 130.087 23.1931 129.51 23.8744C128.934 24.5557 128.241 25.076 127.433 25.4354C126.632 25.7948 125.733 25.9745 124.737 25.9745C123.771 25.9745 122.884 25.7948 122.076 25.4354C121.275 25.076 120.578 24.5557 119.987 23.8744C119.403 23.1931 118.95 22.3658 118.628 21.3925C118.306 20.4191 118.145 19.3186 118.145 18.0907V17.0575C118.145 15.8296 118.302 14.7328 118.617 13.767C118.939 12.7937 119.392 11.9663 119.976 11.285C120.56 10.5962 121.252 10.0721 122.053 9.71277C122.862 9.35339 123.749 9.17371 124.715 9.17371C125.711 9.17371 126.609 9.35339 127.41 9.71277C128.219 10.0721 128.911 10.5962 129.488 11.285C130.072 11.9663 130.517 12.7937 130.824 13.767C131.139 14.7328 131.296 15.8296 131.296 17.0575ZM129.151 18.0907V17.035C129.151 16.0617 129.05 15.2007 128.848 14.452C128.653 13.7033 128.365 13.0744 127.983 12.5653C127.601 12.0562 127.133 11.6706 126.579 11.4086C126.033 11.1465 125.411 11.0155 124.715 11.0155C124.041 11.0155 123.431 11.1465 122.884 11.4086C122.345 11.6706 121.881 12.0562 121.492 12.5653C121.11 13.0744 120.814 13.7033 120.604 14.452C120.395 15.2007 120.29 16.0617 120.29 17.035V18.0907C120.29 19.0715 120.395 19.94 120.604 20.6962C120.814 21.4449 121.114 22.0775 121.503 22.5941C121.9 23.1032 122.368 23.4888 122.907 23.7509C123.453 24.0129 124.063 24.1439 124.737 24.1439C125.441 24.1439 126.066 24.0129 126.613 23.7509C127.159 23.4888 127.62 23.1032 127.994 22.5941C128.376 22.0775 128.664 21.4449 128.859 20.6962C129.054 19.94 129.151 19.0715 129.151 18.0907ZM147.12 9.39832V25.7499H144.941L136.709 13.1381V25.7499H134.542V9.39832H136.709L144.975 22.0438V9.39832H147.12Z" fill="white"/>
<path d="M235.805 90.2906C235.805 91.2864 235.573 92.1324 235.109 92.8287C234.652 93.5175 234.031 94.0416 233.245 94.401C232.466 94.7604 231.586 94.9401 230.605 94.9401C229.625 94.9401 228.741 94.7604 227.955 94.401C227.169 94.0416 226.548 93.5175 226.091 92.8287C225.634 92.1324 225.406 91.2864 225.406 90.2906C225.406 89.6393 225.529 89.0441 225.776 88.505C226.031 87.9585 226.387 87.483 226.843 87.0787C227.307 86.6744 227.854 86.3637 228.483 86.1466C229.119 85.922 229.819 85.8097 230.583 85.8097C231.586 85.8097 232.481 86.0044 233.267 86.3937C234.053 86.7755 234.671 87.3033 235.12 87.9772C235.577 88.651 235.805 89.4222 235.805 90.2906ZM233.716 90.2457C233.716 89.6393 233.585 89.104 233.323 88.6398C233.061 88.1681 232.694 87.8012 232.223 87.5392C231.751 87.2771 231.204 87.1461 230.583 87.1461C229.947 87.1461 229.396 87.2771 228.932 87.5392C228.475 87.8012 228.12 88.1681 227.865 88.6398C227.611 89.104 227.483 89.6393 227.483 90.2457C227.483 90.8746 227.607 91.4137 227.854 91.8629C228.109 92.3046 228.468 92.6453 228.932 92.8849C229.404 93.117 229.962 93.233 230.605 93.233C231.249 93.233 231.803 93.117 232.268 92.8849C232.732 92.6453 233.087 92.3046 233.334 91.8629C233.589 91.4137 233.716 90.8746 233.716 90.2457ZM235.423 82.6202C235.423 83.4139 235.214 84.1289 234.794 84.7653C234.375 85.4017 233.802 85.9033 233.076 86.2701C232.35 86.637 231.526 86.8204 230.605 86.8204C229.67 86.8204 228.835 86.637 228.101 86.2701C227.375 85.9033 226.806 85.4017 226.394 84.7653C225.982 84.1289 225.776 83.4139 225.776 82.6202C225.776 81.6694 225.982 80.8608 226.394 80.1945C226.813 79.5281 227.386 79.019 228.112 78.6671C228.839 78.3152 229.666 78.1393 230.594 78.1393C231.53 78.1393 232.361 78.3152 233.087 78.6671C233.814 79.019 234.383 79.5281 234.794 80.1945C235.214 80.8608 235.423 81.6694 235.423 82.6202ZM233.346 82.6539C233.346 82.1074 233.23 81.6245 232.998 81.2052C232.765 80.7859 232.444 80.4565 232.032 80.2169C231.62 79.9698 231.141 79.8463 230.594 79.8463C230.048 79.8463 229.569 79.9624 229.157 80.1945C228.752 80.4191 228.434 80.741 228.202 81.1603C227.978 81.5795 227.865 82.0774 227.865 82.6539C227.865 83.2155 227.978 83.7059 228.202 84.1251C228.434 84.5444 228.756 84.8701 229.168 85.1022C229.58 85.3343 230.059 85.4503 230.605 85.4503C231.152 85.4503 231.627 85.3343 232.032 85.1022C232.444 84.8701 232.765 84.5444 232.998 84.1251C233.23 83.7059 233.346 83.2155 233.346 82.6539ZM244.677 78.3639H250.09C251.318 78.3639 252.355 78.5511 253.201 78.9254C254.055 79.2998 254.702 79.8538 255.144 80.5875C255.593 81.3138 255.818 82.2085 255.818 83.2716C255.818 84.0203 255.664 84.7054 255.357 85.3268C255.058 85.9407 254.624 86.4648 254.055 86.899C253.493 87.3258 252.819 87.644 252.033 87.8536L251.427 88.0895H246.339L246.317 86.3263H250.158C250.936 86.3263 251.584 86.1915 252.101 85.922C252.617 85.645 253.007 85.2744 253.269 84.8102C253.531 84.346 253.662 83.8331 253.662 83.2716C253.662 82.6427 253.538 82.0924 253.291 81.6207C253.044 81.149 252.655 80.7859 252.123 80.5314C251.599 80.2693 250.921 80.1383 250.09 80.1383H246.845V94.7155H244.677V78.3639ZM254.234 94.7155L250.259 87.3033L252.516 87.2921L256.548 94.5807V94.7155H254.234ZM269.238 92.9523V94.7155H260.58V92.9523H269.238ZM261.018 78.3639V94.7155H258.85V78.3639H261.018ZM268.093 85.3942V87.1573H260.58V85.3942H268.093ZM269.126 78.3639V80.1383H260.58V78.3639H269.126ZM277.201 92.2335L282.019 78.3639H284.366L278.312 94.7155H276.639L277.201 92.2335ZM272.697 78.3639L277.47 92.2335L278.065 94.7155H276.392L270.35 78.3639H272.697ZM288.892 78.3639V94.7155H286.724V78.3639H288.892ZM303.222 92.9523V94.7155H294.563V92.9523H303.222ZM295.001 78.3639V94.7155H292.833V78.3639H295.001ZM302.076 85.3942V87.1573H294.563V85.3942H302.076ZM303.109 78.3639V80.1383H294.563V78.3639H303.109ZM310.207 89.774L313.453 78.3639H315.025L314.115 82.7999L310.623 94.7155H309.062L310.207 89.774ZM306.849 78.3639L309.432 89.5494L310.207 94.7155H308.657L304.693 78.3639H306.849ZM319.225 89.5382L321.752 78.3639H323.919L319.966 94.7155H318.417L319.225 89.5382ZM315.261 78.3639L318.417 89.774L319.562 94.7155H318.001L314.632 82.7999L313.711 78.3639H315.261ZM335.038 90.5826C335.038 90.2008 334.978 89.8639 334.858 89.5719C334.746 89.2724 334.543 89.0029 334.251 88.7633C333.967 88.5237 333.57 88.2954 333.061 88.0782C332.559 87.8611 331.923 87.6403 331.152 87.4156C330.343 87.1761 329.613 86.9103 328.962 86.6183C328.311 86.3188 327.753 85.9781 327.289 85.5963C326.824 85.2145 326.469 84.7765 326.222 84.2823C325.975 83.7882 325.851 83.2229 325.851 82.5865C325.851 81.9502 325.982 81.3624 326.244 80.8234C326.506 80.2843 326.881 79.8164 327.367 79.4196C327.861 79.0153 328.449 78.7008 329.13 78.4762C329.812 78.2516 330.572 78.1393 331.41 78.1393C332.638 78.1393 333.679 78.3751 334.532 78.8468C335.393 79.311 336.048 79.9212 336.498 80.6774C336.947 81.4261 337.171 82.2272 337.171 83.0807H335.015C335.015 82.4668 334.884 81.924 334.622 81.4523C334.36 80.9731 333.963 80.5988 333.432 80.3292C332.9 80.0522 332.226 79.9137 331.41 79.9137C330.639 79.9137 330.003 80.0297 329.501 80.2618C328.999 80.4939 328.625 80.8084 328.378 81.2052C328.138 81.602 328.019 82.055 328.019 82.5641C328.019 82.9085 328.09 83.2229 328.232 83.5074C328.382 83.7845 328.61 84.0428 328.917 84.2823C329.231 84.5219 329.628 84.7428 330.107 84.9449C330.594 85.1471 331.174 85.3418 331.848 85.5289C332.777 85.791 333.578 86.083 334.251 86.4049C334.925 86.7268 335.479 87.09 335.914 87.4943C336.355 87.8911 336.681 88.344 336.891 88.8531C337.108 89.3548 337.216 89.9238 337.216 90.5602C337.216 91.2265 337.082 91.8292 336.812 92.3683C336.542 92.9073 336.157 93.3678 335.655 93.7496C335.154 94.1315 334.551 94.4272 333.847 94.6368C333.151 94.839 332.372 94.9401 331.511 94.9401C330.755 94.9401 330.01 94.8352 329.276 94.6256C328.55 94.416 327.888 94.1015 327.289 93.6823C326.697 93.263 326.222 92.7464 325.862 92.1324C325.51 91.511 325.334 90.7923 325.334 89.9762H327.491C327.491 90.5377 327.599 91.0206 327.816 91.4249C328.034 91.8217 328.329 92.1512 328.704 92.4132C329.085 92.6753 329.516 92.8699 329.995 92.9972C330.482 93.117 330.987 93.1769 331.511 93.1769C332.267 93.1769 332.908 93.0721 333.432 92.8624C333.956 92.6528 334.353 92.3533 334.622 91.964C334.899 91.5747 335.038 91.1142 335.038 90.5826Z" fill="white"/>
<path d="M237.273 31.8912L248.855 38.6553L245.782 25.9068L256.015 17.3292L242.54 16.223L237.273 4.19995L232.007 16.223L218.532 17.3292L228.765 25.9068L225.691 38.6553L237.273 31.8912Z" fill="#EF4335"/>
<path d="M278.51 31.8893L290.092 38.6534L287.018 25.905L297.251 17.3274L283.776 16.2212L278.51 4.19812L273.243 16.2212L259.769 17.3274L270.001 25.905L266.928 38.6534L278.51 31.8893Z" fill="#EF4335"/>
<path d="M319.739 31.8893L331.321 38.6534L328.248 25.905L338.48 17.3274L325.006 16.2212L319.739 4.19812L314.473 16.2212L300.998 17.3274L311.231 25.905L308.157 38.6534L319.739 31.8893Z" fill="#EF4335"/>
<path d="M360.964 31.8893L372.546 38.6534L369.472 25.905L379.705 17.3274L366.23 16.2212L360.964 4.19812L355.698 16.2212L342.223 17.3274L352.455 25.905L349.382 38.6534L360.964 31.8893Z" fill="#EF4335"/>
<path d="M405.508 31.8893L417.09 38.6534L414.016 25.905L424.249 17.3274L410.774 16.2212L405.508 4.19812L400.242 16.2212L386.767 17.3274L396.999 25.905L393.926 38.6534L405.508 31.8893Z" fill="#EF4335"/>
<path d="M45.5264 52.4734H53.4918V100.338H45.5264V52.4734ZM81.3707 85.0695C81.3707 92.3947 74.9645 92.9787 73.0588 92.9787C68.2975 92.9787 67.4312 88.6938 67.4312 86.1091V67.7902H59.4658V86.0708C59.4658 90.6084 60.9474 94.3533 63.5441 96.85C65.8381 99.0575 69.2752 100.264 72.999 100.264C75.6396 100.264 79.3793 99.473 81.3707 97.725V100.338H89.3361V67.7902H81.3707V85.0695ZM105.267 56.3026H97.3015V67.7902H91.3274V75.4486H97.3015V100.338H105.267V75.4486H111.241V67.7902H105.267V56.3026ZM136.326 90.6065C134.591 92.1056 132.301 92.9365 129.788 92.9365C124.248 92.9365 120.18 89.025 120.18 83.6546C120.18 78.2841 124.119 74.5372 129.788 74.5372C132.258 74.5372 134.591 75.328 136.37 76.8271L137.579 77.8265L142.949 72.6648L141.605 71.4988C138.445 68.7551 134.249 67.2158 129.786 67.2158C119.83 67.2158 112.599 74.1237 112.599 83.6144C112.599 93.0648 120.003 100.22 129.786 100.22C134.333 100.22 138.572 98.6803 141.693 95.8927L142.991 94.7267L137.537 89.5688L136.326 90.6065ZM171.38 70.6276C169.086 68.422 166.397 67.2158 162.674 67.2158C160.033 67.2158 157.042 68.0065 155.051 69.7527V52.4734H147.085V100.338H155.051V82.4082C155.051 75.0829 160.463 74.5009 162.369 74.5009C167.13 74.5009 166.999 78.7877 166.999 81.3685V100.338H174.964V81.4087C174.964 76.8711 173.978 73.1262 171.38 70.6276Z" fill="white"/>
<path d="M130.35 78.1248C131.877 78.1248 133.342 78.7081 134.422 79.7465C135.502 80.7849 136.109 82.1933 136.109 83.6619C136.109 85.1304 135.502 86.5388 134.422 87.5772C133.342 88.6156 131.877 89.199 130.35 89.199C128.822 89.199 127.358 88.6156 126.278 87.5772C125.198 86.5388 124.591 85.1304 124.591 83.6619C124.591 82.1933 125.198 80.7849 126.278 79.7465C127.358 78.7081 128.822 78.1248 130.35 78.1248Z" fill="#EF4335"/>
<path d="M34.3727 88.3155C31.3438 91.3119 27.2297 92.9354 22.9005 92.9354C14.0271 92.9354 7.5751 86.2343 7.5751 77.0366C7.5751 67.7967 14.0271 61.0956 22.9005 61.0956C27.1879 61.0956 31.2562 62.7173 34.3309 65.6734L35.5416 66.8394L40.8665 61.7198L39.6976 60.5538C35.2827 56.1828 29.3087 53.8125 22.9005 53.8125C9.82731 53.8125 0 63.801 0 77.0768C0 90.3124 9.87112 100.261 22.9005 100.261C29.3525 100.261 35.3265 97.8483 39.7414 93.4773L40.9103 92.3113L35.6292 87.1093L34.3727 88.3155Z" fill="white"/>
</svg>
