<svg width="120" height="40" viewBox="0 0 120 40" fill="none" xmlns="http://www.w3.org/2000/svg">
<path d="M26.2334 38.503C25.8866 38.9241 25.4616 39.2716 24.9826 39.5257C24.5037 39.7798 23.9802 39.9354 23.442 39.9838C22.9039 40.0321 22.3617 39.9722 21.8463 39.8075C21.3309 39.6427 20.8526 39.3763 20.4385 39.0236L10.8155 30.8283C10.3439 30.4268 9.96632 29.9235 9.71015 29.355C9.45397 28.7865 9.32566 28.1671 9.33454 27.5418C9.34341 26.9166 9.48926 26.3012 9.76146 25.7405C10.0337 25.1797 10.4254 24.6877 10.9081 24.3002L18.5189 18.1888L18.2047 18.5082C13.8064 22.9173 19.9594 27.6904 19.9594 27.6904L22.7869 30.0985L25.7291 32.604C26.1438 32.9574 26.4858 33.3903 26.7356 33.8782C26.9854 34.3661 27.1381 34.8992 27.1849 35.4472C27.2318 35.9951 27.1718 36.5471 27.0085 37.0714C26.8453 37.5958 26.5819 38.0823 26.2334 38.503Z" fill="url(#paint0_linear_2395_148452)"/>
<path d="M25.6304 23.0226L25.522 23.1105L25.4921 23.136L24.5622 23.9345L24.3815 24.0782C21.0278 26.7849 20.9681 28.583 25.7215 32.6168L22.7793 30.1113L19.9517 27.7031C19.9517 27.7031 13.7908 22.93 18.1971 18.521L18.5113 18.2016L20.5204 16.4769C21.37 15.7907 22.4518 15.4731 23.5305 15.5933C24.6092 15.7135 25.5975 16.2618 26.2807 17.1189L26.3011 17.1492C26.6365 17.5796 26.8852 18.073 27.033 18.6011C27.1807 19.1292 27.2248 19.6818 27.1625 20.2272C27.1002 20.7726 26.9328 21.3002 26.6699 21.7798C26.4071 22.2595 26.0538 22.6818 25.6304 23.0226Z" fill="url(#paint1_linear_2395_148452)"/>
<path d="M1.84584 1.47435C2.19554 1.05578 2.62293 0.711351 3.10359 0.460735C3.58426 0.21012 4.10879 0.0582298 4.64722 0.0137415C5.18565 -0.0307468 5.72742 0.0330386 6.2416 0.201454C6.75577 0.369869 7.23226 0.639614 7.64386 0.99528L17.2072 9.26242C17.6761 9.66733 18.0503 10.1734 18.3026 10.7438C18.5549 11.3142 18.6789 11.9346 18.6657 12.5599C18.6524 13.1852 18.5022 13.7996 18.226 14.3584C17.9498 14.9173 17.5546 15.4065 17.069 15.7905L9.41579 21.846C9.51946 21.7374 9.62785 21.6304 9.72996 21.5266C14.1676 17.1495 8.04129 12.3317 8.04129 12.3317L5.23888 9.90118L2.31552 7.37009C1.90367 7.01447 1.56479 6.57982 1.31826 6.09098C1.07174 5.60215 0.922397 5.06871 0.878777 4.52117C0.835157 3.97363 0.898114 3.42272 1.06405 2.89993C1.22998 2.37714 1.49564 1.89271 1.84584 1.47435Z" fill="url(#paint2_linear_2395_148452)"/>
<path d="M2.42174 16.8653L2.53013 16.779L2.55997 16.7551L3.41295 16.062L3.59517 15.9183C6.96779 13.2355 7.04162 11.439 2.31649 7.37012L5.23985 9.9012L8.05011 12.3269C8.05011 12.3269 14.1764 17.1447 9.73878 21.5218C9.62882 21.6304 9.52043 21.7374 9.42461 21.8412L7.47518 23.4653C6.61904 24.1428 5.53433 24.4493 4.45705 24.318C3.37976 24.1867 2.39705 23.6283 1.72271 22.7642L1.70229 22.7339C1.37013 22.3007 1.12524 21.8051 0.981626 21.2756C0.838008 20.7461 0.798478 20.193 0.865298 19.648C0.932117 19.1029 1.10398 18.5766 1.37104 18.0991C1.63811 17.6216 1.99515 17.2024 2.42174 16.8653Z" fill="url(#paint3_linear_2395_148452)"/>
<path d="M36.6495 16H38.755V5.60938H36.6495V16ZM49.7472 5.60938H40.4777V7.52344H44.0597V16H46.1652V7.52344H49.7472V5.60938ZM60.2198 7.6875C59.0167 7.6875 58.0323 8.20703 57.4308 9.08203L57.3214 7.79688H55.5714V16H57.5402V11.4883C57.5402 10.2031 58.4152 9.51953 59.673 9.51953C60.0558 9.51953 60.4659 9.54688 60.8761 9.60156L60.9034 7.74219C60.6847 7.71484 60.4386 7.6875 60.2198 7.6875ZM69.0245 14.3047C68.6964 14.3047 68.5323 14.1406 68.5323 13.8125V10.3945C68.5323 8.69922 67.3019 7.66016 65.2238 7.66016C63.7745 7.66016 62.5714 8.15234 61.6144 9.05469L62.7902 10.2852C63.4464 9.62891 64.2394 9.27344 65.1144 9.27344C66.0988 9.27344 66.7003 9.65625 66.7003 10.2305C66.7003 10.7773 66.0167 10.9141 64.9503 11.0508C63.3917 11.2422 61.423 11.6523 61.423 13.7305C61.423 15.1797 62.5167 16.1367 64.1027 16.1367C65.3058 16.1367 66.3722 15.6172 66.9738 14.7969C67.1105 15.6719 67.63 16.0547 68.6417 16.0547C68.9972 16.0547 69.2159 16.0273 69.3527 16V14.3047H69.0245ZM64.5128 14.5781C63.7745 14.5781 63.337 14.1953 63.337 13.5664C63.337 12.6641 64.2394 12.5273 65.1691 12.3633C65.8527 12.2539 66.3175 12.1719 66.6456 11.9805V12.8281C66.6456 13.7852 65.6886 14.5781 64.5128 14.5781ZM76.0245 9.4375V7.79688H73.6183V5.60938H71.8683L71.6495 7.79688H70.0089V9.4375H71.6495V13.7578C71.6495 15.3438 72.6066 16.1641 74.2745 16.1641C74.8761 16.1641 75.4503 16.1094 76.0245 15.9453V14.1953C75.5597 14.3047 75.2042 14.332 74.712 14.332C74.0011 14.332 73.6183 14.0859 73.6183 13.3203V9.4375H76.0245ZM77.8566 6.70312H79.9894V4.95312H77.8566V6.70312ZM77.9386 16H79.9073V7.79688H77.9386V16ZM87.0714 7.66016C85.8956 7.66016 84.8839 8.17969 84.2823 9L84.173 7.79688H82.423V16H84.3917V11.2969C84.3917 10.1211 85.3214 9.30078 86.4698 9.30078C87.4816 9.30078 88.0831 10.0117 88.0831 11.2695V16H90.0519V10.8047C90.0519 8.91797 88.8214 7.66016 87.0714 7.66016ZM98.0636 7.79688L97.9816 8.89062C97.3527 8.09766 96.3956 7.66016 95.2472 7.66016C93.1417 7.66016 91.6925 9.24609 91.6925 11.625C91.6925 14.0039 93.087 15.5898 95.2472 15.5898C96.3683 15.5898 97.298 15.125 97.9269 14.3594V15.0156C97.9269 16.3008 97.2706 17.2305 95.6027 17.2305C94.5636 17.2305 93.8253 16.957 93.1417 16.3828L92.212 17.75C92.9503 18.4609 94.0714 18.8711 95.63 18.8711C98.2823 18.8711 99.7863 17.3398 99.7863 14.9883L99.8136 7.79688H98.0636ZM95.8214 14.0586C94.5089 14.0586 93.6886 13.1289 93.6886 11.6523C93.6886 10.2305 94.5089 9.30078 95.8214 9.30078C97.1339 9.30078 97.9269 10.2031 97.9269 11.6523C97.9269 13.1289 97.1339 14.0586 95.8214 14.0586ZM40.0402 36.1367C42.5558 36.1367 44.2784 34.4414 44.2784 31.8984C44.2784 29.3281 42.6105 27.6602 40.0402 27.6602C37.5245 27.6602 35.8019 29.3555 35.8019 31.8984C35.8019 34.4688 37.4698 36.1367 40.0402 36.1367ZM40.0402 34.4961C38.673 34.4961 37.8253 33.5117 37.8253 31.8984C37.8253 30.2852 38.673 29.3008 40.0402 29.3008C41.4073 29.3008 42.255 30.2852 42.255 31.8984C42.255 33.5117 41.4073 34.4961 40.0402 34.4961ZM49.4464 26.457C49.9933 26.457 50.4855 26.6484 50.9503 26.9766L51.8527 25.5273C51.1691 25.0625 50.3761 24.8164 49.4191 24.8164C47.7238 24.8164 46.63 25.8281 46.63 27.3867V27.7969H44.962V29.4375H46.63V36H48.5988V29.4375H50.8956V27.7969H48.5988V27.3594C48.5988 26.7852 48.8995 26.457 49.4464 26.457ZM61.4503 36.1367C64.2667 36.1367 65.9894 34.4688 65.9894 31.8438V25.6094H63.8839V31.7891C63.8839 33.3477 63.0089 34.2773 61.4503 34.2773C59.9191 34.2773 59.0167 33.3477 59.0167 31.7891V25.6094H56.9113V31.8438C56.9113 34.4688 58.6613 36.1367 61.4503 36.1367ZM74.0831 36H76.4347L72.962 31.0234L76.298 27.7969H73.837L70.4738 31.2422V25.0625H68.505V36H70.4738V33.457L71.5948 32.3906L74.0831 36ZM82.3409 27.6875C81.1378 27.6875 80.1534 28.207 79.5519 29.082L79.4425 27.7969H77.6925V36H79.6613V31.4883C79.6613 30.2031 80.5363 29.5195 81.7941 29.5195C82.1769 29.5195 82.587 29.5469 82.9972 29.6016L83.0245 27.7422C82.8058 27.7148 82.5597 27.6875 82.3409 27.6875ZM91.1456 34.3047C90.8175 34.3047 90.6534 34.1406 90.6534 33.8125V30.3945C90.6534 28.6992 89.423 27.6602 87.3448 27.6602C85.8956 27.6602 84.6925 28.1523 83.7355 29.0547L84.9113 30.2852C85.5675 29.6289 86.3605 29.2734 87.2355 29.2734C88.2198 29.2734 88.8214 29.6562 88.8214 30.2305C88.8214 30.7773 88.1378 30.9141 87.0714 31.0508C85.5128 31.2422 83.5441 31.6523 83.5441 33.7305C83.5441 35.1797 84.6378 36.1367 86.2238 36.1367C87.4269 36.1367 88.4933 35.6172 89.0948 34.7969C89.2316 35.6719 89.7511 36.0547 90.7628 36.0547C91.1183 36.0547 91.337 36.0273 91.4738 36V34.3047H91.1456ZM86.6339 34.5781C85.8956 34.5781 85.4581 34.1953 85.4581 33.5664C85.4581 32.6641 86.3605 32.5273 87.2902 32.3633C87.9738 32.2539 88.4386 32.1719 88.7667 31.9805V32.8281C88.7667 33.7852 87.8097 34.5781 86.6339 34.5781ZM93.2238 26.7031H95.3566V24.9531H93.2238V26.7031ZM93.3058 36H95.2745V27.7969H93.3058V36ZM102.439 27.6602C101.263 27.6602 100.251 28.1797 99.6495 29L99.5402 27.7969H97.7902V36H99.7589V31.2969C99.7589 30.1211 100.689 29.3008 101.837 29.3008C102.849 29.3008 103.45 30.0117 103.45 31.2695V36H105.419V30.8047C105.419 28.918 104.189 27.6602 102.439 27.6602ZM109.028 32.5273H115.126C115.208 32.2539 115.208 32.0898 115.208 31.8984C115.208 29.3281 113.622 27.6602 111.189 27.6602C108.7 27.6602 107.06 29.3828 107.06 31.8984C107.06 34.332 108.509 36.1367 111.325 36.1367C112.966 36.1367 114.142 35.5352 114.88 34.6875L113.65 33.5117C113.157 34.0859 112.392 34.4961 111.325 34.4961C110.04 34.4961 109.22 33.7578 109.028 32.5273ZM111.189 29.2461C112.255 29.2461 112.993 29.9023 113.212 31.0781H109.056C109.275 29.9297 110.04 29.2461 111.189 29.2461Z" fill="white"/>
<defs>
<linearGradient id="paint0_linear_2395_148452" x1="7.8532" y1="49.3622" x2="25.9168" y2="21.3251" gradientUnits="userSpaceOnUse">
<stop stop-color="#3717B1"/>
<stop offset="0.11" stop-color="#3D35C1"/>
<stop offset="0.43" stop-color="#4E87EE"/>
<stop offset="0.57" stop-color="#55A7FF"/>
<stop offset="1" stop-color="#8FDBFF"/>
</linearGradient>
<linearGradient id="paint1_linear_2395_148452" x1="-21073.7" y1="7509.54" x2="-19264.4" y2="6608.95" gradientUnits="userSpaceOnUse">
<stop stop-color="#3717B1"/>
<stop offset="0.11" stop-color="#3D35C1"/>
<stop offset="0.43" stop-color="#4E87EE"/>
<stop offset="0.57" stop-color="#55A7FF"/>
<stop offset="1" stop-color="#8FDBFF"/>
</linearGradient>
<linearGradient id="paint2_linear_2395_148452" x1="21.4014" y1="-10.3658" x2="3.15925" y2="17.7032" gradientUnits="userSpaceOnUse">
<stop stop-color="#FF9C1C"/>
<stop offset="0.51" stop-color="#FFD91F"/>
</linearGradient>
<linearGradient id="paint3_linear_2395_148452" x1="35114.4" y1="-209155" x2="33543.6" y2="-208389" gradientUnits="userSpaceOnUse">
<stop stop-color="#FF9C1C"/>
<stop offset="0.51" stop-color="#FFD91F"/>
</linearGradient>
</defs>
</svg>
