<svg width="791" height="779" viewBox="0 0 791 779" fill="none" xmlns="http://www.w3.org/2000/svg">
<path d="M15.7209 279.292C22.7809 258.342 31.4709 237.642 40.1709 217.582C49.1209 196.962 59.0909 172.352 76.2109 157.002C104.681 131.472 182.121 49.8422 195.091 45.6522C208.061 41.4622 229.831 39.3722 264.161 45.6522C284.361 49.3522 306.891 49.8122 326.681 43.8922C347.341 37.7022 365.931 26.3122 385.641 17.8122C423.041 1.6422 465.291 -3.6578 505.261 4.2222C537.161 10.5122 568.701 26.2722 586.361 53.5822C609.401 89.2122 602.901 138.112 637.191 167.552C666.451 192.682 712.721 190.242 741.001 216.472C760.841 234.872 767.271 263.092 774.331 289.212C780.771 313.012 790.501 338.612 790.351 363.552C790.191 389.252 778.881 413.812 766.491 435.772C756.671 453.182 745.881 470.042 734.791 486.672C732.391 490.262 729.951 493.912 728.661 498.032C727.691 501.132 727.411 504.402 727.131 507.632C725.481 526.912 727.581 547.402 712.431 562.102C704.981 569.332 695.111 573.702 687.751 581.032C669.861 598.842 677.071 623.612 670.681 645.532C664.651 666.222 644.671 682.102 623.731 685.642C622.741 685.812 621.701 685.962 620.871 686.522C620.031 687.082 619.501 687.982 618.991 688.852C613.601 698.092 607.851 704.862 597.591 709.142C587.611 713.842 578.521 715.622 570.271 723.072C562.181 730.372 554.271 737.802 545.641 744.482C528.481 757.762 507.641 770.732 485.871 774.192C449.031 780.052 432.031 765.472 406.701 769.772C381.451 774.052 362.471 780.972 336.171 778.252C299.331 774.442 286.771 728.402 253.291 724.212C219.811 720.022 178.341 736.932 120.571 693.392C62.8009 649.862 14.6709 630.602 7.5509 529.302C3.2109 467.562 -1.7491 404.732 2.7109 342.782C3.7809 327.962 5.6909 313.082 9.7009 298.742C11.5209 292.242 13.5409 285.752 15.7209 279.292Z" fill="#FE6F21"/>
</svg>
