<svg width="361" height="64" viewBox="0 0 361 64" fill="none" xmlns="http://www.w3.org/2000/svg">
<g clip-path="url(#clip0_5970_13713)">
<path d="M9.55349 21.5659C7.22137 21.5659 5.66663 19.8712 5.66663 17.8082C5.66663 15.6347 7.25839 14.0138 9.59051 14.0138C11.9967 14.0138 13.4774 15.6715 13.5144 17.8082C13.5144 19.8712 11.9597 21.5659 9.59051 21.5659H9.55349ZM6.07382 53.2109V25.5445H13.1072V53.2109H6.07382Z" fill="#373737"/>
<path d="M20.6961 33.7967C20.6961 30.6285 20.5851 27.9392 20.474 25.5447H26.582L26.9152 29.7076H27.1003C28.3588 27.534 31.3943 24.9185 36.0216 24.9185C40.8709 24.9185 45.9054 28.0498 45.9054 36.7808V53.2111H38.8719V37.5912C38.8719 33.6126 37.3911 30.5917 33.5783 30.5917C30.765 30.5917 28.84 32.5811 28.0996 34.6809C27.8775 35.2335 27.7665 36.1176 27.7665 36.8913V53.2111H20.7331V33.7967H20.6961Z" fill="#373737"/>
<path d="M54.1603 53.211V30.7758H50.3845V25.5446H54.1603V24.3657C54.1603 20.7923 55.1228 17.2189 57.5289 14.9349C59.602 13.0192 62.3782 12.2456 64.7845 12.2456C66.6723 12.2456 68.1531 12.5771 69.2266 12.9455L68.7824 18.3609C67.968 18.0662 67.0795 17.8452 65.747 17.8452C62.2672 17.8452 61.1198 20.7555 61.1198 24.1447V25.5814H67.2276V30.8127H61.1938V53.2479H54.1603V53.211Z" fill="#373737"/>
<path d="M121.495 34.4598C121.495 30.7022 121.421 27.9761 121.273 25.5447H127.344L127.64 30.7759H127.825C129.195 26.9078 132.452 24.9185 135.488 24.9185C136.191 24.9185 136.561 24.9921 137.154 25.1027V31.6231C136.524 31.5128 135.895 31.4391 135.043 31.4391C131.749 31.4391 129.38 33.5389 128.751 36.7071C128.639 37.3334 128.565 38.07 128.565 38.8069V53.1742H121.532V34.4598H121.495Z" fill="#373737"/>
<path d="M141.819 33.7967C141.819 30.6285 141.708 27.9392 141.597 25.5447H147.594L147.927 29.6339H148.112C149.407 27.4603 151.925 24.9185 156.663 24.9185C160.328 24.9185 163.178 26.9814 164.363 30.0391H164.474C165.436 28.4918 166.584 27.3499 167.842 26.5763C169.434 25.5079 171.211 24.9185 173.543 24.9185C178.096 24.9185 182.797 28.0498 182.797 36.9282V53.2479H175.948V37.9597C175.948 33.3546 174.358 30.6285 170.989 30.6285C168.583 30.6285 166.806 32.3231 166.065 34.3126C165.843 34.9387 165.732 35.8597 165.732 36.6334V53.2479H158.884V37.2228C158.884 33.3546 157.329 30.6285 154.072 30.6285C151.443 30.6285 149.667 32.6917 149 34.5335C148.778 35.2704 148.667 36.0808 148.667 36.8545V53.2111H141.819V33.7967Z" fill="#373737"/>
<path d="M211.82 46.5794C211.82 49.0844 211.931 51.5159 212.264 53.2472H205.934L205.416 50.1896H205.231C203.565 52.3632 200.677 53.8735 197.012 53.8735C191.422 53.8735 188.276 49.8213 188.276 45.6216C188.276 38.6958 194.495 35.1225 204.786 35.1591V34.7171C204.786 32.9121 204.046 29.8913 199.122 29.8913C196.383 29.8913 193.532 30.7385 191.645 31.9543L190.275 27.423C192.348 26.1704 195.939 24.9916 200.344 24.9916C209.266 24.9916 211.82 30.628 211.82 36.7065V46.5794ZM204.971 39.6905C200.011 39.6168 195.272 40.6483 195.272 44.8479C195.272 47.574 197.049 48.8266 199.27 48.8266C202.121 48.8266 204.12 47.0215 204.823 45.0322C205.008 44.5164 205.008 44.0007 205.008 43.4849V39.6905H204.971Z" fill="#373737"/>
<path d="M226.959 18.4358V25.5458H233.66V30.7769H226.959V42.934C226.959 46.36 227.885 48.0546 230.55 48.0546C231.809 48.0546 232.475 47.9809 233.289 47.76L233.401 53.028C232.364 53.4332 230.476 53.7647 228.329 53.7647C225.701 53.7647 223.59 52.9174 222.258 51.4807C220.703 49.8967 220.037 47.3179 220.037 43.7075V30.74H216.113V25.509H220.037V20.3515L226.959 18.4358Z" fill="#373737"/>
<path d="M250.799 53.8374C242.988 53.8374 236.88 48.4957 236.88 39.5806C236.88 30.4813 242.877 24.9185 251.281 24.9185C259.573 24.9185 265.089 30.7022 265.089 39.1384C265.089 49.3061 257.907 53.8742 250.874 53.8742H250.799V53.8374ZM251.022 48.7903C255.02 48.7903 257.833 44.9223 257.833 39.2858C257.833 34.9756 255.908 29.9655 251.096 29.9655C246.135 29.9655 244.136 34.7913 244.136 39.3963C244.136 44.738 246.838 48.7903 250.985 48.7903H251.022Z" fill="#373737"/>
<path d="M270.825 34.4598C270.825 30.7022 270.751 27.9761 270.603 25.5447H276.674L276.97 30.7759H277.156C278.525 26.9078 281.783 24.9185 284.819 24.9185C285.522 24.9185 285.892 24.9921 286.484 25.1027V31.6231C285.855 31.5128 285.226 31.4391 284.374 31.4391C281.08 31.4391 278.71 33.5389 278.081 36.7071C277.97 37.3334 277.896 38.07 277.896 38.8069V53.1742H270.862V34.4598H270.825Z" fill="#373737"/>
<path d="M291.223 53.8369C288.706 53.8369 286.929 51.9213 286.929 49.3424C286.929 46.7269 288.743 44.8481 291.26 44.8481C293.814 44.8481 295.591 46.6533 295.591 49.3424C295.591 51.8845 293.888 53.8369 291.26 53.8369H291.223Z" fill="#373737"/>
<path d="M326.014 44.9222C326.014 48.201 326.125 50.964 326.236 53.211H320.128L319.795 49.0482H319.61C318.425 50.964 315.688 53.8373 310.653 53.8373C305.618 53.8373 300.991 50.8166 300.991 41.7909V25.5448H308.025V40.612C308.025 45.2169 309.505 48.1641 313.207 48.1641C316.056 48.1641 317.907 46.2484 318.573 44.4065C318.87 43.8539 318.981 43.0435 318.981 42.233V25.5079H326.014V44.9222Z" fill="#373737"/>
<path d="M355.222 46.5794C355.222 49.0844 355.334 51.5159 355.667 53.2472H349.336L348.818 50.1896H348.633C346.967 52.3632 344.08 53.8735 340.415 53.8735C334.825 53.8735 331.678 49.8213 331.678 45.6216C331.678 38.6958 337.897 35.1225 348.189 35.1591V34.7171C348.189 32.9121 347.448 29.8913 342.525 29.8913C339.785 29.8913 336.935 30.7385 335.047 31.9543L333.677 27.423C335.75 26.1704 339.341 24.9916 343.746 24.9916C352.668 24.9916 355.222 30.628 355.222 36.7065V46.5794ZM348.337 39.6905C343.376 39.6168 338.638 40.6483 338.638 44.8479C338.638 47.574 340.415 48.8266 342.636 48.8266C345.486 48.8266 347.485 47.0215 348.189 45.0322C348.374 44.5164 348.374 44.0007 348.374 43.4849V39.6905H348.337Z" fill="#373737"/>
<path fill-rule="evenodd" clip-rule="evenodd" d="M116.481 31.5357C116.407 43.5549 106.471 53.09 94.3846 52.8343C82.7434 52.615 73.1411 43.2993 73.1783 31.4262C73.2153 19.3339 83.2996 9.94496 95.2002 10.1276C106.656 10.3468 116.444 19.48 116.481 31.5357ZM77.3676 31.4627C77.3305 40.815 84.9308 48.5599 94.5329 48.7426C104.395 48.8887 112.329 41.2168 112.329 31.5357C112.329 21.745 104.32 14.475 95.2002 14.3289C85.2644 14.1097 77.3305 22.0007 77.3676 31.4627Z" fill="#373737"/>
<path fill-rule="evenodd" clip-rule="evenodd" d="M94.9775 21.1973C100.539 21.1973 105.544 23.3892 109.177 26.9694C107.249 21.0512 101.614 16.7769 94.9775 16.7769C88.3411 16.7769 82.7059 21.0512 80.7781 26.9694C84.4113 23.3892 89.4163 21.1973 94.9775 21.1973Z" fill="#373737"/>
<path d="M105.136 31.4999C105.136 34.2399 104.024 36.7242 102.208 38.5508L97.7957 46.0764C103.06 45.09 107.324 41.4369 109.14 36.578L104.914 29.3811C105.025 30.0752 105.136 30.7693 105.136 31.4999Z" fill="#373737"/>
<path d="M109.956 32.7067C108.473 29.7841 106.137 27.3729 103.245 25.7655C103.801 26.5692 104.284 27.446 104.58 28.3593L109.214 36.2503C109.622 35.1179 109.845 33.9122 109.956 32.7067Z" fill="#373737"/>
<path d="M86.1916 36.5424L82.0394 29.6013C81.2236 30.551 80.5563 31.6106 79.9631 32.7066C80.2226 36.0311 81.5945 39.0266 83.7076 41.3647H93.1245C90.1586 40.8168 87.6746 38.9901 86.1916 36.5424Z" fill="#373737"/>
<path d="M94.9776 41.5097H84.0038C86.7472 44.5053 90.64 46.332 94.9776 46.332C95.8304 46.332 96.646 46.259 97.4246 46.1493L101.503 39.1716C99.7602 40.6329 97.4616 41.5097 94.9776 41.5097Z" fill="#373737"/>
<path d="M84.8195 31.5006C84.8195 29.3452 85.5238 27.3724 86.6731 25.7285C85.0047 26.6784 83.4847 27.884 82.2242 29.3452L85.2642 34.4232C85.0047 33.5099 84.8195 32.5235 84.8195 31.5006Z" fill="#373737"/>
<path d="M103.543 31.5002C103.543 36.1399 99.7242 39.9392 94.9786 39.9392C90.2703 39.9392 86.4146 36.1764 86.4146 31.5002C86.4146 28.3949 88.12 25.6915 90.678 24.2302C90.0478 24.3763 89.4547 24.5955 88.8614 24.8147C87.0077 26.4587 85.8214 28.8698 85.8214 31.5367C85.8214 36.5052 89.9366 40.5603 94.9786 40.5603C100.021 40.5603 104.136 36.5052 104.136 31.5367C104.136 28.8698 102.95 26.4952 101.096 24.8147C100.503 24.5955 99.9096 24.4129 99.2792 24.2302C101.8 25.6915 103.543 28.3949 103.543 31.5002Z" fill="#373737"/>
<path fill-rule="evenodd" clip-rule="evenodd" d="M98.9071 29.3797C98.6106 29.8546 98.0545 30.1468 97.4613 30.1468C96.4973 30.1468 95.7187 29.3795 95.7187 28.4298C95.7187 27.9913 95.9042 27.5895 96.1636 27.2607C95.793 27.1511 95.3851 27.1146 94.9773 27.1146C92.4934 27.1146 90.4915 29.0874 90.4915 31.5351C90.4915 33.9827 92.4934 35.9555 94.9773 35.9555C97.4613 35.9555 99.4632 33.9827 99.4632 31.5351C99.4632 30.7312 99.2408 30.0006 98.9071 29.3797Z" fill="#373737"/>
</g>
<defs>
<clipPath id="clip0_5970_13713">
<rect width="350" height="43.75" fill="white" transform="translate(5.66663 10.125)"/>
</clipPath>
</defs>
</svg>
