<svg width="360" height="64" viewBox="0 0 360 64" fill="none" xmlns="http://www.w3.org/2000/svg">
<path d="M61.325 56.0537V19.824H46.9592V7H92.2288V19.824H77.8631V56.0537H61.325Z" fill="#FFD800"/>
<path d="M22.0449 56.0537V7H38.583V56.0537H22.0449Z" fill="#FFD800"/>
<path d="M272.074 56.0539V14.6571H292.004C295.868 14.6571 299.199 15.2879 301.998 16.5495C304.837 17.8111 307.025 19.6247 308.563 21.9902C310.1 24.3163 310.869 27.0761 310.869 30.2696C310.869 33.4631 310.1 36.2228 308.563 38.549C307.025 40.8356 304.837 42.5901 301.998 43.8123C299.199 45.0344 295.868 45.6455 292.004 45.6455H279.822L286.031 39.9091V56.0539H272.074ZM296.853 56.0539L286.682 40.9736H301.466L311.756 56.0539H296.853ZM286.031 41.4467L279.822 35.1189H291.117C293.049 35.1189 294.468 34.6853 295.375 33.8179C296.321 32.9505 296.794 31.7678 296.794 30.2696C296.794 28.7714 296.321 27.5887 295.375 26.7213C294.468 25.8539 293.049 25.4203 291.117 25.4203H279.822L286.031 19.0925V41.4467Z" fill="black"/>
<path d="M239.341 30.033H257.792V40.0865H239.341V30.033ZM240.287 45.5273H260.986V56.0539H226.567V14.6571H260.217V25.1837H240.287V45.5273Z" fill="black"/>
<path d="M171.716 56.0539V14.6571H192.119C196.732 14.6571 200.792 15.5048 204.301 17.2C207.81 18.8559 210.55 21.2215 212.521 24.2966C214.493 27.3718 215.478 31.0384 215.478 35.2963C215.478 39.5937 214.493 43.2997 212.521 46.4143C210.55 49.4895 207.81 51.8748 204.301 53.5701C200.792 55.2259 196.732 56.0539 192.119 56.0539H171.716ZM185.673 45.1724H191.527C193.499 45.1724 195.214 44.7979 196.672 44.0488C198.171 43.2997 199.334 42.1958 200.162 40.7371C200.989 39.2389 201.403 37.4253 201.403 35.2963C201.403 33.2068 200.989 31.4327 200.162 29.9739C199.334 28.5152 198.171 27.4113 196.672 26.6622C195.214 25.9131 193.499 25.5385 191.527 25.5385H185.673V45.1724Z" fill="black"/>
<path d="M145.045 56.0539V14.6571H159.002V56.0539H145.045Z" fill="black"/>
<path d="M114.677 57.0001C111.208 57.0001 107.857 56.6059 104.624 55.8174C101.391 55.0289 98.7297 54.0038 96.6401 52.7422L101.135 42.5704C103.106 43.7137 105.294 44.6402 107.699 45.3499C110.143 46.0201 112.509 46.3552 114.796 46.3552C116.136 46.3552 117.181 46.2764 117.93 46.1187C118.718 45.9216 119.29 45.6653 119.645 45.3499C120 44.9951 120.177 44.5811 120.177 44.108C120.177 43.3589 119.763 42.7675 118.935 42.3338C118.107 41.9002 117.003 41.5453 115.624 41.2694C114.283 40.954 112.805 40.6385 111.188 40.3231C109.572 39.9683 107.936 39.5149 106.28 38.963C104.663 38.411 103.165 37.6816 101.785 36.7749C100.445 35.8681 99.3605 34.6853 98.5326 33.2266C97.7046 31.7284 97.2907 29.8754 97.2907 27.6676C97.2907 25.1049 98.0003 22.7788 99.4196 20.6892C100.878 18.5603 103.027 16.865 105.866 15.6034C108.744 14.3417 112.312 13.7109 116.57 13.7109C119.369 13.7109 122.129 14.0066 124.849 14.598C127.569 15.1894 130.014 16.0962 132.182 17.3184L127.983 27.431C125.933 26.4059 123.942 25.6371 122.01 25.1246C120.118 24.6121 118.265 24.3558 116.451 24.3558C115.111 24.3558 114.046 24.4741 113.258 24.7106C112.469 24.9472 111.898 25.2626 111.543 25.6569C111.228 26.0511 111.07 26.4848 111.07 26.9579C111.07 27.6676 111.484 28.2392 112.312 28.6729C113.14 29.0672 114.224 29.4023 115.564 29.6783C116.944 29.9542 118.442 30.2499 120.059 30.5653C121.715 30.8807 123.351 31.3144 124.967 31.8664C126.584 32.4183 128.062 33.1477 129.403 34.0545C130.783 34.9613 131.887 36.144 132.714 37.6028C133.542 39.0615 133.956 40.8751 133.956 43.0435C133.956 45.5667 133.227 47.8928 131.768 50.0218C130.349 52.1114 128.22 53.8067 125.381 55.1077C122.543 56.3693 118.975 57.0001 114.677 57.0001Z" fill="black"/>
<circle cx="328.675" cy="47.4085" r="9.28044" fill="#FFD800"/>
</svg>
