<svg width="361" height="64" viewBox="0 0 361 64" fill="none" xmlns="http://www.w3.org/2000/svg">
<g clip-path="url(#clip0_6037_5682)">
<path d="M9.55355 21.5657C7.22143 21.5657 5.66669 19.8711 5.66669 17.8081C5.66669 15.6346 7.25845 14.0137 9.59057 14.0137C11.9967 14.0137 13.4774 15.6714 13.5145 17.8081C13.5145 19.8711 11.9597 21.5657 9.59057 21.5657H9.55355ZM6.07388 53.2107V25.5444H13.1073V53.2107H6.07388Z" fill="white"/>
<path d="M20.6962 33.7967C20.6962 30.6285 20.5851 27.9392 20.4741 25.5447H26.5821L26.9152 29.7076H27.1003C28.3588 27.534 31.3944 24.9185 36.0216 24.9185C40.871 24.9185 45.9054 28.0498 45.9054 36.7808V53.2111H38.8719V37.5912C38.8719 33.6126 37.3912 30.5917 33.5784 30.5917C30.7651 30.5917 28.8401 32.5811 28.0997 34.6809C27.8776 35.2335 27.7665 36.1176 27.7665 36.8913V53.2111H20.7332V33.7967H20.6962Z" fill="white"/>
<path d="M54.1604 53.211V30.7758H50.3846V25.5446H54.1604V24.3657C54.1604 20.7923 55.1229 17.2189 57.529 14.9349C59.602 13.0192 62.3783 12.2456 64.7846 12.2456C66.6724 12.2456 68.1531 12.5771 69.2267 12.9455L68.7825 18.3609C67.968 18.0662 67.0796 17.8452 65.7471 17.8452C62.2673 17.8452 61.1198 20.7555 61.1198 24.1447V25.5814H67.2277V30.8127H61.1939V53.2479H54.1604V53.211Z" fill="white"/>
<path d="M121.495 34.4598C121.495 30.7022 121.421 27.9761 121.273 25.5447H127.344L127.64 30.7759H127.825C129.195 26.9078 132.452 24.9185 135.488 24.9185C136.191 24.9185 136.561 24.9921 137.154 25.1027V31.6231C136.524 31.5128 135.895 31.4391 135.044 31.4391C131.749 31.4391 129.38 33.5389 128.751 36.7071C128.64 37.3334 128.566 38.07 128.566 38.8069V53.1742H121.532V34.4598H121.495Z" fill="white"/>
<path d="M141.819 33.7967C141.819 30.6285 141.708 27.9392 141.597 25.5447H147.594L147.927 29.6339H148.112C149.407 27.4603 151.925 24.9185 156.663 24.9185C160.328 24.9185 163.178 26.9814 164.363 30.0391H164.474C165.436 28.4918 166.584 27.3499 167.842 26.5763C169.434 25.5079 171.211 24.9185 173.543 24.9185C178.096 24.9185 182.797 28.0498 182.797 36.9282V53.2479H175.948V37.9597C175.948 33.3546 174.358 30.6285 170.989 30.6285C168.583 30.6285 166.806 32.3231 166.065 34.3126C165.843 34.9387 165.732 35.8597 165.732 36.6334V53.2479H158.884V37.2228C158.884 33.3546 157.329 30.6285 154.072 30.6285C151.443 30.6285 149.667 32.6917 149 34.5335C148.778 35.2704 148.667 36.0808 148.667 36.8545V53.2111H141.819V33.7967Z" fill="white"/>
<path d="M211.82 46.5793C211.82 49.0843 211.931 51.5158 212.264 53.2471H205.934L205.416 50.1895H205.231C203.565 52.363 200.677 53.8734 197.012 53.8734C191.422 53.8734 188.276 49.8212 188.276 45.6215C188.276 38.6957 194.495 35.1223 204.786 35.159V34.717C204.786 32.912 204.046 29.8912 199.122 29.8912C196.383 29.8912 193.533 30.7384 191.645 31.9542L190.275 27.4228C192.348 26.1703 195.939 24.9915 200.344 24.9915C209.266 24.9915 211.82 30.6279 211.82 36.7064V46.5793ZM204.971 39.6903C200.011 39.6166 195.272 40.6481 195.272 44.8478C195.272 47.5739 197.049 48.8265 199.271 48.8265C202.121 48.8265 204.12 47.0213 204.823 45.0321C205.009 44.5163 205.009 44.0006 205.009 43.4848V39.6903H204.971Z" fill="white"/>
<path d="M226.959 18.4358V25.5458H233.66V30.7769H226.959V42.934C226.959 46.36 227.885 48.0546 230.55 48.0546C231.809 48.0546 232.475 47.9809 233.29 47.76L233.401 53.028C232.364 53.4332 230.476 53.7647 228.329 53.7647C225.701 53.7647 223.59 52.9174 222.258 51.4807C220.703 49.8967 220.037 47.3179 220.037 43.7075V30.74H216.113V25.509H220.037V20.3515L226.959 18.4358Z" fill="white"/>
<path d="M250.8 53.8374C242.989 53.8374 236.88 48.4957 236.88 39.5806C236.88 30.4813 242.877 24.9185 251.281 24.9185C259.573 24.9185 265.089 30.7022 265.089 39.1384C265.089 49.3061 257.907 53.8742 250.874 53.8742H250.8V53.8374ZM251.022 48.7903C255.02 48.7903 257.833 44.9223 257.833 39.2858C257.833 34.9756 255.908 29.9655 251.096 29.9655C246.135 29.9655 244.136 34.7913 244.136 39.3963C244.136 44.738 246.839 48.7903 250.985 48.7903H251.022Z" fill="white"/>
<path d="M270.825 34.4598C270.825 30.7022 270.751 27.9761 270.603 25.5447H276.674L276.971 30.7759H277.156C278.525 26.9078 281.783 24.9185 284.819 24.9185C285.522 24.9185 285.892 24.9921 286.484 25.1027V31.6231C285.855 31.5128 285.226 31.4391 284.374 31.4391C281.08 31.4391 278.71 33.5389 278.081 36.7071C277.97 37.3334 277.896 38.07 277.896 38.8069V53.1742H270.862V34.4598H270.825Z" fill="white"/>
<path d="M291.223 53.8369C288.706 53.8369 286.929 51.9213 286.929 49.3424C286.929 46.7269 288.743 44.8481 291.26 44.8481C293.814 44.8481 295.591 46.6533 295.591 49.3424C295.591 51.8845 293.888 53.8369 291.26 53.8369H291.223Z" fill="white"/>
<path d="M326.014 44.9221C326.014 48.2009 326.125 50.9638 326.236 53.2109H320.128L319.795 49.0481H319.61C318.425 50.9638 315.688 53.8372 310.653 53.8372C305.618 53.8372 300.991 50.8164 300.991 41.7908V25.5446H308.025V40.6119C308.025 45.2168 309.505 48.164 313.207 48.164C316.056 48.164 317.907 46.2483 318.573 44.4064C318.87 43.8538 318.981 43.0434 318.981 42.2328V25.5078H326.014V44.9221Z" fill="white"/>
<path d="M355.222 46.5793C355.222 49.0843 355.334 51.5158 355.667 53.2471H349.336L348.818 50.1895H348.633C346.967 52.363 344.08 53.8734 340.415 53.8734C334.825 53.8734 331.678 49.8212 331.678 45.6215C331.678 38.6957 337.897 35.1223 348.189 35.159V34.717C348.189 32.912 347.448 29.8912 342.525 29.8912C339.785 29.8912 336.935 30.7384 335.047 31.9542L333.677 27.4228C335.75 26.1703 339.341 24.9915 343.747 24.9915C352.668 24.9915 355.222 30.6279 355.222 36.7064V46.5793ZM348.337 39.6903C343.376 39.6166 338.638 40.6481 338.638 44.8478C338.638 47.5739 340.415 48.8265 342.636 48.8265C345.486 48.8265 347.485 47.0213 348.189 45.0321C348.374 44.5163 348.374 44.0006 348.374 43.4848V39.6903H348.337Z" fill="white"/>
<path fill-rule="evenodd" clip-rule="evenodd" d="M116.481 31.5357C116.407 43.5549 106.471 53.09 94.3846 52.8343C82.7434 52.615 73.1411 43.2993 73.1783 31.4262C73.2153 19.3339 83.2996 9.94496 95.2002 10.1276C106.656 10.3468 116.444 19.48 116.481 31.5357ZM77.3676 31.4627C77.3305 40.815 84.9308 48.5599 94.5329 48.7426C104.395 48.8887 112.329 41.2168 112.329 31.5357C112.329 21.745 104.32 14.475 95.2002 14.3289C85.2644 14.1097 77.3305 22.0007 77.3676 31.4627Z" fill="white"/>
<path fill-rule="evenodd" clip-rule="evenodd" d="M94.9776 21.1973C100.539 21.1973 105.544 23.3892 109.177 26.9694C107.249 21.0512 101.614 16.7769 94.9776 16.7769C88.3412 16.7769 82.7061 21.0512 80.7782 26.9694C84.4115 23.3892 89.4165 21.1973 94.9776 21.1973Z" fill="white"/>
<path d="M105.136 31.4999C105.136 34.2399 104.024 36.7242 102.208 38.5508L97.7957 46.0764C103.06 45.09 107.324 41.4369 109.14 36.578L104.914 29.3811C105.025 30.0752 105.136 30.7693 105.136 31.4999Z" fill="white"/>
<path d="M109.956 32.7066C108.473 29.784 106.137 27.3728 103.245 25.7654C103.802 26.5691 104.284 27.4459 104.58 28.3592L109.214 36.2502C109.622 35.1178 109.845 33.9121 109.956 32.7066Z" fill="white"/>
<path d="M86.1916 36.5424L82.0394 29.6013C81.2236 30.551 80.5563 31.6106 79.9631 32.7066C80.2226 36.0311 81.5945 39.0266 83.7076 41.3647H93.1245C90.1586 40.8168 87.6746 38.9901 86.1916 36.5424Z" fill="white"/>
<path d="M94.9778 41.5097H84.0039C86.7474 44.5053 90.6401 46.332 94.9778 46.332C95.8305 46.332 96.6461 46.259 97.4247 46.1493L101.503 39.1716C99.7603 40.6329 97.4617 41.5097 94.9778 41.5097Z" fill="white"/>
<path d="M84.8196 31.5006C84.8196 29.3452 85.524 27.3724 86.6732 25.7285C85.0048 26.6784 83.4849 27.884 82.2244 29.3452L85.2643 34.4232C85.0048 33.5099 84.8196 32.5235 84.8196 31.5006Z" fill="white"/>
<path d="M103.543 31.5002C103.543 36.1399 99.7242 39.9392 94.9786 39.9392C90.2703 39.9392 86.4146 36.1764 86.4146 31.5002C86.4146 28.3949 88.12 25.6915 90.678 24.2302C90.0478 24.3763 89.4547 24.5955 88.8614 24.8147C87.0077 26.4587 85.8214 28.8698 85.8214 31.5367C85.8214 36.5052 89.9366 40.5603 94.9786 40.5603C100.021 40.5603 104.136 36.5052 104.136 31.5367C104.136 28.8698 102.95 26.4952 101.096 24.8147C100.503 24.5955 99.9096 24.4129 99.2792 24.2302C101.8 25.6915 103.543 28.3949 103.543 31.5002Z" fill="white"/>
<path fill-rule="evenodd" clip-rule="evenodd" d="M98.9072 29.3796C98.6107 29.8544 98.0546 30.1467 97.4615 30.1467C96.4974 30.1467 95.7189 29.3794 95.7189 28.4297C95.7189 27.9912 95.9043 27.5894 96.1638 27.2606C95.7931 27.151 95.3852 27.1145 94.9775 27.1145C92.4935 27.1145 90.4916 29.0873 90.4916 31.5349C90.4916 33.9826 92.4935 35.9554 94.9775 35.9554C97.4615 35.9554 99.4634 33.9826 99.4634 31.5349C99.4634 30.7311 99.2409 30.0005 98.9072 29.3796Z" fill="white"/>
</g>
<defs>
<clipPath id="clip0_6037_5682">
<rect width="350" height="43.75" fill="white" transform="translate(5.66669 10.125)"/>
</clipPath>
</defs>
</svg>
