<svg width="360" height="64" viewBox="0 0 360 64" fill="none" xmlns="http://www.w3.org/2000/svg">
<path d="M61.325 56.0537V19.824H46.9592V7H92.2288V19.824H77.8631V56.0537H61.325Z" fill="white"/>
<path d="M22.0449 56.0537V7H38.5831V56.0537H22.0449Z" fill="white"/>
<path d="M272.074 56.054V14.6572H292.004C295.868 14.6572 299.199 15.288 301.998 16.5497C304.837 17.8113 307.025 19.6248 308.563 21.9904C310.1 24.3165 310.869 27.0763 310.869 30.2697C310.869 33.4632 310.1 36.223 308.563 38.5491C307.025 40.8358 304.837 42.5902 301.998 43.8124C299.199 45.0346 295.868 45.6457 292.004 45.6457H279.822L286.031 39.9093V56.054H272.074ZM296.853 56.054L286.682 40.9737H301.466L311.756 56.054H296.853ZM286.031 41.4468L279.822 35.1191H291.117C293.049 35.1191 294.468 34.6854 295.375 33.818C296.321 32.9507 296.794 31.7679 296.794 30.2697C296.794 28.7716 296.321 27.5888 295.375 26.7214C294.468 25.8541 293.049 25.4204 291.117 25.4204H279.822L286.031 19.0926V41.4468Z" fill="white"/>
<path d="M239.341 30.0332H257.792V40.0867H239.341V30.0332ZM240.287 45.5274H260.986V56.054H226.567V14.6572H260.217V25.1838H240.287V45.5274Z" fill="white"/>
<path d="M171.716 56.054V14.6572H192.119C196.731 14.6572 200.792 15.5049 204.301 17.2002C207.81 18.856 210.55 21.2216 212.521 24.2968C214.493 27.3719 215.478 31.0385 215.478 35.2965C215.478 39.5938 214.493 43.2998 212.521 46.4145C210.55 49.4896 207.81 51.8749 204.301 53.5702C200.792 55.2261 196.731 56.054 192.119 56.054H171.716ZM185.673 45.1726H191.527C193.499 45.1726 195.214 44.798 196.672 44.0489C198.17 43.2998 199.334 42.1959 200.161 40.7372C200.989 39.239 201.403 37.4254 201.403 35.2965C201.403 33.2069 200.989 31.4328 200.161 29.974C199.334 28.5153 198.17 27.4114 196.672 26.6623C195.214 25.9132 193.499 25.5387 191.527 25.5387H185.673V45.1726Z" fill="white"/>
<path d="M145.045 56.054V14.6572H159.002V56.054H145.045Z" fill="white"/>
<path d="M114.677 57.0001C111.208 57.0001 107.857 56.6059 104.624 55.8174C101.391 55.0289 98.7296 54.0038 96.64 52.7422L101.135 42.5704C103.106 43.7137 105.294 44.6402 107.699 45.3499C110.143 46.0201 112.509 46.3552 114.795 46.3552C116.136 46.3552 117.181 46.2764 117.93 46.1187C118.718 45.9216 119.29 45.6653 119.645 45.3499C120 44.9951 120.177 44.5811 120.177 44.108C120.177 43.3589 119.763 42.7675 118.935 42.3338C118.107 41.9002 117.003 41.5453 115.623 41.2694C114.283 40.954 112.804 40.6385 111.188 40.3231C109.572 39.9683 107.935 39.5149 106.28 38.963C104.663 38.411 103.165 37.6816 101.785 36.7749C100.445 35.8681 99.3604 34.6853 98.5325 33.2266C97.7045 31.7284 97.2906 29.8754 97.2906 27.6676C97.2906 25.1049 98.0002 22.7788 99.4195 20.6892C100.878 18.5603 103.027 16.865 105.866 15.6034C108.744 14.3417 112.312 13.7109 116.57 13.7109C119.369 13.7109 122.129 14.0066 124.849 14.598C127.569 15.1894 130.014 16.0962 132.182 17.3184L127.983 27.431C125.933 26.4059 123.942 25.6371 122.01 25.1246C120.118 24.6121 118.265 24.3558 116.451 24.3558C115.111 24.3558 114.046 24.4741 113.258 24.7106C112.469 24.9472 111.898 25.2626 111.543 25.6569C111.227 26.0511 111.07 26.4848 111.07 26.9579C111.07 27.6676 111.484 28.2392 112.312 28.6729C113.14 29.0672 114.224 29.4023 115.564 29.6783C116.944 29.9542 118.442 30.2499 120.059 30.5653C121.715 30.8807 123.351 31.3144 124.967 31.8664C126.584 32.4183 128.062 33.1477 129.403 34.0545C130.783 34.9613 131.886 36.144 132.714 37.6028C133.542 39.0615 133.956 40.8751 133.956 43.0435C133.956 45.5667 133.227 47.8928 131.768 50.0218C130.349 52.1114 128.22 53.8067 125.381 55.1077C122.543 56.3693 118.975 57.0001 114.677 57.0001Z" fill="white"/>
<circle cx="328.675" cy="47.4084" r="9.28044" fill="white"/>
</svg>
