<svg width="361" height="64" viewBox="0 0 361 64" fill="none" xmlns="http://www.w3.org/2000/svg">
<rect width="64" height="64" transform="translate(75.1728)" fill="white"/>
<path d="M107.886 14.6464V30.7877L116.202 22.3761V6.37329L107.886 14.6464Z" fill="black"/>
<path d="M106.544 14.6464V30.7877L98.228 22.3761V6.37329L106.544 14.6464Z" fill="black"/>
<path d="M124.601 31.334H108.46L116.872 23.0178H132.875L124.601 31.334Z" fill="black"/>
<path d="M89.7073 31.334H105.849L97.437 23.0178H81.4342L89.7073 31.334Z" fill="black"/>
<path d="M107.923 49.3535V33.2123L116.239 41.6238V57.6267L107.923 49.3535Z" fill="black"/>
<path d="M106.581 49.3535V33.2123L98.2651 41.6238V57.6267L106.581 49.3535Z" fill="black"/>
<path d="M124.638 32.666H108.497L116.909 40.9822H132.912L124.638 32.666Z" fill="black"/>
<path d="M89.7444 32.666H105.886L97.4741 40.9822H81.4713L89.7444 32.666Z" fill="black"/>
<path d="M265.297 58.4651C252.887 58.4651 245.1 50.0787 245.1 36.8805V5.53467H254.469V36.6055C254.469 44.442 258.484 49.1164 265.297 49.1164C272.232 49.1164 276.125 44.442 276.125 36.6055V5.53467H285.494V36.8805C285.494 50.0787 277.829 58.4651 265.297 58.4651Z" fill="white"/>
<path d="M230.987 57.7777L227.337 46.7792H206.41L202.76 57.7777H193.027L211.277 5.53467H222.713L240.964 57.7777H230.987ZM209.452 37.5679H224.295L216.873 14.8834L209.452 37.5679Z" fill="white"/>
<path d="M180.13 57.7777L169.91 38.1178H160.42V57.7777H151.173V5.53467H171.126C181.711 5.53467 188.16 11.5839 188.16 21.7575C188.16 29.044 184.875 34.1309 179.278 36.6055L190.593 57.7777H180.13ZM160.42 14.471V29.7314H170.396C175.871 29.7314 178.67 26.9818 178.67 22.0325C178.67 17.0831 175.871 14.471 170.396 14.471H160.42Z" fill="white"/>
</svg>
