<svg width="361" height="64" viewBox="0 0 361 64" fill="none" xmlns="http://www.w3.org/2000/svg">
<rect width="64" height="64" transform="translate(75.1729)" fill="#FCE14C"/>
<path d="M107.886 14.6464V30.7877L116.202 22.3761V6.37329L107.886 14.6464Z" fill="black"/>
<path d="M106.544 14.6464V30.7877L98.2279 22.3761V6.37329L106.544 14.6464Z" fill="black"/>
<path d="M124.601 31.334H108.46L116.872 23.0178H132.874L124.601 31.334Z" fill="black"/>
<path d="M89.7072 31.334H105.848L97.4369 23.0178H81.4341L89.7072 31.334Z" fill="black"/>
<path d="M107.923 49.3535V33.2123L116.239 41.6238V57.6267L107.923 49.3535Z" fill="black"/>
<path d="M106.581 49.3535V33.2123L98.265 41.6238V57.6267L106.581 49.3535Z" fill="black"/>
<path d="M124.638 32.666H108.497L116.909 40.9822H132.912L124.638 32.666Z" fill="black"/>
<path d="M89.7443 32.666H105.886L97.474 40.9822H81.4712L89.7443 32.666Z" fill="black"/>
<path d="M265.297 58.4654C252.887 58.4654 245.1 50.079 245.1 36.8807V5.53491H254.468V36.6058C254.468 44.4422 258.484 49.1166 265.297 49.1166C272.232 49.1166 276.125 44.4422 276.125 36.6058V5.53491H285.494V36.8807C285.494 50.079 277.829 58.4654 265.297 58.4654Z" fill="black"/>
<path d="M230.987 57.7779L227.337 46.7794H206.41L202.76 57.7779H193.027L211.277 5.53491H222.713L240.964 57.7779H230.987ZM209.452 37.5681H224.295L216.873 14.8837L209.452 37.5681Z" fill="black"/>
<path d="M180.13 57.7778L169.91 38.1179H160.42V57.7778H151.173V5.53479H171.126C181.711 5.53479 188.16 11.584 188.16 21.7576C188.16 29.0442 184.875 34.131 179.278 36.6056L190.593 57.7778H180.13ZM160.42 14.4711V29.7316H170.396C175.871 29.7316 178.67 26.9819 178.67 22.0326C178.67 17.0833 175.871 14.4711 170.396 14.4711H160.42Z" fill="black"/>
</svg>
