<svg width="199" height="46" viewBox="0 0 199 46" fill="none" xmlns="http://www.w3.org/2000/svg">
<path d="M1.50478 4.15113H4.1031C4.69249 4.15113 5.19023 4.24097 5.59633 4.42066C6.00602 4.60035 6.31689 4.86629 6.52892 5.21849C6.74455 5.56709 6.85237 5.99655 6.85237 6.50687C6.85237 6.86625 6.77869 7.19508 6.63135 7.49337C6.48759 7.78806 6.27915 8.03962 6.00602 8.24807C5.73649 8.45291 5.41305 8.60565 5.0357 8.70628L4.7446 8.81948H2.30261L2.29182 7.97314H4.13545C4.5092 7.97314 4.82007 7.90845 5.06804 7.77907C5.31601 7.6461 5.50289 7.46821 5.62867 7.24539C5.75446 7.02258 5.81735 6.7764 5.81735 6.50687C5.81735 6.20499 5.75805 5.94084 5.63946 5.71443C5.52086 5.48802 5.33398 5.31372 5.07882 5.19153C4.82725 5.06575 4.50202 5.00286 4.1031 5.00286H2.54519V12H1.50478V4.15113ZM6.09227 12L4.18396 8.44213L5.2675 8.43674L7.20276 11.9353V12H6.09227ZM13.2943 11.1537V12H9.13803V11.1537H13.2943ZM9.34826 4.15113V12H8.30786V4.15113H9.34826ZM12.7444 7.52571V8.37205H9.13803V7.52571H12.7444ZM13.2404 4.15113V5.00286H9.13803V4.15113H13.2404ZM17.1163 10.8087L19.4289 4.15113H20.5556L17.65 12H16.8467L17.1163 10.8087ZM14.9546 4.15113L17.2457 10.8087L17.5314 12H16.7281L13.8279 4.15113H14.9546ZM22.728 4.15113V12H21.6876V4.15113H22.728ZM29.6066 11.1537V12H25.4503V11.1537H29.6066ZM25.6606 4.15113V12H24.6201V4.15113H25.6606ZM29.0567 7.52571V8.37205H25.4503V7.52571H29.0567ZM29.5526 4.15113V5.00286H25.4503V4.15113H29.5526ZM32.9596 9.62809L34.5175 4.15113H35.2722L34.8355 6.28046L33.159 12H32.4097L32.9596 9.62809ZM31.3478 4.15113L32.5876 9.52027L32.9596 12H32.2157L30.3127 4.15113H31.3478ZM37.2883 9.51488L38.5012 4.15113H39.5416L37.6441 12H36.9002L37.2883 9.51488ZM35.3854 4.15113L36.9002 9.62809L37.45 12H36.7007L35.0835 6.28046L34.6415 4.15113H35.3854ZM45.6817 11.1537V12H41.5254V11.1537H45.6817ZM41.7357 4.15113V12H40.6952V4.15113H41.7357ZM45.1318 7.52571V8.37205H41.5254V7.52571H45.1318ZM45.6277 4.15113V5.00286H41.5254V4.15113H45.6277ZM49.094 12H47.4552L47.466 11.1537H49.094C49.6546 11.1537 50.1218 11.0369 50.4956 10.8033C50.8693 10.5661 51.1496 10.2354 51.3365 9.81137C51.527 9.38371 51.6222 8.88417 51.6222 8.31275V7.83298C51.6222 7.38375 51.5683 6.98484 51.4605 6.63624C51.3527 6.28405 51.1946 5.98756 50.9861 5.74678C50.7777 5.5024 50.5225 5.31732 50.2206 5.19153C49.9223 5.06575 49.5791 5.00286 49.191 5.00286H47.4229V4.15113H49.191C49.7049 4.15113 50.1739 4.23738 50.598 4.40988C51.0221 4.57879 51.3868 4.82496 51.6923 5.14841C52.0014 5.46826 52.2386 5.85639 52.4039 6.3128C52.5692 6.76562 52.6518 7.27594 52.6518 7.84376V8.31275C52.6518 8.88058 52.5692 9.39269 52.4039 9.84911C52.2386 10.3019 51.9996 10.6883 51.6869 11.0081C51.3778 11.328 51.0041 11.5741 50.5656 11.7466C50.1308 11.9155 49.6402 12 49.094 12ZM48.0104 4.15113V12H46.97V4.15113H48.0104ZM62.9966 7.82759V8.32354C62.9966 8.91292 62.9229 9.44121 62.7756 9.9084C62.6283 10.3756 62.4162 10.7727 62.1395 11.0998C61.8628 11.4268 61.5303 11.6766 61.1422 11.8491C60.7577 12.0216 60.3264 12.1078 59.8484 12.1078C59.3848 12.1078 58.959 12.0216 58.5708 11.8491C58.1863 11.6766 57.8521 11.4268 57.5682 11.0998C57.2879 10.7727 57.0704 10.3756 56.9159 9.9084C56.7614 9.44121 56.6841 8.91292 56.6841 8.32354V7.82759C56.6841 7.23821 56.7596 6.71171 56.9105 6.24811C57.065 5.78092 57.2825 5.3838 57.5628 5.05676C57.8431 4.72613 58.1755 4.47457 58.5601 4.30207C58.9482 4.12956 59.3741 4.04331 59.8377 4.04331C60.3156 4.04331 60.7469 4.12956 61.1314 4.30207C61.5196 4.47457 61.852 4.72613 62.1287 5.05676C62.409 5.3838 62.6229 5.78092 62.7702 6.24811C62.9211 6.71171 62.9966 7.23821 62.9966 7.82759ZM61.967 8.32354V7.81681C61.967 7.34961 61.9185 6.93633 61.8214 6.57695C61.728 6.21756 61.5896 5.91568 61.4064 5.67131C61.2231 5.42693 60.9985 5.24185 60.7325 5.11606C60.4702 4.99028 60.1719 4.92739 59.8377 4.92739C59.5142 4.92739 59.2213 4.99028 58.959 5.11606C58.7002 5.24185 58.4774 5.42693 58.2905 5.67131C58.1072 5.91568 57.9653 6.21756 57.8647 6.57695C57.764 6.93633 57.7137 7.34961 57.7137 7.81681V8.32354C57.7137 8.79432 57.764 9.21121 57.8647 9.57418C57.9653 9.93356 58.109 10.2372 58.2959 10.4852C58.4864 10.7296 58.711 10.9147 58.9698 11.0405C59.2321 11.1662 59.525 11.2291 59.8484 11.2291C60.1863 11.2291 60.4863 11.1662 60.7487 11.0405C61.011 10.9147 61.2321 10.7296 61.4118 10.4852C61.595 10.2372 61.7334 9.93356 61.8268 9.57418C61.9203 9.21121 61.967 8.79432 61.967 8.32354ZM70.5921 4.15113V12H69.5463L65.5949 5.94623V12H64.5545V4.15113H65.5949L69.5625 10.2211V4.15113H70.5921Z" fill="#373737"/>
<path d="M105.017 39.9881L104.219 39.7833L104.612 35.875H108.639V36.7968H105.459L105.222 38.9315C105.365 38.8489 105.547 38.7716 105.766 38.6997C105.989 38.6279 106.244 38.5919 106.532 38.5919C106.894 38.5919 107.22 38.6548 107.507 38.7806C107.795 38.9028 108.039 39.0789 108.24 39.3089C108.445 39.5389 108.602 39.8156 108.709 40.1391C108.817 40.4625 108.871 40.8237 108.871 41.2226C108.871 41.5999 108.819 41.9467 108.715 42.263C108.614 42.5792 108.461 42.856 108.257 43.0932C108.052 43.3268 107.793 43.5082 107.48 43.6376C107.171 43.767 106.806 43.8317 106.386 43.8317C106.07 43.8317 105.77 43.7886 105.486 43.7023C105.205 43.6125 104.954 43.4777 104.731 43.298C104.512 43.1147 104.332 42.8883 104.192 42.6188C104.055 42.3457 103.969 42.0258 103.933 41.6592H104.882C104.925 41.9539 105.011 42.2019 105.141 42.4032C105.27 42.6044 105.439 42.7571 105.647 42.8614C105.859 42.962 106.106 43.0123 106.386 43.0123C106.623 43.0123 106.833 42.971 107.017 42.8883C107.2 42.8057 107.355 42.6871 107.48 42.5325C107.606 42.378 107.701 42.1911 107.766 41.9719C107.834 41.7527 107.868 41.5065 107.868 41.2334C107.868 40.9854 107.834 40.7554 107.766 40.5434C107.698 40.3313 107.595 40.1462 107.459 39.9881C107.326 39.83 107.162 39.7078 106.968 39.6215C106.774 39.5317 106.551 39.4868 106.3 39.4868C105.965 39.4868 105.712 39.5317 105.54 39.6215C105.371 39.7114 105.196 39.8336 105.017 39.9881ZM112.963 35.875H115.561C116.15 35.875 116.648 35.9648 117.054 36.1445C117.464 36.3242 117.775 36.5902 117.987 36.9424C118.202 37.291 118.31 37.7204 118.31 38.2307C118.31 38.5901 118.237 38.919 118.089 39.2172C117.945 39.5119 117.737 39.7635 117.464 39.9719C117.194 40.1768 116.871 40.3295 116.494 40.4302L116.202 40.5434H113.76L113.75 39.697H115.593C115.967 39.697 116.278 39.6323 116.526 39.503C116.774 39.37 116.961 39.1921 117.087 38.9693C117.212 38.7465 117.275 38.5003 117.275 38.2307C117.275 37.9289 117.216 37.6647 117.097 37.4383C116.979 37.2119 116.792 37.0376 116.537 36.9154C116.285 36.7896 115.96 36.7267 115.561 36.7267H114.003V43.7239H112.963V35.875ZM117.55 43.7239L115.642 40.166L116.725 40.1606L118.661 43.6592V43.7239H117.55ZM124.752 42.8775V43.7239H120.596V42.8775H124.752ZM120.806 35.875V43.7239H119.766V35.875H120.806ZM124.202 39.2496V40.0959H120.596V39.2496H124.202ZM124.698 35.875V36.7267H120.596V35.875H124.698ZM128.574 42.5325L130.887 35.875H132.013L129.108 43.7239H128.305L128.574 42.5325ZM126.412 35.875L128.704 42.5325L128.989 43.7239H128.186L125.286 35.875H126.412ZM134.186 35.875V43.7239H133.145V35.875H134.186ZM141.064 42.8775V43.7239H136.908V42.8775H141.064ZM137.118 35.875V43.7239H136.078V35.875H137.118ZM140.515 39.2496V40.0959H136.908V39.2496H140.515ZM141.011 35.875V36.7267H136.908V35.875H141.011ZM144.417 41.352L145.975 35.875H146.73L146.293 38.0043L144.617 43.7239H143.868L144.417 41.352ZM142.806 35.875L144.045 41.2442L144.417 43.7239H143.674L141.771 35.875H142.806ZM148.746 41.2388L149.959 35.875H150.999L149.102 43.7239H148.358L148.746 41.2388ZM146.843 35.875L148.358 41.352L148.908 43.7239H148.159L146.541 38.0043L146.099 35.875H146.843ZM156.336 41.7401C156.336 41.5568 156.308 41.3951 156.25 41.2549C156.196 41.1112 156.099 40.9818 155.959 40.8668C155.822 40.7518 155.632 40.6422 155.388 40.538C155.147 40.4337 154.841 40.3277 154.471 40.2199C154.083 40.1049 153.733 39.9773 153.42 39.8372C153.107 39.6934 152.84 39.5299 152.617 39.3466C152.394 39.1633 152.223 38.9531 152.105 38.7159C151.986 38.4787 151.927 38.2074 151.927 37.9019C151.927 37.5964 151.99 37.3143 152.115 37.0556C152.241 36.7968 152.421 36.5722 152.654 36.3817C152.892 36.1877 153.174 36.0367 153.501 35.9289C153.828 35.8211 154.193 35.7672 154.595 35.7672C155.184 35.7672 155.684 35.8804 156.094 36.1068C156.507 36.3296 156.821 36.6225 157.037 36.9855C157.253 37.3449 157.361 37.7294 157.361 38.1391H156.326C156.326 37.8444 156.263 37.5839 156.137 37.3574C156.011 37.1274 155.821 36.9478 155.565 36.8184C155.31 36.6854 154.987 36.6189 154.595 36.6189C154.225 36.6189 153.919 36.6746 153.679 36.786C153.438 36.8974 153.258 37.0484 153.14 37.2389C153.025 37.4293 152.967 37.6467 152.967 37.8911C152.967 38.0564 153.001 38.2074 153.07 38.3439C153.141 38.4769 153.251 38.6009 153.398 38.7159C153.549 38.8309 153.74 38.9369 153.97 39.034C154.203 39.131 154.482 39.2244 154.805 39.3143C155.251 39.4401 155.636 39.5802 155.959 39.7348C156.282 39.8893 156.548 40.0636 156.757 40.2576C156.969 40.4481 157.125 40.6655 157.226 40.9099C157.33 41.1507 157.382 41.4238 157.382 41.7293C157.382 42.0492 157.317 42.3385 157.188 42.5972C157.059 42.856 156.874 43.077 156.633 43.2603C156.392 43.4436 156.103 43.5855 155.765 43.6861C155.431 43.7832 155.057 43.8317 154.644 43.8317C154.281 43.8317 153.923 43.7814 153.571 43.6808C153.222 43.5801 152.904 43.4292 152.617 43.2279C152.333 43.0267 152.105 42.7787 151.932 42.484C151.763 42.1857 151.679 41.8407 151.679 41.449H152.714C152.714 41.7185 152.766 41.9503 152.87 42.1444C152.974 42.3349 153.116 42.493 153.296 42.6188C153.479 42.7446 153.686 42.838 153.916 42.8991C154.149 42.9566 154.392 42.9853 154.644 42.9853C155.007 42.9853 155.314 42.935 155.565 42.8344C155.817 42.7338 156.007 42.59 156.137 42.4032C156.27 42.2163 156.336 41.9953 156.336 41.7401Z" fill="#373737"/>
<path d="M109.147 14.3243L114.475 17.4358L113.061 11.5715L117.769 7.62574L111.57 7.11688L109.147 1.58618L106.725 7.11688L100.526 7.62574L105.233 11.5715L103.82 17.4358L109.147 14.3243Z" fill="#EF4335"/>
<path d="M128.117 14.3233L133.445 17.4349L132.031 11.5705L136.738 7.62476L130.539 7.1159L128.117 1.58521L125.694 7.1159L119.496 7.62476L124.203 11.5705L122.789 17.4349L128.117 14.3233Z" fill="#EF4335"/>
<path d="M147.082 14.3233L152.41 17.4349L150.996 11.5705L155.703 7.62476L149.505 7.1159L147.082 1.58521L144.66 7.1159L138.461 7.62476L143.168 11.5705L141.754 17.4349L147.082 14.3233Z" fill="#EF4335"/>
<path d="M166.047 14.3233L171.375 17.4349L169.961 11.5705L174.668 7.62476L168.469 7.1159L166.047 1.58521L163.624 7.1159L157.426 7.62476L162.133 11.5705L160.719 17.4349L166.047 14.3233Z" fill="#EF4335"/>
<path d="M186.538 14.3233L191.865 17.4349L190.452 11.5705L195.159 7.62476L188.96 7.1159L186.538 1.58521L184.115 7.1159L177.917 7.62476L182.624 11.5705L181.21 17.4349L186.538 14.3233Z" fill="#EF4335"/>
<path d="M20.9429 23.7917H24.607V45.81H20.9429V23.7917ZM37.4315 38.7861C37.4315 42.1558 34.4847 42.4244 33.608 42.4244C31.4178 42.4244 31.0193 40.4534 31.0193 39.2644V30.8376H27.3551V39.2468C27.3551 41.3341 28.0367 43.0568 29.2312 44.2053C30.2865 45.2207 31.8675 45.7756 33.5805 45.7756C34.7952 45.7756 36.5155 45.4119 37.4315 44.6078V45.81H41.0957V30.8376H37.4315V38.7861ZM48.424 25.5532H44.7598V30.8376H42.0117V34.3605H44.7598V45.81H48.424V34.3605H51.1721V30.8376H48.424V25.5532ZM62.7114 41.3332C61.9136 42.0228 60.8601 42.4051 59.7041 42.4051C57.1557 42.4051 55.2842 40.6057 55.2842 38.1353C55.2842 35.6648 57.0961 33.9413 59.7041 33.9413C60.84 33.9413 61.9136 34.305 62.7316 34.9946L63.2876 35.4543L65.7582 33.0799L65.1399 32.5435C63.6861 31.2815 61.756 30.5734 59.7032 30.5734C55.123 30.5734 51.7968 33.751 51.7968 38.1168C51.7968 42.4641 55.2027 45.7553 59.7032 45.7553C61.7945 45.7553 63.7447 45.0472 65.1802 43.7649L65.7774 43.2285L63.2684 40.8559L62.7114 41.3332ZM78.8364 32.1428C77.7812 31.1282 76.5445 30.5734 74.8315 30.5734C73.6169 30.5734 72.241 30.9371 71.3249 31.7403V23.7917H67.6608V45.81H71.3249V37.5619C71.3249 34.1923 73.8147 33.9245 74.6914 33.9245C76.8816 33.9245 76.8212 35.8965 76.8212 37.0837V45.81H80.4853V37.1022C80.4853 35.0149 80.0319 33.2922 78.8364 32.1428Z" fill="#373737"/>
<path d="M59.9627 35.5925C60.6653 35.5925 61.3391 35.8609 61.8359 36.3386C62.3327 36.8162 62.6118 37.4641 62.6118 38.1396C62.6118 38.8152 62.3327 39.463 61.8359 39.9407C61.3391 40.4184 60.6653 40.6867 59.9627 40.6867C59.26 40.6867 58.5862 40.4184 58.0894 39.9407C57.5926 39.463 57.3135 38.8152 57.3135 38.1396C57.3135 37.4641 57.5926 36.8162 58.0894 36.3386C58.5862 35.8609 59.26 35.5925 59.9627 35.5925Z" fill="#EF4335"/>
<path d="M15.8117 40.28C14.4184 41.6584 12.5259 42.4052 10.5344 42.4052C6.45257 42.4052 3.48461 39.3227 3.48461 35.0917C3.48461 30.8413 6.45257 27.7587 10.5344 27.7587C12.5067 27.7587 14.3781 28.5047 15.7925 29.8646L16.3494 30.4009L18.7989 28.0459L18.2612 27.5095C16.2304 25.4988 13.4822 24.4084 10.5344 24.4084C4.52065 24.4084 0 29.0032 0 35.1102C0 41.1986 4.5408 45.7749 10.5344 45.7749C13.5024 45.7749 16.2505 44.6652 18.2814 42.6545L18.8191 42.1181L16.3897 39.7252L15.8117 40.28Z" fill="#373737"/>
</svg>
