<svg width="135" height="46" viewBox="0 0 135 46" fill="none" xmlns="http://www.w3.org/2000/svg">
<path d="M28.5751 43.3157C28.1849 43.7894 27.7068 44.1804 27.168 44.4662C26.6292 44.7521 26.0402 44.9272 25.4348 44.9816C24.8294 45.036 24.2194 44.9686 23.6396 44.7832C23.0598 44.5979 22.5217 44.2982 22.0559 43.9014L11.23 34.6817C10.6995 34.23 10.2747 33.6638 9.98652 33.0242C9.69833 32.3847 9.55398 31.6878 9.56396 30.9845C9.57395 30.2811 9.73802 29.5888 10.0442 28.9579C10.3505 28.3271 10.7912 27.7736 11.3342 27.3376L19.8963 20.4624L19.5429 20.8217C14.5947 25.7818 21.5169 31.1516 21.5169 31.1516L24.6978 33.8607L28.0078 36.6794C28.4743 37.0769 28.859 37.564 29.14 38.1129C29.4211 38.6617 29.5929 39.2615 29.6455 39.8779C29.6982 40.4944 29.6308 41.1153 29.4471 41.7052C29.2634 42.2951 28.9671 42.8424 28.5751 43.3157Z" fill="url(#paint0_linear_4289_37865)"/>
<path d="M27.8961 25.9004L27.7741 25.9992L27.7405 26.028L26.6944 26.9262L26.4911 27.0879C22.7182 30.133 22.651 32.1558 27.9986 36.6938L24.6886 33.8751L21.5076 31.166C21.5076 31.166 14.5767 25.7962 19.5337 20.8361L19.8871 20.4768L22.1473 18.5366C23.1031 17.7645 24.3201 17.4072 25.5337 17.5425C26.7472 17.6777 27.8591 18.2945 28.6277 19.2588L28.6507 19.2929C29.0279 19.7771 29.3077 20.3321 29.474 20.9262C29.6402 21.5204 29.6897 22.142 29.6197 22.7555C29.5496 23.3691 29.3613 23.9627 29.0656 24.5023C28.7698 25.0419 28.3724 25.517 27.8961 25.9004Z" fill="url(#paint1_linear_4289_37865)"/>
<path d="M1.13917 1.65863C1.53258 1.18775 2.01339 0.800265 2.55414 0.518325C3.09489 0.236384 3.68498 0.0655082 4.29071 0.0154591C4.89644 -0.0345899 5.50593 0.0371682 6.08437 0.226634C6.66281 0.416101 7.19887 0.719562 7.66192 1.11968L18.4206 10.4202C18.9481 10.8757 19.3691 11.445 19.6529 12.0867C19.9367 12.7284 20.0763 13.4264 20.0614 14.1298C20.0465 14.8333 19.8775 15.5245 19.5668 16.1532C19.2561 16.7819 18.8114 17.3322 18.2651 17.7643L9.65532 24.5766C9.77195 24.4544 9.89389 24.3341 10.0088 24.2173C15.0011 19.2931 8.10902 13.873 8.10902 13.873L4.95633 11.1388L1.66756 8.29132C1.20423 7.89124 0.822991 7.40226 0.545651 6.85232C0.268311 6.30238 0.100303 5.70227 0.051231 5.08629C0.00215884 4.47031 0.0729846 3.85054 0.25966 3.2624C0.446335 2.67426 0.7452 2.12929 1.13917 1.65863Z" fill="url(#paint2_linear_4289_37865)"/>
<path d="M1.78649 18.9737L1.90843 18.8767L1.942 18.8498L2.9016 18.0701L3.10659 17.9084C6.90077 14.8903 6.98383 12.8692 1.66809 8.29175L4.95685 11.1392L8.11837 13.8681C8.11837 13.8681 15.0105 19.2881 10.0181 24.2123C9.89441 24.3345 9.77248 24.4549 9.66468 24.5716L7.47158 26.3987C6.50843 27.161 5.28814 27.5057 4.0762 27.358C2.86426 27.2103 1.75871 26.5821 1.00009 25.61L0.977112 25.5759C0.603439 25.0885 0.32794 24.531 0.166371 23.9354C0.00480116 23.3397 -0.0396694 22.7174 0.0355022 22.1043C0.110674 21.4911 0.304013 20.899 0.604463 20.3618C0.904913 19.8247 1.30658 19.353 1.78649 18.9737Z" fill="url(#paint3_linear_4289_37865)"/>
<path d="M40.3395 18V5.97668H42.7758V18H40.3395ZM55.4952 5.97668V8.1915H51.3504V18H48.9141V8.1915H44.7692V5.97668H55.4952ZM67.6135 8.38134C67.8666 8.38134 68.1514 8.41298 68.4045 8.44463L68.3729 10.5962C67.8982 10.5329 67.4236 10.5012 66.9807 10.5012C65.5252 10.5012 64.5127 11.2923 64.5127 12.7793V18H62.2346V8.50791H64.2596L64.3862 9.995C65.0823 8.98251 66.2213 8.38134 67.6135 8.38134ZM77.8017 16.0383H78.1813V18C78.0231 18.0316 77.77 18.0633 77.3587 18.0633C76.188 18.0633 75.5868 17.6203 75.4286 16.6078C74.7326 17.557 73.4986 18.1582 72.1064 18.1582C70.2713 18.1582 69.0057 17.0508 69.0057 15.3739C69.0057 12.9692 71.2838 12.4946 73.0873 12.2731C74.3212 12.1149 75.1122 11.9567 75.1122 11.3239C75.1122 10.6594 74.4162 10.2165 73.2771 10.2165C72.2646 10.2165 71.347 10.6278 70.5877 11.3872L69.2271 9.96336C70.3346 8.91923 71.7267 8.3497 73.4037 8.3497C75.8083 8.3497 77.2321 9.55204 77.2321 11.5137V15.4688C77.2321 15.8485 77.422 16.0383 77.8017 16.0383ZM72.581 16.3547C73.9415 16.3547 75.049 15.4371 75.049 14.3297V13.3489C74.6693 13.5704 74.1314 13.6653 73.3404 13.7918C72.2646 13.9817 71.2205 14.1399 71.2205 15.184C71.2205 15.9117 71.7267 16.3547 72.581 16.3547ZM85.9016 10.4063H83.1172V14.8992C83.1172 15.7852 83.5602 16.0699 84.3829 16.0699C84.9524 16.0699 85.3637 16.0383 85.9016 15.9117V17.9367C85.2371 18.1266 84.5727 18.1898 83.8766 18.1898C81.9465 18.1898 80.8391 17.2406 80.8391 15.4055V10.4063H78.9407V8.50791H80.8391L81.0923 5.97668H83.1172V8.50791H85.9016V10.4063ZM88.0215 7.24229V5.21731H90.4894V7.24229H88.0215ZM88.1164 18V8.50791H90.3945V18H88.1164ZM98.6843 8.3497C100.709 8.3497 102.133 9.80516 102.133 11.9883V18H99.855V12.5262C99.855 11.0708 99.1589 10.2481 97.9882 10.2481C96.6593 10.2481 95.5835 11.1973 95.5835 12.5579V18H93.3054V8.50791H95.3304L95.457 9.90008C96.153 8.95087 97.3237 8.3497 98.6843 8.3497ZM111.404 8.50791H113.429L113.397 16.8293C113.397 19.5504 111.657 21.3222 108.588 21.3222C106.784 21.3222 105.487 20.8476 104.633 20.025L105.708 18.443C106.499 19.1074 107.354 19.4238 108.556 19.4238C110.486 19.4238 111.245 18.348 111.245 16.8609V16.1016C110.518 16.9875 109.442 17.5254 108.145 17.5254C105.645 17.5254 104.031 15.6903 104.031 12.9375C104.031 10.1848 105.708 8.3497 108.145 8.3497C109.474 8.3497 110.581 8.85595 111.309 9.77352L111.404 8.50791ZM108.809 15.7535C110.328 15.7535 111.245 14.6778 111.245 12.9692C111.245 11.2923 110.328 10.2481 108.809 10.2481C107.29 10.2481 106.341 11.3239 106.341 12.9692C106.341 14.6778 107.29 15.7535 108.809 15.7535ZM44.2629 41.1582C41.2887 41.1582 39.3587 39.2281 39.3587 36.254C39.3587 33.3114 41.352 31.3497 44.2629 31.3497C47.2371 31.3497 49.1672 33.2798 49.1672 36.254C49.1672 39.1965 47.1738 41.1582 44.2629 41.1582ZM44.2629 39.2598C45.8449 39.2598 46.8258 38.1207 46.8258 36.254C46.8258 34.3872 45.8449 33.2481 44.2629 33.2481C42.6809 33.2481 41.7001 34.3872 41.7001 36.254C41.7001 38.1207 42.6809 39.2598 44.2629 39.2598ZM55.1472 29.9575C54.5144 29.9575 54.1664 30.3372 54.1664 31.0017V31.5079H56.8241V33.4063H54.1664V41H51.8882V33.4063H49.9582V31.5079H51.8882V31.0333C51.8882 29.2298 53.1539 28.0591 55.1156 28.0591C56.223 28.0591 57.1405 28.3439 57.9315 28.8818L56.8874 30.5587C56.3495 30.179 55.78 29.9575 55.1472 29.9575ZM69.0373 41.1582C65.81 41.1582 63.785 39.2281 63.785 36.1907V28.9767H66.2213V36.1274C66.2213 37.9309 67.2654 39.0067 69.0373 39.0067C70.8408 39.0067 71.8533 37.9309 71.8533 36.1274V28.9767H74.2896V36.1907C74.2896 39.2281 72.2963 41.1582 69.0373 41.1582ZM83.6551 41L80.7759 36.8235L79.4786 38.0575V41H77.2005V28.3439H79.4786V35.4946L83.3704 31.5079H86.218L82.3579 35.2415L86.3762 41H83.6551ZM93.2105 31.3813C93.4636 31.3813 93.7484 31.413 94.0015 31.4446L93.9699 33.5962C93.4953 33.5329 93.0207 33.5012 92.5777 33.5012C91.1222 33.5012 90.1097 34.2923 90.1097 35.7793V41H87.8316V31.5079H89.8566L89.9832 32.995C90.6793 31.9825 91.8183 31.3813 93.2105 31.3813ZM103.399 39.0383H103.778V41C103.62 41.0316 103.367 41.0633 102.956 41.0633C101.785 41.0633 101.184 40.6203 101.026 39.6078C100.33 40.557 99.0956 41.1582 97.7034 41.1582C95.8683 41.1582 94.6027 40.0508 94.6027 38.3739C94.6027 35.9692 96.8808 35.4946 98.6843 35.2731C99.9182 35.1149 100.709 34.9567 100.709 34.3239C100.709 33.6594 100.013 33.2165 98.8741 33.2165C97.8616 33.2165 96.9441 33.6278 96.1847 34.3872L94.8242 32.9634C95.9316 31.9192 97.3237 31.3497 99.0007 31.3497C101.405 31.3497 102.829 32.552 102.829 34.5137V38.4688C102.829 38.8485 103.019 39.0383 103.399 39.0383ZM98.178 39.3547C99.5386 39.3547 100.646 38.4371 100.646 37.3297V36.3489C100.266 36.5704 99.7284 36.6653 98.9374 36.7918C97.8616 36.9817 96.8175 37.1399 96.8175 38.184C96.8175 38.9117 97.3237 39.3547 98.178 39.3547ZM105.803 30.2423V28.2173H108.271V30.2423H105.803ZM105.898 41V31.5079H108.176V41H105.898ZM116.466 31.3497C118.491 31.3497 119.915 32.8052 119.915 34.9883V41H117.637V35.5262C117.637 34.0708 116.941 33.2481 115.77 33.2481C114.441 33.2481 113.365 34.1973 113.365 35.5579V41H111.087V31.5079H113.112L113.239 32.9001C113.935 31.9509 115.106 31.3497 116.466 31.3497ZM124.091 36.9817C124.313 38.4055 125.262 39.2598 126.749 39.2598C127.983 39.2598 128.869 38.7852 129.439 38.1207L130.862 39.4813C130.008 40.4621 128.648 41.1582 126.749 41.1582C123.49 41.1582 121.813 39.0699 121.813 36.254C121.813 33.343 123.712 31.3497 126.591 31.3497C129.407 31.3497 131.242 33.2798 131.242 36.254C131.242 36.4754 131.242 36.6653 131.147 36.9817H124.091ZM126.591 33.1848C125.262 33.1848 124.376 33.9759 124.123 35.3047H128.932C128.679 33.9442 127.825 33.1848 126.591 33.1848Z" fill="#373737"/>
<defs>
<linearGradient id="paint0_linear_4289_37865" x1="7.89746" y1="55.5322" x2="28.219" y2="23.9907" gradientUnits="userSpaceOnUse">
<stop stop-color="#3717B1"/>
<stop offset="0.11" stop-color="#3D35C1"/>
<stop offset="0.43" stop-color="#4E87EE"/>
<stop offset="0.57" stop-color="#55A7FF"/>
<stop offset="1" stop-color="#8FDBFF"/>
</linearGradient>
<linearGradient id="paint1_linear_4289_37865" x1="-23708.7" y1="8448.2" x2="-21673.3" y2="7435.03" gradientUnits="userSpaceOnUse">
<stop stop-color="#3717B1"/>
<stop offset="0.11" stop-color="#3D35C1"/>
<stop offset="0.43" stop-color="#4E87EE"/>
<stop offset="0.57" stop-color="#55A7FF"/>
<stop offset="1" stop-color="#8FDBFF"/>
</linearGradient>
<linearGradient id="paint2_linear_4289_37865" x1="23.1391" y1="-11.6615" x2="2.61675" y2="19.916" gradientUnits="userSpaceOnUse">
<stop stop-color="#FF9C1C"/>
<stop offset="0.51" stop-color="#FFD91F"/>
</linearGradient>
<linearGradient id="paint3_linear_4289_37865" x1="39502.5" y1="-235298" x2="37735.4" y2="-234436" gradientUnits="userSpaceOnUse">
<stop stop-color="#FF9C1C"/>
<stop offset="0.51" stop-color="#FFD91F"/>
</linearGradient>
</defs>
</svg>
