<svg width="126" height="42" viewBox="0 0 126 42" fill="none" xmlns="http://www.w3.org/2000/svg">
<g clip-path="url(#clip0_4289_37908)">
<path d="M58.0363 7.9823V11.0873H57.1531L56.7115 9.0173H54.6139V16.7867L56.0767 17.1179V17.9183H51.3571V17.1179L52.8229 16.7867V9.0173H50.7085L50.2807 11.0873H49.3975V7.9823H58.0363ZM60.1201 14.3855C60.103 14.9188 60.197 15.4498 60.3961 15.9449C60.5146 16.2464 60.725 16.5029 60.9975 16.6782C61.2699 16.8535 61.5906 16.9386 61.9141 16.9216C62.3335 16.9204 62.7478 16.8286 63.1285 16.6525C63.534 16.4651 63.8854 16.1778 64.1497 15.8176L64.8949 16.3972C64.5503 16.8778 64.1056 17.278 63.5915 17.5702C62.9732 17.9099 62.2749 18.0767 61.5698 18.0532C60.9625 18.0708 60.361 17.9306 59.8241 17.6461C59.3392 17.3727 58.9511 16.9557 58.7132 16.4524C58.5693 16.1524 58.4662 15.8345 58.4066 15.5071C58.3395 15.1314 58.3072 14.7503 58.31 14.3686C58.2413 13.2989 58.5543 12.2394 59.1932 11.3786C59.5064 11.0222 59.897 10.7423 60.3352 10.5602C60.7733 10.3782 61.2473 10.2988 61.7209 10.3283C62.1818 10.3229 62.64 10.4008 63.0733 10.5583C63.4587 10.6978 63.8094 10.9191 64.1014 11.2069C64.3902 11.5007 64.6115 11.8539 64.75 12.2419C64.9086 12.6868 64.9864 13.1565 64.98 13.6288C64.98 13.731 64.9777 13.8299 64.9731 13.9255C64.9685 14.0211 64.957 14.1744 64.9386 14.3855H60.1201ZM61.6933 11.2805C60.7457 11.2805 60.2259 12.0216 60.1339 13.5038H63.1729V13.145C63.2057 12.6548 63.0705 12.1681 62.7896 11.765C62.6582 11.6033 62.4904 11.475 62.2998 11.3907C62.1092 11.3065 61.9013 11.2687 61.6933 11.2805ZM69.6007 10.3283C69.9969 10.3252 70.3916 10.3768 70.7737 10.4816C71.1072 10.5709 71.4225 10.7181 71.7052 10.9163C71.9582 11.0953 72.1678 11.3287 72.3185 11.5994C72.4666 11.87 72.5427 12.1742 72.5393 12.4826C72.5514 12.6544 72.5282 12.8269 72.4712 12.9895C72.4143 13.152 72.3247 13.3012 72.2081 13.4279C72.1012 13.534 71.974 13.6174 71.8341 13.6731C71.6942 13.7289 71.5444 13.7558 71.3939 13.7522C71.2372 13.7578 71.0813 13.7271 70.9385 13.6625C70.8238 13.6067 70.7226 13.5266 70.6418 13.4279C70.5643 13.3327 70.5079 13.2222 70.4762 13.1036C70.4443 12.9867 70.4281 12.866 70.4279 12.7448C70.4223 12.5339 70.4826 12.3265 70.6004 12.1514C70.7277 11.9771 70.91 11.8507 71.1179 11.7926C70.9643 11.6095 70.764 11.4712 70.5383 11.3924C70.2607 11.2871 69.9658 11.2351 69.6689 11.2391C69.4011 11.2343 69.1353 11.2865 68.8892 11.3924C68.6567 11.4996 68.4584 11.6692 68.3165 11.8823C68.1405 12.1556 68.0187 12.4601 67.9577 12.7793C67.8673 13.2313 67.8257 13.6916 67.8335 14.1524C67.8243 14.5457 67.8566 14.9389 67.9301 15.3254C67.9851 15.5841 68.0732 15.8345 68.1923 16.0706C68.3266 16.3232 68.5209 16.5388 68.7581 16.6985C69.0233 16.8607 69.3306 16.9408 69.6413 16.9285C69.8387 16.927 70.0354 16.9038 70.2278 16.8595C70.4363 16.813 70.6397 16.746 70.835 16.6594C71.0365 16.5698 71.2264 16.4563 71.4008 16.3213C71.5832 16.1802 71.7436 16.0128 71.8769 15.8245L72.6221 16.4041C72.245 16.9536 71.7285 17.3928 71.1256 17.6768C70.5545 17.9309 69.9359 18.0603 69.3109 18.0563C68.7071 18.0765 68.1083 17.941 67.5721 17.663C67.0988 17.3969 66.7147 16.9968 66.4681 16.513C66.3021 16.1924 66.1792 15.8514 66.1024 15.4987C66.0122 15.0925 65.9683 14.6774 65.9713 14.2613C65.9638 13.7108 66.0478 13.1628 66.2197 12.6398C66.3706 12.1822 66.6124 11.7598 66.9304 11.3978C67.2437 11.0492 67.6333 10.7776 68.0689 10.6043C68.5566 10.4135 69.077 10.3197 69.6007 10.3283ZM79.0951 14.2199C79.0951 13.9255 79.0905 13.6699 79.0813 13.4532C79.0721 13.2365 79.0593 13.0482 79.0429 12.8882C79.0332 12.7506 79.0101 12.6142 78.9739 12.4811C78.9459 12.3823 78.9113 12.2855 78.8704 12.1913C78.7586 11.9718 78.5841 11.7905 78.3692 11.6701C78.1543 11.5497 77.9085 11.4958 77.6629 11.5151C77.4022 11.5159 77.146 11.5823 76.9177 11.7083C76.6807 11.835 76.4844 12.0264 76.3519 12.2603C76.2658 12.4215 76.2009 12.5931 76.1587 12.7709C76.0984 13.0286 76.0706 13.2929 76.0759 13.5575V16.8833L77.0005 17.1455V17.9183H73.2577V17.1455L74.3203 16.8833V8.1893L73.2577 7.9271V7.1543H76.0729V11.7635C76.2949 11.3393 76.62 10.9776 77.0182 10.7116C77.4004 10.458 77.8498 10.3245 78.3085 10.3283C78.6477 10.3198 78.986 10.3688 79.309 10.4732C79.5788 10.5683 79.8224 10.7259 80.0197 10.9332C80.326 11.2666 80.5422 11.6727 80.6476 12.1131C80.7963 12.7436 80.8636 13.3906 80.8477 14.0382V16.8833L81.9103 17.1455V17.9183H78.1705V17.1455L79.0951 16.8833V14.2199ZM57.6775 25.703C57.6795 26.2183 57.493 26.7165 57.1531 27.1037C56.9864 27.2931 56.7879 27.4519 56.5666 27.5729C56.3375 27.6983 56.0872 27.7802 55.8283 27.8144V27.8696C56.4772 27.9888 57.0715 28.311 57.5257 28.7896C57.9415 29.2513 58.1639 29.8552 58.1467 30.4763C58.1514 30.9838 58.0101 31.482 57.7396 31.9115C57.4919 32.3217 57.1363 32.6559 56.7115 32.8775C56.5761 32.9445 56.4353 32.9999 56.2906 33.0431C56.1163 33.0941 55.9388 33.1333 55.7593 33.1604C55.5306 33.1953 55.3003 33.2183 55.0693 33.2294C54.8117 33.2442 54.5127 33.2516 54.1723 33.2516H49.6321V32.4512L50.7913 32.1614V24.4058L49.6321 24.116V23.3156H54.6829C55.4898 23.2632 56.2871 23.5142 56.9185 24.0194C57.1551 24.2366 57.3452 24.4995 57.4774 24.7922C57.6088 25.0779 57.6771 25.3886 57.6775 25.703ZM52.5853 28.575V32.2166H53.6893C54.031 32.2225 54.3726 32.1995 54.7105 32.1476C54.9378 32.1121 55.1573 32.0374 55.3591 31.9268C55.6181 31.7875 55.8296 31.5739 55.9663 31.3135C56.1275 31.0142 56.2083 30.6782 56.2009 30.3383C56.2099 30.0562 56.1483 29.7763 56.0215 29.5241C55.9084 29.3113 55.7535 29.1235 55.5661 28.9721C55.3764 28.8318 55.1605 28.731 54.9313 28.6754C54.6048 28.5986 54.2699 28.5638 53.9346 28.5719L52.5853 28.575ZM52.5853 27.5676H53.8963C54.1537 27.5896 54.4129 27.558 54.6575 27.4749C54.9022 27.3918 55.1269 27.2589 55.3177 27.0846C55.4648 26.9434 55.5862 26.7776 55.6765 26.5947C55.7766 26.3809 55.8286 26.1477 55.8286 25.9116C55.8286 25.6755 55.7766 25.4423 55.6765 25.2285C55.5862 25.0456 55.4648 24.8798 55.3177 24.7386C54.9343 24.4264 54.4436 24.2777 53.9515 24.3246H52.5853V27.5676ZM61.0186 29.7204C61.0015 30.2537 61.0955 30.7847 61.2946 31.2798C61.4127 31.5818 61.6229 31.839 61.8953 32.0149C62.1678 32.1907 62.4887 32.2763 62.8126 32.2596C63.232 32.2583 63.6463 32.1665 64.027 31.9905C64.4325 31.803 64.7839 31.5158 65.0482 31.1556L65.7934 31.7352C65.4488 32.2158 65.0042 32.6159 64.4901 32.9082C63.8718 33.2478 63.1734 33.4147 62.4684 33.3912C61.861 33.4088 61.2595 33.2685 60.7227 32.9841C60.2378 32.7107 59.8496 32.2936 59.6118 31.7904C59.4679 31.4903 59.3647 31.1724 59.3051 30.8451C59.238 30.4693 59.2057 30.0882 59.2085 29.7066C59.1399 28.6368 59.4528 27.5773 60.0917 26.7166C60.4043 26.3595 60.7945 26.0788 61.2324 25.896C61.6703 25.7131 62.1442 25.633 62.6179 25.6616C63.0788 25.6562 63.537 25.7341 63.9703 25.8916C64.3585 26.0288 64.7108 26.2517 65.001 26.5437C65.2913 26.8357 65.5121 27.1893 65.647 27.5783C65.8056 28.0232 65.8834 28.4929 65.877 28.9652C65.877 29.0674 65.8747 29.1663 65.8701 29.2619C65.8655 29.3575 65.854 29.5108 65.8356 29.7219L61.0186 29.7204ZM62.5918 26.6154C61.6442 26.6154 61.1244 27.3565 61.0324 28.8387H64.0684V28.4799C64.1011 27.9897 63.9659 27.503 63.6851 27.0999C63.554 26.9381 63.3865 26.8096 63.1962 26.7251C63.0058 26.6406 62.7982 26.6025 62.5903 26.6138L62.5918 26.6154ZM72.4588 29.5548C72.4588 29.2604 72.4542 29.0048 72.445 28.7881C72.4358 28.5714 72.4243 28.3828 72.4105 28.2223C72.4008 28.0847 72.3776 27.9483 72.3415 27.8152C72.3135 27.7164 72.2789 27.6196 72.238 27.5254C72.1257 27.3048 71.9502 27.1226 71.7339 27.0022C71.5176 26.8818 71.2703 26.8285 71.0236 26.8492C70.7629 26.85 70.5066 26.9164 70.2784 27.0424C70.0413 27.1691 69.8451 27.3605 69.7126 27.5944C69.6265 27.7556 69.5616 27.9272 69.5194 28.105C69.4591 28.3627 69.4313 28.627 69.4366 28.8916V32.2166L70.3612 32.4788V33.2516H66.6229V32.4788L67.6855 32.2166V23.5226L66.6229 23.2604V22.4876H69.4381V27.0968C69.6591 26.673 69.9828 26.3114 70.3796 26.045C70.7618 25.7914 71.2112 25.6579 71.6699 25.6616C72.0092 25.6531 72.3475 25.7021 72.6704 25.8065C72.9403 25.9016 73.1838 26.0593 73.3811 26.2665C73.6875 26.5999 73.9036 27.0061 74.009 27.4464C74.1578 28.0769 74.225 28.7239 74.2091 29.3715V32.2166L75.2717 32.4788V33.2516H71.5296V32.4788L72.4542 32.2166L72.4588 29.5548ZM77.7718 29.7204C77.7547 30.2537 77.8487 30.7847 78.0478 31.2798C78.1665 31.5807 78.3768 31.8367 78.6489 32.0117C78.921 32.1867 79.2412 32.2718 79.5643 32.255C79.9837 32.2537 80.398 32.1619 80.7787 31.9859C81.185 31.7997 81.5374 31.5135 81.8029 31.154L82.5481 31.7336C82.2036 32.2142 81.7589 32.6144 81.2448 32.9066C80.6265 33.2463 79.9281 33.4131 79.2231 33.3896C78.6158 33.4072 78.0143 33.267 77.4774 32.9825C76.99 32.7103 76.5993 32.2931 76.3596 31.7888C76.2157 31.4888 76.1126 31.1709 76.0529 30.8435C75.9859 30.4678 75.9535 30.0867 75.9563 29.705C75.8877 28.6353 76.2006 27.5758 76.8395 26.715C77.1528 26.3575 77.544 26.0767 77.9829 25.8941C78.4217 25.7115 78.8966 25.6319 79.3711 25.6616C79.832 25.6562 80.2902 25.7341 80.7235 25.8916C81.1117 26.0288 81.464 26.2517 81.7542 26.5437C82.0445 26.8357 82.2653 27.1893 82.4002 27.5783C82.5588 28.0232 82.6366 28.4929 82.6302 28.9652C82.6302 29.0674 82.6279 29.1663 82.6233 29.2619C82.6187 29.3575 82.6072 29.5108 82.5888 29.7219L77.7718 29.7204ZM79.345 26.6154C78.3974 26.6154 77.8776 27.3565 77.7856 28.8387H80.8216V28.4799C80.8543 27.9897 80.7191 27.503 80.4383 27.0999C80.3072 26.9381 80.1397 26.8096 79.9494 26.7251C79.759 26.6406 79.5514 26.6025 79.3435 26.6138L79.345 26.6154ZM84.6028 26.8362L83.5402 26.574V25.7996H85.9429L86.2496 27.1796H86.3048C86.5604 26.7227 86.9302 26.3399 87.3781 26.0687C87.8069 25.8023 88.3017 25.6613 88.8064 25.6616C89.1565 25.6538 89.5036 25.727 89.8207 25.8755C90.0787 25.9914 90.3005 26.175 90.4624 26.4068C90.6306 26.689 90.7518 26.9966 90.8212 27.3176C91.0916 26.8187 91.4861 26.3981 91.9666 26.0963C92.4168 25.812 92.9384 25.6613 93.4708 25.6616C93.815 25.6557 94.156 25.7289 94.4675 25.8755C94.7441 26.0026 94.9787 26.2061 95.1437 26.462C95.2342 26.608 95.3038 26.766 95.3507 26.9312C95.4141 27.1551 95.4602 27.3834 95.4887 27.6143C95.5255 27.8857 95.5511 28.2054 95.5654 28.5734C95.5797 28.9414 95.5866 29.3738 95.5861 29.8706V32.2166L96.6487 32.4788V33.2516H92.8951V32.4788L93.8197 32.2166V29.5532C93.8197 29.2588 93.8151 29.0033 93.8059 28.7866C93.7967 28.5699 93.7829 28.3813 93.7645 28.2208C93.7502 28.0837 93.7271 27.9477 93.6955 27.8137C93.6716 27.7145 93.6393 27.6175 93.5989 27.5239C93.5311 27.3344 93.4025 27.1726 93.2332 27.0639C93.089 26.9785 92.9246 26.9333 92.7571 26.9328C92.5415 26.929 92.3269 26.9617 92.1223 27.0294C91.9233 27.1033 91.7409 27.2159 91.5856 27.3606C91.3885 27.5369 91.235 27.7566 91.1371 28.0023C91.029 28.306 90.9708 28.6252 90.9646 28.9476V32.2166L91.8892 32.4788V33.2516H88.2859V32.4788L89.2105 32.2166V29.5532C89.2105 29.2588 89.2059 29.0033 89.1967 28.7866C89.1875 28.5699 89.1737 28.3813 89.1553 28.2208C89.141 28.0837 89.1179 27.9477 89.0863 27.8137C89.0624 27.7145 89.0301 27.6175 88.9897 27.5239C88.9219 27.3344 88.7933 27.1726 88.624 27.0639C88.4798 26.9785 88.3154 26.9333 88.1479 26.9328C87.9323 26.929 87.7177 26.9617 87.5131 27.0294C87.3141 27.1033 87.1317 27.2159 86.9764 27.3606C86.7793 27.5369 86.6258 27.7566 86.5279 28.0023C86.4198 28.306 86.3616 28.6252 86.3554 28.9476V32.2166L87.28 32.4788V33.2516H83.5387V32.4788L84.6013 32.2166L84.6028 26.8362ZM104.53 29.5272C104.534 30.0915 104.448 30.6528 104.275 31.1901C104.125 31.6727 103.874 32.1173 103.536 32.4934C103.238 32.8124 102.862 33.0498 102.446 33.1834C101.462 33.4594 100.422 33.4594 99.4378 33.1834C99.0216 33.0498 98.6464 32.8124 98.3476 32.4934C98.0104 32.1173 97.7585 31.6727 97.6093 31.1901C97.2689 30.1076 97.2689 28.9467 97.6093 27.8643C97.7585 27.3817 98.0104 26.937 98.3476 26.5609C98.6464 26.242 99.0216 26.0045 99.4378 25.8709C100.422 25.5949 101.462 25.5949 102.446 25.8709C102.862 26.0045 103.238 26.242 103.536 26.5609C103.874 26.937 104.125 27.3817 104.275 27.8643C104.447 28.4011 104.533 28.9619 104.528 29.5256L104.53 29.5272ZM99.6862 31.9146C99.8458 32.0886 100.04 32.2275 100.256 32.3225C100.472 32.4176 100.706 32.4666 100.942 32.4666C101.178 32.4666 101.412 32.4176 101.628 32.3225C101.844 32.2275 102.038 32.0886 102.198 31.9146C102.554 31.172 102.707 30.348 102.639 29.5272C102.707 28.7063 102.554 27.8823 102.198 27.1398C102.038 26.9658 101.844 26.8268 101.628 26.7318C101.412 26.6368 101.178 26.5877 100.942 26.5877C100.706 26.5877 100.472 26.6368 100.256 26.7318C100.04 26.8268 99.8458 26.9658 99.6862 27.1398C99.3298 27.8823 99.1774 28.7063 99.2446 29.5272C99.1772 30.3474 99.3291 31.1708 99.6847 31.913L99.6862 31.9146ZM105.11 25.9928L106.462 25.7996L106.628 24.0884L108.199 23.8676V25.7996H109.963V26.6966H108.199V31.2092C108.199 31.522 108.204 31.7359 108.213 31.8509C108.218 31.9473 108.237 32.0425 108.268 32.1338C108.301 32.1936 108.356 32.2382 108.422 32.258C108.538 32.2912 108.659 32.3052 108.78 32.2994H109.746V32.9066C109.282 33.0545 108.81 33.1766 108.332 33.2723C108.012 33.3403 107.686 33.3796 107.359 33.3896C107.187 33.4086 107.014 33.3684 106.869 33.2755C106.723 33.1826 106.614 33.0427 106.559 32.879C106.507 32.7442 106.477 32.6022 106.469 32.4581C106.455 32.2879 106.448 32.028 106.448 31.6784V26.6951H105.11V25.9928ZM116.177 29.5532C116.177 29.2588 116.173 29.0033 116.163 28.7866C116.154 28.5699 116.143 28.3813 116.129 28.2208C116.119 28.0831 116.096 27.9468 116.06 27.8137C116.032 27.7149 115.997 27.6181 115.956 27.5239C115.844 27.3032 115.669 27.1211 115.452 27.0007C115.236 26.8802 114.989 26.827 114.742 26.8477C114.481 26.8484 114.225 26.9149 113.997 27.0409C113.76 27.1676 113.564 27.359 113.431 27.5929C113.345 27.754 113.28 27.9257 113.238 28.1035C113.177 28.3612 113.15 28.6254 113.155 28.8901V32.2166L114.08 32.4788V33.2516H110.338V32.4788L111.401 32.2166V23.5226L110.338 23.2604V22.4876H113.153V27.0968C113.376 26.6726 113.701 26.3109 114.099 26.045C114.481 25.7914 114.93 25.6579 115.389 25.6616C115.728 25.6531 116.067 25.7021 116.39 25.8065C116.659 25.9016 116.903 26.0593 117.1 26.2665C117.407 26.5999 117.623 27.0061 117.728 27.4464C117.877 28.0769 117.944 28.7239 117.928 29.3715V32.2166L118.991 32.4788V33.2516H115.251V32.4788L116.176 32.2166L116.177 29.5532ZM122.513 32.5478C122.731 32.5491 122.949 32.526 123.162 32.4788C123.347 32.4392 123.525 32.3741 123.693 32.2856C123.835 32.2113 123.958 32.105 124.052 31.9751C124.139 31.8522 124.185 31.7048 124.183 31.5542C124.185 31.3777 124.124 31.2061 124.01 31.0712C123.883 30.9234 123.728 30.8016 123.555 30.7124C123.351 30.6049 123.139 30.5148 122.92 30.4433C122.685 30.3651 122.453 30.2885 122.223 30.2133C121.938 30.1304 121.659 30.0266 121.388 29.9028C121.123 29.7826 120.877 29.6246 120.657 29.4336C120.442 29.2468 120.266 29.0193 120.139 28.7643C120.005 28.48 119.939 28.1681 119.946 27.8535C119.935 27.5506 119.994 27.2492 120.119 26.9728C120.243 26.6964 120.43 26.4524 120.664 26.2596C121.257 25.8234 121.985 25.6107 122.72 25.6593C123.106 25.6548 123.491 25.7012 123.865 25.7973C124.176 25.8758 124.471 26.009 124.735 26.1906C124.963 26.3494 125.154 26.5568 125.294 26.7978C125.427 27.0313 125.496 27.2958 125.494 27.5645C125.503 27.6974 125.486 27.8308 125.442 27.9566C125.398 28.0824 125.329 28.1979 125.238 28.2959C125.145 28.3815 125.035 28.4475 124.915 28.4902C124.795 28.5328 124.668 28.5512 124.542 28.5443C124.293 28.5592 124.048 28.4832 123.852 28.3304C123.775 28.2705 123.713 28.1942 123.67 28.1069C123.627 28.0197 123.604 27.9239 123.603 27.8267C123.604 27.6669 123.652 27.5109 123.741 27.3782C123.829 27.2394 123.953 27.1273 124.1 27.0539C123.966 26.8751 123.788 26.7347 123.582 26.6468C123.326 26.5427 123.051 26.4933 122.775 26.5019C122.432 26.4754 122.09 26.5706 121.809 26.771C121.703 26.8641 121.619 26.9802 121.564 27.1105C121.509 27.2408 121.484 27.3819 121.492 27.5231C121.48 27.6788 121.507 27.835 121.569 27.9781C121.632 28.1212 121.728 28.2468 121.851 28.3442C122.144 28.5492 122.471 28.701 122.817 28.7927C123.185 28.9031 123.548 29.0181 123.907 29.1377C124.243 29.2467 124.565 29.3949 124.866 29.5793C125.134 29.7426 125.365 29.9614 125.542 30.221C125.718 30.4947 125.807 30.8155 125.797 31.141C125.803 31.4782 125.715 31.8104 125.542 32.1001C125.366 32.3866 125.125 32.6277 124.838 32.8039C124.512 33.004 124.155 33.1507 123.783 33.2386C123.353 33.3432 122.913 33.3947 122.472 33.3919C121.752 33.4326 121.035 33.2649 120.408 32.9089C120.18 32.7752 119.992 32.5835 119.862 32.3531C119.733 32.1228 119.666 31.8622 119.67 31.5979C119.661 31.4369 119.684 31.2756 119.738 31.1238C119.793 30.972 119.878 30.8329 119.988 30.7147C120.086 30.6128 120.204 30.532 120.334 30.4774C120.465 30.4229 120.605 30.3956 120.747 30.3973C120.965 30.3968 121.179 30.4617 121.36 30.5836C121.45 30.6393 121.523 30.7178 121.573 30.8111C121.623 30.9045 121.647 31.0093 121.643 31.1149C121.64 31.2875 121.587 31.4555 121.489 31.5979C121.404 31.739 121.285 31.8573 121.144 31.9429C121.262 32.1142 121.418 32.2559 121.6 32.3569C121.882 32.5014 122.197 32.5673 122.513 32.5478Z" fill="#373737"/>
<path d="M29.4323 18.4692H24.1837V11.9081H37.306C37.306 13.2045 33.9702 18.4692 29.4323 18.4692ZM0 2.53407V0.284668L7.6475 0.300001V0.292335L28.1888 0.284668C33.9273 0.284668 37.306 4.83867 37.306 6.8458H5.43643C5.43643 4.73133 3.9468 2.53407 0 2.53407ZM5.43643 11.9081H18.3716V18.4692H5.43643V11.9081ZM18.3716 30.0919H5.43643V23.5308H18.3716V30.0919ZM24.183 23.5308H29.9943C35.8846 23.5308 38.8056 28.2473 38.8056 30.0919H24.1837L24.183 23.5308ZM5.43643 35.1542H18.3716V37.9663H24.183V35.1542L38.8056 35.1588C38.8056 37.4734 34.5974 41.7161 30.1821 41.7161H0V39.4659C3.91537 39.4659 5.43643 37.3959 5.43643 35.1542Z" fill="#3672FF"/>
</g>
<defs>
<clipPath id="clip0_4289_37908">
<rect width="125.795" height="41.4307" fill="white" transform="translate(0 0.284668)"/>
</clipPath>
</defs>
</svg>
