<svg width="810" height="268" viewBox="0 0 810 268" fill="none" xmlns="http://www.w3.org/2000/svg">
<g clip-path="url(#clip0_5701_52142)">
<path d="M77.513 198.594L0 87.123H40.602L95.9684 172.018L149.858 87.8612H190.46L113.686 198.594V265.034H77.513V198.594ZM194.89 175.709C194.89 162.421 197.104 149.872 202.272 138.798C207.439 127.725 214.083 118.128 222.942 110.008C231.801 101.887 242.874 95.9816 254.685 91.5523C267.235 87.123 281.261 84.9084 296.026 84.9084C310.79 84.9084 324.816 87.123 337.366 91.5523C349.916 95.9816 360.251 101.887 369.848 110.008C378.706 118.128 385.35 127.725 390.518 138.798C395.685 149.872 397.9 162.421 397.9 175.709C397.9 188.997 395.685 201.547 390.518 212.62C385.35 223.694 378.706 233.29 369.848 241.411C360.989 249.531 349.916 256.175 337.366 260.604C324.816 265.034 310.79 267.248 296.026 267.248C280.523 267.248 267.235 265.034 254.685 260.604C242.136 256.175 231.801 249.531 222.942 241.411C214.083 233.29 207.439 223.694 202.272 212.62C197.843 201.547 194.89 188.997 194.89 175.709ZM231.062 175.709C231.062 184.568 232.539 193.427 236.23 200.809C239.183 208.191 244.35 214.097 250.256 220.002C256.162 225.17 262.806 228.861 270.926 231.814C279.047 234.767 287.905 236.243 296.764 236.243C305.623 236.243 315.219 234.767 322.602 231.814C330.722 228.861 337.366 225.17 343.272 220.002C349.178 214.835 353.607 208.191 357.298 200.809C360.989 193.427 362.465 185.306 362.465 175.709C362.465 166.851 360.989 157.992 357.298 151.348C353.607 143.966 349.178 138.06 343.272 132.893C337.366 127.725 330.722 124.034 322.602 121.081C314.481 118.128 305.623 117.39 296.764 117.39C287.905 117.39 278.309 118.866 270.926 121.081C262.806 124.034 256.162 127.725 250.256 132.893C244.35 138.06 239.921 143.966 236.23 151.348C232.539 157.992 231.062 166.851 231.062 175.709ZM513.8 138.798L530.779 118.128H423.738V87.123H597.957L498.298 212.62L480.58 234.767H592.051V265.772H414.879L513.8 138.798ZM290.858 44.3063H241.398L276.832 0.0131836H326.293L290.858 44.3063ZM252.471 39.1388H287.905L315.219 5.18072H279.047L252.471 39.1388ZM360.989 44.3063H311.528L346.963 0.0131836H396.424L360.989 44.3063ZM322.602 39.1388H358.774L386.088 5.18072H349.916L322.602 39.1388ZM627.486 87.123H663.659V265.034H627.486V87.123ZM773.653 87.123H809.826V265.034H773.653V87.123Z" fill="#EFEFEF"/>
<path d="M658.491 149.872H780.297V180.877H658.491V149.872Z" fill="#EFEFEF"/>
</g>
<defs>
<clipPath id="clip0_5701_52142">
<rect width="809.826" height="267.973" fill="white" transform="translate(0 0.0131836)"/>
</clipPath>
</defs>
</svg>
