<svg width="25" height="25" viewBox="0 0 25 25" fill="none" xmlns="http://www.w3.org/2000/svg">
<g clip-path="url(#clip0_1608_19)">
<path d="M10.486 12.0579C10.869 11.4834 11.0605 10.8132 11.0605 10.0473C11.0605 8.03674 9.33715 6.50488 7.42233 6.50488H1.86933C1.58211 6.50488 1.39062 6.69636 1.39062 6.98359V19.1427C1.39062 19.4299 1.58211 19.6214 1.86933 19.6214H7.99677C10.2946 19.6214 12.2094 17.8023 12.2094 15.5046C12.2094 14.0684 11.5392 12.8238 10.486 12.0579ZM3.78416 8.99416H7.42233C8.09251 8.99416 8.57122 9.56861 8.57122 10.143C8.57122 10.8132 7.99677 11.2919 7.42233 11.2919H3.78416V8.99416ZM8.09251 17.2279H3.78416V13.7812H8.09251C9.04992 13.7812 9.81586 14.5471 9.81586 15.5046C9.81586 16.4619 9.04992 17.2279 8.09251 17.2279Z" fill="white"/>
<path d="M22.836 14.6427C22.836 11.7704 20.6339 9.47266 17.8574 9.47266C15.0809 9.47266 12.8789 11.7704 12.8789 14.6427C12.8789 17.5149 15.0809 19.8127 17.8574 19.8127C19.485 19.8127 21.0169 18.951 21.9743 17.5149C22.0701 17.3234 22.1658 17.1319 22.2615 16.9405C22.3573 16.8447 22.2615 16.6532 22.0701 16.6532H19.6765C19.5808 16.6532 19.5808 16.6532 19.485 16.749C19.0063 17.2277 18.4319 17.4192 17.8574 17.4192C16.6128 17.4192 15.6554 16.5575 15.3682 15.3129H22.3573C22.6445 15.3129 22.836 15.1214 22.836 14.8342V14.6427ZM17.8574 11.9619C18.7191 11.9619 19.485 12.4406 19.9637 13.2066H15.7511C16.1341 12.4406 16.9958 11.9619 17.8574 11.9619Z" fill="white"/>
<path d="M19.8691 8.89819H15.465C15.2735 8.89819 15.082 8.70671 15.082 8.51522V7.46207C15.082 7.27059 15.2735 7.0791 15.465 7.0791H19.8691C20.0606 7.0791 20.2521 7.27059 20.2521 7.46207V8.61096C20.2521 8.7067 20.1563 8.89819 19.8691 8.89819Z" fill="white"/>
</g>
<defs>
<clipPath id="clip0_1608_19">
<rect width="23" height="14" fill="white" transform="translate(0.613281 5.92188)"/>
</clipPath>
</defs>
</svg>
