<svg width="24" height="24" viewBox="0 0 24 24" fill="none" xmlns="http://www.w3.org/2000/svg">
<path fill-rule="evenodd" clip-rule="evenodd" d="M12.3751 4.5C10.2865 4.5 8.28345 5.32968 6.8066 6.80653C5.32975 8.28338 4.50006 10.2864 4.50006 12.375V20.25H12.3751C13.4092 20.25 14.4333 20.0463 15.3887 19.6506C16.3441 19.2548 17.2123 18.6747 17.9435 17.9435C18.6748 17.2122 19.2549 16.3441 19.6506 15.3886C20.0464 14.4332 20.2501 13.4092 20.2501 12.375C20.2501 11.3408 20.0464 10.3168 19.6506 9.36137C19.2549 8.40593 18.6748 7.5378 17.9435 6.80653C17.2123 6.07527 16.3441 5.4952 15.3887 5.09945C14.4333 4.70369 13.4092 4.5 12.3751 4.5ZM12.3751 21.75H4.47602C4.2827 21.7518 4.09092 21.7152 3.91179 21.6424C3.73084 21.5689 3.56647 21.4598 3.42836 21.3217C3.29025 21.1836 3.1812 21.0192 3.10765 20.8383C3.03484 20.6591 2.99828 20.4674 3.00006 20.274V12.375C3.00006 9.8886 3.98778 7.50403 5.74594 5.74587C7.50409 3.98772 9.88866 3 12.3751 3C13.6062 3 14.8253 3.24249 15.9627 3.71363C17.1001 4.18477 18.1336 4.87532 19.0042 5.74587C19.8747 6.61642 20.5653 7.64992 21.0364 8.78734C21.5076 9.92477 21.7501 11.1439 21.7501 12.375C21.7501 13.6061 21.5076 14.8252 21.0364 15.9627C20.5653 17.1001 19.8747 18.1336 19.0042 19.0041C18.1336 19.8747 17.1001 20.5652 15.9627 21.0364C14.8253 21.5075 13.6062 21.75 12.3751 21.75Z" fill="white"/>
<path fill-rule="evenodd" clip-rule="evenodd" d="M8.625 11.25C8.625 10.8358 8.96079 10.5 9.375 10.5H15C15.4142 10.5 15.75 10.8358 15.75 11.25C15.75 11.6642 15.4142 12 15 12H9.375C8.96079 12 8.625 11.6642 8.625 11.25Z" fill="white"/>
<path fill-rule="evenodd" clip-rule="evenodd" d="M8.625 14.25C8.625 13.8358 8.96079 13.5 9.375 13.5H15C15.4142 13.5 15.75 13.8358 15.75 14.25C15.75 14.6642 15.4142 15 15 15H9.375C8.96079 15 8.625 14.6642 8.625 14.25Z" fill="white"/>
</svg>
