<svg width="24" height="24" viewBox="0 0 24 24" fill="none" xmlns="http://www.w3.org/2000/svg">
<path fill-rule="evenodd" clip-rule="evenodd" d="M2.43934 3.43934C2.72064 3.15804 3.10217 3 3.5 3H15.5C15.8978 3 16.2794 3.15804 16.5607 3.43934C16.842 3.72065 17 4.10218 17 4.5V12.75C17 13.1478 16.842 13.5294 16.5607 13.8107C16.2794 14.092 15.8978 14.25 15.5 14.25H6.72765L3.22139 17.0833C2.99663 17.265 2.68752 17.3013 2.42677 17.1768C2.16601 17.0522 2 16.789 2 16.5V4.5C2 4.10217 2.15804 3.72064 2.43934 3.43934ZM15.5 4.5L3.5 4.5L3.5 14.9297L5.99111 12.9167C6.12455 12.8088 6.29093 12.75 6.4625 12.75H15.5V4.5Z" fill="white"/>
<path fill-rule="evenodd" clip-rule="evenodd" d="M15.5 8.25C15.5 7.83579 15.8358 7.5 16.25 7.5H20C20.3978 7.5 20.7794 7.65804 21.0607 7.93934C21.342 8.22065 21.5 8.60218 21.5 9V21C21.5 21.289 21.334 21.5522 21.0732 21.6768C20.8125 21.8013 20.5034 21.765 20.2786 21.5833L16.7723 18.75H8C7.60218 18.75 7.22065 18.592 6.93934 18.3107C6.65804 18.0294 6.5 17.6478 6.5 17.25V13.5C6.5 13.0858 6.83579 12.75 7.25 12.75C7.66421 12.75 8 13.0858 8 13.5V17.25H17.0375C17.2091 17.25 17.3754 17.3088 17.5089 17.4167L20 19.4297V9H16.25C15.8358 9 15.5 8.66421 15.5 8.25Z" fill="white"/>
</svg>
