<svg width="25" height="25" viewBox="0 0 25 25" fill="none" xmlns="http://www.w3.org/2000/svg">
<path d="M20.7626 14.3123V20.1143H17.3664V14.6661C17.3664 13.3218 16.8711 12.402 15.6684 12.402C14.7485 12.402 14.1825 13.0388 13.9702 13.6048C13.8994 13.8171 13.8287 14.1001 13.8287 14.4539V20.1143H10.4325C10.4325 20.1143 10.5032 10.9161 10.4325 9.99632H13.8287V11.4114C14.2532 10.7039 15.1023 9.7133 16.8711 9.7133C19.0645 9.7133 20.7626 11.1991 20.7626 14.3123ZM6.89474 5.11426C5.76267 5.11426 4.98438 5.89255 4.98438 6.88312C4.98438 7.87368 5.69192 8.65198 6.82399 8.65198C8.02682 8.65198 8.73436 7.87368 8.73436 6.88312C8.80512 5.8218 8.09757 5.11426 6.89474 5.11426ZM5.19664 20.1143H8.59285V9.99632H5.19664V20.1143Z" fill="white"/>
</svg>
