<svg width="24" height="24" viewBox="0 0 24 24" fill="none" xmlns="http://www.w3.org/2000/svg">
<path d="M15.6942 6.05415C15.9856 5.58503 15.8435 4.96207 15.3417 4.73137C14.0107 4.11941 12.5306 3.88198 11.063 4.05506C9.26276 4.26738 7.58801 5.08478 6.31308 6.37337C5.03816 7.66195 4.23865 9.34532 4.04553 11.1477C3.85241 12.9501 4.27713 14.7646 5.25012 16.2941C6.2231 17.8235 7.68666 18.9772 9.40104 19.5661C11.1154 20.155 12.979 20.1442 14.6864 19.5355C16.3939 18.9268 17.844 17.7562 18.7992 16.2156C19.5779 14.9596 19.9901 13.5184 19.9998 12.0534C20.0035 11.5012 19.4995 11.1085 18.9511 11.1737L18.9075 11.1789C18.3591 11.2441 17.9762 11.7436 17.9488 12.2952C17.8991 13.2974 17.5965 14.2766 17.0621 15.1386C16.3509 16.2856 15.2713 17.1571 14.0001 17.6103C12.7289 18.0634 11.3414 18.0715 10.065 17.633C8.78866 17.1946 7.69902 16.3357 6.97462 15.197C6.25022 14.0583 5.93401 12.7074 6.07779 11.3655C6.22157 10.0236 6.81681 8.77026 7.76601 7.81089C8.71521 6.85152 9.96209 6.24296 11.3024 6.08488C12.3096 5.96609 13.3248 6.10702 14.2536 6.4867C14.7649 6.69566 15.3795 6.56054 15.671 6.09143L15.6942 6.05415Z" fill="white"/>
</svg>
