<svg width="25" height="24" viewBox="0 0 25 24" fill="none" xmlns="http://www.w3.org/2000/svg">
<path fill-rule="evenodd" clip-rule="evenodd" d="M0.683921 0.467781C0.838275 0.319207 1.06014 0.264209 1.26601 0.323482L23.5461 6.73805C23.7522 6.79739 23.9109 6.9622 23.9625 7.17036C24.014 7.37852 23.9506 7.59838 23.796 7.74705L7.07383 23.8325C6.91932 23.9811 6.69726 24.036 6.4913 23.9765C6.28535 23.917 6.1268 23.7521 6.07539 23.5439L0.517522 1.04395C0.466145 0.835957 0.529567 0.616355 0.683921 0.467781ZM1.9314 1.7638L6.99109 22.247L22.2144 7.6034L1.9314 1.7638Z" fill="white"/>
<path fill-rule="evenodd" clip-rule="evenodd" d="M12.4047 3.53164C12.6107 3.59116 12.7693 3.75612 12.8207 3.96432L15.5977 15.2177C15.649 15.4257 15.5855 15.6453 15.4311 15.7938C15.2767 15.9423 15.0549 15.9973 14.849 15.938L3.71513 12.7296C3.50912 12.6703 3.35045 12.5055 3.29888 12.2974C3.24731 12.0893 3.31069 11.8695 3.46514 11.7208L11.8221 3.67582C11.9766 3.52709 12.1987 3.47212 12.4047 3.53164ZM5.04629 11.8644L14.1839 14.4975L11.9049 5.26178L5.04629 11.8644Z" fill="white"/>
<path fill-rule="evenodd" clip-rule="evenodd" d="M6.87953 1.92905C7.08564 1.98853 7.24432 2.15353 7.29571 2.3618L8.58994 7.60742L13.4707 9.0085L17.3593 5.26025C17.5137 5.11137 17.7359 5.05628 17.942 5.11576C18.1481 5.17524 18.3068 5.34023 18.3582 5.54851L19.7375 11.1388C19.7888 11.3467 19.7254 11.5662 19.5711 11.7147C19.4169 11.8632 19.1952 11.9183 18.9894 11.8592L13.7772 10.363L10.1374 13.8715L11.4347 19.1297C11.486 19.3376 11.4226 19.557 11.2684 19.7056C11.1141 19.8541 10.8924 19.9092 10.6866 19.8501L5.1551 18.2622C4.949 18.2031 4.79014 18.0384 4.73839 17.8303C4.68664 17.6222 4.74987 17.4023 4.90426 17.2535L8.80776 13.4909L7.59547 8.57737L2.3954 7.08463C2.1893 7.02546 2.03043 6.86081 1.97869 6.65272C1.92694 6.44463 1.99017 6.22474 2.14455 6.07593L6.29678 2.07354C6.45123 1.92467 6.67342 1.86957 6.87953 1.92905ZM8.92382 8.95173L9.80539 12.5248L12.4593 9.96663L8.92382 8.95173ZM7.2616 7.23306L6.38003 3.66002L3.72611 6.21816L7.2616 7.23306ZM9.13973 14.8376L6.48582 17.3957L10.0213 18.4107L9.13973 14.8376ZM14.7886 9.40487L18.3241 10.4198L17.4425 6.84672L14.7886 9.40487Z" fill="white"/>
</svg>
