<svg width="72" height="72" viewBox="0 0 72 72" fill="none" xmlns="http://www.w3.org/2000/svg">
<path d="M36.0469 36.0133C36.0469 29.3986 41.4249 24.0088 48.086 24.0088C54.7198 24.0088 60.1252 29.3713 60.1252 36.0133C60.1252 42.628 54.7471 48.0178 48.086 48.0178C41.4522 48.0178 36.0469 42.628 36.0469 36.0133Z" fill="#1ABCFE"/>
<path d="M12 59.9957C12 53.381 17.378 47.9912 24.0392 47.9912H36.0783V59.9957C36.0783 66.6105 30.7003 72.0002 24.0392 72.0002C17.378 72.0002 12 66.6377 12 59.9957Z" fill="#0ACF83"/>
<path d="M36.0469 0.0272211V24.009H48.086C54.7198 24.009 60.1252 18.6465 60.1252 12.0045C60.1252 5.38978 54.7471 0 48.086 0H36.0469V0.0272211Z" fill="#FF7262"/>
<path d="M12 12.0309C12 18.6456 17.378 24.0354 24.0392 24.0354H36.0783V0.0263672H24.0392C17.378 0.0263672 12 5.38893 12 12.0309Z" fill="#F24E1E"/>
<path d="M12 36.0133C12 42.628 17.378 48.0178 24.0392 48.0178H36.0783V24.0088H24.0392C17.378 24.0088 12 29.3986 12 36.0133Z" fill="#A259FF"/>
</svg>
