<svg width="72" height="72" viewBox="0 0 72 72" fill="none" xmlns="http://www.w3.org/2000/svg">
<g clip-path="url(#clip0_3280_20789)">
<path d="M43.1343 26.007L35.9338 32.7114L29.25 19.2238L32.7028 11.4687C33.5755 9.92172 35.0028 9.90129 35.8755 11.4687L43.1343 26.007Z" fill="#FFA000"/>
<path d="M35.9338 32.7064L9 57.7581L29.2499 19.2217L35.9338 32.7064Z" fill="#F57F17"/>
<path d="M51.0264 15.7533C52.3164 14.5245 53.6444 14.939 53.9801 16.6844L60.9821 57.4215L37.758 71.3644C36.9436 71.8198 34.7838 71.9978 34.7838 71.9978C34.7838 71.9978 32.8195 71.7585 32.0665 71.344L9 57.7601L51.0264 15.7533Z" fill="#FFCA28"/>
<path d="M29.2499 19.2244L9 57.7608L18.0246 1.43457C18.3632 -0.310848 19.3526 -0.488892 20.2458 1.05805L29.2499 19.2244Z" fill="#FFA000"/>
</g>
<defs>
<clipPath id="clip0_3280_20789">
<rect width="51.9821" height="72" fill="white" transform="translate(9)"/>
</clipPath>
</defs>
</svg>
