<svg width="72" height="72" viewBox="0 0 72 72" fill="none" xmlns="http://www.w3.org/2000/svg">
<g clip-path="url(#clip0_3280_20801)">
<path d="M61.2 0H10.8C4.83532 0 0 4.83532 0 10.8V61.2C0 67.1647 4.83532 72 10.8 72H61.2C67.1647 72 72 67.1647 72 61.2V10.8C72 4.83532 67.1647 0 61.2 0Z" fill="#171515"/>
<path d="M16.7295 35.8595C19.1202 40.0783 23.6202 42.6095 31.0733 43.3126C29.9483 44.1564 28.6827 45.7033 28.542 47.5314C27.1358 48.3751 24.4639 48.6564 22.3545 47.9533C19.4014 46.9689 18.2764 41.2033 13.7764 42.047C12.792 42.1876 12.9327 42.8908 13.7764 43.4533C15.1827 44.297 16.7295 45.7033 17.4327 47.672C19.1202 52.0314 22.6358 53.1564 28.2608 52.3126V58.6408C28.2608 60.6095 25.4483 61.172 25.4483 62.1564C25.4483 62.5783 26.4327 62.5783 27.1358 62.5783C28.542 62.5783 31.6358 61.3126 31.6358 59.3439C31.6358 57.6564 31.6358 52.0314 31.7764 51.047C31.7764 48.9376 32.9014 48.2345 32.9014 48.2345C32.9014 48.2345 33.042 59.7658 32.6202 61.172C32.0577 63.0001 31.2139 62.7189 31.2139 63.5626C31.2139 64.8283 34.8702 63.8439 36.1358 61.172C37.1202 59.0626 36.6983 47.8126 36.5577 47.9533H37.542C37.542 47.9533 37.542 53.1564 37.6827 55.4064C37.6827 57.797 37.542 60.8908 38.9483 62.4376C39.9327 63.422 43.0264 65.1095 43.0264 63.5626C43.0264 62.7189 41.3389 61.8751 41.3389 59.4845V48.3751C42.7452 48.3751 42.4639 52.0314 42.4639 52.0314L42.6045 58.7814C42.6045 58.7814 42.3233 61.3126 45.2764 62.297C46.4014 62.7189 48.6514 62.7189 48.792 62.1564C48.9327 61.5939 45.9795 60.6095 45.9795 58.6408V51.7501C45.9795 46.6876 45.2764 44.8595 42.8858 43.3126C50.3389 42.6095 54.9795 40.7814 57.2295 35.8595C58.6358 33.047 58.917 29.672 58.917 27.1408C58.917 20.1095 55.542 17.7189 54.8389 16.4533C55.8233 11.1095 54.6983 8.71888 54.1358 8.01575C52.167 7.31263 47.3858 9.70325 44.8545 11.3908C40.6358 10.1251 31.6358 10.2658 28.2608 11.672C22.0733 7.31263 18.8389 8.01575 18.8389 8.01575C18.8389 8.01575 16.7295 11.8126 18.2764 17.297C16.167 19.8283 14.7608 21.6564 14.6202 26.4376C14.6202 30.2345 15.042 32.6251 16.7295 35.8595Z" fill="white"/>
</g>
<defs>
<clipPath id="clip0_3280_20801">
<rect width="72" height="72" fill="white"/>
</clipPath>
</defs>
</svg>
