<svg width="72" height="72" viewBox="0 0 72 72" fill="none" xmlns="http://www.w3.org/2000/svg">
<path d="M70.6423 32.7926L39.2063 1.35783C37.397 -0.45261 34.4608 -0.45261 32.6493 1.35783L26.1214 7.88576L34.4023 16.1668C36.3266 15.5165 38.5333 15.9527 40.0672 17.4867C41.6085 19.0305 42.0416 21.2561 41.3756 23.1866L49.3561 31.1675C51.2869 30.5023 53.5147 30.9327 55.0568 32.4773C57.212 34.6317 57.212 38.1235 55.0568 40.2793C52.901 42.4354 49.4092 42.4354 47.2523 40.2793C45.6312 38.6565 45.2307 36.2757 46.0514 34.2785L38.6089 26.8359L38.6081 46.4217C39.1476 46.6884 39.6404 47.0408 40.0672 47.4651C42.2225 49.6195 42.2225 53.1116 40.0672 55.2691C37.9114 57.4241 34.418 57.4241 32.2653 55.2691C30.1101 53.1116 30.1101 49.6198 32.2653 47.4654C32.7818 46.9487 33.3956 46.5394 34.0713 46.2613V26.493C33.3946 26.2168 32.7805 25.8074 32.2653 25.289C30.6324 23.6583 30.2398 21.2623 31.0765 19.2572L22.9135 11.0932L1.35844 32.6472C-0.452813 34.4593 -0.452813 37.3959 1.35844 39.2066L32.7949 70.642C34.6048 72.4527 37.5405 72.4527 39.3526 70.642L70.642 39.3526C72.4527 37.5413 72.4529 34.603 70.6423 32.7926Z" fill="#DE4C36"/>
</svg>
