<svg width="72" height="72" viewBox="0 0 72 72" fill="none" xmlns="http://www.w3.org/2000/svg">
<path d="M49.8884 50.7739C52.5454 50.4987 54.5611 48.2064 54.4694 45.4554C54.378 42.7046 52.0872 40.5038 49.3386 40.5038H49.1555C46.3148 40.5956 44.116 42.9796 44.2077 45.8221C44.2994 47.1976 44.849 48.3896 45.6736 49.2149C42.5585 55.3587 37.7941 59.8518 30.6475 63.6113C25.7915 66.1788 20.7523 67.0958 15.7132 66.4541C11.59 65.9038 8.38321 64.0701 6.36721 61.0438C3.43547 56.5507 3.16068 51.6907 5.63456 46.8309C7.3755 43.3464 10.1239 40.7788 11.8648 39.4951C11.4983 38.3031 10.9485 36.2858 10.6737 34.8188C-2.61169 44.4469 -1.23722 57.4677 2.79422 63.6113C5.81765 68.1964 11.9565 71.0389 18.7366 71.0389C20.5689 71.0389 22.4013 70.8554 24.2339 70.3971C35.9617 68.1046 44.8492 61.1355 49.8884 50.7739ZM66.0141 39.4036C59.0507 31.2425 48.789 26.7495 37.0611 26.7495H35.5953C34.7706 25.099 33.0297 23.9984 31.1057 23.9984H30.9223C28.0822 24.0902 25.8834 26.4742 25.9748 29.317C26.0665 32.0678 28.357 34.2685 31.1057 34.2685H31.2888C33.3045 34.1768 35.0454 32.893 35.7784 31.1507H37.4276C44.3911 31.1507 50.9878 33.168 56.9436 37.1111C61.5246 40.1371 64.8231 44.0801 66.6554 48.8482C68.213 52.6994 68.1213 56.459 66.472 59.6685C63.9067 64.5283 59.6005 67.1876 53.9198 67.1876C50.2549 67.1876 46.7733 66.0871 44.9406 65.2618C43.9329 66.1788 42.1003 67.6458 40.8175 68.5631C44.7576 70.3969 48.789 71.4056 52.6371 71.4056C61.4329 71.4056 67.9382 66.5456 70.412 61.6858C73.069 56.3672 72.8856 47.1976 66.0141 39.4036ZM19.4695 52.3324C19.5612 55.0835 21.8517 57.2839 24.6004 57.2839H24.7837C27.6241 57.1925 29.8229 54.8082 29.7312 51.9657C29.6398 49.2146 27.349 47.0141 24.6004 47.0141H24.4173C24.2339 47.0141 23.9588 47.0141 23.776 47.1056C20.0194 40.8703 18.4618 34.085 19.0117 26.7492C19.3778 21.2474 21.2105 16.4791 24.4173 12.536C27.0742 9.14326 32.2051 7.49275 35.687 7.40127C45.3988 7.21776 49.5216 19.3216 49.7967 24.1817C50.9878 24.4567 53.0035 25.0987 54.378 25.5572C53.2783 10.7026 44.116 3 35.3205 3C27.0742 3 19.4695 8.96031 16.4458 17.7631C12.2313 29.5002 14.9799 40.7788 20.1108 49.6734C19.6529 50.3152 19.3778 51.3236 19.4695 52.3324Z" fill="#764ABC"/>
</svg>
